<?xml version="1.0" encoding="UTF-8" standalone="no"?>
<svg
   width="64"
   viewBox="0 0 64 64"
   height="64"
   version="1.1"
   id="svg7"
   sodipodi:docname="video-mp4.svg"
   inkscape:version="1.4 (e7c3feb1, 2024-10-09)"
   xmlns:inkscape="http://www.inkscape.org/namespaces/inkscape"
   xmlns:sodipodi="http://sodipodi.sourceforge.net/DTD/sodipodi-0.dtd"
   xmlns:xlink="http://www.w3.org/1999/xlink"
   xmlns="http://www.w3.org/2000/svg"
   xmlns:svg="http://www.w3.org/2000/svg">
  <sodipodi:namedview
     id="namedview7"
     pagecolor="#ffffff"
     bordercolor="#000000"
     borderopacity="0.25"
     inkscape:showpageshadow="2"
     inkscape:pageopacity="0.0"
     inkscape:pagecheckerboard="0"
     inkscape:deskcolor="#d1d1d1"
     inkscape:zoom="0.40625"
     inkscape:cx="29.538462"
     inkscape:cy="14.769231"
     inkscape:window-width="2048"
     inkscape:window-height="1227"
     inkscape:window-x="0"
     inkscape:window-y="25"
     inkscape:window-maximized="1"
     inkscape:current-layer="svg7" />
  <defs
     id="defs2">
    <linearGradient
       id="a"
       y1="392.36"
       y2="324.66"
       gradientUnits="userSpaceOnUse"
       x2="0"
       gradientTransform="matrix(1 0 0 .84587-1-272.73)">
      <stop
         stop-color="#ffffff"
         stop-opacity="0"
         id="stop1" />
      <stop
         offset="1"
         stop-color="#ffffff"
         stop-opacity=".2"
         id="stop2" />
    </linearGradient>
    <path
       color-rendering="auto"
       color-interpolation-filters="linearRGB"
       shape-rendering="auto"
       image-rendering="auto"
       text-rendering="auto"
       id="b"
       color-interpolation="sRGB"
       color="#000000"
       d="m3 17v44h58v-44h-18.455z" />
  </defs>
  <use
     fill="#209ae7"
     xlink:href="#b"
     id="use2" />
  <rect
     width="58"
     x="3"
     y="60"
     fill="#2e3132"
     height="1"
     fill-opacity=".294"
     id="rect2" />
  <g
     fill="#ffffff"
     id="g7">
    <rect
       width="58"
       x="3"
       y="17"
       height="1"
       fill-opacity=".41"
       id="rect3" />
    <path
       opacity=".75"
       d="m32 28.00002a11 11 0 0 0 -11 11 11 11 0 0 0 11 11 11 11 0 0 0 11 -11 11 11 0 0 0 -11 -11m.14453.95117a10 10 0 0 1 10 10 10 10 0 0 1 -10 10 10 10 0 0 1 -10 -10 10 10 0 0 1 10 -10"
       id="path3" />
    <g
       color-rendering="auto"
       color-interpolation-filters="linearRGB"
       shape-rendering="auto"
       image-rendering="auto"
       text-rendering="auto"
       color-interpolation="sRGB"
       color="#000000"
       id="g6">
      <path
         opacity=".75"
         d="m38.38 38.962l-10 5.538v-11z"
         id="path4" />
      <path
         opacity=".75"
         d="m55 19v4h4v-4zm0 6v4h4v-4zm0 6v4h4v-4zm0 6v4h4v-4zm0 6v4h4v-4zm0 6v4h4v-4zm0 6v4h4v-4z"
         id="path5" />
      <path
         opacity=".75"
         d="m5 19v4h4v-4zm0 6v4h4v-4zm0 6v4h4v-4zm0 6v4h4v-4zm0 6v4h4v-4zm0 6v4h4v-4zm0 6v4h4v-4z"
         id="path6" />
    </g>
  </g>
  <use
     fill="url(#a)"
     xlink:href="#b"
     id="use7" />
</svg>
