<?xml version="1.0" encoding="UTF-8" standalone="no"?>
<!-- Created with Inkscape (http://www.inkscape.org/) -->

<svg
   width="200mm"
   height="44mm"
   viewBox="0 0 200 44"
   version="1.1"
   id="svg695"
   inkscape:version="1.2.1 (9c6d41e4, 2022-07-14)"
   sodipodi:docname="cva_member.svg"
   xmlns:inkscape="http://www.inkscape.org/namespaces/inkscape"
   xmlns:sodipodi="http://sodipodi.sourceforge.net/DTD/sodipodi-0.dtd"
   xmlns="http://www.w3.org/2000/svg"
   xmlns:svg="http://www.w3.org/2000/svg">
  <sodipodi:namedview
     id="namedview697"
     pagecolor="#ffffff"
     bordercolor="#999999"
     borderopacity="1"
     inkscape:showpageshadow="0"
     inkscape:pageopacity="0"
     inkscape:pagecheckerboard="0"
     inkscape:deskcolor="#d1d1d1"
     inkscape:document-units="mm"
     showgrid="false"
     inkscape:zoom="0.79117142"
     inkscape:cx="333.05045"
     inkscape:cy="142.19422"
     inkscape:window-width="1792"
     inkscape:window-height="1067"
     inkscape:window-x="0"
     inkscape:window-y="25"
     inkscape:window-maximized="1"
     inkscape:current-layer="layer1" />
  <defs
     id="defs692" />
  <g
     inkscape:label="Layer 1"
     inkscape:groupmode="layer"
     id="layer1"
     transform="translate(176.64507,-55.318436)">
    <g
       id="g963"
       transform="translate(5.1557699,3.0684363)">
      <path
         d="m -172.83291,74.253272 c -7.9e-4,-1.818217 0.32623,-3.621352 0.96573,-5.323417 l -3.33375,-1.926166 c -2.09576,5.056716 -1.90288,10.772775 0.52917,15.676562 l 3.30464,-1.907646 c -0.96943,-2.036233 -1.47028,-4.264025 -1.46579,-6.519333 z"
         fill="#ed1c24"
         id="path136"
         style="stroke-width:0.264583" />
      <g
         transform="matrix(0.26458333,0,0,0.26458333,-190.56407,42.531124)"
         id="g162">
        <path
           d="m 229.93,85 c 0,-21.647 10.153,-32.47 30.46,-32.47 4.352,-0.014 8.683,0.599 12.86,1.82 4.133,1.22 6.2,2.74 6.2,4.56 0,1.333 -0.713,3.097 -2.14,5.29 -1.427,2.193 -2.69,3.287 -3.79,3.28 -0.662,-0.172 -1.302,-0.417 -1.91,-0.73 -3.627,-1.552 -7.547,-2.299 -11.49,-2.19 -10.52,0 -15.78,6.887 -15.78,20.66 0,13.773 5.2,20.66 15.6,20.66 4.345,0.006 8.64,-0.929 12.59,-2.74 0.751,-0.396 1.547,-0.702 2.37,-0.91 1.28,0 2.497,1.05 3.65,3.15 0.933,1.444 1.525,3.083 1.73,4.79 0,2.433 -2.25,4.32 -6.75,5.66 -4.409,1.321 -8.987,1.995 -13.59,2 -10.213,0 -17.767,-2.667 -22.66,-8 -4.893,-5.333 -7.343,-13.61 -7.35,-24.83 z"
           fill="#2c3e50"
           id="path138" />
        <path
           d="M 287.94,114.36 V 85.45 c 0.088,-3.203 -0.096,-6.408 -0.55,-9.58 -0.25,-1.081 -0.433,-2.177 -0.55,-3.28 0,-0.973 1.233,-1.703 3.7,-2.19 1.815,-0.406 3.662,-0.65 5.52,-0.73 0.824,-0.072 1.653,0.052 2.42,0.36 0.44,0.271 0.788,0.668 1,1.14 0.24,0.52 0.43,0.94 0.55,1.28 0.176,0.553 0.313,1.118 0.41,1.69 0.15,0.79 0.26,1.28 0.32,1.46 2.553,-4.62 5.867,-6.93 9.94,-6.93 1.947,0 3.3,0.5 4.06,1.5 0.751,0.981 1.153,2.185 1.14,3.42 -0.057,1.626 -0.332,3.237 -0.82,4.79 -0.547,1.913 -1.213,2.87 -2,2.87 -0.651,-0.049 -1.295,-0.169 -1.92,-0.36 -0.771,-0.223 -1.568,-0.348 -2.37,-0.37 -3.04,0 -5.47,1.52 -7.29,4.56 v 29.27 c 0,1.947 -1.823,2.92 -5.47,2.92 h -2.55 c -3.693,0 -5.54,-0.97 -5.54,-2.91 z"
           fill="#2c3e50"
           id="path140" />
        <path
           d="m 316.57,71.22 c 0,-1.333 1.853,-2 5.56,-2 h 2.92 c 2.98,0 4.683,0.64 5.11,1.92 L 335.54,88 c 0.547,1.7 1.397,5.367 2.55,11 h 0.36 c 1.22,-5.84 2.07,-9.507 2.55,-11 l 5.38,-16.87 c 0.427,-1.273 2.13,-1.913 5.11,-1.92 h 2.19 c 3.647,0 5.47,0.667 5.47,2 -0.02,0.556 -0.111,1.107 -0.27,1.64 L 338,134 c -0.487,1.273 -2.19,1.913 -5.11,1.92 h -1.55 c -3.647,0 -5.47,-0.64 -5.47,-1.92 0.003,-0.566 0.125,-1.125 0.36,-1.64 L 332,117.09 317,72.86 c -0.199,-0.53 -0.344,-1.08 -0.43,-1.64 z"
           fill="#2c3e50"
           id="path142" />
        <path
           d="M 365.91,133 V 85.45 c 0.089,-3.203 -0.095,-6.408 -0.55,-9.58 -0.25,-1.081 -0.434,-2.176 -0.55,-3.28 0,-0.973 1.23,-1.703 3.69,-2.19 1.815,-0.406 3.662,-0.65 5.52,-0.73 0.824,-0.072 1.653,0.052 2.42,0.36 0.439,0.272 0.787,0.669 1,1.14 0.207,0.43 0.391,0.87 0.55,1.32 0.165,0.539 0.302,1.086 0.41,1.64 0.153,0.727 0.26,1.183 0.32,1.37 1.145,-2.057 2.833,-3.759 4.88,-4.92 2.226,-1.297 4.764,-1.961 7.34,-1.92 5.047,0 9.15,2.173 12.31,6.52 3.16,4.347 4.74,10.347 4.74,18 0,7.633 -1.687,13.653 -5.06,18.06 -3.373,4.407 -8.1,6.61 -14.18,6.61 -3.324,0.08 -6.585,-0.912 -9.3,-2.83 v 18 c 0,1.947 -1.823,2.92 -5.47,2.92 h -2.55 c -3.68,-0.04 -5.52,-1.02 -5.52,-2.94 z m 19.88,-25.81 c 5.653,0 8.48,-4.577 8.48,-13.73 0,-9.153 -2.46,-13.74 -7.38,-13.76 -2.92,0 -5.413,1.793 -7.48,5.38 v 20.34 c 1.941,1.12 4.139,1.716 6.38,1.73 z"
           fill="#2c3e50"
           id="path144" />
        <path
           d="m 435.59,107.15 2.46,-0.37 c 0.787,0 1.453,0.897 2,2.69 0.44,1.253 0.715,2.557 0.82,3.88 0,2.98 -2.917,4.47 -8.75,4.47 -8.88,0 -13.32,-4.923 -13.32,-14.77 v -23 h -1.46 c -1.827,0 -2.74,-1.52 -2.74,-4.56 V 74 c 0,-3.04 0.913,-4.56 2.74,-4.56 h 1.46 l 1.2,-8.71 c 0.307,-1.947 1.95,-2.92 4.93,-2.92 h 2.83 c 3.04,0 4.56,0.973 4.56,2.92 v 8.66 h 4.47 c 1.827,0 2.74,1.52 2.74,4.56 v 1.55 c 0,3.04 -0.913,4.56 -2.74,4.56 h -4.49 v 23.17 c 0,2.613 1.097,3.92 3.29,3.92 z"
           fill="#2c3e50"
           id="path146" />
        <path
           d="m 452.46,111.48 c -3.767,-4.227 -5.65,-10.323 -5.65,-18.29 0,-7.967 1.883,-14.03 5.65,-18.19 3.767,-4.193 9.27,-6.29 16.51,-6.29 7.24,0 12.727,2.097 16.46,6.29 3.713,4.167 5.57,10.233 5.57,18.2 0,7.967 -1.87,14.063 -5.61,18.29 -3.74,4.227 -9.227,6.34 -16.46,6.34 -7.233,0 -12.723,-2.117 -16.47,-6.35 z m 8,-18.24 c 0,9.273 2.813,13.91 8.44,13.91 5.627,0 8.44,-4.637 8.44,-13.91 0,-9.273 -2.813,-13.91 -8.44,-13.91 -5.627,0 -8.43,4.637 -8.41,13.91 z"
           fill="#2c3e50"
           id="path148" />
        <path
           d="m 517.21,55.08 c 0,-1.333 1.853,-2 5.56,-2 h 3 c 3.04,0 4.833,0.88 5.38,2.64 l 13.33,42.68 h 0.37 l 13.68,-42.68 c 0.607,-1.76 2.4,-2.64 5.38,-2.64 h 2.83 c 3.647,0 5.47,0.667 5.47,2 -0.011,0.557 -0.102,1.109 -0.27,1.64 l -19.7,58.64 c -0.427,1.273 -2.13,1.913 -5.11,1.92 h -4.74 c -2.98,0 -4.683,-0.64 -5.11,-1.92 l -19.7,-58.64 c -0.179,-0.532 -0.304,-1.082 -0.37,-1.64 z"
           fill="#2c3e50"
           id="path150" />
        <path
           d="m 576.85,104.51 c -0.013,-1.562 0.141,-3.121 0.46,-4.65 0.409,-1.623 1.121,-3.153 2.1,-4.51 1.129,-1.656 2.629,-3.026 4.38,-4 4.313,-2.553 10.727,-3.83 19.24,-3.83 v -3 c 0,-3.467 -2.37,-5.2 -7.11,-5.2 -3.375,0.005 -6.707,0.753 -9.76,2.19 -0.611,0.314 -1.255,0.559 -1.92,0.73 -0.913,0 -1.93,-0.943 -3.05,-2.83 -0.919,-1.308 -1.5,-2.823 -1.69,-4.41 0,-1.64 1.687,-3.1 5.06,-4.38 3.971,-1.377 8.158,-2.027 12.36,-1.92 13.073,0 19.61,5.077 19.61,15.23 V 101 c -0.036,3.169 0.148,6.336 0.55,9.48 l 0.55,3.74 c 0,0.973 -1.23,1.703 -3.69,2.19 -1.815,0.407 -3.662,0.651 -5.52,0.73 -0.824,0.072 -1.653,-0.051 -2.42,-0.36 -0.457,-0.292 -0.807,-0.723 -1,-1.23 -0.24,-0.58 -0.43,-1 -0.55,-1.37 -0.181,-0.582 -0.318,-1.177 -0.41,-1.78 -0.15,-0.85 -0.26,-1.37 -0.32,-1.55 -1.347,2.17 -3.316,3.884 -5.65,4.92 -2.392,1.262 -5.046,1.947 -7.75,2 -4.667,0 -8.087,-1.217 -10.26,-3.65 -2.173,-2.433 -3.243,-5.637 -3.21,-9.61 z m 13.41,-1.37 c -0.048,1.1 0.387,2.166 1.19,2.92 1.006,0.801 2.278,1.19 3.56,1.09 1.685,-0.037 3.315,-0.611 4.65,-1.64 1.472,-1.038 2.636,-2.455 3.37,-4.1 v -5 c -8.513,-0.013 -12.77,2.23 -12.77,6.73 z"
           fill="#2c3e50"
           id="path152" />
        <path
           d="m 645.25,107.15 2.46,-0.37 c 0.787,0 1.453,0.897 2,2.69 0.439,1.253 0.715,2.557 0.82,3.88 0,2.98 -2.92,4.47 -8.76,4.47 -8.88,0 -13.32,-4.923 -13.32,-14.77 v -51.8 c 0,-1.947 1.823,-2.92 5.47,-2.92 h 2.55 c 3.647,0 5.47,0.973 5.47,2.92 v 52 c 0.04,2.6 1.143,3.9 3.31,3.9 z"
           fill="#2c3e50"
           id="path154" />
        <path
           d="m 672.34,107.15 2.46,-0.37 c 0.787,0 1.453,0.897 2,2.69 0.44,1.253 0.715,2.557 0.82,3.88 0,2.98 -2.92,4.47 -8.76,4.47 -8.88,0 -13.317,-4.923 -13.31,-14.77 v -51.8 c 0,-1.947 1.823,-2.92 5.47,-2.92 h 2.55 c 3.647,0 5.47,0.973 5.47,2.92 v 52 c 0.013,2.6 1.113,3.9 3.3,3.9 z"
           fill="#2c3e50"
           id="path156" />
        <path
           d="m 686.61,111.39 c -3.92,-4.287 -5.88,-10.473 -5.88,-18.56 0,-8.087 1.96,-14.137 5.88,-18.15 3.92,-4 9.3,-6 16.14,-6 6.84,0 11.84,2.19 15,6.57 3.193,4.38 4.79,10.047 4.79,17 0,0.727 -0.623,1.807 -1.87,3.24 -1.247,1.433 -2.173,2.147 -2.78,2.14 h -23.21 c 0.3,3.467 1.333,5.93 3.1,7.39 1.917,1.512 4.311,2.289 6.75,2.19 2.677,0.011 5.334,-0.467 7.84,-1.41 2.493,-0.94 3.77,-1.41 3.83,-1.41 0.913,0 1.93,0.897 3.05,2.69 0.918,1.245 1.5,2.705 1.69,4.24 0,2 -1.9,3.597 -5.7,4.79 -3.46,1.13 -7.071,1.73 -10.71,1.78 -8.027,-0.047 -14,-2.213 -17.92,-6.5 z m 22.85,-22.85 c 0.115,-2.345 -0.455,-4.673 -1.64,-6.7 -1.072,-1.662 -2.955,-2.621 -4.93,-2.51 -4.5,0 -7.237,3.07 -8.21,9.21 z"
           fill="#2c3e50"
           id="path158" />
        <path
           d="m 727,71.22 c 0,-1.333 1.853,-2 5.56,-2 h 2.92 c 2.98,0 4.683,0.64 5.11,1.92 L 745.93,88 c 0.547,1.7 1.397,5.367 2.55,11 h 0.36 c 1.22,-5.84 2.07,-9.507 2.55,-11 l 5.38,-16.87 c 0.427,-1.273 2.13,-1.913 5.11,-1.92 h 2.19 c 3.647,0 5.47,0.667 5.47,2 -0.02,0.556 -0.111,1.107 -0.27,1.64 L 748.4,134 c -0.487,1.273 -2.19,1.913 -5.11,1.92 h -1.55 c -3.647,0 -5.47,-0.64 -5.47,-1.92 0.003,-0.566 0.125,-1.125 0.36,-1.64 l 5.75,-15.23 -15,-44.23 c -0.185,-0.545 -0.313,-1.108 -0.38,-1.68 z"
           fill="#2c3e50"
           id="path160" />
      </g>
      <path
         d="m -159.58522,59.193189 v -3.839104 c -5.69807,0.592402 -10.82543,3.722423 -13.95677,8.519583 l 3.29935,1.912937 c 2.43946,-3.627702 6.32222,-6.029854 10.65742,-6.593416 z"
         fill="#ed1c24"
         id="path164"
         style="stroke-width:0.264583" />
      <path
         d="m -156.04509,89.358334 v 3.823229 c 5.31759,-0.45085 10.19995,-3.118643 13.45141,-7.350124 l -3.3311,-1.923521 c -2.52863,3.073135 -6.16294,5.030523 -10.12031,5.450416 z"
         fill="#ed1c24"
         id="path166"
         style="stroke-width:0.264583" />
      <path
         d="m -142.58309,73.988689 c 0.002,2.314575 -0.52864,4.598723 -1.55046,6.675437 l 3.302,1.907646 c 2.5355,-4.988454 2.73791,-10.84236 0.55298,-15.994062 l -3.33375,1.92352 c 0.68103,1.749425 1.03002,3.61024 1.02923,5.487459 z"
         fill="#ed1c24"
         id="path168"
         style="stroke-width:0.264583" />
      <path
         d="m -145.14426,65.638439 3.30994,-1.910292 c -3.21019,-4.818327 -8.44154,-7.910777 -14.21077,-8.400521 v 3.820584 c 4.4061,0.470693 8.38702,2.841096 10.90083,6.490229 z"
         fill="#ed1c24"
         id="path170"
         style="stroke-width:0.264583" />
      <path
         d="m -169.46741,83.778272 -3.32316,1.915583 c 3.17711,4.214284 7.96369,6.917267 13.21329,7.46125 v -3.84175 c -3.88752,-0.499269 -7.43162,-2.482585 -9.89013,-5.535083 z"
         fill="#ed1c24"
         id="path172"
         style="stroke-width:0.264583" />
      <path
         d="m -157.18016,80.489501 c -2.82945,0.0016 -5.30727,-1.898121 -6.03991,-4.631002 -0.73263,-2.733146 0.46223,-5.617369 2.91307,-7.031566 2.45083,-1.413934 5.54593,-1.004888 7.54538,0.997214 l 2.29923,-2.299229 c -3.6822,-3.685117 -9.64512,-3.717925 -13.3678,-0.07355 -3.72243,3.644371 -3.81609,9.606756 -0.20982,13.36622 3.60601,3.75973 9.56707,3.914246 13.36331,0.346605 l -2.29923,-2.29923 c -1.14935,1.047486 -2.64901,1.627188 -4.20423,1.624542 z"
         fill="#ed1c24"
         id="path174"
         style="stroke-width:0.264583" />
      <g
         aria-label="Member"
         id="text179"
         style="font-weight:bold;font-size:49px;font-family:'PT Sans';white-space:pre;fill:#2c3e50"
         transform="matrix(0.26458333,0,0,0.26458333,-186.81349,50.969939)">
        <path
           d="m 249.26599,139.32399 0.735,-6.811 h -0.294 l -2.107,5.488 -7.301,12.789 h -2.156 l -7.693,-12.838 -2.156,-5.439 h -0.245 l 0.98,6.762 v 17.836 h -6.37 v -34.3 h 6.125 l 9.163,15.68 1.617,3.92 h 0.196 l 1.47,-4.018 8.673,-15.582 h 6.076 v 34.3 h -6.713 z"
           id="path609" />
        <path
           d="m 281.31196,155.00399 q -1.47,1.176 -4.018,2.009 -2.499,0.784 -5.341,0.784 -5.929,0 -8.673,-3.43 -2.744,-3.479 -2.744,-9.506 0,-6.468 3.087,-9.702 3.087,-3.234 8.673,-3.234 1.862,0 3.626,0.49 1.764,0.49 3.136,1.617 1.372,1.127 2.205,3.038 0.833,1.911 0.833,4.753 0,1.029 -0.147,2.205 -0.098,1.176 -0.343,2.45 h -14.7 q 0.147,3.087 1.568,4.655 1.47,1.568 4.704,1.568 2.009,0 3.577,-0.588 1.617,-0.637 2.45,-1.274 z m -9.114,-17.983 q -2.499,0 -3.724,1.519 -1.176,1.47 -1.421,3.969 h 9.114 q 0.196,-2.646 -0.833,-4.067 -0.98,-1.421 -3.136,-1.421 z"
           id="path611" />
        <path
           d="m 300.51993,157.11099 v -13.328 q 0,-3.381 -0.637,-4.802 -0.637,-1.421 -2.646,-1.421 -1.666,0 -2.695,0.931 -1.029,0.882 -1.568,2.303 v 16.317 h -6.37 v -24.5 h 4.949 l 0.735,3.234 h 0.196 q 1.127,-1.568 2.842,-2.744 1.764,-1.176 4.508,-1.176 2.352,0 3.822,0.98 1.519,0.931 2.352,3.185 1.127,-1.911 2.891,-3.038 1.764,-1.127 4.263,-1.127 2.058,0 3.479,0.49 1.47,0.49 2.352,1.715 0.931,1.176 1.372,3.185 0.441,2.009 0.441,5.096 v 14.7 h -6.37 v -13.769 q 0,-2.891 -0.637,-4.312 -0.588,-1.47 -2.695,-1.47 -1.715,0 -2.744,0.931 -0.98,0.931 -1.47,2.548 v 16.072 z"
           id="path613" />
        <path
           d="m 326.04885,122.81099 h 6.37 v 11.76 h 0.196 q 1.029,-1.176 2.646,-1.862 1.617,-0.686 3.577,-0.686 4.41,0 6.713,3.038 2.352,2.989 2.352,9.163 0,6.615 -3.283,10.045 -3.234,3.43 -8.918,3.43 -3.136,0 -5.733,-0.539 -2.597,-0.49 -3.92,-1.127 z m 10.927,14.602 q -1.764,0 -2.891,0.931 -1.078,0.882 -1.666,2.597 v 10.682 q 0.784,0.392 1.666,0.539 0.931,0.147 1.96,0.147 2.597,0 3.92,-1.862 1.372,-1.911 1.372,-6.027 0,-7.007 -4.361,-7.007 z"
           id="path615" />
        <path
           d="m 371.91282,155.00399 q -1.47,1.176 -4.018,2.009 -2.499,0.784 -5.341,0.784 -5.929,0 -8.673,-3.43 -2.744,-3.479 -2.744,-9.506 0,-6.468 3.087,-9.702 3.087,-3.234 8.673,-3.234 1.862,0 3.626,0.49 1.764,0.49 3.136,1.617 1.372,1.127 2.205,3.038 0.833,1.911 0.833,4.753 0,1.029 -0.147,2.205 -0.098,1.176 -0.343,2.45 h -14.7 q 0.147,3.087 1.568,4.655 1.47,1.568 4.704,1.568 2.009,0 3.577,-0.588 1.617,-0.637 2.45,-1.274 z m -9.114,-17.983 q -2.499,0 -3.724,1.519 -1.176,1.47 -1.421,3.969 h 9.114 q 0.196,-2.646 -0.833,-4.067 -0.98,-1.421 -3.136,-1.421 z"
           id="path617" />
        <path
           d="m 390.72879,138.58899 q -1.519,-0.539 -2.744,-0.539 -1.715,0 -2.891,0.931 -1.127,0.882 -1.519,2.303 v 15.827 h -6.37 v -24.5 h 4.949 l 0.735,3.234 h 0.196 q 0.833,-1.813 2.254,-2.793 1.421,-0.98 3.332,-0.98 1.274,0 2.891,0.539 z"
           id="path619" />
      </g>
    </g>
  </g>
</svg>
