<?xml version="1.0" encoding="UTF-8" standalone="no"?>
<!-- Created with Inkscape (http://www.inkscape.org/) -->

<svg
   width="282.53247mm"
   height="104.45898mm"
   viewBox="0 0 282.53247 104.45898"
   version="1.1"
   id="svg5"
   inkscape:version="1.1.1 (c3084ef, 2021-09-22)"
   sodipodi:docname="kenshi.textual.svg"
   xmlns:inkscape="http://www.inkscape.org/namespaces/inkscape"
   xmlns:sodipodi="http://sodipodi.sourceforge.net/DTD/sodipodi-0.dtd"
   xmlns="http://www.w3.org/2000/svg"
   xmlns:svg="http://www.w3.org/2000/svg">
  <sodipodi:namedview
     id="namedview7"
     pagecolor="#ffffff"
     bordercolor="#999999"
     borderopacity="1"
     inkscape:pageshadow="0"
     inkscape:pageopacity="0"
     inkscape:pagecheckerboard="0"
     inkscape:document-units="mm"
     showgrid="false"
     fit-margin-top="0"
     fit-margin-left="0"
     fit-margin-right="0"
     fit-margin-bottom="0"
     inkscape:zoom="0.60756173"
     inkscape:cx="531.63322"
     inkscape:cy="471.55702"
     inkscape:window-width="1792"
     inkscape:window-height="1067"
     inkscape:window-x="0"
     inkscape:window-y="25"
     inkscape:window-maximized="1"
     inkscape:current-layer="text1398" />
  <defs
     id="defs2" />
  <g
     inkscape:label="Layer 1"
     inkscape:groupmode="layer"
     id="layer1"
     transform="translate(4.9416851,-23.939156)">
    <g
       aria-label="Kenshi"
       id="text1398"
       style="font-weight:600;font-size:109.361px;line-height:1.25;font-family:'Baloo 2';-inkscape-font-specification:'Baloo 2 Semi-Bold';fill:#bb3321;stroke-width:0.264583">
      <path
         d="m 7.3975723,94.265541 q 0.1601968,-0.373793 -0.1067979,-0.213596 0,0 0,0.213596 z m -1.3883721,3.898122 q -0.1067978,0.640787 -0.1067978,0.694186 0,0.213595 0.053399,0.213595 0.1601968,0 0.2135957,-0.320393 0,0.106798 0.053399,-0.266995 0.053399,-0.160197 0.053399,-0.213596 0.053399,-0.533989 -0.053399,-0.587388 -0.1067978,0.213596 -0.1067978,0.213596 -0.053399,0.0534 -0.1067981,0.266995 z M 42.053475,48.182268 q 0.640787,-0.694186 1.762165,-1.174776 1.067978,-0.480591 3.310733,-1.708766 0.48059,-0.266995 0.694186,-0.266995 0.694186,-0.0534 2.189356,-0.854382 1.067979,-0.53399 1.174776,-0.587389 0.587389,-0.320393 1.228176,-0.266994 0.106798,0 0.266994,0.0534 0.160197,0.0534 0.213596,0.0534 0.587388,0.0534 1.121378,0.694186 0.427191,0.48059 1.067978,0.266994 0.106798,-0.0534 0.48059,-0.0534 0.160197,-0.0534 0.266995,0.160197 0.106798,0.213596 0,0.373793 -0.266995,0.373792 -1.868962,2.883542 -0.373793,0.533989 0.213595,0.48059 0.907782,-0.106798 1.441771,0.0534 0.480591,0.160197 0.160197,0.587388 -1.708766,2.189356 -2.456351,3.150537 -0.48059,0.587388 -0.694186,1.121377 v 0 q 0.640788,-0.373792 0.640788,-0.427191 0.747585,-0.427192 1.067978,0.0534 0,0.0534 0.266995,0.373792 -0.320394,1.334973 -1.655367,2.296154 -0.427191,0.373792 -1.174776,0.907782 -0.907782,0.694186 -1.174777,0.854382 -1.97576,1.49517 -3.203935,1.762165 -0.106798,0.0534 -0.907782,0.533989 -0.640787,0.373793 -1.868962,1.067979 -1.228176,0.747585 -1.815564,1.121377 -0.48059,0.266995 -1.174776,0.373793 v 0.0534 q -0.373793,-0.373793 -0.854383,-0.106798 -0.160197,0.106798 -0.320394,0.266994 -0.213595,0.0534 -0.373792,0.266995 l -0.106798,0.106798 q -0.747585,0.213596 -1.01458,0.427191 l -0.0534,0.0534 q -2.189356,0.800984 -3.791324,1.868963 -1.548569,1.014579 -4.218515,2.669946 -3.203936,1.922361 -4.218516,2.616547 0.106798,-0.106798 -1.388372,0.747585 -5.553488,3.150537 -6.995259,3.951521 -0.48059,0.266994 -1.601968,1.067978 -0.694186,0.480591 -0.533989,1.388372 0.160197,0.53399 0.533989,1.01458 0.106798,0.106798 1.334974,1.49517 l 0.0534,0.0534 q 1.762165,2.242755 1.975761,2.45635 0.373792,0.320394 0.48059,0.800984 0.160197,0.747585 0.533989,1.228176 2.883542,3.47093 5.50009,9.238014 0,0.0534 0.320393,0.587388 l 0.106798,0.160197 q 0.213596,0.160196 0.48059,-0.0534 h -0.0534 q 0.587389,0.373792 0.747585,0.854383 1.281575,3.257334 1.441771,3.898121 0.160197,0.907783 0.587389,1.762173 0.160196,0.42719 1.067978,3.09713 0.160197,0.4272 0.0534,0.90779 -0.106798,0.48059 0,0.74758 0.0534,0.42719 0.533989,1.76217 0.747585,2.40295 0.854383,2.66994 0.373793,0.96118 0.0534,2.88354 -0.533989,0.64079 0.0534,1.54857 0.320394,0.48059 -0.48059,0.58739 h -0.266995 q -1.067979,0.1602 -0.854383,1.12138 0.0534,0.26699 0.213596,0.80098 0.160197,0.48059 0.213596,0.80099 0.0534,0.21359 -0.213596,0.42719 -0.213596,0.16019 -0.48059,0.1068 -0.266995,-0.1602 -0.373793,-0.267 -0.266995,-0.48059 -0.640787,-1.17478 -0.266995,-0.53398 -0.907782,-1.01458 -0.427191,-0.32039 -0.907782,0 -1.067978,0.69419 -2.296153,-0.10679 -0.427192,-0.267 -0.640787,-0.64079 -0.53399,-0.85438 -1.815564,-0.90778 0,0 -0.213596,0 -0.373792,-0.1068 -0.800983,-0.48059 -0.160197,-0.1602 -0.266995,-0.37379 -2.402952,-3.95153 -2.830143,-4.69911 -0.587388,-1.01458 -1.174777,-2.45635 -0.266994,-0.74759 -1.548568,-3.73793 -0.961181,-2.29615 -1.49517,-3.791324 0.160196,0.373792 -0.907782,-2.082558 -0.213596,-0.480591 -0.747585,-1.334974 -0.48059,-0.800983 -0.694186,-1.281574 -0.160197,-0.373792 -1.334973,-2.669946 -0.213596,-0.373793 -0.480591,-0.48059 -0.320393,-0.106798 -0.427191,0.160196 -0.694186,1.281575 -1.1747763,2.883542 -0.4271914,1.174777 -1.0145796,2.135957 -0.3203936,0.480591 -0.4805903,0.907782 -0.8543829,2.936941 -0.6941861,2.456351 -0.6407871,1.548568 -0.9077817,2.456348 -0.1601968,0.53399 -0.4805904,0.90778 -0.1067978,0.0534 -0.2669946,0.0534 -0.1067978,0.0534 -0.1601968,-0.0534 -0.1067978,-0.1068 -0.1067978,-0.2136 0,-0.10679 0,-0.37379 0,-0.26699 0,-0.37379 0,-0.0534 -0.1067979,-0.1602 -0.053399,-0.1068 -0.1067978,0.0534 -1.3883721,3.79132 -1.7621646,6.19428 -0.2135957,1.33497 -0.8009839,2.40295 -0.2669946,0.4806 -1.5485688,3.36413 -0.10679785,0.2136 -0.32039355,0.58739 -0.21359571,0.37379 -0.26699463,0.58739 -0.32039356,0.69418 -0.42719141,0.96118 -0.10679785,0.58739 -0.58738818,1.70876 -0.48059033,1.12138 -0.58738823,1.65537 -0.053399,0.16021 -0.4805903,0.64079 -0.1601968,0.21359 -0.4805903,0.16019 -0.2669947,-0.0534 -0.3737925,-0.26699 -0.3737925,-1.17478 -0.1601968,-2.61655 0.1067979,-1.06798 -0.2135957,-3.36413 0,-0.0534 -0.1601968,-0.42719 0,-0.2136 0.1601968,-1.06798 0.1067979,-0.64079 0.1067979,-1.06798 -0.053399,-0.1602 -0.1601968,-0.1068 -0.1067979,0.1602 -0.1601968,0.2136 -0.3737925,1.49517 0.053399,2.02916 -0.2135957,0.1068 -0.2135957,0.1068 -0.5339892,0.26699 -0.9077817,-0.0534 -0.6407871,-0.64079 -0.5873882,-1.49517 0.1067979,-1.06798 0.2669946,-2.18936 0.5873882,-3.84472 0.5339893,-4.6991 0,-0.267 0.1601968,-1.22818 0.4271914,-2.45635 0.7475849,-4.485505 0.1601968,-0.907782 0.3203936,-1.228175 0.2669946,-0.747585 0.9611807,-3.737925 0.6407871,-3.150537 1.1213774,-4.432111 0.2135957,-0.427191 0.58738818,-2.242755 0.48059034,-2.402952 0.90778174,-3.417531 0.26699463,-0.694186 0.32039356,-1.228175 0.16019682,-0.747585 0.53398922,-1.868963 0.4805904,-1.441771 0.5873882,-1.868962 0.8543828,-3.203936 1.0679785,-3.684526 0.2135957,-0.48059 0.2669947,-0.961181 0.2135957,-1.922361 0.9077817,-3.737925 -0.053399,0.266995 0.1067979,-0.694186 0.053399,-0.587388 0.1601967,-0.747585 0.4805904,-0.907781 0.8009839,-2.45635 0.5339893,-2.669946 1.0145796,-3.951521 0.1067979,-0.266994 0.2669946,-1.228175 0.1067979,-0.640787 0.3203936,-0.961181 0.6407871,-0.907781 0.747585,-2.402951 0,-0.160197 -0.053399,-0.373793 0,-0.266994 0,-0.373792 -0.053399,-1.174777 0.3737925,-2.189356 0.1601968,-0.373793 0.5873882,-1.441771 0.3737925,-0.961181 0.6407871,-1.49517 0.5339893,-1.174776 1.6019673,-4.111717 0.480591,-1.281575 0.800984,-1.601968 0.907782,-2.135957 1.01458,-2.402952 0.106798,-0.320393 0.320393,-1.014579 0.320394,-1.334974 1.868963,-3.150537 0.373792,-0.48059 1.708765,-1.708766 0.213596,-0.213595 0.480591,-0.106798 0.160197,0.0534 0.747585,0.427192 0.533989,0.320393 1.174776,-0.106798 0.427192,-0.213596 0.533989,-0.587388 0,-0.106798 0,-0.266995 0.0534,-0.160197 0.0534,-0.213595 0.160197,-0.640788 0.427192,-0.53399 0.320393,0.106798 0.373792,0.53399 0.0534,0.213595 0,0.48059 0,0.48059 0.587388,0.587388 0.266995,0 0.213596,0.320394 -0.0534,1.334973 0.266995,1.868962 0.160196,0.213596 0.427191,0.160197 l 0.266995,-0.106798 q 1.067978,-0.160197 1.174776,0.800984 0.266995,1.97576 -0.160197,3.898121 -0.587388,2.99034 -1.121377,4.48551 -0.694186,1.868963 -0.640787,3.684526 0,0.800984 -0.160197,2.082558 -0.160197,1.655367 -0.160197,2.082558 -0.0534,0.373793 -0.266994,1.01458 -0.320394,1.014579 -0.694186,1.922361 -0.747585,1.922361 -0.854383,2.456351 -0.0534,0.106798 0.106798,0.213595 0.106797,0.0534 0.213595,0.0534 0.320394,-0.106797 0.480591,-0.213595 5.072898,-3.364133 5.767084,-3.898122 0.373792,-0.320393 2.936941,-1.97576 3.043738,-1.922361 3.95152,-2.776744 0.373793,-0.213596 1.334973,-0.961181 0.800984,-0.587388 1.334973,-0.854383 0.106798,-0.0534 0.907782,-0.587388 2.082558,-1.548569 4.058318,-2.723345 0.0534,-0.0534 1.548569,-1.01458 l 0.0534,-0.106798 q 0.106798,-0.106797 0.106798,-0.106797 0,-0.0534 -0.0534,-0.320394 z"
         style="font-weight:bold;font-family:Okami;-inkscape-font-specification:'Okami Bold'"
         id="path5431" />
      <path
         d="m 83.117248,108.20266 q 0.427192,-0.0534 0.0534,-0.1602 l -0.213595,0.0534 q 0.106797,0.0534 0.160195,0.1068 z M 68.806336,48.07547 q 1.388372,0.0534 2.776744,-0.427191 0.320394,-0.106798 0.320394,-0.266995 -0.0534,-0.0534 -0.213596,-0.0534 -0.747585,-0.0534 -2.029159,0.160197 -1.49517,0.213596 -1.97576,0.266995 -0.266995,0 -0.213596,0.160196 0.0534,0.213596 0.320394,0.160197 0.106797,0 1.014579,0 z m 31.985954,12.014758 q -0.961178,0.160197 -1.975758,0.53399 -0.800983,0.320393 -1.495169,0.48059 -0.694186,0.213596 -1.01458,0.160197 -0.854383,-0.160197 -2.99034,0.266994 0,0 -2.723345,0.427192 -0.587388,0.0534 -0.907782,-0.266995 -0.48059,-0.48059 -1.281574,-0.427191 -1.49517,0 -6.94186,0 -3.150537,-0.0534 -3.951521,-0.160197 -0.266995,0 -1.49517,0 -0.48059,0 -1.014579,0.0534 -0.213596,0 -0.854383,-0.106798 -0.480591,-0.106798 -0.854383,0 -0.160197,0.0534 -1.708766,0.266995 -0.800984,0.106798 -1.49517,0.106798 -0.266994,0 -1.014579,0.213595 -0.587388,0.106798 -0.854383,0.587388 -0.160197,0.213596 -0.427191,0.640788 -0.266995,0.48059 -0.427192,0.694186 -0.427191,0.587388 -0.533989,1.174776 0,-0.160197 -1.815564,5.660286 -0.0534,0.160197 -0.213595,0.587388 -0.160197,0.427192 -0.213596,0.640787 -0.213596,0.854383 -0.907782,1.601968 -0.373792,0.427192 0.106798,0.587388 0.533989,0.160197 0.427192,0.160197 1.174776,0.0534 1.762164,0.0534 1.97576,0.0534 3.150537,0.266995 1.49517,0.320393 2.936941,-0.106798 0.854382,-0.213596 2.029159,-0.213596 1.067978,0 3.257334,-0.0534 0.53399,0 0.694186,-0.587388 0.106798,-0.213596 0.427192,-0.266995 0.213595,-0.0534 0.266994,-0.0534 1.922362,0.427192 2.563149,0.480591 0.160197,0.160197 2.029159,0.587388 1.388372,0.373792 1.067979,1.815563 -0.213596,1.281575 0.320393,2.082559 0.320394,0.373792 -0.160197,0.907781 -0.533989,0.587388 -1.97576,2.189356 -0.373792,0.427192 -0.533989,0.907782 1.228175,0.106798 1.388372,0.213596 0.106798,0.0534 0.160197,0.160196 0.160196,0.266995 -0.160197,0.373793 -0.373793,0.160197 -0.427192,0.320394 -0.160196,1.067978 -1.868962,2.135957 -0.48059,0.266994 -1.708766,0.800983 -2.082558,0.854383 -3.203935,0.694186 -0.213596,0 -0.747585,0.160197 -0.160197,0.0534 -1.441771,0.640787 -0.961181,0.480591 -1.762165,0.480591 -1.228175,0.0534 -2.776744,0.373792 -0.213595,0.0534 -1.228175,0.106798 -0.427191,0 -0.427191,-0.640787 0.0534,-0.160197 -0.106798,-0.160197 -2.296154,-0.106798 -4.699106,-0.160197 -0.587388,0 -3.257334,0.587389 -0.427192,0.106797 -0.53399,0.533989 -0.533989,2.082558 -0.640787,2.509749 -0.106798,0.640787 -0.373792,1.174777 -0.213596,0.48059 -0.266995,0.747585 -0.106798,0.800984 -0.48059,2.242755 -0.427192,1.495169 -0.48059,2.242754 -0.106798,0.640788 -0.480591,1.708766 -0.48059,1.334969 -0.533989,1.708769 -0.106798,0.32039 0.213596,0.26699 0.533989,-0.1602 0.48059,0.1068 -0.266995,1.33497 -0.266995,1.22817 -0.106797,0.64079 0.53399,0.69419 1.388372,0.1602 3.203935,-0.2136 0.694186,-0.10679 1.548569,-0.16019 0.694186,-0.1068 0.961181,0.48059 0.213595,0.42719 0.747585,0.42719 6.568068,0.0534 5.980679,0.0534 2.936941,0.0534 3.684526,0 1.174777,-0.0534 1.97576,0.1602 0.480591,0.21359 0.694187,0.16019 0.854382,-0.0534 3.524329,0.64079 1.601967,0.37379 2.830143,0.58739 0.160196,0 0.160196,0.16019 0,0.267 -0.320393,0.3738 -0.587388,0.21359 -0.694186,0.32039 -0.0534,0.1068 -0.0534,0.2136 0,0.16019 0.106798,0.16019 0.48059,0.1602 0.694186,0.1602 1.868962,0.0534 4.004919,0.0534 h 1.601968 q 1.01458,0 1.601968,0.0534 0.106798,0 0.694186,0.16019 0.266994,0.0534 0.213596,0.3738 -0.106798,0.32039 -0.266995,0.37379 0.0534,-0.0534 -1.01458,0.21359 0,0 -0.160196,0.1602 0.213595,0.0534 0.213595,0.0534 1.281574,0 2.50975,-0.26699 0.48059,-0.1068 0.587388,0.26699 0.213596,0.42719 0.800984,0.42719 0.48059,0 0.640787,0.53399 0.106798,0.42719 -0.213596,0.69419 -0.533989,0.48059 -1.121377,0.69418 -1.762165,0.58739 -2.883542,1.38838 -0.373793,0.26699 -0.961181,0.37379 -1.014579,0.16019 -2.776744,0.37379 -0.694186,0.1068 -0.961181,0 -0.800984,-0.2136 -2.509749,0.26699 0,0 -0.160197,0.1602 l 0.160197,0.1068 q 0.694186,0 2.349553,0 h 2.349552 q 0.106798,0 1.708766,0.0534 l 0.0534,0.0534 q 0.0534,0.48059 0.0534,0.48059 -0.0534,0.80098 -0.747585,0.96118 -1.655367,0.48059 -1.97576,0.48059 -0.587389,0.1068 -1.601968,0.26699 -1.174777,0.1602 -1.655367,0.267 -2.242755,0.26699 -4.218515,0.21359 -0.800984,-0.0534 -1.708766,0.3204 -1.601967,0.58739 -2.936941,1.01458 -0.800983,0.26699 -1.228175,0.16019 -0.854383,-0.0534 -2.242755,0.2136 -0.427191,0.0534 -1.762164,0.1602 -0.747585,0.0534 -1.174777,-0.53399 -0.320393,-0.3738 -0.907781,-0.0534 h 0.0534 -1.067979 0.0534 q -0.427191,-0.267 -0.907782,-0.267 -2.402951,-0.10679 -2.669946,-0.16019 -2.296154,-0.0534 -3.364132,-0.42719 -0.266995,-0.1068 -0.961181,-0.1068 -0.747585,-0.0534 -1.174776,0.42719 -0.480591,0.53399 -0.907782,0.48059 -0.587388,-0.1602 -4.325313,-0.58739 -0.533989,-0.0534 -1.281574,-0.53399 -0.587389,-0.37379 -1.121378,0.267 -0.106798,0.10679 -1.121377,1.86896 -0.106798,0.1602 -0.53399,0.58739 -0.106797,0.10679 -0.373792,0.10679 -0.213596,0 -0.266995,-0.16019 -0.160196,-0.53399 -0.266994,-0.90778 -0.160197,-0.69419 -0.854383,-0.48059 -0.373793,0.10679 -0.587388,-0.3204 -0.427192,-0.96118 -0.427192,-2.08256 0,-0.16019 0.0534,-0.74758 0.0534,-0.42719 0,-0.69419 0,-0.21359 -0.160197,-0.58739 -0.160196,-0.37379 -0.213595,-0.53398 0,-0.0534 -0.0534,-0.96118 0,-0.267 -0.587388,-0.1068 -0.213596,0.1068 -0.427192,-0.0534 -0.587388,-0.53399 -0.533989,-1.28158 0.0534,-1.06797 0.213596,-1.97576 0.533989,-3.25733 0.48059,-4.43211 0,-0.32039 0.160197,-1.22817 0.48059,-2.883544 0.800984,-4.752507 0.213595,-0.907781 0.373792,-1.49517 0.533989,-1.441771 1.067979,-3.95152 0.160196,-0.640787 0.266994,-0.961181 0.587388,-1.388372 1.067979,-3.684526 0.160197,-0.96118 0.373792,-1.49517 0.266995,-0.640787 0.800984,-2.45635 -0.106798,0.373792 0.480591,-1.49517 0.427191,-1.334973 0.533989,-1.708766 0.427191,-1.708765 0.747585,-2.45635 0.213595,-0.53399 0.266994,-0.961181 0.0534,-0.640787 0.320394,-1.655367 0.320393,-1.281574 0.427191,-1.601967 0.106798,-0.53399 0.213596,-0.694187 0.160197,-0.320393 0.854383,-2.723345 1.388372,-4.48551 1.601968,-5.126297 0.533989,-1.388372 0.373792,-2.45635 -0.106798,-0.907782 0.320394,-1.708766 0.640787,-1.334973 0.533989,-2.723345 0,-0.213596 0.213596,-0.48059 0.213595,-0.373793 0.48059,-0.587389 0.533989,-0.48059 1.01458,-1.601967 0.48059,-1.121378 0.373792,-2.402952 -0.0534,-0.373792 0.266995,-0.694186 0.48059,-0.533989 0.907781,-1.01458 0.640787,-0.587388 0.907782,-1.281574 0.213596,-0.533989 0.427192,-0.961181 0.747584,-1.281574 1.815563,-1.495169 0.800984,-0.160197 1.067979,-1.01458 0.0534,-0.266995 0.320393,-0.373793 0.266995,-0.106797 0.48059,0.0534 0.480591,0.373793 0.53399,0.427192 0.106798,0.106798 0.320393,0.320393 0.213596,0.266995 0.320394,0.320394 0.373792,0.373792 0.640787,0 0.694186,-0.907782 0.640787,-0.854383 0.266995,-0.320393 0.640787,-0.533989 0.854383,-0.427192 1.441771,-0.48059 0.694186,-0.0534 2.296154,-0.427192 4.058318,-1.014579 7.529248,-1.014579 0.854383,0.0534 7.95644,-0.0534 0.53399,0 1.49517,0 1.174777,-0.0534 1.975761,-0.373793 0.747585,-0.320393 1.495169,-0.213596 0.373793,0.106798 0.747585,0 1.281575,-0.320393 4.271915,-0.427191 0.48059,0 1.014579,0 0.320394,0 0.373793,-0.587388 0.0534,-0.213596 0.160196,-0.213596 0.53399,-0.160197 0.747585,-0.160197 2.02916,0 3.203928,0.0534 0.69419,0 1.17478,0.213596 0.90778,0.320394 1.92236,0.266995 1.54857,-0.160197 2.72335,1.067978 0.16019,0.160197 0.16019,0.427192 0,-0.0534 -0.0534,0.533989 -0.0534,0.48059 -0.0534,0.694186 0,0.427191 0.32039,0.587388 0.1068,0.0534 0.32039,0.160197 0.267,0.0534 0.3204,0.106798 0.21359,0.0534 0.21359,0.373792 0,0.320394 -0.16019,0.48059 -0.4272,0.480591 -0.58739,0.587389 -1.06798,0.800984 -1.06798,2.242755 0,0.373792 0.42719,0.48059 0.0534,0 0.2136,0 0.16019,0.0534 0.21359,0.0534 0.42719,0.160197 0.37379,0.533989 -0.0534,0.48059 -0.10679,0.747585 -0.1602,0.640787 -0.69419,1.121377 -1.22817,1.067979 -1.38837,1.281575 -0.48059,0.640787 -0.42719,1.655366 0,0.106798 0.16019,0.160197 -0.0534,0 0.4272,0.160197 0.53398,0.160197 0.53398,0.320393 0.0534,0.160197 -0.32039,0.694187 -0.1068,-0.266995 -0.32039,-0.266995 l -0.1602,0.106798 q 0.69419,0.213595 0.48059,0.160197 -0.26699,0.48059 -0.48059,0.587388 -0.85438,0.373792 -0.90778,0.48059 -1.12138,1.067979 -2.72335,1.655367 0,0 -0.42719,0.266994 z"
         style="font-weight:bold;font-family:Okami;-inkscape-font-specification:'Okami Bold'"
         id="path5433" />
      <path
         d="m 149.59891,55.337724 q 0.0534,-0.213596 0.0534,-0.213596 0.0534,-0.320393 0.0534,-0.48059 0,-0.160197 -0.0534,-0.106798 -0.53399,0.373793 -0.16019,0.907782 z m -5.17969,13.349731 q 0.42719,-0.427191 0.58739,-1.067978 0.0534,-0.160197 0.32039,-1.441771 0.42719,-0.48059 0.58739,-1.067979 0.1602,-0.694186 0.53399,-2.402951 0.42719,-0.587388 0.42719,-0.640787 0.2136,-0.480591 -0.0534,-0.53399 -0.0534,0.213596 -0.0534,0.266995 -0.0534,0.160197 -0.26699,0.961181 -0.48059,0.48059 -0.58739,1.067978 -0.0534,0.213596 -0.53399,2.402952 -0.48059,0.427191 -0.58739,1.067978 -0.0534,0.0534 -0.37379,1.388372 -0.48059,0.480591 -0.53399,1.067979 0,0.106798 0.0534,0.160197 0.1068,0.106798 0.1602,-0.0534 0.0534,-0.266995 0.32039,-1.174777 z m -12.06816,17.94204 q -0.42719,0.587388 -0.42719,0.640787 -0.2136,0.427191 0.0534,0.533989 0.0534,-0.213596 0.0534,-0.266995 0.0534,-0.106798 0.26699,-0.96118 0.0534,0 0.3204,-0.320394 -0.0534,0 -0.1068,-0.0534 0,-0.0534 -0.1602,0.427193 z m 8.75743,-27.34025 q 0.32039,-0.427192 0.32039,-0.427192 0.26699,-0.587388 1.12138,-2.669946 0.80098,-1.868963 0.80098,-1.922361 0.90778,-1.868963 1.17478,-3.150537 0.48059,-0.907782 0.10679,-2.135957 -0.32039,-0.961181 0.4272,-1.868963 0.48059,-0.640787 0.48059,-1.441771 0,-0.0534 0,-0.266994 0.21359,-0.587388 0.64078,-0.747585 0.64079,-0.266995 0.85439,-0.640787 0.10679,-0.213596 0.10679,-0.480591 0,-0.213595 -0.32039,-0.160196 -0.37379,0 -0.32039,-0.320394 0.10679,-0.533989 0.26699,-0.961181 0.3204,-0.747585 0.3204,-0.96118 -0.0534,-0.640787 0.53398,-1.97576 1.54857,-3.52433 1.54857,-3.577729 0.80099,-1.922361 1.70877,-3.257334 1.22817,-1.922361 1.54857,-3.310733 0.0534,-0.320394 0.26699,-0.747585 0.53399,-1.01458 1.17478,-1.441771 1.44177,-0.961181 2.02916,-1.334974 1.28157,-0.800983 1.86896,-1.548568 h 1.01458 q 0.32039,0.747585 0.74758,0.800984 0.90779,0.106797 1.65537,0.800983 0.2136,0.160197 0.69419,-0.0534 0.80098,-0.373792 0.48059,-0.213595 0.58739,-0.266995 0.69418,0.373792 0.0534,0.427192 -0.21359,0.747585 -0.37379,0.533989 -0.42719,0.640787 -0.0534,0.213596 0.0534,0.427192 0.10679,0.213595 0.42719,0.0534 0.21359,-0.0534 0.26699,-0.106798 0.53399,-0.160197 0.37379,0.427191 0,0.106798 -0.10679,0.266995 -0.0534,0.160197 -0.0534,0.213596 -0.3204,0.907781 0.58739,1.281574 0.37379,0.160197 0.32039,0.533989 -0.32039,1.815564 -0.267,1.441771 0.0534,-0.266995 -0.26699,2.723345 -0.0534,0.587388 -0.37379,0.961181 -1.01458,1.067978 -1.17478,2.563148 -0.1602,1.174777 -0.64079,1.922362 -0.69418,1.174776 -0.96118,2.402951 -0.10679,0.640787 -0.64078,1.121378 -0.53399,0.533989 -0.90779,1.334973 -1.33497,2.669946 -1.70876,4.592308 -0.2136,0.907781 -0.32039,1.495169 -0.2136,1.067979 -0.85439,1.922362 -0.42719,0.640787 -1.38837,3.097138 -0.58739,1.334973 -0.37379,0.96118 -0.2136,0.373793 -0.53399,0.587388 -0.69419,0.427192 -0.90778,0.961181 -1.97576,4.699105 -2.29616,6.354472 -0.0534,0.266995 -0.26699,0.961181 0,-0.0534 -1.97576,5.873882 -0.69419,2.189356 -2.40295,6.034078 -0.3204,0.747585 -1.06798,1.174777 0,0.0534 -0.1068,0.106798 -0.0534,0.0534 -0.1068,0.0534 -0.42719,0.266995 -0.58739,0.854383 -0.10679,0.266995 -0.37379,1.49517 -0.32039,1.174777 -0.32039,1.228175 -0.37379,0.800984 -1.17478,4.432111 -0.1068,0.480591 -0.21359,0.747585 -0.53399,1.334973 -1.49517,5.660286 -0.267,1.067979 -0.48059,1.708766 -0.64079,1.868962 -1.06798,4.48551 -0.42719,2.50975 -0.74759,4.21851 -0.21359,1.12138 -0.42719,1.70877 -0.42719,1.22817 -1.01458,3.95152 -1.22817,5.76708 -1.28157,5.98068 0,0 0.0534,0.69418 v 0 q -0.53399,0.58739 -0.4272,1.12138 0.1068,0.74759 -0.32039,3.41753 -0.1068,0.42719 -0.32039,0.96118 -0.37379,0.85439 -0.69419,1.97576 -0.21359,0.69419 -0.96118,0.69419 -0.0534,0 -0.21359,0 -0.1602,0 -0.267,0 -0.37379,0 -0.69419,0.267 -0.85438,0.74758 -1.17477,1.06797 -0.69419,0.69419 -0.42719,1.38838 0.21359,0.58738 0.16019,0.90778 -0.10679,0.32039 -0.32039,0.37379 -0.58739,0.1602 -1.44177,0 -0.2136,-0.0534 -0.32039,-0.32039 -0.1602,-0.53399 0.10679,-1.44177 v 0 q -0.69418,1.01457 -0.74758,1.12137 -0.3204,0.42719 -0.74759,0.74759 -0.21359,0.21359 -0.48059,0.16019 -0.26699,-0.0534 -0.10679,-0.42719 0.21359,-0.53399 0.21359,-0.69418 0.1602,-0.53399 -0.21359,-0.64079 -1.44178,-0.48059 -1.76217,-0.53399 -0.37379,-0.1068 -1.01458,0.1068 -0.42719,0.1602 -0.48059,-0.267 -0.1068,-0.69418 -0.0534,-0.48059 -0.64079,-2.02916 -0.53399,-1.54857 -0.42719,-1.70876 -0.26699,-1.38837 -0.2136,-0.42719 0.16019,-1.17477 0.267,-0.53399 0.267,-1.22818 0,-1.81556 -0.267,-3.09714 -0.53398,-2.40295 -0.53398,-2.29615 0.21359,-0.90778 -0.3738,-2.34955 -0.10679,-0.3204 -0.0534,-0.69419 0.1602,-0.90778 -0.32039,-1.54857 -0.69419,-0.80098 -0.26699,-1.81556 0.26699,-0.74759 0,-1.65537 -0.96118,-3.36413 -1.38838,-6.19427 -0.69418,-4.05832 -1.12137,-5.339894 -0.0534,-0.266995 -0.1068,-0.694186 -0.0534,-0.587388 -0.0534,-0.747585 0,0 -0.32039,-0.587388 0.16019,-1.121378 -0.2136,-1.49517 0,-0.266995 0,-0.427192 -0.1068,0.0534 -0.1602,0.0534 0.0534,0.106798 0.2136,0.320394 -0.37379,0.587388 -0.37379,0.640787 -0.2136,0.533989 0.16019,0.747585 0.0534,0 0.42719,0.106798 -0.58738,0.533989 -0.58738,0.587388 -0.42719,0.320393 -0.53399,0.854383 -0.1602,0.694186 -0.1602,1.014579 0.0534,0.961181 -0.37379,1.922362 -0.1602,0.373792 -0.37379,1.495169 -0.58739,3.25733 -1.17478,4.6991 0,0 -0.37379,1.70877 -0.1068,0.37379 0.10679,0.37379 0.1602,0.0534 0.3204,-0.32039 0.0534,-0.1602 0.1602,-0.2136 0.32039,-0.0534 0.26699,0.267 -0.0534,0.80098 -0.42719,1.76216 -1.17478,2.93694 -1.44177,4.11172 -0.0534,0.21359 -0.1068,0.26699 -0.2136,0.3204 -0.32039,0.3738 -0.74759,0.64078 -0.96118,1.54856 -0.267,1.33498 -0.4272,1.70877 -0.48059,1.49517 -1.81556,1.76216 l 0.0534,-0.0534 q 0,0.48059 0,0.48059 -0.0534,0.37379 -0.37379,0.37379 -0.1602,0 -0.42719,-0.1068 -0.3204,-0.0534 -0.48059,-0.0534 -1.12138,-0.1602 -1.44178,0.80099 -0.0534,0.16019 -0.21359,0.48059 -0.1068,0.21359 -0.42719,0.26699 -0.3738,0.0534 -0.48059,-0.1068 -0.2136,-0.37379 -0.2136,-0.37379 -0.42719,-1.22818 -0.85438,-1.86896 -0.3204,-0.37379 -0.53399,-1.22818 -0.32039,-0.96118 -0.53399,-1.28157 -0.0534,-0.1602 -0.1602,-0.1602 -0.21359,0 -0.26699,0.32039 -0.0534,1.44178 0,1.22818 -0.0534,0.32039 -0.42719,0.64079 -0.1068,0.0534 -0.2136,0.1068 -0.69418,0.26699 -1.01458,0.37379 -0.0534,0.0534 -0.1602,0 -0.10679,-0.0534 -0.16019,-0.1602 -0.64079,-1.65537 -1.334975,-2.34955 -0.106798,-0.1068 -0.480591,-0.80099 0,-0.0534 -0.48059,-1.01458 v 0 q 0,-0.21359 0,-0.26699 0.160197,-1.49517 0.0534,-1.81556 -0.160197,-0.42719 -1.281574,-1.12138 -0.320394,-0.2136 -1.441771,-1.12138 -0.373793,-0.26699 -0.373793,-0.80098 -0.106798,-2.13596 0.106798,-3.68453 0.320394,-2.02916 0.800984,-6.407866 0.106798,-1.334973 0.266995,-1.762165 0.266994,-0.640787 0.800984,-2.936941 0.694186,-2.936941 1.121377,-3.95152 0.106798,-0.320394 0.213596,-0.747585 0.320393,-1.708766 1.38837,-5.179696 0.58739,-1.868962 0.74759,-2.189356 0.16019,-0.427191 0.48059,-1.49517 0.37379,-1.334973 0.58738,-1.922361 0.3204,-0.800984 0.4272,-1.49517 0.10679,-0.854383 0.53398,-2.456351 0.4272,-1.815563 0.69419,-2.189356 0.267,-0.427191 0.37379,-1.228175 0.267,-1.655367 1.92236,-6.407871 0.267,-0.800984 0.3738,-1.228175 0.21359,-0.587389 -0.48059,-0.480591 -0.1602,0.0534 -0.2136,-0.0534 0,-0.320393 0.0534,-0.48059 0.90778,-2.349553 1.33497,-3.150537 0.69419,-1.067978 1.06798,-2.349552 0.1602,-0.480591 0.69419,-1.708766 0.1068,-0.320393 0.26699,-0.427191 0.90778,-0.480591 1.12138,-1.708766 -0.0534,0.0534 0.2136,-0.961181 0.16019,-0.800983 0.90778,-1.601967 0.64078,-0.640787 1.33497,-0.854383 0.69419,-0.160197 1.01458,-0.266995 0.53399,-0.266994 0.64079,-0.800984 0,-0.106798 0.0534,-0.373792 0,-0.266995 0,-0.373793 0.10679,-0.533989 0.64078,-0.373792 0.267,0.106798 0.2136,0.106798 0.32039,0.160196 0.37379,0.266994 1.49517,1.601968 1.65537,1.815564 0.0534,0.0534 1.01458,2.349553 0.0534,0.0534 0.21359,0.0534 0.267,0.0534 0.3204,-0.266994 0.0534,-0.266995 0.0534,-0.48059 0,-0.160197 -0.0534,-0.961181 0,-0.694186 0.53399,-1.121378 0.48059,-0.320393 0.80098,-1.067978 0.0534,-0.160197 0.1602,-0.213596 0.21359,-0.106798 0.26699,0.213596 0,0.854383 0.2136,1.174776 0.74758,1.067979 0.85438,2.616548 0,0.213595 0.1068,0.48059 0.21359,0.800984 -0.0534,1.655367 -0.1068,0.266994 -0.1068,0.747585 0,0.266994 0.1068,0.48059 0.1602,0.266995 0.42719,0.533989 0.64079,0.694186 0.74759,1.922362 0.0534,0.907781 0.0534,2.135957 0,1.067978 0.4272,2.082558 0.10679,0.213595 0.26699,0.640787 0.1602,0.427191 0.26699,0.640787 0.3738,0.907782 0.4806,1.334973 0.10679,0.320394 0.42719,1.334973 0.26699,0.800984 0.42719,1.334973 0.42719,1.174777 1.17477,3.791324 0.69419,2.50975 1.17478,3.791324 0.1068,0.266994 0.1068,0.427191 0.74758,2.830143 1.01458,3.364133 0.21359,0.533989 0,1.228175 -0.2136,0.640787 -0.1068,1.174776 1.06798,4.00492 0.96118,3.684526 -0.1068,-0.266995 0.37379,1.815564 0.1068,0.533989 0.3738,1.121377 0.0534,0.266995 0.37379,0.160197 0.1602,-0.0534 0.1602,-0.160197 0.21359,-0.694186 0.37379,-1.228175 0.42719,-1.708766 0.69418,-2.456351 0.3204,-0.800984 0.53399,-1.97576 0.267,-1.281574 1.06798,-2.669946 0.1602,-0.266995 0.42719,-0.266995 0.267,0 0.3204,0.213596 0.0534,0.106797 0.10679,0.747585 -0.32039,0.320393 -0.32039,0.320393 -0.1068,0.106798 -0.1068,0.266995 0,0.160197 0.0534,0.160197 0.1602,0 0.267,-0.320394 0,-0.0534 0.10679,-0.48059 0.3204,-0.373793 0.3204,-0.427192 0.90778,-1.815563 1.22817,-3.097137 0.2136,-0.747585 0.58739,-1.708766 -0.0534,0.160197 1.06798,-3.684526 -0.0534,0.213596 0,-0.48059 0,-0.373793 0.1068,-0.480591 0.1068,-0.106797 0.90778,-2.135957 0.26699,-0.640787 0.58739,-1.708765 1.60197,-5.553489 1.60197,-5.660286 z"
         style="font-weight:bold;font-family:Okami;-inkscape-font-specification:'Okami Bold'"
         id="path5435" />
      <path
         d="m 191.35687,54.803735 q -0.2136,0.106798 -1.49517,0.96118 -0.3204,0.213596 -0.64079,0.320394 -0.267,0.106798 -0.42719,-0.0534 -0.0534,-0.0534 -0.48059,-0.694186 l -0.0534,-0.106798 q 0,-0.213596 0.53399,-1.655367 0.16019,-0.587388 -0.42719,-0.48059 -1.92236,0.373793 -2.93694,0.694186 -2.77675,1.01458 -3.41754,1.388372 -1.17477,0.373793 -3.04373,1.601968 -1.28158,0.854383 -1.76217,1.228175 -2.50975,1.762165 -4.11172,3.791324 -0.58738,0.747585 -0.21359,1.388372 0.37379,0.747585 0.42719,1.067979 v 0 q 0.53399,0.320393 0.53399,0.373792 1.28157,1.067979 3.68452,1.868963 1.22818,0.373792 2.45636,-0.106798 4.00491,-1.655367 4.6457,-1.868963 0.1068,0 0.2136,-0.106798 0.21359,-0.160196 2.40295,-1.121377 1.17478,-0.587388 1.92236,-1.441771 0.1602,-0.213596 0.2136,-0.48059 0.10679,-0.266995 -0.1602,-0.320394 -0.267,-0.0534 -0.64079,0.160197 -0.42719,0.213596 -0.58739,0.266994 -0.21359,0 -0.48059,-0.0534 -0.37379,-0.106798 -0.0534,-0.640788 0.267,-0.48059 0.2136,-0.48059 0.90778,-1.067978 1.22818,-1.708765 0.69418,-1.388373 1.81556,-2.669947 0.32039,-0.373792 0.64079,-1.121377 l 0.10679,-0.106798 z m -6.51467,28.248032 0.0534,0.106797 q 0.26699,0.266995 0.90778,0.480591 0.69418,1.281574 1.70876,1.49517 0.2136,0.747585 0.74759,0.96118 0.1068,0.0534 0.21359,-0.0534 0.1068,-0.106797 0.0534,-0.213595 -0.21359,-0.53399 -1.01458,-0.694186 -0.37379,-1.174777 -1.76216,-1.49517 -0.267,-0.373793 -0.90778,-0.480591 z m 16.55366,10.519588 q 0.48059,-0.106798 0.53399,-0.106798 0.1602,-0.0534 0.2136,0.0534 0.1602,0.160197 -0.1068,0.427191 -0.32039,0.427192 -0.53399,0.587389 -0.42719,0.48059 -0.96118,0.96118 -0.85438,0.747585 -1.12138,1.174777 -0.10679,0.213595 -0.69418,0.96118 -0.48059,0.587388 -0.64079,1.01458 -0.1068,0.320393 -0.37379,0.694186 -0.3204,0.48059 -0.69419,0.85438 -0.21359,0.2136 -0.64078,0.48059 -0.85439,0.69419 -1.97576,1.86896 -1.17478,1.33498 -2.02916,2.18936 -0.3204,0.37379 -0.96118,0.96118 -3.41754,3.09714 -7.74285,5.87388 -0.64079,0.42719 -1.01458,0.90778 h 0.0534 q -0.96118,0.2136 -1.70877,1.01458 l 0.0534,-0.0534 q -0.64078,0.21359 -0.69418,0.26699 -0.0534,0 -0.2136,0.1068 -0.26699,0.16019 -0.21359,0.37379 0.0534,0.1602 0.37379,0.1602 0.0534,0.10679 0.1068,0.21359 -2.08256,1.38837 -5.2865,2.34956 -1.60196,0.53398 -2.24275,0.74758 -1.54857,0.64079 -2.72335,0.80098 -1.22817,0.2136 -2.24275,0.69419 -0.42719,0.1602 -0.69419,-0.1068 -0.58739,-0.58739 -1.54857,-0.37379 -1.28157,0.26699 -2.99034,0.37379 -0.85438,0.0534 -1.54857,0.2136 -1.12137,0.26699 -2.72334,0.26699 -0.53399,0 -1.49517,0 h -1.49517 q -1.44177,0 -2.66995,-0.26699 -0.85438,-0.1602 -3.31073,-0.53399 -0.53399,-0.1068 -1.06798,-0.48059 -0.0534,-0.0534 -0.96118,-0.64079 -1.17478,-0.0534 -1.33497,-1.33497 0,-0.267 -0.2136,-0.64079 -0.26699,-0.42719 -0.69418,-0.90778 -0.80099,-1.12138 -0.69419,-2.93694 0.1068,-0.96118 0.37379,-2.50975 0.3204,-1.60197 1.17478,-2.88354 0.32039,-0.48059 0.1068,-1.17478 -0.1602,-0.53399 0.42719,-1.12138 0.48059,-0.48059 0.80098,-0.74758 0.1602,-0.1602 0.53399,-0.42719 0.32039,-0.267 0.53399,-0.42719 2.24275,-1.92237 3.36413,-3.15054 0.74759,-0.854383 3.20394,-3.257335 1.22817,-1.121377 2.34955,-1.868962 1.12138,-0.747585 2.13596,-1.601968 1.17477,-1.067978 2.50975,-1.548569 -0.58739,0.213596 2.88354,-1.281574 0.26699,-0.106798 0.42719,0.0534 0.1602,0.213596 0,0.48059 -0.1068,0.160197 -0.1602,0.213596 -0.0534,0.0534 -0.53399,0.587388 -0.37379,0.266995 -0.58738,0.480591 h -0.0534 q 0.21359,-0.160197 0.58739,-0.53399 0.80098,-0.160196 1.44177,-0.640787 2.50975,-2.029159 3.15053,-2.563148 0.2136,-0.160197 0.42719,0 0.1602,0.213596 0,0.427191 -0.10679,0.160197 -0.32039,0.427192 -0.26699,0.320393 -0.37379,0.427191 -0.32039,0.427191 0.1068,0.640787 0.26699,0.213596 0.37379,0.213596 0.96118,0.266995 1.97576,-0.213596 0.32039,-0.160197 1.54857,-0.747585 0.96118,-0.48059 1.54857,-0.747585 1.33497,-0.587388 1.97576,-0.587388 0.10679,0 0.16019,0.160197 0.0534,0.106798 0,0.213596 -0.16019,0.266994 -0.26699,0.427191 -0.48059,0.48059 -1.81556,1.174776 -0.4272,0.213596 -1.28158,0.694186 -0.85438,0.427192 -1.28157,0.640787 -0.48059,0.266995 -0.85439,0.640788 -0.16019,0.106797 -5.92728,5.126296 -1.54857,1.334974 -1.65536,1.388373 -1.22818,1.014579 -1.54857,2.402945 -0.58739,0.48059 -0.58739,0.48059 -0.69419,0.1068 -1.06798,0.48059 h -0.0534 q 0.64079,-0.10679 1.12138,-0.48059 0.0534,-0.10679 0.26699,-0.26699 0.2136,-0.1602 0.3204,-0.26699 0.85438,-0.533992 2.08256,-1.655369 0.21359,-0.160197 3.79132,-3.043739 0.0534,0 0.48059,-0.213596 0.53399,-0.213596 0.64079,0.160197 0.21359,0.694186 0.21359,0.907782 0.0534,0.266994 -0.10679,0.48059 -0.80099,1.174776 -1.76217,2.029159 -1.70876,1.495166 -2.83014,2.509746 -1.17478,1.12138 -1.60197,1.81557 -0.1068,0.26699 0.0534,0.48059 0.48059,0.42719 1.12138,0.32039 3.47093,-0.80098 4.9661,-1.49517 0.37379,-0.2136 0.74758,-0.32039 0.2136,-0.0534 5.1263,-2.02916 1.17477,-0.480592 2.40295,-1.121379 2.72335,-1.601968 5.0729,-3.043739 0.42719,-0.266995 2.13595,-1.601968 0.96119,-0.694186 1.97577,-0.587388 l -0.0534,-0.0534 q 0.21359,0.266995 0.48059,0.0534 l 0.10679,-0.0534 q 0.80099,-0.587388 1.17478,-1.49517 -0.64079,0.373793 -0.69419,0.427192 -0.90778,0.427191 -1.22817,-0.373793 -0.0534,0 -0.267,-0.373792 -0.21359,-0.373793 0,-0.640787 1.38838,-1.922362 2.72335,-2.99034 0.48059,-0.427192 0.26699,-0.694186 -0.16019,-0.266995 -0.58738,-0.266995 -0.2136,0 -0.53399,0 -0.69419,0.106798 -1.33498,-0.320393 -0.53399,-0.266995 -0.58738,-0.373793 -0.96118,-0.800984 -3.79133,-2.135957 -0.32039,-0.160197 -1.38837,-0.640787 -0.85438,-0.427191 -1.33497,-0.640787 -2.88355,-1.441771 -4.9127,-2.189356 -1.12138,-0.427192 -1.70877,-0.747585 -2.88354,-1.49517 -4.59231,-2.669946 -0.37379,-0.213596 -1.97576,-1.174777 -2.02916,-1.174776 -1.76216,-1.067978 -0.3204,-0.160197 -0.42719,-0.480591 -0.3204,-0.854382 -1.12138,-1.441771 -0.32039,-0.213595 -0.74759,-0.800983 -0.80098,-1.067979 -1.17477,-1.708766 -0.58739,-0.961181 -1.60197,-1.228175 -0.64079,-0.160197 -0.96118,-0.907782 -0.32039,-0.961181 -0.64079,-2.029159 -0.16019,-0.587388 -0.1068,-0.907782 0.1602,-4.752504 0.1602,-4.699106 0.42719,-2.723345 2.02916,-5.286493 0.80098,-1.334973 1.65537,-2.402952 2.02916,-2.563148 5.17969,-4.752504 2.99034,-1.97576 4.37871,-2.563149 0.4272,-0.213595 0.96119,-0.533989 3.84472,-2.349553 8.75742,-3.684526 0.21359,-0.0534 0.58739,-0.213596 0.48059,-0.160196 0.64078,-0.213595 3.47093,-1.121378 4.75251,-1.49517 0.90778,-0.266995 1.44177,-0.587388 0.48059,-0.266995 0.96118,-0.160197 1.12138,0.213596 1.97576,-0.0534 0.69419,-0.160197 2.50975,-0.213596 0.2136,-0.0534 0.64079,0 0.37379,0 0.58739,0 1.70876,-0.106798 3.41753,0.320394 1.12137,0.320393 1.44177,0.640787 0.26699,0.320394 0.53399,0.373792 0.69418,0.266995 1.70876,1.174777 0.42719,0.427191 1.01458,0.533989 v 0 q 0.1068,0.320394 0.42719,0.533989 l -0.0534,-0.0534 q 0.0534,1.01458 1.17478,1.975761 0.0534,0.747585 0.32039,1.014579 l 0.0534,0.106798 -0.0534,-0.106798 q 0,-0.587388 -0.32039,-0.96118 0,-0.160197 0.0534,-0.480591 0.0534,-0.320393 0.1068,-0.48059 l 0.0534,-0.106798 q 0.48059,0.266995 0.69418,0.907782 0.42719,0.96118 0.64079,2.99034 0,0.106797 0.0534,1.441771 0.0534,1.228175 -0.42719,2.45635 -1.28158,3.47093 -3.79133,6.034079 -0.69418,0.747585 -1.17477,1.121377 -1.60197,1.01458 -2.08256,1.655367 -0.64079,0.373792 -2.99034,2.082558 -1.81556,1.281574 -3.09714,1.922361 -0.26699,0.160197 -0.42719,0 -0.1602,-0.160196 -0.0534,-0.427191 0.0534,-0.0534 0.1602,-0.266995 0.1068,-0.0534 0.26699,-0.213595 0.2136,-0.160197 0.3204,-0.266995 0.37379,-0.320394 0.58738,-0.48059 l 0.1068,-0.0534 -0.1068,0.0534 q -0.42719,0.373792 -0.58738,0.48059 -0.3738,0.373793 -0.58739,0.533989 -0.64079,0.106798 -1.65537,0.694186 -1.65537,1.01458 -4.11172,2.296154 -0.26699,0.106798 -0.69418,0.320394 -0.37379,0.106798 -0.69419,-0.0534 -0.0534,-0.0534 -0.32039,-0.320394 l 0.1068,-0.0534 -0.1068,0.106798 q -1.28158,0.213596 -2.45635,0.800984 -0.1068,0.0534 -0.1068,0.213596 0,0.160197 0.0534,0.213595 1.60197,0.53399 2.02916,0.640788 3.52433,0.907781 6.67486,2.723345 0.0534,0.0534 2.45635,1.281574 1.12138,0.533989 1.22818,0.640787 0.53399,0.373793 2.08256,1.388372 1.33497,0.854383 2.02916,1.441771 0.37379,0.320394 0.58739,0.373793 0.64078,0.320393 1.38837,1.174776 0.32039,0.320394 0.32039,0.320394 0.1068,0.213595 0.53399,0.427191 0.42719,0.213596 0.53399,0.427191 -0.2136,-0.320393 0.48059,1.228176 0.0534,0.160196 0.48059,0.800984 1.54857,2.349552 1.28157,5.179695 -0.0534,0.427192 -0.0534,0.480591 0.21359,1.97576 -1.54857,4.805903 -0.1602,0.160197 -0.48059,0.640787 -0.267,0.427192 -0.4272,0.694186 0,0.0534 -0.42719,0.907782 l -0.10679,0.106798 z"
         style="font-weight:bold;font-family:Okami;-inkscape-font-specification:'Okami Bold'"
         id="path5437" />
      <path
         d="m 225.21178,87.697473 q 1.92237,-0.106798 2.72335,-0.373792 0.64079,-0.160197 2.02916,-0.213596 0.26699,0 0.96118,-0.106798 0.1068,-0.0534 0.2136,-0.213596 0.10679,-0.266994 -0.2136,-0.320393 -0.80098,-0.106798 -1.76216,0.106798 -1.12138,0.266994 -2.72335,0.320393 -0.90778,0 -1.49517,0.0534 -0.1602,0 -0.48059,0.160197 -0.1068,0.0534 -0.1602,0.160197 -0.16019,0.320393 0.1602,0.373792 0.1068,0 0.74758,0.0534 z m 26.80627,-17.675044 q 0,-0.213596 0,-0.320394 0.0534,-0.320393 -0.267,-0.266995 -1.38837,0.266995 -1.60197,1.121378 -0.32039,1.388372 -0.96118,2.669946 -0.1068,0.213596 -0.48059,1.441771 -0.0534,0.160197 0.1068,0.213596 0.1068,0.0534 0.2136,-0.0534 1.86896,-2.296154 1.70876,-2.082558 0.96118,-1.121378 1.28158,-2.723344 z m -45.97648,27.180053 q -0.42719,0.427191 -0.53399,0.907782 -0.58739,2.189356 -0.96118,2.936936 -0.0534,0.2136 -0.2136,0.74759 -0.53398,1.86896 -0.85438,2.66995 -0.48059,1.22817 -0.48059,2.45635 0,0.10679 0.1068,0.16019 0.26699,0.1068 0.42719,-0.10679 0.32039,-0.3738 0.42719,-1.22818 0.3204,-2.29615 1.44177,-5.60689 0.267,-0.800981 0.267,-0.747582 0.37379,-0.854383 0.32039,-2.189356 0.53399,-0.533989 0.53399,-1.067979 l -0.0534,-0.160196 -0.1602,0.106797 q -0.0534,0.213596 -0.26699,1.121378 z m 13.56333,-40.26279 q 0.1068,-1.174777 0.53399,-1.97576 0.10679,-0.160197 0.37379,-0.694186 0.21359,-0.427192 0.37379,-0.694187 1.86896,-3.150536 2.40295,-4.9661 0,-0.106797 0.3738,-0.373792 0.0534,0 0.21359,-0.106798 0.1602,-0.0534 0.2136,-0.106798 0.32039,-0.213596 0.37379,-0.427191 0.42719,-0.961181 1.33497,-3.364133 0.1602,-0.427191 0.74759,-1.121377 0.16019,-0.213596 0.74758,-0.747585 0.53399,-0.48059 0.74759,-0.800984 0.32039,-0.533989 0.80098,-0.427191 0.37379,0.106798 0.74759,-0.160197 0.21359,-0.213596 0.64078,-0.533989 0.3738,-0.320394 0.64079,-0.53399 0,0 0.64079,-0.427191 0.42719,-0.266995 0.64079,0.106798 0.21359,0.320393 0.21359,0.427191 0.0534,0.640787 0.53399,3.043739 0,0.0534 0.26699,3.097138 0.0534,0.106798 0.1602,0.160197 0.267,0.160196 0.37379,-0.160197 0.1068,-0.213596 0.2136,-0.747585 0.32039,-1.281574 0.2136,-1.01458 0.21359,-0.694186 0.85438,-0.907782 0.0534,-0.0534 0.96118,-0.48059 v 0 q -0.0534,0.533989 0.26699,1.388372 0.3738,1.067979 0.1068,2.402952 -0.80098,4.699105 -1.44177,6.407871 -0.1068,0.373792 -0.64079,2.456351 -0.21359,0.854382 -0.69418,1.441771 -0.53399,0.587388 -0.74759,1.388372 -0.21359,0.907781 -1.01458,2.936941 -1.01458,2.402951 -1.92236,5.072898 -0.1602,0.373792 -1.17478,3.203935 -0.37379,0.907782 -0.26699,0.694186 -1.01458,3.524329 -1.01458,3.47093 -0.53399,1.49517 -0.96118,3.203936 -0.0534,0.160197 0,0.213596 0.2136,0.266994 0.32039,0.320393 1.28158,0.213596 2.72335,-0.0534 1.44177,-0.266994 3.52433,-0.266994 0.69418,-0.0534 1.22817,-0.160197 1.17478,-0.213596 1.65537,-1.228176 0.58739,-1.121377 1.81556,-4.325313 0.0534,-0.106797 0.58739,-2.242754 l -0.0534,0.0534 q 0.42719,-0.640788 0.42719,-0.694187 0.0534,-0.320393 0.3738,-1.174776 0.26699,-0.800984 0.26699,-1.228175 -0.0534,-0.213596 0.1602,-0.480591 0.64078,-1.067978 0.90778,-2.402951 0.32039,-0.800984 0.74758,-2.349553 0.48059,-1.601968 0.74759,-2.296154 0.1602,-0.373792 0.32039,-1.121377 0.1602,-0.800984 0.267,-1.067979 0.16019,-0.373792 0.37379,-0.96118 0.32039,-0.747585 0.42719,-0.961181 0,-0.0534 0.1602,-0.747585 0.0534,-0.373792 -0.48059,-0.160197 -0.3204,0.160197 -0.3204,-0.106798 0,-0.48059 0.1068,-0.747585 0.85439,-2.402951 1.17478,-3.150536 1.33497,-3.150537 1.70876,-5.606887 0.0534,-0.320394 0.48059,-0.640788 0.58739,-0.373792 0.74759,-1.014579 0.42719,-2.296154 0.64079,-3.47093 0.21359,-0.907782 0.90778,-1.868963 0.42719,-0.48059 1.12138,-0.587388 0.0534,0.0534 0.0534,0.160197 0,0.160197 0,0.213596 0.0534,0 0.1068,0 0,-0.0534 0.0534,-0.0534 -0.0534,-0.0534 -0.1068,-0.160197 -0.0534,-0.106798 -0.10679,-0.160197 0,-0.854383 0,-0.961181 0.0534,-0.320393 0.37379,-0.320393 0.1068,0 0.32039,0.0534 0.267,0.0534 0.37379,0.0534 0.1602,0.0534 0.48059,0 0.85439,-0.106798 0.96119,-0.800984 0.21359,-1.49517 0.21359,-1.49517 0.267,-0.48059 0.64079,-0.266995 0.21359,0.0534 0.21359,0.106798 0.267,0.266995 0.267,0.320394 0.1068,0.587388 0.96118,2.616547 0.21359,0.533989 0.64079,2.242755 0.16019,0.533989 0.42719,1.868962 0.0534,0.320394 0.26699,0.266995 0.1068,-0.0534 0.1068,-0.266995 0.1068,-0.694186 0.1068,-0.96118 0,-0.266995 0,-0.854383 0,-0.587388 0,-0.854383 0,-0.694186 0.58739,-1.121377 -0.1602,0.106798 1.28157,-1.388372 0.1602,-0.106798 0.2136,-0.106798 0.26699,0.106798 0.10679,0.427191 0.1068,-0.160197 -0.16019,0.48059 -0.2136,0.53399 0,0.961181 0.32039,0.640787 0.32039,0.587388 0.32039,1.067979 0.32039,1.388372 0.2136,2.616548 0.0534,3.631127 -0.0534,0.160197 -0.10679,1.01458 -0.1068,0.640787 0.21359,1.121377 0.53399,1.01458 0.69419,1.174777 0.42719,0.640787 0.1068,1.334973 l -0.74759,2.723345 q -0.26699,0.907782 0.32039,1.281574 0.2136,0.106798 0.0534,0.427192 -0.0534,0.160197 -0.1068,0.213595 -0.64078,0.694186 -0.80098,1.388373 -0.85438,3.524329 -0.90778,3.684525 -0.0534,0.213596 -0.1068,1.01458 -0.21359,1.762165 -1.49517,3.577728 -0.42719,0.533989 -0.48059,0.640787 -1.01458,2.563149 -1.22817,3.417531 -0.1068,0.587389 0,1.228176 0.21359,1.067978 -0.4272,3.150536 -0.0534,0.266995 -0.37379,0.694186 -0.0534,0.160197 -0.21359,0.373793 -0.1602,0.213596 -0.2136,0.320393 -0.53399,0.747585 -0.48059,1.441771 0.1068,1.388372 -0.80098,3.150537 -0.267,0.533989 -0.85439,1.49517 -0.53399,1.014579 -0.80098,1.548569 -0.1602,0.373792 0.2136,0.640787 l 0.16019,0.106798 q 0.2136,0.213595 -0.21359,0.533989 -0.58739,0.427191 -0.267,0.800984 0.37379,0.373792 0.1602,0.800984 -0.58739,1.441771 -1.65537,2.723345 -0.69418,0.907782 -1.38837,1.228175 -0.74759,0.373793 -1.06798,1.174777 -0.80098,1.815563 -0.85438,2.402951 0,0.213596 -0.37379,0.961181 -0.1602,0.373792 -0.53399,1.067978 -0.3738,0.694187 -0.53399,1.067979 -1.12138,2.189356 -1.49517,4.592308 -0.2136,1.121377 -0.1068,1.708765 0.1602,0.800984 -0.32039,1.708761 -0.1068,0.2136 -0.1602,0.267 -0.267,0.96118 -1.38837,1.49517 -0.42719,0.1602 -0.1602,0.42719 0.48059,0.37379 0.26699,0.80098 -0.26699,0.53399 -0.32039,0.96118 0,0.48059 -0.32039,0.96119 -2.29616,4.11171 -3.41753,5.39329 -0.3204,0.42719 -0.80099,1.38837 -0.26699,0.48059 -0.53399,0.90778 -0.42719,0.58739 -1.01458,0.90778 -0.85438,0.42719 -1.22817,0.53399 -1.06798,0.267 -2.29616,1.76217 -0.64078,0.74758 -0.85438,1.60196 -0.1068,0.3204 -0.37379,0.69419 -0.267,0.48059 -0.80098,0.58739 -0.3204,0.0534 -0.4272,-0.2136 -0.42719,-1.12138 -0.32039,-2.83014 0.1068,-1.12138 -0.58739,-1.92236 -0.37379,-0.42719 -0.85438,-0.2136 -0.37379,0.1068 -0.53399,0.1602 -0.37379,0.1068 -0.58739,-0.2136 -0.21359,-0.42719 -0.16019,-0.96118 0.42719,-0.16019 0.48059,-0.16019 0.32039,-0.2136 0,-0.3204 -0.1602,-0.0534 -0.2136,0.0534 -0.0534,0.0534 -0.26699,0.48059 -0.3738,-0.48059 -0.3738,-1.06798 0,-0.58739 -0.32039,-0.85438 -0.53399,-0.37379 -0.37379,-1.01458 0.16019,-0.96118 0.21359,-1.76216 0.1068,-1.22818 0.90778,-2.08256 0.4272,-0.48059 0.53399,-1.17478 0.1068,-0.64079 0.64079,-1.44177 0.37379,-0.58739 0.58739,-1.44177 0.48059,-2.349552 1.01458,-3.684525 0.1068,-0.213596 0.1602,-0.480591 0.42719,-2.189356 2.18935,-6.621467 0.0534,-0.160196 0.32039,-0.96118 0.2136,-0.587388 -0.26699,-0.800984 -1.38837,-0.640787 -2.61655,-0.373793 -0.69418,0.160197 -1.49517,0 -0.96118,-0.160196 -1.92236,0 -0.80098,0.106798 -1.01458,0.800984 -0.21359,0.640787 -0.21359,0.694186 -0.267,1.281575 -0.69419,2.456351 -0.26699,0.747585 -0.42719,1.49517 -0.32039,1.228175 -0.80099,2.45635 -0.0534,0.160197 -0.48059,1.708766 -0.0534,0.373793 0.1068,0.427191 0.2136,0.0534 0.3204,-0.266994 0.10679,-0.160197 0.21359,-0.213596 0.267,-0.160197 0.267,0.213596 -0.0534,0.800984 -0.3738,1.495166 -1.01458,2.45635 -1.01458,2.40295 -1.33497,3.52433 -1.49517,4.37872 -0.0534,0.48059 -0.58738,0.80098 -0.48059,0.32039 -0.64079,0.85438 -0.1602,0.64079 -1.12138,3.47093 -0.26699,0.80099 -0.96118,1.54857 -0.32039,0.3204 -0.69419,0.42719 -0.53398,0.0534 -0.58738,0.3738 0.0534,-0.2136 0,0.48059 -0.0534,0.53399 -0.53399,0.26699 -0.1068,0 -0.2136,-0.1068 -0.1068,-0.0534 -0.21359,-0.10679 -0.53399,-0.267 -1.17478,0.16019 -0.32039,0.1602 -0.37379,0.37379 -0.0534,0.1602 -0.1068,0.48059 -0.1068,0.3738 -0.1068,0.4806 -0.1068,0.32039 -0.26699,0.48059 -0.2136,0.21359 -0.42719,0.26699 -0.2136,0.0534 -0.4272,-0.1068 -0.16019,-0.21359 -0.21359,-0.42719 -0.0534,-1.54857 -0.69419,-2.93694 -0.21359,-0.53399 -0.21359,-1.44177 -0.0534,-1.01458 -0.42719,-1.81556 -0.0534,-0.1602 -0.1602,-0.1602 -0.267,-0.0534 -0.3204,0.26699 -0.26699,2.40295 -0.21359,2.24276 -0.0534,0.26699 -0.32039,0.37379 -1.12138,0.48059 -1.49517,1.01458 -0.0534,0.1068 -0.48059,0.26699 -0.64079,0.267 -0.85439,-0.21359 -0.21359,-0.53399 -0.26699,-0.64079 -0.3204,-1.33497 -0.1068,-2.88354 0.1068,-0.90778 -0.37379,-2.08256 -0.1068,-0.21359 -0.37379,-0.32039 -0.1068,-0.0534 -0.64079,-0.2136 -0.37379,-0.16019 -0.64079,-0.32039 -0.80098,-0.42719 -0.69419,-1.33497 0.2136,-1.60197 0.4272,-2.72335 0.21359,-1.06798 0.74758,-3.737923 0.42719,-2.349553 0.90778,-3.47093 0.2136,-0.587388 0.3738,-1.228175 0.21359,-1.334974 1.12137,-3.417532 1.65537,-3.95152 2.34956,-5.553488 0.96118,-2.135957 1.33497,-3.097138 0.96118,-2.402951 2.77674,-5.92728 0.58739,-1.067979 2.72335,-5.713686 0.21359,-0.533989 1.06798,-2.93694 0,-0.694186 0.80098,-1.601968 0.267,-0.266995 0.37379,-0.694186 0.267,-1.121378 1.06798,-2.936941 0.90778,-2.135957 1.17478,-2.883542 0.1068,-0.373793 0.58739,-1.174777 0.69418,-1.121377 0.90778,-2.402951 0.32039,-0.373793 0.32039,-0.373793 0.1068,-0.106798 0.1068,-0.266994 0,-0.160197 -0.0534,-0.160197 -0.2136,0 -0.26699,0.320393 0,0 -0.1068,0.480591 -0.1602,0 -0.53399,-0.0534 z"
         style="font-weight:bold;font-family:Okami;-inkscape-font-specification:'Okami Bold'"
         id="path5439" />
      <path
         d="m 262.48424,55.070729 q -0.1602,0.160197 -0.1602,0.160197 0,0 0.0534,0.213596 0.1602,-0.160197 0.1602,-0.160197 0,-0.0534 -0.0534,-0.213596 z m 1.22817,45.175491 q -0.21359,1.86896 -0.90778,3.47093 -0.21359,0.48059 -1.28157,3.41753 -0.2136,0.69419 -0.58739,1.12138 -0.53399,0.69419 -0.80098,1.65537 0.0534,-0.2136 -0.0534,0.26699 -0.48059,2.02916 -2.18936,3.79132 -0.37379,0.4272 -0.90778,0.3738 h -0.267 q -0.64078,0 -0.80098,0.53399 -0.0534,0 -1.17478,2.34955 l -0.32039,0.42719 q -0.1602,0.1068 -0.37379,0.1602 -0.267,0 -0.3204,-0.1068 -0.0534,-0.1068 -0.16019,-0.42719 -0.1602,-0.267 -0.2136,-0.37379 -0.21359,-0.4272 -0.53399,-0.4272 -0.74758,0.0534 -1.01458,-0.74758 -0.26699,-0.90778 -0.26699,-2.13596 -0.0534,-0.96118 -0.267,-2.13595 -0.21359,-0.96119 -0.69418,-1.44178 -0.267,-0.21359 -0.48059,-0.48059 -0.3204,-0.37379 -0.3204,-0.85438 0,-2.56315 0.3204,-4.43211 1.12138,-6.94186 1.86896,-10.893381 0.32039,-1.708765 0.74759,-2.99034 0.26699,-0.747585 0.58738,-2.242755 0.48059,-2.029159 0.90779,-3.203935 0.26699,-0.747585 0.58738,-2.189356 0.58739,-2.936941 1.12138,-4.218515 0.2136,-0.747585 0.96118,-3.310734 0.64079,-2.082558 0.90778,-3.310733 0.1068,-0.587388 0.3738,-1.49517 0.32039,-1.174776 0.37379,-1.49517 0.16019,-0.48059 0.16019,-0.96118 0.0534,-0.640788 0.267,-1.01458 0.48059,-0.800984 1.22817,-3.631127 0.85439,-3.203936 1.12138,-3.951521 0.58739,-1.548568 0.42719,-2.93694 -0.10679,-1.067979 0.3738,-2.242755 0.10679,-0.213596 0.32039,-0.800984 0.2136,-0.587388 0.32039,-0.854383 0.1602,-0.320394 0.64079,-1.441771 0.42719,-0.907782 0.64079,-1.441771 0.16019,-0.48059 0.42719,-1.388372 0.26699,-0.854383 0.48059,-1.334973 0.53399,-1.388372 0.96118,-1.815564 0.42719,-0.427191 0.64079,-1.174776 0,-0.106798 0.96118,-2.669946 0.53399,-1.388372 1.92236,-2.135957 0.48059,-0.266995 0.48059,-0.266995 0.42719,-0.320394 0.53399,-0.854383 0.0534,-0.266994 0.1068,-0.48059 0.0534,-0.213596 0.37379,-0.266995 0.32039,-0.106798 0.48059,0.0534 1.33497,1.281574 1.76216,2.883542 0.0534,0.320394 0.3204,0.320394 0.16019,-0.0534 0.26699,-0.373793 0.1068,-0.213596 0.267,-0.48059 0.21359,-0.373793 0.64078,-0.320394 0.53399,0 0.74759,0.427192 0.37379,0.640787 0.32039,1.388372 -0.26699,2.509749 -0.53399,3.47093 -0.0534,0.266995 -0.21359,1.228175 -0.0534,0.320394 0.26699,0.266995 0.1068,0 0.1602,-0.160197 0,-1.067978 1.12138,-1.655367 0.10679,-0.0534 0.21359,-0.0534 0.1602,0 0.2136,0.0534 0.0534,0.266995 0.37379,1.121378 0.37379,1.067978 0.2136,2.349553 -0.0534,0.373792 -0.1068,1.228175 -0.1068,0.800984 -0.1602,1.281574 -0.0534,0.48059 -0.1602,0.961181 0.0534,-0.213596 -1.28157,5.980679 -0.1602,0.480591 -0.58739,1.441771 -0.80098,1.601968 -1.17477,3.150537 -0.1602,0.800984 -0.3204,1.228175 -0.53399,1.228176 -1.12138,3.684526 -0.21359,0.854383 -0.69418,1.441771 -0.58739,0.694186 -0.53399,1.655367 0.0534,0.373792 -0.1068,0.694186 -0.32039,0.640787 -0.64079,1.868962 -0.32039,1.228176 -0.64078,1.815564 -0.1068,0.213596 -0.1602,0.48059 -0.2136,1.067979 -0.85438,3.203936 -0.58739,2.135957 -0.85439,3.257334 -0.26699,1.548569 -0.64078,2.456351 -0.267,0.640787 -0.69419,2.45635 -0.74758,3.203936 -0.90778,3.951521 -0.2136,1.014579 -0.37379,1.49517 -0.1602,0.427191 -0.42719,1.441771 -0.1602,0.694186 -0.4272,2.242755 -0.26699,1.388372 -0.69418,2.45635 -0.2136,0.587388 -0.42719,1.49517 -0.1602,0.587388 0.16019,1.174776 z"
         style="font-weight:bold;font-family:Okami;-inkscape-font-specification:'Okami Bold'"
         id="path5441" />
    </g>
  </g>
</svg>
