<?xml version="1.0" encoding="UTF-8"?>
<!DOCTYPE svg PUBLIC "-//W3C//DTD SVG 1.1//EN" "http://www.w3.org/Graphics/SVG/1.1/DTD/svg11.dtd">
<!-- Creator: CorelDRAW 2020 (64-Bit Evaluation Version) -->
<svg xmlns="http://www.w3.org/2000/svg" xml:space="preserve" width="338.668mm" height="508mm" version="1.1" style="shape-rendering:geometricPrecision; text-rendering:geometricPrecision; image-rendering:optimizeQuality; fill-rule:evenodd; clip-rule:evenodd"
viewBox="0 0 30379.81 45569.59"
 xmlns:xlink="http://www.w3.org/1999/xlink"
 xmlns:xodm="http://www.corel.com/coreldraw/odm/2003">
 <defs>
  <style type="text/css">
   <![CDATA[
    .fil1 {fill:#002244}
    .fil3 {fill:#007766}
    .fil0 {fill:#46AA26}
    .fil5 {fill:#ED4463}
    .fil2 {fill:#EEDEDE}
    .fil4 {fill:#EF9900}
   ]]>
  </style>
 </defs>
 <g id="Layer_x0020_1">
  <metadata id="CorelCorpID_0Corel-Layer"/>
  <g id="_2308747457072">
   <polygon class="fil0" points="-0,0 30379.59,0 30379.59,45569.41 -0,45569.41 "/>
   <polygon class="fil1" points="-0,0 15189.81,0 15189.81,7594.91 -0,7594.91 "/>
   <polygon class="fil2" points="30379.59,0 30379.59,7594.91 15189.81,7594.91 15189.81,0 "/>
   <polygon class="fil2" points="-0,7594.91 7594.91,7594.91 15189.81,7594.91 15189.81,22784.72 7594.91,22784.72 7594.91,15189.81 -0,15189.81 "/>
   <polygon class="fil1" points="-0,15189.81 7594.91,15189.81 7594.91,22784.72 -0,22784.72 "/>
   <polygon class="fil1" points="-0,22784.72 7594.91,22784.72 7594.91,30379.63 -0,30379.63 "/>
   <polygon class="fil1" points="-0,30379.63 7594.91,30379.63 7594.91,37974.53 -0,37974.53 "/>
   <polygon class="fil3" points="-0,37974.53 7594.91,37974.53 7594.91,45569.43 -0,45569.43 "/>
   <polygon class="fil4" points="7594.91,22784.72 15189.81,22784.72 15189.81,30379.63 7594.91,30379.63 "/>
   <polygon class="fil5" points="7594.91,30379.63 15189.81,30379.63 15189.81,37974.53 7594.91,37974.53 "/>
   <polygon class="fil5" points="7594.91,37974.53 15189.81,37974.53 15189.81,45569.43 7594.91,45569.43 "/>
   <polygon class="fil1" points="15189.81,7594.91 22784.69,7594.91 22784.69,15189.81 15189.81,15189.81 "/>
   <polygon class="fil3" points="15189.81,15189.81 22784.69,15189.81 22784.69,22784.72 15189.81,22784.72 "/>
   <polygon class="fil1" points="15189.81,22784.72 22784.69,22784.72 22784.69,30379.63 15189.81,30379.63 "/>
   <polygon class="fil1" points="15189.81,30379.63 22784.69,30379.63 22784.69,37974.53 15189.81,37974.53 "/>
   <polygon class="fil5" points="15189.81,37974.53 22784.69,37974.53 22784.69,45569.43 15189.81,45569.43 "/>
   <polygon class="fil1" points="22784.69,7594.91 30379.59,7594.91 30379.59,15189.81 22784.69,15189.81 "/>
   <polygon class="fil5" points="22784.69,15189.81 30379.59,15189.81 30379.59,22784.72 22784.69,22784.72 "/>
   <polygon class="fil0" points="22784.69,22784.72 30379.59,22784.72 30379.59,30379.63 22784.69,30379.63 "/>
   <polygon class="fil5" points="22784.69,30379.63 30379.59,30379.63 30379.59,37974.53 22784.69,37974.53 "/>
   <path class="fil4" d="M7594.91 7594.91c0,-4194.55 3400.35,-7594.91 7594.91,-7594.91l0 7594.91 -7594.91 0z"/>
   <path class="fil5" d="M22784.72 0.04c0,4194.55 -3400.35,7594.9 -7594.91,7594.9l0 -7594.9 7594.91 0z"/>
   <path class="fil4" d="M18987.22 0.04c0,2097.25 -1700.16,3797.4 -3797.41,3797.4l0 -3797.4 3797.41 0z"/>
   <path class="fil5" d="M11392.41 7594.91c0,-2097.25 1700.16,-3797.41 3797.41,-3797.41l0 3797.41 -3797.41 0z"/>
   <path class="fil5" d="M15189.84 7594.91c0,4194.55 -3400.35,7594.91 -7594.9,7594.91l0 -7594.91 7594.9 0z"/>
   <path class="fil4" d="M7594.94 11392.32c0,-2097.25 1700.15,-3797.41 3797.4,-3797.41l0 3797.41 -3797.4 0z"/>
   <path class="fil5" d="M0.04 7594.91c0,4194.55 3400.35,7594.91 7594.91,7594.91l0 -7594.91 -7594.91 0z"/>
   <path class="fil4" d="M7594.94 11392.32c0,-2097.25 -1700.16,-3797.41 -3797.41,-3797.41l0 3797.41 3797.41 0z"/>
   <path class="fil4" d="M7594.91 7594.91c0,-4194.55 -3400.35,-7594.91 -7594.91,-7594.91l0 7594.91 7594.91 0z"/>
   <path class="fil5" d="M3797.41 7594.91c0,-2097.25 -1700.16,-3797.41 -3797.41,-3797.41l0 3797.41 3797.41 0z"/>
   <path class="fil0" d="M0.04 22784.72c0,-4194.55 3400.35,-7594.91 7594.91,-7594.91l0 7594.91 -7594.91 0z"/>
   <path class="fil3" d="M3797.53 22784.72c0,-2097.25 1700.16,-3797.41 3797.41,-3797.41l0 3797.41 -3797.41 0z"/>
   <path class="fil3" d="M7594.91 22784.72c0,4194.55 -3400.35,7594.91 -7594.91,7594.91l0 -7594.91 7594.91 0z"/>
   <path class="fil0" d="M-0 26582.13c0,-2097.25 1700.16,-3797.41 3797.41,-3797.41l0 3797.41 -3797.41 0z"/>
   <path class="fil0" d="M15189.84 22784.72c0,-4194.55 -3400.35,-7594.91 -7594.9,-7594.91l0 7594.91 7594.9 0z"/>
   <path class="fil3" d="M11392.34 22784.72c0,-2097.25 -1700.15,-3797.41 -3797.4,-3797.41l0 3797.41 3797.4 0z"/>
   <path class="fil3" d="M15189.9 30379.66c0,-4194.55 -3400.35,-7594.91 -7594.91,-7594.91l0 7594.91 7594.91 0z"/>
   <path class="fil0" d="M11392.47 22784.72c0,2097.25 1700.16,3797.41 3797.41,3797.41l0 -3797.41 -3797.41 0z"/>
   <path class="fil0" d="M15189.9 15189.84c0,-4194.55 3400.35,-7594.91 7594.91,-7594.91l0 7594.91 -7594.91 0z"/>
   <path class="fil3" d="M18987.4 15189.84c0,-2097.25 1700.16,-3797.41 3797.41,-3797.41l0 3797.41 -3797.41 0z"/>
   <path class="fil3" d="M22784.78 22784.72c0,4194.55 -3400.35,7594.91 -7594.91,7594.91l0 -7594.91 7594.91 0z"/>
   <path class="fil5" d="M18987.29 22784.72c0,2097.25 -1700.16,3797.41 -3797.41,3797.41l0 -3797.41 3797.41 0z"/>
   <path class="fil3" d="M30379.72 7594.97c0,4194.55 -3400.35,7594.91 -7594.91,7594.91l0 -7594.91 7594.91 0z"/>
   <path class="fil4" d="M26582.22 7594.97c0,2097.25 -1700.16,3797.41 -3797.41,3797.41l0 -3797.41 3797.41 0z"/>
   <path class="fil0" d="M22784.84 7594.97c0,-4194.55 3400.36,-7594.91 7594.91,-7594.91l0 7594.91 -7594.91 0z"/>
   <path class="fil3" d="M26582.35 7594.97c0,-2097.25 1700.15,-3797.41 3797.4,-3797.41l0 3797.41 -3797.4 0z"/>
   <polygon class="fil4" points="15189.81,15189.81 18987.4,15189.81 18987.4,22784.72 15189.81,22784.72 "/>
   <path class="fil2" d="M22784.84 22784.78c0,-4194.55 3400.36,-7594.91 7594.91,-7594.91l0 7594.91 -7594.91 0z"/>
   <path class="fil3" d="M26582.35 22784.78c0,-2097.25 1700.15,-3797.41 3797.4,-3797.41l0 3797.41 -3797.4 0z"/>
   <path class="fil4" d="M30379.78 30379.72c0,4194.55 -3400.35,7594.91 -7594.91,7594.91l0 -7594.91 7594.91 0z"/>
   <path class="fil3" d="M26582.28 30379.72c0,2097.25 -1700.16,3797.41 -3797.41,3797.41l0 -3797.41 3797.41 0z"/>
   <path class="fil2" d="M15189.97 37974.65c0,-4194.55 3400.35,-7594.91 7594.91,-7594.91l0 7594.91 -7594.91 0z"/>
   <path class="fil4" d="M18987.46 37974.65c0,-2097.25 1700.16,-3797.41 3797.41,-3797.41l0 3797.41 -3797.41 0z"/>
   <path class="fil4" d="M22784.9 37974.65c0,4194.55 -3400.35,7594.91 -7594.9,7594.91l0 -7594.91 7594.9 0z"/>
   <path class="fil2" d="M18987.4 37974.65c0,2097.25 -1700.15,3797.41 -3797.4,3797.41l0 -3797.41 3797.4 0z"/>
   <path class="fil4" d="M7595.1 37974.65c0,4194.55 3400.35,7594.91 7594.91,7594.91l0 -7594.91 -7594.91 0z"/>
   <path class="fil0" d="M11392.59 37974.65c0,2097.25 1700.15,3797.41 3797.41,3797.41l0 -3797.41 -3797.41 0z"/>
   <path class="fil2" d="M15190.03 37974.65c0,-4194.55 -3400.35,-7594.91 -7594.91,-7594.91l0 7594.91 7594.91 0z"/>
   <path class="fil4" d="M11392.53 37974.65c0,-2097.25 -1700.16,-3797.41 -3797.41,-3797.41l0 3797.41 3797.41 0z"/>
   <path class="fil2" d="M0.22 37974.65c0,-4194.55 3400.35,-7594.91 7594.91,-7594.91l0 7594.91 -7594.91 0z"/>
   <path class="fil4" d="M3797.71 37974.65c0,-2097.25 1700.16,-3797.41 3797.41,-3797.41l0 3797.41 -3797.41 0z"/>
   <path class="fil4" d="M7594.91 37974.53c0,4194.55 -3400.36,7594.91 -7594.91,7594.91l0 -7594.91 7594.91 0z"/>
   <path class="fil1" d="M3797.65 37974.65c0,2097.25 -1700.15,3797.41 -3797.4,3797.41l0 -3797.41 3797.4 0z"/>
   <polygon class="fil2" points="22784.69,22784.72 26582.28,22784.72 26582.28,30379.63 22784.69,30379.63 "/>
   <path class="fil3" d="M22784.9 45569.59c0,-4194.55 3400.35,-7594.9 7594.91,-7594.9l0 7594.9 -7594.91 0z"/>
   <path class="fil1" d="M26582.4 45569.59c0,-2097.25 1700.16,-3797.4 3797.41,-3797.4l0 3797.4 -3797.41 0z"/>
   <path class="fil4" d="M0.13 11392.32c0,2097.25 1700.16,3797.41 3797.41,3797.41l0 -3797.41 -3797.41 0z"/>
   <path class="fil0" d="M7594.82 26582.13c0,2097.25 -1700.16,3797.4 -3797.41,3797.4l0 -3797.4 3797.41 0z"/>
   <path class="fil2" d="M3797.65 45569.47c0,-2097.25 1700.16,-3797.41 3797.41,-3797.41l0 3797.41 -3797.41 0z"/>
  </g>
 </g>
</svg>
