<?xml version="1.0" encoding="utf-8"?>
<!-- Generator: Adobe Illustrator 23.0.6, SVG Export Plug-In . SVG Version: 6.00 Build 0)  -->
<svg version="1.1" id="Seamless_pattern" xmlns="http://www.w3.org/2000/svg" xmlns:xlink="http://www.w3.org/1999/xlink" x="0px"
	 y="0px" width="4000px" height="4000px" viewBox="0 0 4000 4000" enable-background="new 0 0 4000 4000" xml:space="preserve">
<rect id="_x32_" fill="#FDFEFF" width="4000" height="4000"/>
<g id="_x31_">
	<g>
		<circle fill="#E1F44A" cx="500" cy="500" r="500"/>
		<circle fill="#B4C9FE" cx="500" cy="500" r="250"/>
	</g>
	<circle fill="#5353EB" cx="1500" cy="2500" r="500"/>
	<circle fill="#E1F44A" cx="1500" cy="2500" r="250"/>
	<g>
		<g>
			<path fill="#E1F44A" d="M1000,1901.961v-19.608c51.622,0,101.694-10.108,148.826-30.043
				c45.529-19.257,86.421-46.828,121.538-81.946c35.117-35.118,62.688-76.009,81.945-121.538
				c19.935-47.133,30.043-97.204,30.043-148.826c0-51.622-10.108-101.694-30.043-148.826
				c-19.257-45.529-46.828-86.421-81.945-121.538c-35.118-35.117-76.01-62.688-121.538-81.945
				c-47.132-19.935-97.204-30.043-148.826-30.043v-19.608c54.26,0,106.903,10.629,156.464,31.592
				c47.866,20.246,90.852,49.227,127.765,86.14c36.912,36.913,65.894,79.899,86.14,127.765
				c20.963,49.562,31.592,102.204,31.592,156.464s-10.629,106.902-31.592,156.464c-20.246,47.866-49.227,90.853-86.14,127.765
				c-36.913,36.912-79.899,65.893-127.765,86.14C1106.903,1891.332,1054.26,1901.961,1000,1901.961z"/>
		</g>
		<g>
			<path fill="#E1F44A" d="M1000,1803.922v-19.608c75.943,0,147.34-29.573,201.04-83.274c53.7-53.699,83.274-125.097,83.274-201.04
				c0-75.943-29.574-147.34-83.274-201.04s-125.097-83.274-201.04-83.274v-19.608c81.181,0,157.502,31.613,214.905,89.016
				c57.403,57.403,89.017,133.725,89.017,214.905c0,81.18-31.613,157.502-89.017,214.905
				C1157.502,1772.309,1081.181,1803.922,1000,1803.922z"/>
		</g>
		<g>
			<path fill="#E1F44A" d="M1000,1705.882v-19.608c102.712,0,186.274-83.562,186.274-186.275
				c0-102.712-83.562-186.274-186.274-186.274v-19.608c113.524,0,205.882,92.359,205.882,205.882
				C1205.882,1613.524,1113.524,1705.882,1000,1705.882z"/>
		</g>
		<g>
			<path fill="#E1F44A" d="M1000,1607.843v-19.608c48.653,0,88.235-39.582,88.235-88.235c0-48.653-39.582-88.235-88.235-88.235
				v-19.608c59.465,0,107.843,48.378,107.843,107.843C1107.843,1559.465,1059.465,1607.843,1000,1607.843z"/>
		</g>
		<g>
			<g>
				<path fill="#E1F44A" d="M1000,2000v-19.608c64.857,0,127.768-12.7,186.987-37.748c57.204-24.195,108.58-58.834,152.701-102.956
					c44.122-44.121,78.761-95.497,102.957-152.701c25.047-59.219,37.747-122.131,37.747-186.988
					c0-64.857-12.7-127.769-37.747-186.988c-24.195-57.203-58.835-108.579-102.957-152.701
					c-44.121-44.121-95.497-78.761-152.701-102.956c-59.219-25.047-122.131-37.747-186.987-37.747V1000
					c67.495,0,132.977,13.221,194.626,39.297c59.541,25.183,113.012,61.234,158.928,107.15
					c45.916,45.916,81.966,99.387,107.15,158.927C1486.779,1367.023,1500,1432.504,1500,1500
					c0,67.496-13.221,132.977-39.297,194.626c-25.184,59.541-61.234,113.011-107.15,158.927
					c-45.916,45.917-99.387,81.967-158.928,107.151C1132.977,1986.779,1067.495,2000,1000,2000z"/>
			</g>
			<g>
				<path fill="#E1F44A" d="M2000,1000v19.608c-64.857,0-127.768,12.7-186.987,37.748c-57.203,24.195-108.58,58.834-152.701,102.956
					c-44.122,44.121-78.761,95.497-102.957,152.701c-25.047,59.219-37.747,122.131-37.747,186.988
					c0,64.857,12.7,127.769,37.747,186.988c24.195,57.203,58.835,108.579,102.957,152.701
					c44.121,44.121,95.497,78.761,152.701,102.956c59.219,25.047,122.131,37.747,186.987,37.747V2000
					c-67.495,0-132.977-13.221-194.625-39.297c-59.541-25.183-113.012-61.234-158.928-107.15
					c-45.916-45.916-81.966-99.387-107.15-158.927C1513.221,1632.977,1500,1567.496,1500,1500
					c0-67.496,13.221-132.977,39.297-194.626c25.184-59.541,61.234-113.011,107.15-158.927
					c45.916-45.917,99.387-81.967,158.928-107.151C1867.023,1013.221,1932.505,1000,2000,1000z"/>
			</g>
			<g>
				<path fill="#E1F44A" d="M2000,1098.039v19.608c-51.622,0-101.694,10.108-148.826,30.043
					c-45.529,19.257-86.421,46.828-121.538,81.946c-35.117,35.118-62.688,76.009-81.945,121.538
					c-19.935,47.133-30.043,97.204-30.043,148.826c0,51.622,10.108,101.694,30.043,148.826
					c19.257,45.529,46.828,86.421,81.945,121.538c35.118,35.117,76.01,62.688,121.538,81.945
					c47.132,19.935,97.204,30.043,148.826,30.043v19.608c-54.26,0-106.902-10.629-156.464-31.592
					c-47.866-20.246-90.852-49.227-127.765-86.14c-36.912-36.913-65.894-79.899-86.14-127.765
					c-20.963-49.562-31.592-102.204-31.592-156.464s10.629-106.902,31.592-156.464c20.246-47.866,49.227-90.853,86.14-127.765
					c36.913-36.912,79.899-65.893,127.765-86.14C1893.098,1108.668,1945.74,1098.039,2000,1098.039z"/>
			</g>
			<g>
				<path fill="#E1F44A" d="M2000,1196.078v19.608c-75.943,0-147.34,29.574-201.04,83.274
					c-53.7,53.699-83.274,125.097-83.274,201.04c0,75.943,29.574,147.34,83.274,201.04s125.097,83.273,201.04,83.273v19.608
					c-81.181,0-157.502-31.613-214.905-89.017c-57.403-57.403-89.017-133.725-89.017-214.905c0-81.18,31.613-157.502,89.017-214.905
					C1842.498,1227.691,1918.819,1196.078,2000,1196.078z"/>
			</g>
			<g>
				<path fill="#E1F44A" d="M2000,1294.118v19.608c-102.712,0-186.274,83.562-186.274,186.274
					c0,102.712,83.562,186.275,186.274,186.275v19.608c-113.524,0-205.882-92.359-205.882-205.882
					C1794.118,1386.477,1886.476,1294.118,2000,1294.118z"/>
			</g>
			<g>
				<path fill="#E1F44A" d="M2000,1392.157v19.608c-48.653,0-88.235,39.582-88.235,88.235c0,48.653,39.582,88.235,88.235,88.235
					v19.608c-59.465,0-107.843-48.378-107.843-107.843C1892.157,1440.535,1940.535,1392.157,2000,1392.157z"/>
			</g>
		</g>
		<g>
			<path fill="#E1F44A" d="M1000,2000v-19.608c64.857,0,127.768-12.7,186.987-37.748c57.204-24.195,108.58-58.834,152.701-102.956
				c44.122-44.121,78.761-95.497,102.957-152.701c25.047-59.219,37.747-122.131,37.747-186.988
				c0-64.857-12.7-127.769-37.747-186.988c-24.195-57.203-58.835-108.579-102.957-152.701
				c-44.121-44.121-95.497-78.761-152.701-102.956c-59.219-25.047-122.131-37.747-186.987-37.747V1000
				c67.495,0,132.977,13.221,194.626,39.297c59.541,25.183,113.012,61.234,158.928,107.15
				c45.916,45.916,81.966,99.387,107.15,158.927C1486.779,1367.023,1500,1432.504,1500,1500c0,67.496-13.221,132.977-39.297,194.626
				c-25.184,59.541-61.234,113.011-107.15,158.927c-45.916,45.917-99.387,81.967-158.928,107.151
				C1132.977,1986.779,1067.495,2000,1000,2000z"/>
		</g>
		<g>
			<path fill="#E1F44A" d="M1000,1901.961v-19.608c51.622,0,101.694-10.108,148.826-30.043
				c45.529-19.257,86.421-46.828,121.538-81.946c35.117-35.118,62.688-76.009,81.945-121.538
				c19.935-47.133,30.043-97.204,30.043-148.826c0-51.622-10.108-101.694-30.043-148.826
				c-19.257-45.529-46.828-86.421-81.945-121.538c-35.118-35.117-76.01-62.688-121.538-81.945
				c-47.132-19.935-97.204-30.043-148.826-30.043v-19.608c54.26,0,106.903,10.629,156.464,31.592
				c47.866,20.246,90.852,49.227,127.765,86.14c36.912,36.913,65.894,79.899,86.14,127.765
				c20.963,49.562,31.592,102.204,31.592,156.464s-10.629,106.902-31.592,156.464c-20.246,47.866-49.227,90.853-86.14,127.765
				c-36.913,36.912-79.899,65.893-127.765,86.14C1106.903,1891.332,1054.26,1901.961,1000,1901.961z"/>
		</g>
		<g>
			<path fill="#E1F44A" d="M1000,1803.922v-19.608c75.943,0,147.34-29.573,201.04-83.274c53.7-53.699,83.274-125.097,83.274-201.04
				c0-75.943-29.574-147.34-83.274-201.04s-125.097-83.274-201.04-83.274v-19.608c81.181,0,157.502,31.613,214.905,89.016
				c57.403,57.403,89.017,133.725,89.017,214.905c0,81.18-31.613,157.502-89.017,214.905
				C1157.502,1772.309,1081.181,1803.922,1000,1803.922z"/>
		</g>
		<g>
			<path fill="#E1F44A" d="M1000,1705.882v-19.608c102.712,0,186.274-83.562,186.274-186.275
				c0-102.712-83.562-186.274-186.274-186.274v-19.608c113.524,0,205.882,92.359,205.882,205.882
				C1205.882,1613.524,1113.524,1705.882,1000,1705.882z"/>
		</g>
		<g>
			<path fill="#E1F44A" d="M1000,1607.843v-19.608c48.653,0,88.235-39.582,88.235-88.235c0-48.653-39.582-88.235-88.235-88.235
				v-19.608c59.465,0,107.843,48.378,107.843,107.843C1107.843,1559.465,1059.465,1607.843,1000,1607.843z"/>
		</g>
	</g>
	<g>
		<g>
			<path fill="#5353EB" d="M3500,3000c-67.496,0-132.977-13.221-194.626-39.296c-59.541-25.184-113.011-61.234-158.927-107.151
				c-45.917-45.916-81.967-99.386-107.151-158.927C3013.221,2632.977,3000,2567.496,3000,2500s13.221-132.977,39.296-194.626
				c25.184-59.541,61.234-113.011,107.151-158.927c45.916-45.917,99.386-81.967,158.927-107.151
				C3367.023,2013.221,3432.504,2000,3500,2000s132.977,13.221,194.626,39.296c59.541,25.184,113.011,61.234,158.927,107.151
				c45.917,45.916,81.967,99.386,107.151,158.927C3986.779,2367.023,4000,2432.504,4000,2500s-13.221,132.977-39.296,194.626
				c-25.184,59.541-61.234,113.011-107.151,158.927c-45.916,45.917-99.386,81.967-158.927,107.151
				C3632.977,2986.779,3567.496,3000,3500,3000z M3500,2019.608c-64.857,0-127.769,12.7-186.988,37.748
				c-57.204,24.195-108.579,58.834-152.701,102.956c-44.121,44.122-78.761,95.497-102.956,152.701
				c-25.048,59.219-37.748,122.131-37.748,186.988s12.7,127.769,37.748,186.988c24.195,57.204,58.834,108.579,102.956,152.701
				c44.122,44.121,95.497,78.761,152.701,102.956c59.219,25.048,122.131,37.748,186.988,37.748s127.769-12.7,186.988-37.748
				c57.204-24.195,108.579-58.834,152.701-102.956c44.121-44.122,78.761-95.497,102.956-152.701
				c25.048-59.219,37.748-122.131,37.748-186.988s-12.7-127.769-37.748-186.988c-24.195-57.204-58.834-108.579-102.956-152.701
				c-44.122-44.121-95.497-78.761-152.701-102.956C3627.769,2032.308,3564.857,2019.608,3500,2019.608z"/>
		</g>
		<g>
			<path fill="#5353EB" d="M3500,2901.961c-54.26,0-106.902-10.629-156.464-31.592c-47.866-20.246-90.853-49.227-127.765-86.139
				s-65.893-79.899-86.139-127.765c-20.963-49.562-31.592-102.204-31.592-156.464s10.629-106.902,31.592-156.464
				c20.246-47.866,49.227-90.853,86.139-127.765s79.899-65.893,127.765-86.139c49.562-20.963,102.204-31.592,156.464-31.592
				s106.902,10.629,156.464,31.592c47.866,20.246,90.853,49.227,127.765,86.139s65.893,79.899,86.139,127.765
				c20.963,49.562,31.592,102.204,31.592,156.464s-10.629,106.902-31.592,156.464c-20.246,47.866-49.227,90.853-86.139,127.765
				s-79.899,65.893-127.765,86.139C3606.902,2891.332,3554.26,2901.961,3500,2901.961z M3500,2117.647
				c-51.622,0-101.694,10.108-148.826,30.043c-45.529,19.258-86.42,46.828-121.538,81.946s-62.688,76.009-81.946,121.538
				c-19.934,47.133-30.043,97.204-30.043,148.826s10.108,101.694,30.043,148.826c19.258,45.529,46.828,86.42,81.946,121.538
				s76.009,62.688,121.538,81.946c47.133,19.934,97.204,30.043,148.826,30.043s101.694-10.108,148.826-30.043
				c45.529-19.258,86.42-46.828,121.538-81.946s62.688-76.009,81.946-121.538c19.934-47.133,30.043-97.204,30.043-148.826
				s-10.108-101.694-30.043-148.826c-19.258-45.529-46.828-86.42-81.946-121.538s-76.009-62.688-121.538-81.946
				C3601.694,2127.755,3551.622,2117.647,3500,2117.647z"/>
		</g>
		<g>
			<path fill="#5353EB" d="M3500,2803.922c-81.18,0-157.502-31.613-214.905-89.017c-57.404-57.403-89.017-133.725-89.017-214.905
				s31.613-157.502,89.017-214.905c57.403-57.404,133.725-89.017,214.905-89.017s157.502,31.613,214.905,89.017
				c57.404,57.403,89.017,133.725,89.017,214.905s-31.613,157.502-89.017,214.905C3657.502,2772.309,3581.18,2803.922,3500,2803.922
				z M3500,2215.686c-75.943,0-147.34,29.573-201.04,83.274c-53.7,53.699-83.274,125.097-83.274,201.04s29.573,147.34,83.274,201.04
				c53.699,53.7,125.097,83.274,201.04,83.274s147.34-29.573,201.04-83.274c53.7-53.699,83.274-125.097,83.274-201.04
				s-29.573-147.34-83.274-201.04C3647.34,2245.26,3575.943,2215.686,3500,2215.686z"/>
		</g>
		<g>
			<path fill="#5353EB" d="M3500,2705.882c-113.523,0-205.882-92.359-205.882-205.882s92.359-205.882,205.882-205.882
				s205.882,92.359,205.882,205.882S3613.523,2705.882,3500,2705.882z M3500,2313.726c-102.712,0-186.274,83.562-186.274,186.274
				s83.562,186.274,186.274,186.274s186.274-83.562,186.274-186.274S3602.712,2313.726,3500,2313.726z"/>
		</g>
		<g>
			<path fill="#5353EB" d="M3500,2607.843c-59.465,0-107.843-48.378-107.843-107.843s48.378-107.843,107.843-107.843
				s107.843,48.378,107.843,107.843S3559.465,2607.843,3500,2607.843z"/>
		</g>
	</g>
	<g>
		<g>
			<path fill="#B4C9FE" d="M1500,500h-500v500C1276.142,1000,1500,776.142,1500,500z"/>
		</g>
		<g>
			<path fill="#B4C9FE" d="M1000,500h500V0C1223.858,0,1000,223.858,1000,500z"/>
		</g>
	</g>
	<g>
		<g>
			<g>
				<path fill="#E1F44A" d="M500,2500H0v500C276.142,3000,500,2776.142,500,2500z"/>
			</g>
			<g>
				<path fill="#B4C9FE" d="M0,2500L0,2500c276.143,0,500-223.857,500-500v0C223.858,2000,0,2223.858,0,2500z"/>
			</g>
		</g>
		<g>
			<g>
				<path fill="#B4C9FE" d="M0,3500L0,3500c276.143,0,500,223.857,500,500v0C223.858,4000,0,3776.142,0,3500z"/>
			</g>
			<g>
				<path fill="#E1F44A" d="M500,3500H0l0-500C276.142,3000,500,3223.858,500,3500z"/>
			</g>
		</g>
		<g>
			<g>
				<path fill="#E1F44A" d="M500,3500h500v-500C723.858,3000,500,3223.858,500,3500z"/>
			</g>
			<g>
				<path fill="#B4C9FE" d="M1000,3500L1000,3500c-276.143,0-500,223.857-500,500v0C776.142,4000,1000,3776.142,1000,3500z"/>
			</g>
		</g>
		<g>
			<g>
				<path fill="#B4C9FE" d="M1000,2500L1000,2500c-276.143,0-500-223.857-500-500v0C776.142,2000,1000,2223.858,1000,2500z"/>
			</g>
			<g>
				<path fill="#E1F44A" d="M500,2500h500v500C723.858,3000,500,2776.142,500,2500z"/>
			</g>
		</g>
	</g>
	<g>
		<g>
			<path fill="#B4C9FE" d="M2000,500h-500v500C1776.142,1000,2000,776.142,2000,500z"/>
		</g>
		<g>
			<path fill="#B4C9FE" d="M1500,500h500V0C1723.858,0,1500,223.858,1500,500z"/>
		</g>
	</g>
	<g>
		<g>
			<path fill="#E1F44A" d="M3500,1500v-500h-500C3000,1276.143,3223.858,1500,3500,1500z"/>
		</g>
		<g>
			<path fill="#B4C9FE" d="M3500,1000v500h500C4000,1223.858,3776.142,1000,3500,1000z"/>
		</g>
	</g>
	<g>
		<g>
			<path fill="#B4C9FE" d="M3500,2000v-500h-500C3000,1776.143,3223.858,2000,3500,2000z"/>
		</g>
		<g>
			<path fill="#E1F44A" d="M3500,1500v500h500C4000,1723.858,3776.142,1500,3500,1500z"/>
		</g>
	</g>
	<g>
		<g>
			<path fill="#5353EB" d="M500,2000v-500H0C0,1776.142,223.858,2000,500,2000z"/>
		</g>
		<g>
			<path fill="#5353EB" d="M500,2000v-500h500C1000,1776.142,776.142,2000,500,2000z"/>
		</g>
		<g>
			<path fill="#5353EB" d="M500,1500h500v-500C723.858,1000,500,1223.858,500,1500z"/>
		</g>
		<g>
			<path fill="#5353EB" d="M500,1500H0l0-500C276.142,1000,500,1223.858,500,1500z"/>
		</g>
	</g>
	<g>
		<g>
			<path fill="#5353EB" d="M3500,3000v500h500C4000,3223.857,3776.142,3000,3500,3000z"/>
		</g>
		<g>
			<path fill="#5353EB" d="M3500,3000v500h-500C3000,3223.857,3223.858,3000,3500,3000z"/>
		</g>
		<g>
			<path fill="#5353EB" d="M3500,3500h-500v500C3276.142,4000,3500,3776.142,3500,3500z"/>
		</g>
		<g>
			<path fill="#5353EB" d="M3500,3500h500v500C3723.857,4000,3500,3776.142,3500,3500z"/>
		</g>
	</g>
	<g>
		<g>
			<path fill="#5353EB" d="M3000,1000h-500V500C2776.143,500,3000,723.858,3000,1000z"/>
		</g>
		<g>
			<path fill="#E1F44A" d="M2000,500v500h500C2500,723.858,2276.143,500,2000,500z"/>
		</g>
		<g>
			<path fill="#E1F44A" d="M3000,500h-500V0C2776.143,0,3000,223.858,3000,500z"/>
		</g>
		<g>
			<path fill="#5353EB" d="M2500,500h-500V0C2276.143,0,2500,223.858,2500,500z"/>
		</g>
	</g>
	<g>
		<path fill="#E1F44A" d="M2633.688,3133.688c-138.062,138.063-133.672,366.297-133.672,366.297s228.234,4.39,366.296-133.672
			c138.062-138.063,133.672-366.297,133.672-366.297S2771.75,2995.625,2633.688,3133.688z"/>
		<path fill="#E1F44A" d="M2366.312,3133.688c138.062,138.063,133.672,366.297,133.672,366.297s-228.234,4.39-366.296-133.672
			c-138.062-138.063-133.672-366.297-133.672-366.297S2228.25,2995.625,2366.312,3133.688z"/>
		<path fill="#E1F44A" d="M2366.312,3866.312c138.062-138.063,133.672-366.297,133.672-366.297s-228.234-4.39-366.296,133.672
			c-138.062,138.063-133.672,366.297-133.672,366.297S2228.25,4004.375,2366.312,3866.312z"/>
		<path fill="#E1F44A" d="M2633.688,3866.312c-138.062-138.063-133.672-366.297-133.672-366.297s228.234-4.39,366.296,133.672
			c138.062,138.063,133.672,366.297,133.672,366.297S2771.75,4004.375,2633.688,3866.312z"/>
	</g>
	<g>
		<g>
			<path fill="#5353EB" d="M1000,3000v1000h1000C2000,3447.715,1552.285,3000,1000,3000z"/>
		</g>
		<g>
			<path fill="#E1F44A" d="M1353.553,3646.447c-45.916-45.916-99.387-81.967-158.928-107.15
				C1132.977,3513.221,1067.495,3500,1000,3500v19.608c64.856,0,127.768,12.7,186.987,37.747
				c57.203,24.195,108.58,58.835,152.701,102.956c44.122,44.122,78.761,95.498,102.956,152.701
				c25.047,59.219,37.748,122.131,37.748,186.988H1500c0-67.496-13.222-132.977-39.297-194.626
				C1435.52,3745.833,1399.469,3692.362,1353.553,3646.447z"/>
			<path fill="#E1F44A" d="M1284.23,3715.771c-36.913-36.912-79.899-65.894-127.765-86.139
				c-49.562-20.963-102.205-31.592-156.464-31.592v19.608c51.622,0,101.694,10.108,148.826,30.043
				c45.529,19.257,86.42,46.828,121.538,81.945c35.118,35.118,62.688,76.01,81.945,121.539
				c19.936,47.133,30.043,97.204,30.043,148.826h19.608c0-54.26-10.629-106.902-31.592-156.465
				C1350.123,3795.669,1321.142,3752.683,1284.23,3715.771z"/>
			<path fill="#E1F44A" d="M1000,3696.078v19.608c75.943,0,147.34,29.573,201.04,83.273c53.7,53.7,83.273,125.097,83.273,201.04
				h19.608c0-81.18-31.613-157.502-89.017-214.905C1157.501,3727.692,1081.181,3696.078,1000,3696.078z"/>
			<path fill="#E1F44A" d="M1000,3794.118v19.608c102.712,0,186.274,83.562,186.274,186.275h19.608
				C1205.882,3886.477,1113.524,3794.118,1000,3794.118z"/>
			<path fill="#E1F44A" d="M1000,3892.157v19.608c48.653,0,88.235,39.582,88.235,88.235h19.607
				C1107.843,3940.535,1059.465,3892.157,1000,3892.157z"/>
		</g>
	</g>
	<path fill="#5353EB" d="M500,2795.378L500,2795.378c47.238,86.371,118.251,157.384,204.622,204.622h0l0,0
		c-86.37,47.238-157.384,118.251-204.622,204.622l0,0l0,0c-47.238-86.37-118.251-157.384-204.622-204.622l0,0h0
		C381.749,2952.762,452.762,2881.749,500,2795.378L500,2795.378z"/>
	<g>
		<g>
			<path fill="#B4C9FE" d="M2000,3000L2000,3000c276.143,0,500-223.857,500-500v0C2223.858,2500,2000,2723.858,2000,3000z"/>
		</g>
		<g>
			<path fill="#5353EB" d="M2500,2500h-500v-500C2276.143,2000,2500,2223.858,2500,2500z"/>
		</g>
	</g>
	<g>
		<g>
			<g>
				<path fill="#5353EB" d="M2500,1500h-500v500C2276.143,2000,2500,1776.142,2500,1500z"/>
			</g>
			<g>
				<path fill="#B4C9FE" d="M2000,1500L2000,1500c276.143,0,500-223.857,500-500v0C2223.858,1000,2000,1223.858,2000,1500z"/>
			</g>
		</g>
		<g>
			<g>
				<path fill="#5353EB" d="M2500,2500h500v-500C2723.858,2000,2500,2223.858,2500,2500z"/>
			</g>
			<g>
				<path fill="#B4C9FE" d="M3000,3000L3000,3000c-276.143,0-500-223.857-500-500v0C2776.143,2500,3000,2723.858,3000,3000z"/>
			</g>
		</g>
		<g>
			<g>
				<path fill="#B4C9FE" d="M3000,1500L3000,1500c-276.143,0-500-223.857-500-500v0C2776.143,1000,3000,1223.858,3000,1500z"/>
			</g>
			<g>
				<path fill="#5353EB" d="M2500,1500h500v500C2723.858,2000,2500,1776.142,2500,1500z"/>
			</g>
		</g>
	</g>
	<path fill="#E1F44A" d="M2500,1803.922L2500,1803.922c47.238,86.371,118.251,157.384,204.622,204.622v0l0,0
		c-86.371,47.238-157.384,118.251-204.622,204.622v0l0,0c-47.238-86.37-118.251-157.384-204.622-204.622h0l0,0
		C2381.749,1961.306,2452.762,1890.292,2500,1803.922L2500,1803.922z"/>
	<g>
		<g>
			<g>
				<path fill="#E1F44A" d="M3500,901.961v-19.608c51.622,0,101.694-10.108,148.826-30.043
					c45.529-19.257,86.421-46.828,121.539-81.946c35.117-35.118,62.688-76.009,81.945-121.538
					c19.935-47.133,30.043-97.204,30.043-148.826s-10.108-101.694-30.043-148.826c-19.257-45.529-46.828-86.421-81.945-121.538
					c-35.118-35.117-76.01-62.688-121.539-81.945c-47.132-19.935-97.204-30.043-148.826-30.043V98.039
					c54.26,0,106.903,10.629,156.464,31.592c47.866,20.246,90.853,49.227,127.765,86.14c36.912,36.913,65.894,79.899,86.139,127.765
					c20.963,49.562,31.592,102.204,31.592,156.464s-10.629,106.902-31.592,156.464c-20.246,47.866-49.227,90.853-86.139,127.765
					c-36.913,36.912-79.899,65.893-127.765,86.139C3606.903,891.332,3554.26,901.961,3500,901.961z"/>
			</g>
			<g>
				<path fill="#E1F44A" d="M3500,803.922v-19.608c75.943,0,147.34-29.574,201.04-83.274c53.7-53.699,83.273-125.097,83.273-201.04
					s-29.573-147.34-83.273-201.04s-125.097-83.273-201.04-83.273v-19.608c81.181,0,157.502,31.613,214.905,89.017
					c57.403,57.403,89.017,133.725,89.017,214.905s-31.613,157.502-89.017,214.905C3657.502,772.309,3581.181,803.922,3500,803.922z
					"/>
			</g>
			<g>
				<path fill="#E1F44A" d="M3500,705.882v-19.608c102.712,0,186.274-83.562,186.274-186.275S3602.712,313.725,3500,313.725v-19.608
					c113.524,0,205.882,92.359,205.882,205.882S3613.524,705.882,3500,705.882z"/>
			</g>
			<g>
				<path fill="#E1F44A" d="M3500,607.843v-19.608c48.653,0,88.235-39.582,88.235-88.235s-39.583-88.235-88.235-88.235v-19.608
					c59.465,0,107.843,48.378,107.843,107.843S3559.465,607.843,3500,607.843z"/>
			</g>
			<path fill="#B4C9FE" d="M3500,1000v-19.608c64.857,0,127.768-12.7,186.987-37.748c57.204-24.195,108.58-58.834,152.701-102.956
				c44.122-44.121,78.761-95.497,102.957-152.701c25.047-59.219,37.747-122.131,37.747-186.988s-12.7-127.769-37.747-186.988
				c-24.195-57.203-58.835-108.579-102.957-152.701c-44.121-44.121-95.497-78.761-152.701-102.956
				C3627.768,32.308,3564.857,19.608,3500,19.608V0c67.495,0,132.977,13.221,194.625,39.297
				c59.541,25.183,113.012,61.234,158.928,107.15c45.916,45.916,81.966,99.387,107.15,158.927
				C3986.779,367.023,4000,432.504,4000,500s-13.221,132.977-39.297,194.626c-25.184,59.541-61.234,113.011-107.15,158.927
				c-45.916,45.917-99.387,81.967-158.928,107.151C3632.977,986.779,3567.495,1000,3500,1000z"/>
			<g>
				<path fill="#B4C9FE" d="M3500,901.961v-19.608c51.622,0,101.694-10.108,148.826-30.043
					c45.529-19.257,86.421-46.828,121.539-81.946c35.117-35.118,62.688-76.009,81.945-121.538
					c19.935-47.133,30.043-97.204,30.043-148.826s-10.108-101.694-30.043-148.826c-19.257-45.529-46.828-86.421-81.945-121.538
					c-35.118-35.117-76.01-62.688-121.539-81.945c-47.132-19.935-97.204-30.043-148.826-30.043V98.039
					c54.26,0,106.903,10.629,156.464,31.592c47.866,20.246,90.853,49.227,127.765,86.14c36.912,36.913,65.894,79.899,86.139,127.765
					c20.963,49.562,31.592,102.204,31.592,156.464s-10.629,106.902-31.592,156.464c-20.246,47.866-49.227,90.853-86.139,127.765
					c-36.913,36.912-79.899,65.893-127.765,86.139C3606.903,891.332,3554.26,901.961,3500,901.961z"/>
			</g>
			<g>
				<path fill="#B4C9FE" d="M3500,803.922v-19.608c75.943,0,147.34-29.574,201.04-83.274c53.7-53.699,83.273-125.097,83.273-201.04
					s-29.573-147.34-83.273-201.04s-125.097-83.273-201.04-83.273v-19.608c81.181,0,157.502,31.613,214.905,89.017
					c57.403,57.403,89.017,133.725,89.017,214.905s-31.613,157.502-89.017,214.905C3657.502,772.309,3581.181,803.922,3500,803.922z
					"/>
			</g>
			<g>
				<path fill="#B4C9FE" d="M3500,705.882v-19.608c102.712,0,186.274-83.562,186.274-186.275S3602.712,313.725,3500,313.725v-19.608
					c113.524,0,205.882,92.359,205.882,205.882S3613.524,705.882,3500,705.882z"/>
			</g>
			<g>
				<path fill="#B4C9FE" d="M3500,607.843v-19.608c48.653,0,88.235-39.582,88.235-88.235s-39.583-88.235-88.235-88.235v-19.608
					c59.465,0,107.843,48.378,107.843,107.843S3559.465,607.843,3500,607.843z"/>
			</g>
		</g>
		<path fill="#B4C9FE" d="M3500,1000c-276.142,0-500-223.858-500-500S3223.858,0,3500,0V1000z"/>
	</g>
</g>
<g>
</g>
<g>
</g>
<g>
</g>
<g>
</g>
<g>
</g>
<g>
</g>
</svg>
