<?xml version="1.0" encoding="utf-8"?>
<!-- Generator: Adobe Illustrator 26.3.1, SVG Export Plug-In . SVG Version: 6.00 Build 0)  -->
<svg version="1.1" id="Layer_1" xmlns="http://www.w3.org/2000/svg" xmlns:xlink="http://www.w3.org/1999/xlink" x="0px" y="0px"
	 viewBox="0 0 2000 765" style="enable-background:new 0 0 2000 765;" xml:space="preserve">
<style type="text/css">
	.st0{fill:#FFFFFF;}
</style>
<g>
	<path class="st0" d="M351.1,554.4c-0.2-114-0.2-228.1-0.2-342.2c17.1,0,34.2,0,51.4,0c0,0.5,0.1,1.2,0.1,1.8
		c0,6.9,0.3,13.9-0.1,20.8c-0.2,4.1,1.1,7.3,3.5,10.4c4.3,5.9,8.5,11.9,12.8,17.8c7.7,10.7,15.3,21.4,23,32.2
		c4.7,6.7,9.4,13.4,14.2,20c7.2,10.2,14.5,20.4,21.7,30.6c4.7,6.7,9.4,13.4,14.2,20c1.1,1.5,2.1,3.1,3.4,4.9c2.4-3.4,4.7-6.6,7-9.9
		c7.3-10.3,14.7-20.7,22-31c9.9-14,19.9-27.9,29.8-42c7.3-10.3,14.5-20.8,21.8-31.1c3.6-5,7.3-9.9,10.8-15c0.7-1,1.1-2.4,1.1-3.6
		c0.1-8.2,0-16.4,0-24.6c0-0.5,0-1,0-1.6c16.5,0,32.8,0,49.3,0c0,114,0,227.9,0,342.1c-16.3,0.2-32.6,0.2-49.1,0
		c-0.2-75.9-0.2-151.6-0.2-227.2c-0.2-0.1-0.4-0.3-0.6-0.4c-0.2,0.3-0.3,0.7-0.5,1c-3.3,4.7-6.7,9.4-10.1,14.2
		c-7.3,10.3-14.6,20.5-21.9,30.8c-8.9,12.7-17.8,25.5-26.7,38.3c-4.5,6.5-9.2,12.8-13.8,19.3c-6.1,8.6-12.1,17.1-18.1,25.7
		c-0.8,1.2-1.3,1.2-2,0.1c-5.1-7.1-10.2-14.3-15.2-21.4c-6.6-9.4-12.9-19-19.5-28.4c-9.9-14-19.9-28-29.8-42
		c-7.3-10.3-14.7-20.7-22-31c-1.5-2.1-3-4.3-4.9-6.9c0,76.6,0,152.3,0,228.1C385.4,554.4,368.3,554.4,351.1,554.4z"/>
	<path class="st0" d="M1198.1,554.4c-0.2-114-0.2-228.1-0.2-342.2c83.6,0,167.2,0,250.8,0c0,16.1,0,32.3,0,48.6
		c-67.1,0-134.2,0-201.4,0c0,32.5,0,64.8,0,97.2c50.8,0,101.6,0,152.6,0c0,16.5,0,32.8,0,49.3c-50.8,0-101.6,0-152.6,0
		c0,32.6,0,65.1,0,97.7c67.1,0,134.2,0,201.5,0c0,16.4,0,32.7,0,49.1C1365.3,554.4,1281.8,554.4,1198.1,554.4z"/>
	<path class="st0" d="M658.1,554.4c-0.2-114-0.2-228.1-0.2-342.2c83.5,0,166.9,0,250.4,0c0,16.1,0,32.3,0,48.6
		c-66.9,0-133.9,0-201,0c0,32.5,0,64.8,0,97.2c50.6,0,101.3,0,152.1,0c0,16.5,0,32.8,0,49.3c-50.7,0-101.3,0-152.1,0
		c0,32.6,0,65.1,0,97.7c66.9,0,133.9,0,201.1,0c0,16.4,0,32.7,0,49.1C825,554.4,741.6,554.4,658.1,554.4z"/>
	<path class="st0" d="M1460.2,554.4c0.8-2.8,1.8-5.7,2.9-8.5c3.1-8,6.2-15.9,9.4-23.8c3.8-9.5,7.8-19,11.6-28.5
		c5.3-13.2,10.4-26.4,15.7-39.6c4.1-10.3,8.4-20.5,12.5-30.7c5.3-13.2,10.5-26.4,15.7-39.6c3.8-9.6,7.8-19.2,11.6-28.7
		c4.9-12.2,9.9-24.5,14.8-36.8c3.7-9.3,7.4-18.5,11.1-27.8c5.4-13.6,10.8-27.2,16.3-40.8c4.8-12,9.6-24,14.5-36
		c0.3-0.7,1.5-1.5,2.2-1.5c7.1-0.1,14.2-0.1,21.3,0c0.6,0,1.6,0.7,1.8,1.2c6.4,15.7,12.8,31.4,19.1,47.1c7,17.5,13.9,35.1,20.9,52.6
		c5.3,13.3,10.8,26.6,16.1,39.9c6.1,15.3,12.2,30.7,18.3,46c4.1,10.2,8.3,20.3,12.4,30.5c5,12.5,9.9,25.1,14.9,37.6
		c4.4,11.1,9,22.1,13.4,33.1c5.6,13.9,11.1,27.7,16.6,41.6c1.6,4.1,3.3,8.1,4.9,12.3c-17.5,0.2-35,0.2-52.7,0
		c-2.3-5.1-4.4-9.9-6.4-14.9c-6.1-15.2-12.2-30.3-18.2-45.6c-0.6-1.6-1.4-1.7-2.7-1.7c-28.7,0-57.3,0-86,0c-0.8,0-1.6,0-2.9,0
		c5.5-10,10.9-19.6,16.2-29.2c-0.2-0.2-0.3-0.3-0.3-0.3c-18.2,0-36.4-0.1-54.6,0c-0.5,0-1.2,0.5-1.4,1c-2.3,5.6-4.6,11.3-6.9,16.9
		c-3.5,8.7-6.9,17.3-10.3,26c-3.7,9.4-7.4,18.8-11.2,28.2c-2.6,6.6-5.4,13.1-8,19.7C1495.4,554.4,1477.9,554.4,1460.2,554.4
		 M1638.2,386.3c-0.1-0.3-0.3-0.5-0.4-0.8c-4.9-12-9.7-24.1-14.5-36.2c-3.5-8.9-7-17.7-10.6-26.6c-1-2.6-2.2-5.2-3.5-8.4
		c-13.3,33.2-26.4,65.9-39.6,98.8c11.3,0,22.3,0,33.2,0c10.9,0,21.9,0,33.3,0c-5.6,10-10.9,19.7-16.4,29.6c7.1,0,13.9,0,20.6,0
		c6.8,0,13.5,0,20.3,0c-0.1-0.6-0.2-1.1-0.4-1.6c-5.4-13.3-10.8-26.6-16.1-39.9C1642.1,396.4,1640.3,391.5,1638.2,386.3z"/>
	<path class="st0" d="M2000.4,320.3c-0.4,1.7-1,3.3-1.3,5c-1.1,4.9-1.8,10-3.2,14.8c-3.1,10.9-7.9,21-14.5,30.2
		c-4.9,6.8-10.7,12.9-17.2,18.2c-9.8,7.9-20.8,13.6-32.8,16.9c-6.1,1.7-12.5,3.1-18.8,3.3c-20.3,0.5-40.5,0.5-60.8,0.6
		c-7.3,0-14.6,0-22,0c-0.7,0-1.4,0-2.6,0c0.9-1.7,1.5-3.1,2.3-4.4c6.3-11.3,12.7-22.6,19-33.9c1.7-3.1,3.4-6.2,5-9.3
		c0.6-1.3,1.4-1.6,2.7-1.6c12.9,0,25.8,0.2,38.8,0c11.9-0.2,22.5-4,31.8-11.6c8.8-7.2,14.6-16.2,17.4-27.2
		c1.4-5.8,1.5-11.7,0.8-17.7c-1.4-11.5-6.6-21-14.9-28.7c-7.3-6.9-16-11.4-26-12.8c-4.3-0.6-8.7-0.9-13-0.9c-20.9-0.1-41.8,0-62.7,0
		c-0.8,0-1.6,0-2.6,0c0,97.8,0,195.5,0,293.3c-16.3,0.2-32.6,0.2-49.1,0.2c-0.2-114-0.2-228.1-0.2-342.3c0.7,0,1.4-0.1,2-0.1
		c45.4,0,90.8-0.1,136.2,0.1c5.6,0,11.2,1.5,16.7,2.8c6.9,1.7,13.5,4.4,19.8,7.8c6.6,3.6,12.7,7.9,18.2,13
		c6.5,5.9,11.9,12.6,16.4,20.1c4.7,7.9,8.4,16.2,10.6,25.2c1.5,6,2.5,12,3.6,18.1c0.3,1.5,0.1,3.1,0.3,4.8c0.2,3.8,0.2,7.6,0,11.6
		c-0.1,1.6,0.1,2.9,0.2,4.2C2000.4,319.7,2000.4,319.9,2000.4,320.3z"/>
	<path class="st0" d="M91.6,554.4c-0.2-44.5-0.2-89-0.2-133.5c0-1.8,0.3-2.7,2.3-3.3c3.6-1,7-2.6,10.4-4c0.5-0.2,0.8-1.1,1.1-1.8
		c0.1-0.2,0-0.4,0-0.7c0-49.4,0-98.9,0-148.3c0-0.6,0-1.2,0-2c-34.9,0-69.7,0-104.7,0c-0.2-16.1-0.2-32.3-0.2-48.6
		c86.1-0.2,172.2-0.2,258.4-0.2c0,16.2,0,32.4,0,48.7c-34.7,0-69.5,0-104.7,0c0,0.9,0,1.7,0,2.5c0,43.5,0,87.1,0,130.6
		c0,1.9-0.4,2.8-2.4,3.4c-3.4,1-6.7,2.5-10,4c-0.5,0.2-0.8,0.9-1,1.4c-0.2,0.5,0,1,0,1.6c0,50,0,99.9,0,150.1
		C124.4,554.4,108.1,554.4,91.6,554.4z"/>
	<path class="st0" d="M280.7,554.4c-0.2-114-0.2-228-0.2-342.2c16.2,0,32.4,0,48.8,0c0,113.8,0,227.8,0,342
		C313.2,554.4,297.1,554.4,280.7,554.4z"/>
	<path class="st0" d="M942,402c0-5.3,0-10.5,0-15.7c-4.2,1.6-8.2,3.2-12.4,4.8c0-59.8,0-119.3,0-178.9c16.5,0,33.2,0,50,0
		c0,52.3,0,104.7,0,157.3c4.3-1.8,8.3-3.5,12.4-5.2c0,47.1,0,94.1,0,141.2c63.1,0,126.3,0,189.7,0c0,16.2,0,32.2,0,48.3
		c-79.8,0-159.6,0-239.6,0C942,503.3,942,452.7,942,402z"/>
</g>
</svg>
