<svg version="1.1" id="Layer_1" xmlns="http://www.w3.org/2000/svg" xmlns:xlink="http://www.w3.org/1999/xlink" x="0px" y="0px"
	 width="100%" viewBox="0 0 4463 765" enable-background="new 0 0 4463 765" xml:space="preserve">
<path fill="#FFFFFF" opacity="1.000000" stroke="none" 
	d="
M626.000000,766.000000 
	C522.305298,766.000000 418.610596,766.000000 314.457947,765.531372 
	C314.000000,653.594238 314.000000,542.125854 314.000061,430.657410 
	C314.000061,429.491089 313.700226,428.213593 314.079895,427.187653 
	C314.515442,426.010803 315.330048,424.530975 316.365875,424.090607 
	C323.736420,420.957306 331.053497,417.542938 338.701172,415.276001 
	C343.199677,413.942566 344.080017,411.883698 344.075806,407.693298 
	C343.977722,310.554260 344.000000,213.415054 344.000000,116.275894 
	C344.000000,114.534103 344.000000,112.792320 344.000000,110.681976 
	C422.459717,110.681976 500.182922,110.681976 577.657715,110.681976 
	C577.657715,74.236465 577.657715,38.170864 577.657715,2.000000 
	C385.210327,2.000000 193.105164,2.000000 1.000000,2.000000 
	C1.166622,1.666667 1.315830,1.056195 1.502660,1.044456 
	C2.830631,0.961010 4.166296,1.000000 5.499510,1.000000 
	C1490.033813,1.000000 2974.568115,1.000000 4459.102539,1.000000 
	C4460.735352,1.000000 4462.367676,1.000000 4464.000000,1.000000 
	C4464.000000,69.429482 4464.000000,137.756790 4463.593750,206.378510 
	C4463.118164,203.179321 4463.514648,199.600708 4462.895996,196.207214 
	C4460.436035,182.717102 4458.188965,169.152618 4454.875000,155.862045 
	C4449.918457,135.982208 4441.732910,117.307457 4431.189453,99.734657 
	C4421.175293,83.043617 4409.041504,68.103874 4394.594727,54.937428 
	C4382.163086,43.606892 4368.613770,34.018078 4353.895508,26.001991 
	C4339.885254,18.371281 4325.203125,12.181702 4309.716797,8.495296 
	C4297.463379,5.578470 4284.874023,2.340691 4272.418457,2.279571 
	C4171.096191,1.782370 4069.770752,1.999029 3968.446289,2.009836 
	C3967.014893,2.009989 3965.583740,2.157983 3964.000000,2.245389 
	C3964.000000,257.077087 3964.000000,511.538544 3964.000000,766.000000 
	C3950.971924,766.000000 3937.944092,766.000000 3924.455566,765.611084 
	C3920.338135,756.168640 3916.649414,747.127747 3913.029541,738.059387 
	C3900.680420,707.120178 3888.412598,676.148315 3876.003418,645.233215 
	C3866.097412,620.553650 3855.944336,595.973145 3846.056641,571.286316 
	C3834.862793,543.337524 3823.921387,515.287415 3812.722656,487.340637 
	C3803.605225,464.587921 3794.175049,441.960510 3785.052246,419.209900 
	C3771.343018,385.020844 3757.843994,350.747467 3744.138916,316.556854 
	C3732.218994,286.819336 3720.042725,257.184570 3708.150879,227.435944 
	C3692.515625,188.322433 3677.132080,149.108124 3661.482178,110.000389 
	C3647.437256,74.902946 3633.205811,39.879707 3618.904785,4.885868 
	C3618.375000,3.589684 3616.255859,2.140626 3614.860596,2.123478 
	C3599.032227,1.928955 3583.198730,1.896396 3567.372070,2.148107 
	C3565.644043,2.175587 3563.016846,3.868505 3562.377197,5.431702 
	C3551.457275,32.115311 3540.767822,58.893444 3530.062988,85.664886 
	C3517.933350,115.999817 3505.837158,146.348038 3493.730469,176.692078 
	C3485.479980,197.370193 3477.264160,218.062057 3468.983154,238.727768 
	C3458.021240,266.084259 3447.034180,293.430695 3436.013184,320.763458 
	C3427.385986,342.160034 3418.606934,363.495575 3410.045898,384.918427 
	C3398.278564,414.364563 3386.737305,443.901306 3374.939941,473.335358 
	C3365.761963,496.235016 3356.231934,518.993591 3347.053711,541.893311 
	C3335.256592,571.327515 3323.732666,600.871094 3311.944092,630.308716 
	C3303.427490,651.575378 3294.601562,672.717896 3286.044922,693.968689 
	C3278.927002,711.646179 3271.964355,729.386597 3265.007568,747.128357 
	C3262.558105,753.374390 3260.329590,759.706970 3258.000000,766.000000 
	C3249.971924,766.000000 3241.944092,766.000000 3233.458008,765.531372 
	C3233.000000,728.795410 3233.000000,692.528198 3233.000000,655.864746 
	C3082.732910,655.864746 2932.995605,655.864746 2783.270264,655.864746 
	C2783.270264,583.061340 2783.270264,510.657043 2783.270264,437.854034 
	C2896.944336,437.854034 3010.348877,437.854034 3123.723633,437.854034 
	C3123.723633,401.049072 3123.723633,364.644196 3123.723633,327.841461 
	C3010.043213,327.841461 2896.638672,327.841461 2783.282227,327.841461 
	C2783.282227,255.370682 2783.282227,183.299683 2783.282227,110.830757 
	C2933.301270,110.830757 3083.038330,110.830757 3232.712158,110.830757 
	C3232.712158,74.359627 3232.712158,38.287991 3232.712158,2.289021 
	C3046.020996,2.289021 2859.617920,2.289021 2673.000000,2.289021 
	C2673.000000,257.052002 2673.000000,511.526001 2673.000000,766.000000 
	C2457.971924,766.000000 2242.943848,766.000000 2027.458008,765.531372 
	C2027.000000,728.795471 2027.000000,692.528259 2027.000000,655.864990 
	C1877.066650,655.864990 1727.662842,655.864990 1578.270020,655.864990 
	C1578.270020,583.061646 1578.270020,510.657257 1578.270020,437.854309 
	C1691.610596,437.854309 1804.681641,437.854309 1917.723633,437.854309 
	C1917.723633,401.049377 1917.723633,364.644409 1917.723633,327.841736 
	C1804.376831,327.841736 1691.305786,327.841736 1578.281982,327.841736 
	C1578.281982,255.370972 1578.281982,183.299866 1578.281982,110.830963 
	C1727.967407,110.830963 1877.371338,110.830963 2026.712402,110.830963 
	C2026.712402,74.359863 2026.712402,38.288147 2026.712402,2.288892 
	C1840.354858,2.288892 1654.285034,2.288892 1468.000000,2.288892 
	C1468.000000,257.051819 1468.000000,511.525909 1468.000000,766.000000 
	C1452.638672,766.000000 1437.277222,766.000000 1421.458008,765.531372 
	C1421.000000,510.821045 1421.000000,256.579437 1421.000000,2.226567 
	C1384.142822,2.226567 1347.741333,2.226567 1311.000000,2.226567 
	C1311.000000,3.578146 1311.000000,4.706798 1311.000000,5.835450 
	C1311.000000,24.166138 1311.099976,42.497967 1310.891235,60.826302 
	C1310.860352,63.545269 1309.992798,66.680954 1308.453979,68.884857 
	C1300.583862,80.156509 1292.227539,91.087593 1284.300293,102.320503 
	C1268.013550,125.398819 1251.981689,148.657104 1235.679443,171.724319 
	C1213.580200,202.994110 1191.323608,234.152725 1169.138184,265.361725 
	C1152.757690,288.404755 1136.378296,311.448639 1120.008667,334.499359 
	C1114.908691,341.680878 1109.841797,348.885895 1104.465210,356.497009 
	C1101.709351,352.497955 1099.361938,349.024445 1096.947021,345.598633 
	C1086.427979,330.676666 1075.905884,315.756805 1065.354004,300.858002 
	C1049.205444,278.056793 1033.022827,255.279587 1016.871155,232.480499 
	C1006.317871,217.583832 995.833374,202.638306 985.247437,187.764984 
	C968.194275,163.805435 951.079529,139.889740 933.997192,115.950943 
	C924.518188,102.667274 915.217285,89.252205 905.513794,76.134827 
	C900.323608,69.118767 897.244019,62.100307 897.762634,52.877552 
	C898.631226,37.428627 898.006226,21.895367 897.989685,6.397622 
	C897.988220,4.970461 897.842224,3.543455 897.774780,2.323514 
	C859.280884,2.323514 821.212219,2.323514 783.000000,2.323514 
	C783.000000,257.097992 783.000000,511.549011 783.000000,766.000000 
	C767.305298,766.000000 751.610596,766.000000 735.457947,765.531372 
	C735.000000,510.728699 735.000000,256.394684 735.000000,2.360843 
	C698.198486,2.360843 662.132935,2.360843 626.000000,2.360843 
	C626.000000,257.147797 626.000000,511.573883 626.000000,766.000000 
M2102.000000,426.500000 
	C2102.000000,539.252075 2102.000000,652.004150 2102.000000,764.743591 
	C2280.606201,764.743591 2458.662842,764.743591 2636.743652,764.743591 
	C2636.743652,728.751099 2636.743652,693.015625 2636.743652,656.897827 
	C2495.427734,656.897827 2354.367432,656.897827 2213.500000,656.897827 
	C2213.500000,551.720032 2213.500000,446.925873 2213.500000,341.771271 
	C2204.386475,345.610687 2195.432617,349.382721 2185.823730,353.430817 
	C2185.823730,235.871094 2185.823730,118.998131 2185.823730,2.333153 
	C2148.262939,2.333153 2111.193359,2.333153 2074.274658,2.333153 
	C2074.274658,135.396835 2074.274658,268.127228 2074.274658,401.567596 
	C2083.659424,397.961121 2092.576660,394.534241 2102.000000,390.912903 
	C2102.000000,402.637695 2102.000000,414.068848 2102.000000,426.500000 
z"/>
<path fill="#000000" opacity="1.000000" stroke="none" 
	d="
M783.468628,766.000000 
	C783.000000,511.549011 783.000000,257.097992 783.000000,2.323514 
	C821.212219,2.323514 859.280884,2.323514 897.774780,2.323514 
	C897.842224,3.543455 897.988220,4.970461 897.989685,6.397622 
	C898.006226,21.895367 898.631226,37.428627 897.762634,52.877552 
	C897.244019,62.100307 900.323608,69.118767 905.513794,76.134827 
	C915.217285,89.252205 924.518188,102.667274 933.997192,115.950943 
	C951.079529,139.889740 968.194275,163.805435 985.247437,187.764984 
	C995.833374,202.638306 1006.317871,217.583832 1016.871155,232.480499 
	C1033.022827,255.279587 1049.205444,278.056793 1065.354004,300.858002 
	C1075.905884,315.756805 1086.427979,330.676666 1096.947021,345.598633 
	C1099.361938,349.024445 1101.709351,352.497955 1104.465210,356.497009 
	C1109.841797,348.885895 1114.908691,341.680878 1120.008667,334.499359 
	C1136.378296,311.448639 1152.757690,288.404755 1169.138184,265.361725 
	C1191.323608,234.152725 1213.580200,202.994110 1235.679443,171.724319 
	C1251.981689,148.657104 1268.013550,125.398819 1284.300293,102.320503 
	C1292.227539,91.087593 1300.583862,80.156509 1308.453979,68.884857 
	C1309.992798,66.680954 1310.860352,63.545269 1310.891235,60.826302 
	C1311.099976,42.497967 1311.000000,24.166138 1311.000000,5.835450 
	C1311.000000,4.706798 1311.000000,3.578146 1311.000000,2.226567 
	C1347.741333,2.226567 1384.142822,2.226567 1421.000000,2.226567 
	C1421.000000,256.579437 1421.000000,510.821045 1421.000000,765.531372 
	C1384.645752,766.000000 1348.291504,766.000000 1311.468628,765.531372 
	C1311.000000,596.192871 1311.000000,427.323090 1311.000000,258.453308 
	C1310.556885,258.173248 1310.113892,257.893188 1309.670776,257.613098 
	C1309.327026,258.362640 1309.091919,259.188965 1308.623657,259.850403 
	C1301.151489,270.402710 1293.644165,280.930115 1286.155396,291.470673 
	C1269.877075,314.383087 1253.502686,337.228271 1237.355469,360.232788 
	C1217.420776,388.633087 1197.740234,417.211639 1177.824707,445.625275 
	C1167.710083,460.055939 1157.273560,474.260498 1147.066528,488.626862 
	C1133.507690,507.710693 1119.967896,526.808838 1106.592896,546.021179 
	C1104.773438,548.634583 1103.699707,548.659790 1102.029297,546.304382 
	C1090.720703,530.358887 1079.297363,514.493103 1068.139893,498.442505 
	C1053.502808,477.386230 1039.267700,456.048920 1024.514526,435.075256 
	C1002.485352,403.757599 980.149109,372.655975 957.954773,341.454498 
	C941.567078,318.416138 925.192749,295.368256 908.823486,272.316772 
	C905.457397,267.576538 902.140198,262.801636 898.000000,256.902313 
	C898.000000,427.726257 898.000000,596.863098 898.000000,766.000000 
	C859.979126,766.000000 821.958191,766.000000 783.468628,766.000000 
z"/>
<path fill="#000000" opacity="1.000000" stroke="none" 
	d="
M2673.468750,766.000000 
	C2673.000000,511.526001 2673.000000,257.052002 2673.000000,2.289021 
	C2859.617920,2.289021 3046.020996,2.289021 3232.712158,2.289021 
	C3232.712158,38.287991 3232.712158,74.359627 3232.712158,110.830757 
	C3083.038330,110.830757 2933.301270,110.830757 2783.282227,110.830757 
	C2783.282227,183.299683 2783.282227,255.370682 2783.282227,327.841461 
	C2896.638672,327.841461 3010.043213,327.841461 3123.723633,327.841461 
	C3123.723633,364.644196 3123.723633,401.049072 3123.723633,437.854034 
	C3010.348877,437.854034 2896.944336,437.854034 2783.270264,437.854034 
	C2783.270264,510.657043 2783.270264,583.061340 2783.270264,655.864746 
	C2932.995605,655.864746 3082.732910,655.864746 3233.000000,655.864746 
	C3233.000000,692.528198 3233.000000,728.795410 3233.000000,765.531372 
	C3046.645752,766.000000 2860.291748,766.000000 2673.468750,766.000000 
z"/>
<path fill="#000000" opacity="1.000000" stroke="none" 
	d="
M1468.468628,766.000000 
	C1468.000000,511.525909 1468.000000,257.051819 1468.000000,2.288892 
	C1654.285034,2.288892 1840.354858,2.288892 2026.712402,2.288892 
	C2026.712402,38.288147 2026.712402,74.359863 2026.712402,110.830963 
	C1877.371338,110.830963 1727.967407,110.830963 1578.281982,110.830963 
	C1578.281982,183.299866 1578.281982,255.370972 1578.281982,327.841736 
	C1691.305786,327.841736 1804.376831,327.841736 1917.723633,327.841736 
	C1917.723633,364.644409 1917.723633,401.049377 1917.723633,437.854309 
	C1804.681641,437.854309 1691.610596,437.854309 1578.270020,437.854309 
	C1578.270020,510.657257 1578.270020,583.061646 1578.270020,655.864990 
	C1727.662842,655.864990 1877.066650,655.864990 2027.000000,655.864990 
	C2027.000000,692.528259 2027.000000,728.795471 2027.000000,765.531372 
	C1840.979126,766.000000 1654.958130,766.000000 1468.468628,766.000000 
z"/>
<path fill="#FFFFFF" opacity="1.000000" stroke="none" 
	d="
M4464.000000,244.000015 
	C4464.000000,417.918365 4464.000000,591.836731 4464.000000,766.000000 
	C4334.309570,766.000000 4204.618652,766.000000 4074.463867,765.531372 
	C4074.000000,547.155273 4074.000000,329.247894 4074.000000,111.000000 
	C4076.243652,111.000000 4078.039307,111.000000 4079.834717,111.000000 
	C4126.493164,111.000000 4173.152344,110.889473 4219.810059,111.090576 
	C4229.475098,111.132240 4239.202148,111.823906 4248.783203,113.099251 
	C4271.261719,116.091454 4290.595215,126.277901 4306.908203,141.610352 
	C4325.361328,158.954865 4337.035645,180.138153 4340.104980,205.746552 
	C4341.704590,219.094788 4341.500000,232.242645 4338.289062,245.280670 
	C4332.230957,269.883545 4319.267578,290.028503 4299.555176,306.054626 
	C4278.799316,322.928864 4255.099121,331.556763 4228.544922,331.912415 
	C4199.721191,332.298523 4170.889160,332.040405 4142.060547,331.939636 
	C4139.064941,331.929169 4137.344238,332.730835 4135.960449,335.550232 
	C4132.497070,342.607086 4128.738281,349.526611 4124.901855,356.391449 
	C4110.785645,381.648651 4096.577148,406.854584 4082.437988,432.098999 
	C4080.747070,435.118073 4079.266846,438.255096 4077.349854,442.000000 
	C4079.816650,442.000000 4081.433350,442.000000 4083.050293,442.000000 
	C4099.380859,442.000000 4115.711914,442.086517 4132.041992,441.983459 
	C4177.285645,441.697906 4222.544434,441.879150 4267.764648,440.676422 
	C4281.830078,440.302307 4296.092285,437.178772 4309.739746,433.413452 
	C4336.659668,425.986084 4361.114258,413.346466 4382.995117,395.672150 
	C4397.664551,383.822144 4410.420410,370.389801 4421.438965,355.143127 
	C4436.287109,334.597809 4446.971680,312.039307 4453.862793,287.754303 
	C4456.933105,276.934387 4458.607422,265.722076 4461.034180,254.714081 
	C4461.831055,251.100342 4463.000977,247.569046 4464.000000,244.000015 
z"/>
<path fill="#000000" opacity="1.000000" stroke="none" 
	d="
M3258.468750,766.000000 
	C3260.329590,759.706970 3262.558105,753.374390 3265.007568,747.128357 
	C3271.964355,729.386597 3278.927002,711.646179 3286.044922,693.968689 
	C3294.601562,672.717896 3303.427490,651.575378 3311.944092,630.308716 
	C3323.732666,600.871094 3335.256592,571.327515 3347.053711,541.893311 
	C3356.231934,518.993591 3365.761963,496.235016 3374.939941,473.335358 
	C3386.737305,443.901306 3398.278564,414.364563 3410.045898,384.918427 
	C3418.606934,363.495575 3427.385986,342.160034 3436.013184,320.763458 
	C3447.034180,293.430695 3458.021240,266.084259 3468.983154,238.727768 
	C3477.264160,218.062057 3485.479980,197.370193 3493.730469,176.692078 
	C3505.837158,146.348038 3517.933350,115.999817 3530.062988,85.664886 
	C3540.767822,58.893444 3551.457275,32.115311 3562.377197,5.431702 
	C3563.016846,3.868505 3565.644043,2.175587 3567.372070,2.148107 
	C3583.198730,1.896396 3599.032227,1.928955 3614.860596,2.123478 
	C3616.255859,2.140626 3618.375000,3.589684 3618.904785,4.885868 
	C3633.205811,39.879707 3647.437256,74.902946 3661.482178,110.000389 
	C3677.132080,149.108124 3692.515625,188.322433 3708.150879,227.435944 
	C3720.042725,257.184570 3732.218994,286.819336 3744.138916,316.556854 
	C3757.843994,350.747467 3771.343018,385.020844 3785.052246,419.209900 
	C3794.175049,441.960510 3803.605225,464.587921 3812.722656,487.340637 
	C3823.921387,515.287415 3834.862793,543.337524 3846.056641,571.286316 
	C3855.944336,595.973145 3866.097412,620.553650 3876.003418,645.233215 
	C3888.412598,676.148315 3900.680420,707.120178 3913.029541,738.059387 
	C3916.649414,747.127747 3920.338135,756.168640 3923.997559,765.611084 
	C3884.979248,766.000000 3845.958252,766.000000 3806.375977,765.640869 
	C3801.264893,754.356506 3796.610352,743.473755 3792.185791,732.498230 
	C3778.539307,698.646851 3764.872070,664.802734 3751.551270,630.823059 
	C3750.166748,627.290405 3748.519775,626.958740 3745.499756,626.961121 
	C3681.535889,627.012512 3617.572021,627.000000 3553.608154,627.000000 
	C3551.810791,627.000000 3550.013672,627.000000 3547.111572,627.000000 
	C3559.436523,604.747864 3571.354736,583.230591 3583.201660,561.841614 
	C3582.663086,561.347290 3582.556641,561.163757 3582.449707,561.163574 
	C3541.811279,561.100891 3501.172852,561.033997 3460.534668,561.093201 
	C3459.469482,561.094727 3457.846680,562.239868 3457.427490,563.245239 
	C3452.189941,575.801697 3447.077881,588.411194 3442.031250,601.046021 
	C3434.311768,620.372253 3426.673828,639.730957 3418.991943,659.072205 
	C3410.659668,680.050354 3402.368652,701.044983 3393.961182,721.992981 
	C3388.059814,736.696350 3381.992920,751.333374 3376.000000,766.000000 
	C3336.979248,766.000000 3297.958252,766.000000 3258.468750,766.000000 
M3655.540283,391.028992 
	C3655.265381,390.450195 3654.958984,389.884094 3654.719971,389.290833 
	C3643.890381,362.403931 3633.030273,335.529266 3622.254395,308.620941 
	C3614.337646,288.853149 3606.555908,269.031433 3598.662842,249.254227 
	C3596.329834,243.408356 3593.821289,237.632431 3590.855469,230.537766 
	C3561.119873,304.729584 3531.911377,377.606873 3502.444580,451.128601 
	C3552.088867,451.128601 3600.963623,451.128601 3650.813965,451.128601 
	C3638.487305,473.388000 3626.570557,494.906799 3614.412109,516.862305 
	C3645.379395,516.862305 3675.460693,516.862305 3705.562988,516.862305 
	C3705.281738,515.624756 3705.177002,514.464050 3704.759766,513.429382 
	C3692.778809,483.727081 3680.735840,454.049591 3668.774902,424.339233 
	C3664.411133,413.499725 3660.230225,402.586517 3655.540283,391.028992 
z"/>
<path fill="#000000" opacity="1.000000" stroke="none" 
	d="
M4464.000000,243.666687 
	C4463.000977,247.569046 4461.831055,251.100342 4461.034180,254.714081 
	C4458.607422,265.722076 4456.933105,276.934387 4453.862793,287.754303 
	C4446.971680,312.039307 4436.287109,334.597809 4421.438965,355.143127 
	C4410.420410,370.389801 4397.664551,383.822144 4382.995117,395.672150 
	C4361.114258,413.346466 4336.659668,425.986084 4309.739746,433.413452 
	C4296.092285,437.178772 4281.830078,440.302307 4267.764648,440.676422 
	C4222.544434,441.879150 4177.285645,441.697906 4132.041992,441.983459 
	C4115.711914,442.086517 4099.380859,442.000000 4083.050293,442.000000 
	C4081.433350,442.000000 4079.816650,442.000000 4077.349854,442.000000 
	C4079.266846,438.255096 4080.747070,435.118073 4082.437988,432.098999 
	C4096.577148,406.854584 4110.785645,381.648651 4124.901855,356.391449 
	C4128.738281,349.526611 4132.497070,342.607086 4135.960449,335.550232 
	C4137.344238,332.730835 4139.064941,331.929169 4142.060547,331.939636 
	C4170.889160,332.040405 4199.721191,332.298523 4228.544922,331.912415 
	C4255.099121,331.556763 4278.799316,322.928864 4299.555176,306.054626 
	C4319.267578,290.028503 4332.230957,269.883545 4338.289062,245.280670 
	C4341.500000,232.242645 4341.704590,219.094788 4340.104980,205.746552 
	C4337.035645,180.138153 4325.361328,158.954865 4306.908203,141.610352 
	C4290.595215,126.277901 4271.261719,116.091454 4248.783203,113.099251 
	C4239.202148,111.823906 4229.475098,111.132240 4219.810059,111.090576 
	C4173.152344,110.889473 4126.493164,111.000000 4079.834717,111.000000 
	C4078.039307,111.000000 4076.243652,111.000000 4074.000000,111.000000 
	C4074.000000,329.247894 4074.000000,547.155273 4074.000000,765.531372 
	C4037.645752,766.000000 4001.291748,766.000000 3964.468750,766.000000 
	C3964.000000,511.538544 3964.000000,257.077087 3964.000000,2.245389 
	C3965.583740,2.157983 3967.014893,2.009989 3968.446289,2.009836 
	C4069.770752,1.999029 4171.096191,1.782370 4272.418457,2.279571 
	C4284.874023,2.340691 4297.463379,5.578470 4309.716797,8.495296 
	C4325.203125,12.181702 4339.885254,18.371281 4353.895508,26.001991 
	C4368.613770,34.018078 4382.163086,43.606892 4394.594727,54.937428 
	C4409.041504,68.103874 4421.175293,83.043617 4431.189453,99.734657 
	C4441.732910,117.307457 4449.918457,135.982208 4454.875000,155.862045 
	C4458.188965,169.152618 4460.436035,182.717102 4462.895996,196.207214 
	C4463.514648,199.600708 4463.118164,203.179321 4463.593750,206.836456 
	C4464.000000,215.354233 4464.000000,223.708466 4463.606445,232.677994 
	C4463.475098,236.195526 4463.737793,239.097763 4464.000000,242.000000 
	C4464.000000,242.444443 4464.000000,242.888901 4464.000000,243.666687 
z"/>
<path fill="#FFFFFF" opacity="1.000000" stroke="none" 
	d="
M898.468628,766.000000 
	C898.000000,596.863098 898.000000,427.726257 898.000000,256.902313 
	C902.140198,262.801636 905.457397,267.576538 908.823486,272.316772 
	C925.192749,295.368256 941.567078,318.416138 957.954773,341.454498 
	C980.149109,372.655975 1002.485352,403.757599 1024.514526,435.075256 
	C1039.267700,456.048920 1053.502808,477.386230 1068.139893,498.442505 
	C1079.297363,514.493103 1090.720703,530.358887 1102.029297,546.304382 
	C1103.699707,548.659790 1104.773438,548.634583 1106.592896,546.021179 
	C1119.967896,526.808838 1133.507690,507.710693 1147.066528,488.626862 
	C1157.273560,474.260498 1167.710083,460.055939 1177.824707,445.625275 
	C1197.740234,417.211639 1217.420776,388.633087 1237.355469,360.232788 
	C1253.502686,337.228271 1269.877075,314.383087 1286.155396,291.470673 
	C1293.644165,280.930115 1301.151489,270.402710 1308.623657,259.850403 
	C1309.091919,259.188965 1309.327026,258.362640 1309.670776,257.613098 
	C1310.113892,257.893188 1310.556885,258.173248 1311.000000,258.453308 
	C1311.000000,427.323090 1311.000000,596.192871 1311.000000,765.531372 
	C1173.645752,766.000000 1036.291504,766.000000 898.468628,766.000000 
z"/>
<path fill="#FFFFFF" opacity="1.000000" stroke="none" 
	d="
M204.000000,766.000000 
	C136.367264,766.000000 68.734520,766.000000 1.000000,766.000000 
	C1.000000,547.976685 1.000000,329.953369 1.468657,111.465012 
	C79.533989,111.000000 157.130661,111.000000 235.000000,111.000000 
	C235.000000,112.814255 235.000000,114.122002 235.000000,115.429756 
	C235.000000,225.753723 235.000000,336.077667 235.000000,446.401642 
	C235.000000,446.901611 235.179306,447.500580 234.967728,447.883759 
	C234.199921,449.274414 233.605438,451.312775 232.402252,451.821320 
	C224.733490,455.062561 217.066803,458.470551 209.095596,460.770508 
	C204.687378,462.042450 203.934921,464.061615 203.938065,468.025360 
	C204.016891,567.350220 204.000000,666.675110 204.000000,766.000000 
z"/>
<path fill="#000000" opacity="1.000000" stroke="none" 
	d="
M204.468658,766.000000 
	C204.000000,666.675110 204.016891,567.350220 203.938065,468.025360 
	C203.934921,464.061615 204.687378,462.042450 209.095596,460.770508 
	C217.066803,458.470551 224.733490,455.062561 232.402252,451.821320 
	C233.605438,451.312775 234.199921,449.274414 234.967728,447.883759 
	C235.179306,447.500580 235.000000,446.901611 235.000000,446.401642 
	C235.000000,336.077667 235.000000,225.753723 235.000000,115.429756 
	C235.000000,114.122002 235.000000,112.814255 235.000000,111.000000 
	C157.130661,111.000000 79.533989,111.000000 1.468657,111.000000 
	C1.000000,74.979103 1.000000,38.958210 1.000000,2.468657 
	C193.105164,2.000000 385.210327,2.000000 577.657715,2.000000 
	C577.657715,38.170864 577.657715,74.236465 577.657715,110.681976 
	C500.182922,110.681976 422.459717,110.681976 344.000000,110.681976 
	C344.000000,112.792320 344.000000,114.534103 344.000000,116.275894 
	C344.000000,213.415054 343.977722,310.554260 344.075806,407.693298 
	C344.080017,411.883698 343.199677,413.942566 338.701172,415.276001 
	C331.053497,417.542938 323.736420,420.957306 316.365875,424.090607 
	C315.330048,424.530975 314.515442,426.010803 314.079895,427.187653 
	C313.700226,428.213593 314.000061,429.491089 314.000061,430.657410 
	C314.000000,542.125854 314.000000,653.594238 314.000000,765.531372 
	C277.645782,766.000000 241.291550,766.000000 204.468658,766.000000 
z"/>
<path fill="#000000" opacity="1.000000" stroke="none" 
	d="
M626.468628,766.000000 
	C626.000000,511.573883 626.000000,257.147797 626.000000,2.360843 
	C662.132935,2.360843 698.198486,2.360843 735.000000,2.360843 
	C735.000000,256.394684 735.000000,510.728699 735.000000,765.531372 
	C698.979126,766.000000 662.958191,766.000000 626.468628,766.000000 
z"/>
<path fill="#FFFFFF" opacity="1.000000" stroke="none" 
	d="
M3376.468750,766.000000 
	C3381.992920,751.333374 3388.059814,736.696350 3393.961182,721.992981 
	C3402.368652,701.044983 3410.659668,680.050354 3418.991943,659.072205 
	C3426.673828,639.730957 3434.311768,620.372253 3442.031250,601.046021 
	C3447.077881,588.411194 3452.189941,575.801697 3457.427490,563.245239 
	C3457.846680,562.239868 3459.469482,561.094727 3460.534668,561.093201 
	C3501.172852,561.033997 3541.811279,561.100891 3582.449707,561.163574 
	C3582.556641,561.163757 3582.663086,561.347290 3583.201660,561.841614 
	C3571.354736,583.230591 3559.436523,604.747864 3547.111572,627.000000 
	C3550.013672,627.000000 3551.810791,627.000000 3553.608154,627.000000 
	C3617.572021,627.000000 3681.535889,627.012512 3745.499756,626.961121 
	C3748.519775,626.958740 3750.166748,627.290405 3751.551270,630.823059 
	C3764.872070,664.802734 3778.539307,698.646851 3792.185791,732.498230 
	C3796.610352,743.473755 3801.264893,754.356506 3805.907227,765.640869 
	C3662.979248,766.000000 3519.958252,766.000000 3376.468750,766.000000 
z"/>
<path fill="#FFFFFF" opacity="1.000000" stroke="none" 
	d="
M4464.000000,241.550171 
	C4463.737793,239.097763 4463.475098,236.195526 4463.606445,233.146637 
	C4464.000000,235.700119 4464.000000,238.400223 4464.000000,241.550171 
z"/>
<path fill="#000000" opacity="1.000000" stroke="none" 
	d="
M2102.000000,426.000000 
	C2102.000000,414.068848 2102.000000,402.637695 2102.000000,390.912903 
	C2092.576660,394.534241 2083.659424,397.961121 2074.274658,401.567596 
	C2074.274658,268.127228 2074.274658,135.396835 2074.274658,2.333153 
	C2111.193359,2.333153 2148.262939,2.333153 2185.823730,2.333153 
	C2185.823730,118.998131 2185.823730,235.871094 2185.823730,353.430817 
	C2195.432617,349.382721 2204.386475,345.610687 2213.500000,341.771271 
	C2213.500000,446.925873 2213.500000,551.720032 2213.500000,656.897827 
	C2354.367432,656.897827 2495.427734,656.897827 2636.743652,656.897827 
	C2636.743652,693.015625 2636.743652,728.751099 2636.743652,764.743591 
	C2458.662842,764.743591 2280.606201,764.743591 2102.000000,764.743591 
	C2102.000000,652.004150 2102.000000,539.252075 2102.000000,426.000000 
z"/>
<path fill="#FFFFFF" opacity="1.000000" stroke="none" 
	d="
M3655.752930,391.367981 
	C3660.230225,402.586517 3664.411133,413.499725 3668.774902,424.339233 
	C3680.735840,454.049591 3692.778809,483.727081 3704.759766,513.429382 
	C3705.177002,514.464050 3705.281738,515.624756 3705.562988,516.862305 
	C3675.460693,516.862305 3645.379395,516.862305 3614.412109,516.862305 
	C3626.570557,494.906799 3638.487305,473.388000 3650.813965,451.128601 
	C3600.963623,451.128601 3552.088867,451.128601 3502.444580,451.128601 
	C3531.911377,377.606873 3561.119873,304.729584 3590.855469,230.537766 
	C3593.821289,237.632431 3596.329834,243.408356 3598.662842,249.254227 
	C3606.555908,269.031433 3614.337646,288.853149 3622.254395,308.620941 
	C3633.030273,335.529266 3643.890381,362.403931 3654.719971,389.290833 
	C3654.958984,389.884094 3655.265381,390.450195 3655.752930,391.367981 
z"/>
</svg>