<?xml version="1.0" encoding="UTF-8" standalone="no"?>
<!-- Generator: Adobe Illustrator 26.0.2, SVG Export Plug-In . SVG Version: 6.00 Build 0)  -->

<svg
   version="1.1"
   id="Layer_2"
   x="0px"
   y="0px"
   viewBox="0 0 1080 1080"
   style="enable-background:new 0 0 1080 1080;"
   xml:space="preserve"
   sodipodi:docname="Kenshi Logo.svg"
   inkscape:export-filename="4096x4096"
   inkscape:export-xdpi="364.0889"
   inkscape:export-ydpi="364.0889"
   inkscape:version="1.2.1 (9c6d41e4, 2022-07-14)"
   xmlns:inkscape="http://www.inkscape.org/namespaces/inkscape"
   xmlns:sodipodi="http://sodipodi.sourceforge.net/DTD/sodipodi-0.dtd"
   xmlns="http://www.w3.org/2000/svg"
   xmlns:svg="http://www.w3.org/2000/svg"><defs
   id="defs5078" /><sodipodi:namedview
   id="namedview5076"
   pagecolor="#ffffff"
   bordercolor="#999999"
   borderopacity="1"
   inkscape:showpageshadow="0"
   inkscape:pageopacity="0"
   inkscape:pagecheckerboard="0"
   inkscape:deskcolor="#d1d1d1"
   showgrid="false"
   inkscape:zoom="0.21851852"
   inkscape:cx="489.66102"
   inkscape:cy="542.28814"
   inkscape:window-width="1792"
   inkscape:window-height="1067"
   inkscape:window-x="0"
   inkscape:window-y="25"
   inkscape:window-maximized="1"
   inkscape:current-layer="Layer_2" />
<style
   type="text/css"
   id="style5065">
	.st0{fill:#0F62FE;}
</style>
<g
   id="g5073"
   transform="translate(0,27.87)">
	<path
   class="st0"
   d="m 500.81,209.41 c 0,-7.75 -6.28,-14 -14,-14 H 364.97 c -7.72,0 -14,6.25 -14,14 V 490.27 H 500.82 V 209.41 Z"
   id="path5067" />
	<path
   class="st0"
   d="m 857.52,202.69 c 2.12,-3.1 -0.09,-7.28 -3.85,-7.28 H 717.41 c -9.43,0 -18.2,4.74 -23.38,12.6 L 508.05,490.27 H 662 Z"
   id="path5069" />
	<path
   class="st0"
   d="m 1077.48,499.16 -40.84,26.35 c -0.75,0.49 -1.63,0.75 -2.52,0.75 l -39.09,-0.07 -333.37,-0.56 -154.28,-0.26 -6.56,-0.02 -149.85,-0.26 -154.26,-0.26 -28.68,-0.05 -14.68,-0.02 h -0.02 c -0.77,-0.19 -1.17,-1.03 -0.77,-1.73 l 15.47,-26.88 1.38,-2.38 c 1.12,-1.91 3.85,-3.5 6.07,-3.5 H 193 c -6.98,-16.87 -21.21,-28.42 -37.64,-28.42 -15.89,0 -29.73,10.78 -36.94,26.72 H 6.56 c -3.62,0 -6.56,2.92 -6.56,6.56 v 37.71 c 0,3.62 2.94,6.56 6.56,6.56 h 111.88 c 7.21,15.94 21.03,26.72 36.92,26.72 12.3,0 23.36,-6.46 31.06,-16.8 l 164.55,1.7 v 263.83 c 0,7.72 6.28,14 14,14 h 121.84 c 7.72,0 14,-6.28 14,-14 V 552.58 l 25.23,0.26 179.3,263.76 c 5.23,7.65 13.89,12.25 23.17,12.25 H 865.9 c 3.78,0 6,-4.27 3.83,-7.35 l -187.8,-267.03 353.63,3.69 c 1.49,0.02 2.92,-0.68 3.8,-1.89 l 40.3,-54.75 c 1.08,-1.47 -0.67,-3.34 -2.18,-2.36 z"
   id="path5071" />
</g>
</svg>
