<?xml version="1.0" encoding="UTF-8" standalone="no"?>
<!-- Generator: Adobe Illustrator 26.0.2, SVG Export Plug-In . SVG Version: 6.00 Build 0)  -->

<svg
   version="1.1"
   id="Layer_1"
   x="0px"
   y="0px"
   viewBox="0 0 1079.9846 200.67999"
   xml:space="preserve"
   sodipodi:docname="logo.typography.svg"
   width="1079.9846"
   height="200.67999"
   inkscape:version="1.2.1 (9c6d41e4, 2022-07-14)"
   xmlns:inkscape="http://www.inkscape.org/namespaces/inkscape"
   xmlns:sodipodi="http://sodipodi.sourceforge.net/DTD/sodipodi-0.dtd"
   xmlns="http://www.w3.org/2000/svg"
   xmlns:svg="http://www.w3.org/2000/svg"><defs
   id="defs6369" /><sodipodi:namedview
   id="namedview6367"
   pagecolor="#ffffff"
   bordercolor="#999999"
   borderopacity="1"
   inkscape:showpageshadow="0"
   inkscape:pageopacity="0"
   inkscape:pagecheckerboard="0"
   inkscape:deskcolor="#d1d1d1"
   showgrid="false"
   inkscape:zoom="0.21851852"
   inkscape:cx="540"
   inkscape:cy="102.9661"
   inkscape:window-width="1792"
   inkscape:window-height="1067"
   inkscape:window-x="0"
   inkscape:window-y="25"
   inkscape:window-maximized="1"
   inkscape:current-layer="Layer_1" />
<style
   type="text/css"
   id="style6354">
	.st0{fill:#0F62FE;}
</style>
<g
   id="g6364"
   transform="translate(0,-439.7)">
	<path
   class="st0"
   d="m 663.74,519.33 c -1.07,-0.49 -2.01,-1.02 -2.82,-1.57 -4.37,-3.35 -6.56,-9.79 -6.56,-19.31 0,-10.63 2.24,-18.27 6.71,-22.94 4.47,-4.66 12.37,-7 23.69,-7 11.32,0 19.17,2.33 23.54,7 3.52,3.75 5.8,9.68 6.88,17.79 0.48,3.6 3.77,6.28 7.63,6.28 h 29.07 c 1.43,0 2.59,-1.1 2.56,-2.44 -0.39,-18.92 -5.51,-33.12 -15.31,-42.61 -10.23,-9.88 -28.76,-14.83 -55.57,-14.83 -26.22,0 -44.6,4.8 -55.12,14.41 -10.53,9.61 -15.79,24.02 -15.79,43.23 0,8.43 0.88,15.65 2.66,21.63 z"
   id="path6356" />
	<path
   class="st0"
   d="m 975.55,444.63 c 0,-1.33 -1.15,-2.41 -2.58,-2.41 h -32.93 c -4.26,0 -7.7,3.24 -7.7,7.24 v 71.89 l 43.21,0.32 z"
   id="path6358" />
	<path
   class="st0"
   d="m 355.8,473.17 c 0,-1.33 1.15,-2.41 2.56,-2.41 h 67.79 c 4.26,0 7.7,-3.24 7.7,-7.24 v -18.89 c 0,-1.33 -1.15,-2.41 -2.56,-2.41 h -111 c -4.26,0 -7.7,3.24 -7.7,7.24 v 67.23 l 43.21,0.32 z"
   id="path6360" />
	<path
   class="st0"
   d="m 1078.25,522.45 -28.23,18.22 c -0.51,0.34 -1.13,0.51 -1.74,0.51 l -27.01,-0.05 -45.72,-0.03 -43.21,-0.02 -11.85,-0.01 v -19.79 -76.63 c 0,-1.33 -1.16,-2.41 -2.58,-2.41 H 885 c -4.26,0 -7.7,3.24 -7.7,7.24 v 71.48 1.13 c 0,1.33 -1.15,2.41 -2.58,2.41 h -58.03 c -1.42,0 -2.56,-1.08 -2.56,-2.41 v -1.6 -75.83 c 0,-1.33 -1.15,-2.41 -2.56,-2.41 h -32.94 c -4.25,0 -7.7,3.24 -7.7,7.24 v 70.68 20.81 l -27.59,-0.01 -110,-0.08 -34.95,-0.02 v -22 -74.21 c 0,-1.33 -1.15,-2.41 -2.58,-2.41 h -29.05 c -4.26,0 -7.7,3.24 -7.7,7.24 v 69.09 22.26 l -18.9,-0.01 -10.51,-22.47 -34.88,-74.66 c -0.41,-0.88 -1.33,-1.45 -2.36,-1.45 h -38.59 c -4.25,0 -7.7,3.24 -7.7,7.24 v 68.23 23.03 l -21.79,-0.03 -73.66,-0.13 -4.52,-0.01 -33.55,-0.06 -67.79,-0.12 -0.07,-0.1 c -0.5,-0.77 -0.51,-1.73 -0.02,-2.51 L 258.34,516.31 303,445.89 c 1.02,-1.6 -0.22,-3.64 -2.2,-3.64 h -37.22 c -2.76,0 -5.3,1.38 -6.67,3.62 l -43.09,70.11 -12.8,-0.09 v -71.22 c 0,-1.33 -1.15,-2.41 -2.56,-2.41 H 165.5 c -4.25,0 -7.7,3.24 -7.7,7.24 v 66.07 24.69 l -21.85,-0.03 -19.82,-0.02 -10.15,-0.02 h -0.01 c -0.53,-0.13 -0.81,-0.71 -0.53,-1.2 l 10.7,-18.57 0.95,-1.65 c 0.77,-1.32 2.66,-2.42 4.19,-2.42 h 12.11 c -0.14,-0.32 -0.28,-0.65 -0.41,-0.96 -4.95,-11.14 -14.56,-18.68 -25.61,-18.68 -10.99,0 -20.55,7.45 -25.54,18.47 H 4.54 C 2.03,515.18 0,517.2 0,519.72 v 26.06 c 0,2.51 2.03,4.54 4.54,4.54 h 77.32 c 4.99,11.01 14.54,18.47 25.52,18.47 7.54,0 14.4,-3.52 19.58,-9.31 l 1.89,0.02 28.96,0.3 v 71.09 c 0,4 3.46,7.24 7.7,7.24 h 27.8 c 4.26,0 7.7,-3.24 7.7,-7.24 v -70.64 l 10.59,0.1 1.48,0.02 47.07,74.23 c 1.38,2.19 3.9,3.54 6.61,3.54 h 28.31 c 6.03,0 9.72,-6.21 6.57,-11.03 l -43.46,-66.25 54.41,0.56 v 69.48 c 0,4 3.45,7.24 7.7,7.24 h 105.86 c 4.26,0 7.7,-3.24 7.7,-7.24 v -18.89 c 0,-1.33 -1.15,-2.41 -2.56,-2.41 h -72.93 c -1.42,0 -2.56,-1.08 -2.56,-2.4 v -45.33 l 7.78,0.08 82.54,0.86 v 68.09 c 0,4 3.46,7.24 7.7,7.24 h 24.22 c 4.26,0 7.7,-3.24 7.7,-7.24 v -67.77 l 30.73,0.14 1.1,0.01 33.47,70.57 c 1.23,2.61 3.99,4.29 7.03,4.29 h 32.59 c 4.25,0 7.7,-3.24 7.7,-7.24 v -67.27 l 112.79,0.5 1.9,0.01 c 2.96,4.28 4.46,10.46 4.46,18.6 0,10.07 -2.54,17.45 -7.6,22.1 -5.07,4.66 -13.37,7 -24.89,7 -11.13,0 -19.12,-2.24 -23.98,-6.71 -3.84,-3.54 -6.36,-8.88 -7.53,-16.01 -0.58,-3.5 -3.82,-6.1 -7.61,-6.1 h -27.79 c -4.58,0 -8.13,3.75 -7.67,8.02 1.75,15.73 7.78,27.55 18.12,35.49 12.01,9.24 30.84,13.85 56.46,13.85 50.26,0 75.39,-19.21 75.39,-57.64 0,-6.91 -0.65,-13.04 -1.95,-18.4 l 12.43,0.06 v 66.5 c 0,4 3.46,7.24 7.7,7.24 h 27.8 c 4.26,0 7.7,-3.24 7.7,-7.24 v -66.4 l 63.17,0.29 v 66.03 c 0,4 3.45,7.24 7.7,7.24 h 27.79 c 4.26,0 7.72,-3.24 7.72,-7.24 v -65.84 l 11.85,0.05 v 65.79 c 0,4 3.45,7.24 7.7,7.24 h 27.8 c 4.25,0 7.7,-3.24 7.7,-7.24 v -65.6 l 73.73,0.32 c 1.03,0.01 2.02,-0.48 2.63,-1.31 l 27.86,-40.15 c 0.77,-1.02 -0.43,-2.31 -1.49,-1.63 z m -592.5,-21.5 c 0,-0.6 0.49,-1.09 1.09,-1.09 0.42,0 0.81,0.24 0.99,0.63 l 8.35,17.59 10.77,22.71 -21.2,-0.01 v -22.77 z"
   id="path6362" />
</g>
</svg>
