<?xml version="1.0" encoding="UTF-8" standalone="no"?>
<svg
   viewBox="0 0 144.00616 144"
   role="img"
   class="w-32 h-32"
   version="1.1"
   id="svg134"
   sodipodi:docname="aurora.svg"
   width="144.00616"
   height="144"
   inkscape:version="1.2.1 (9c6d41e4, 2022-07-14)"
   xmlns:inkscape="http://www.inkscape.org/namespaces/inkscape"
   xmlns:sodipodi="http://sodipodi.sourceforge.net/DTD/sodipodi-0.dtd"
   xmlns="http://www.w3.org/2000/svg"
   xmlns:svg="http://www.w3.org/2000/svg">
  <defs
     id="defs138" />
  <sodipodi:namedview
     id="namedview136"
     pagecolor="#ffffff"
     bordercolor="#999999"
     borderopacity="1"
     inkscape:showpageshadow="0"
     inkscape:pageopacity="0"
     inkscape:pagecheckerboard="0"
     inkscape:deskcolor="#d1d1d1"
     showgrid="false"
     inkscape:zoom="0.69005848"
     inkscape:cx="73.182203"
     inkscape:cy="99.266949"
     inkscape:window-width="1792"
     inkscape:window-height="1067"
     inkscape:window-x="0"
     inkscape:window-y="25"
     inkscape:window-maximized="1"
     inkscape:current-layer="svg134" />
  <path
     d="m 72.003083,11 a 15.92,15.92 0 0 1 14.31,8.84 l 44.999997,90 a 16,16 0 0 1 -14.31,23.16 H 27.003083 a 16,16 0 0 1 -14.31,-23.16 l 45,-90 a 15.92,15.92 0 0 1 14.31,-8.84 m 0,-10.99999982399216 A 27,27 0 0 0 47.853083,14.92 l -44.9999999,90 A 27,27 0 0 0 27.003083,144 h 89.999997 a 27,27 0 0 0 24.15,-39.08 l -44.999997,-90 A 27,27 0 0 0 72.003083,1.7600784e-7 Z"
     fill="#70d44b"
     id="path132" />
</svg>
