<?xml version="1.0" encoding="UTF-8"?>
<svg id="Layer_1" data-name="Layer 1" xmlns="http://www.w3.org/2000/svg" xmlns:xlink="http://www.w3.org/1999/xlink" viewBox="0 0 1000 1000">
  <defs>
    <style>
      .cls-1 {
        fill: url(#linear-gradient);
      }

      .cls-2 {
        fill: url(#linear-gradient-2);
      }
    </style>
    <linearGradient id="linear-gradient" x1="235.65" y1="395.31" x2="765.47" y2="395.31" gradientUnits="userSpaceOnUse">
      <stop offset=".1" stop-color="#8109ea"/>
      <stop offset="1" stop-color="#3610dd"/>
    </linearGradient>
    <linearGradient id="linear-gradient-2" x1="236.57" y1="700.57" x2="764.6" y2="700.57" gradientTransform="translate(6.6 -4.68) rotate(.54)" gradientUnits="userSpaceOnUse">
      <stop offset="0" stop-color="#8109ea"/>
      <stop offset="1" stop-color="#11dcb7"/>
    </linearGradient>
  </defs>
  <path class="cls-1" d="M719.68,289.22L360.05,80.61c-4.41-2.54-8.93-4.66-13.53-6.37-1.27-.47-2.54-.91-3.82-1.32-.42-.14-.85-.25-1.28-.38-.86-.26-1.71-.52-2.57-.75-.51-.14-1.02-.26-1.53-.38-.78-.2-1.56-.39-2.35-.57-.54-.12-1.08-.23-1.63-.33-.75-.15-1.51-.3-2.26-.43-.56-.1-1.12-.18-1.68-.27-.74-.11-1.48-.22-2.23-.32-.57-.07-1.13-.14-1.7-.2-.74-.08-1.48-.15-2.23-.21-.56-.05-1.13-.09-1.69-.13-.75-.05-1.49-.08-2.24-.11-.55-.02-1.11-.04-1.66-.05-.77-.01-1.53-.01-2.29,0-.53,0-1.07,0-1.6,.02-.81,.02-1.61,.06-2.42,.11-.48,.03-.97,.04-1.45,.08-.94,.07-1.88,.16-2.81,.25-.35,.04-.69,.06-1.04,.1-1.28,.15-2.56,.32-3.83,.52-.28,.04-.55,.1-.83,.15-.99,.17-1.98,.34-2.96,.54-.46,.09-.91,.2-1.37,.31-.8,.18-1.6,.35-2.39,.55-.51,.13-1.01,.27-1.52,.4-.74,.2-1.47,.4-2.2,.61-.52,.16-1.04,.32-1.56,.49-.71,.22-1.41,.45-2.11,.69-.53,.18-1.05,.37-1.57,.56-.69,.25-1.37,.51-2.05,.78-.52,.2-1.04,.41-1.55,.63-.68,.28-1.35,.57-2.02,.87-.51,.23-1.01,.45-1.52,.69-.67,.32-1.34,.64-2.01,.98-.49,.24-.97,.48-1.46,.73-.68,.36-1.36,.73-2.03,1.1-.45,.25-.91,.5-1.35,.75-.72,.42-1.44,.86-2.15,1.3-.39,.24-.78,.47-1.16,.71-.93,.6-1.85,1.21-2.76,1.85-.15,.1-.31,.2-.46,.31-1.06,.74-2.1,1.51-3.12,2.3-.31,.24-.62,.5-.93,.74-.71,.56-1.41,1.12-2.1,1.7-.38,.32-.76,.66-1.14,.99-.6,.53-1.2,1.05-1.79,1.6-.4,.37-.79,.75-1.18,1.13-.55,.53-1.1,1.06-1.64,1.6-.4,.4-.79,.81-1.18,1.22-.52,.54-1.03,1.09-1.54,1.65-.38,.43-.76,.86-1.14,1.29-.49,.57-.98,1.14-1.46,1.73-.37,.44-.73,.89-1.09,1.35-.47,.6-.93,1.2-1.39,1.82-.34,.46-.69,.92-1.02,1.38-.46,.63-.9,1.28-1.34,1.93-.31,.46-.63,.92-.94,1.39-.1,.15-.2,.3-.3,.45-.18,.29-.35,.59-.53,.88-1.29,2.07-2.52,4.2-3.66,6.4-.98,1.9-1.62,3.96-1.91,6.07h0c-.08,.6-.11,1.21-.1,1.82,.02,1.54-.01,3.04-.02,4.57v12.7l.04,68.17c-.03,5.93,3,11.4,7.93,14.35l78.97,47.06c10.5,6.26,23.57-1.63,23.6-14.23l.07-42.89c0-4.01,4.34-6.51,7.82-4.51l263.13,151.16c3.49,2,3.49,7.03,0,9.04l-263.9,152.36c-3.49,2.01-7.85-.52-7.82-4.55l.36-66.61c.02-4,4.36-6.49,7.82-4.49l33.24,19.19c5.13,2.96,11.45,2.93,16.55-.08l81.65-48.14c10.86-6.4,10.76-22.14-.18-28.4l-224.94-128.77c-10.94-6.26-24.32,1.48-24.35,14.08v344.99c0,.96,.08,1.89,.22,2.79l.29,90.44c-.01,7.13,7.71,11.6,13.89,8.03,0,0,376.12-204.38,488.04-290.45,0,0,0,0,0,0,44.27-41.98,32.51-111.37-18.4-140.9Z"/>
  <path class="cls-2" d="M754.73,566.27c-.46-.87-.92-1.75-1.41-2.6-2.29-3.96-2.47-4.22-7.31-10.14-1.59-1.95-2.87-2.85-4.52-4.42-.82-.78-1.65-1.54-2.52-2.25l-.56-.46-57.27-45.98c-1.58-1.03-3.6-1.12-5.27-.24l-92.78,54.44c-10.38,5.46-11.64,21.44-2.19,27.54l38.09,24.56c3.3,2.13,3.15,7-.27,8.93l-264.88,149.05c-3.51,1.97-7.83-.6-7.77-4.62l.66-44.14c.16-11.26-11.99-18.4-21.75-12.79l-88.74,51.02-.86,77.19-.19,17.3c-.01,.99,.24,1.97,.73,2.83h0s1.31,2.34,1.31,2.34c25.3,44.98,82.28,60.93,127.26,35.62l352.84-197.15c44.59-25.1,60.95-81,37.41-126.03Z"/>
</svg>