<?xml version="1.0" encoding="UTF-8" standalone="no"?>
<!-- Generator: Adobe Illustrator 26.3.1, SVG Export Plug-In . SVG Version: 6.00 Build 0)  -->

<svg
   version="1.1"
   id="Layer_1"
   x="0px"
   y="0px"
   viewBox="0 0 519.48352 910.96906"
   xml:space="preserve"
   sodipodi:docname="baas.white.svg"
   width="519.48352"
   height="910.96906"
   inkscape:version="1.2.2 (b0a84865, 2022-12-01)"
   xmlns:inkscape="http://www.inkscape.org/namespaces/inkscape"
   xmlns:sodipodi="http://sodipodi.sourceforge.net/DTD/sodipodi-0.dtd"
   xmlns="http://www.w3.org/2000/svg"
   xmlns:svg="http://www.w3.org/2000/svg"><defs
   id="defs1623" /><sodipodi:namedview
   id="namedview1621"
   pagecolor="#505050"
   bordercolor="#eeeeee"
   borderopacity="1"
   inkscape:showpageshadow="0"
   inkscape:pageopacity="0"
   inkscape:pagecheckerboard="0"
   inkscape:deskcolor="#505050"
   showgrid="false"
   inkscape:zoom="0.118"
   inkscape:cx="-512.71186"
   inkscape:cy="483.05085"
   inkscape:window-width="2056"
   inkscape:window-height="1257"
   inkscape:window-x="0"
   inkscape:window-y="44"
   inkscape:window-maximized="1"
   inkscape:current-layer="Layer_1" />
<style
   type="text/css"
   id="style1490">
	.st0{display:none;}
	.st1{display:inline;}
	.st2{fill:#231F20;}
	.st3{display:inline;fill:#231F20;}
	.st4{display:inline;fill:none;stroke:#231F20;stroke-width:49;stroke-miterlimit:10;}
</style>
<g
   class="st0"
   id="g1560"
   transform="translate(-751.96651,-519.35096)">
	<g
   class="st1"
   id="g1508">
		<g
   id="g1498">
			<rect
   x="488.91"
   y="1197.5"
   class="st2"
   width="109.26"
   height="109.26"
   id="rect1492" />
			<rect
   x="619.17999"
   y="1197.5"
   class="st2"
   width="109.26"
   height="109.26"
   id="rect1494" />
			<rect
   x="749.45001"
   y="1197.5"
   class="st2"
   width="109.26"
   height="109.26"
   id="rect1496" />
		</g>
		<g
   id="g1506">
			<rect
   x="619.17999"
   y="1197.5"
   class="st2"
   width="109.26"
   height="109.26"
   id="rect1500" />
			<rect
   x="749.45001"
   y="1197.5"
   class="st2"
   width="109.26"
   height="109.26"
   id="rect1502" />
			<rect
   x="879.71002"
   y="1197.5"
   class="st2"
   width="109.26"
   height="109.26"
   id="rect1504" />
		</g>
	</g>
	<g
   class="st1"
   id="g1526">
		<g
   id="g1516">
			<rect
   x="1010.51"
   y="693.23999"
   class="st2"
   width="109.26"
   height="109.26"
   id="rect1510" />
			<rect
   x="1140.77"
   y="693.23999"
   class="st2"
   width="109.26"
   height="109.26"
   id="rect1512" />
			<rect
   x="1271.04"
   y="693.23999"
   class="st2"
   width="109.26"
   height="109.26"
   id="rect1514" />
		</g>
		<g
   id="g1524">
			<rect
   x="1140.77"
   y="693.23999"
   class="st2"
   width="109.26"
   height="109.26"
   id="rect1518" />
			<rect
   x="1271.04"
   y="693.23999"
   class="st2"
   width="109.26"
   height="109.26"
   id="rect1520" />
			<rect
   x="1401.3101"
   y="693.23999"
   class="st2"
   width="109.26"
   height="109.26"
   id="rect1522" />
		</g>
	</g>
	<g
   class="st1"
   id="g1536">
		<rect
   x="880.10999"
   y="819.31"
   class="st2"
   width="109.26"
   height="109.26"
   id="rect1528" />
		<rect
   x="1010.37"
   y="819.31"
   class="st2"
   width="109.26"
   height="109.26"
   id="rect1530" />
		<rect
   x="1140.64"
   y="819.31"
   class="st2"
   width="109.26"
   height="109.26"
   id="rect1532" />
		<rect
   x="1270.91"
   y="819.31"
   class="st2"
   width="109.26"
   height="109.26"
   id="rect1534" />
	</g>
	<g
   class="st1"
   id="g1546">
		<rect
   x="619.31"
   y="1071.4399"
   class="st2"
   width="109.26"
   height="109.26"
   id="rect1538" />
		<rect
   x="749.58002"
   y="1071.4399"
   class="st2"
   width="109.26"
   height="109.26"
   id="rect1540" />
		<rect
   x="879.84003"
   y="1071.4399"
   class="st2"
   width="109.26"
   height="109.26"
   id="rect1542" />
		<rect
   x="1010.11"
   y="1071.4399"
   class="st2"
   width="109.26"
   height="109.26"
   id="rect1544" />
	</g>
	<g
   class="st1"
   id="g1558">
		<rect
   x="684.58002"
   y="945.37"
   class="st2"
   width="109.26"
   height="109.26"
   id="rect1548" />
		<rect
   x="814.84003"
   y="945.37"
   class="st2"
   width="109.26"
   height="109.26"
   id="rect1550" />
		<rect
   x="945.10999"
   y="945.37"
   class="st2"
   width="109.26"
   height="109.26"
   id="rect1552" />
		<rect
   x="1075.38"
   y="945.37"
   class="st2"
   width="109.26"
   height="109.26"
   id="rect1554" />
		<rect
   x="1205.64"
   y="945.37"
   class="st2"
   width="109.26"
   height="109.26"
   id="rect1556" />
	</g>
</g>
<g
   class="st0"
   id="g1588"
   transform="translate(-751.96651,-519.35096)">
	
		<rect
   x="1171.09"
   y="724.23999"
   transform="rotate(90,1216.5455,769.69695)"
   class="st3"
   width="90.910004"
   height="90.910004"
   id="rect1562" />
	
		<rect
   x="1171.09"
   y="839.39001"
   transform="rotate(90,1216.5455,884.8485)"
   class="st3"
   width="90.910004"
   height="90.910004"
   id="rect1564" />
	
		<rect
   x="1171.09"
   y="954.54999"
   transform="rotate(90,1216.5455,999.99995)"
   class="st3"
   width="90.910004"
   height="90.910004"
   id="rect1566" />
	
		<rect
   x="1171.09"
   y="1069.7"
   transform="rotate(90,1216.5455,1115.1515)"
   class="st3"
   width="90.910004"
   height="90.910004"
   id="rect1568" />
	
		<rect
   x="1171.09"
   y="1184.85"
   transform="rotate(90,1216.5454,1230.303)"
   class="st3"
   width="90.910004"
   height="90.910004"
   id="rect1570" />
	
		<rect
   x="954.54999"
   y="724.23999"
   transform="rotate(90,1000,769.697)"
   class="st3"
   width="90.910004"
   height="90.910004"
   id="rect1572" />
	
		<rect
   x="954.54999"
   y="1184.85"
   transform="rotate(90,1000,1230.303)"
   class="st3"
   width="90.910004"
   height="90.910004"
   id="rect1574" />
	
		<rect
   x="738"
   y="724.23999"
   transform="rotate(90,783.45455,769.69695)"
   class="st3"
   width="90.910004"
   height="90.910004"
   id="rect1576" />
	
		<rect
   x="738"
   y="839.39001"
   transform="rotate(90,783.45455,884.84845)"
   class="st3"
   width="90.910004"
   height="90.910004"
   id="rect1578" />
	
		<rect
   x="738"
   y="954.54999"
   transform="rotate(90,783.45455,1000)"
   class="st3"
   width="90.910004"
   height="90.910004"
   id="rect1580" />
	
		<rect
   x="738"
   y="1069.7"
   transform="rotate(90,783.45455,1115.1515)"
   class="st3"
   width="90.910004"
   height="90.910004"
   id="rect1582" />
	
		<rect
   x="738"
   y="1184.85"
   transform="rotate(90,783.45455,1230.303)"
   class="st3"
   width="90.910004"
   height="90.910004"
   id="rect1584" />
	<circle
   class="st4"
   cx="1000"
   cy="1000"
   r="137.88"
   id="circle1586" />
</g>
<g
   id="g1606"
   transform="translate(-751.96651,-519.35096)">
	
		<rect
   x="751.96997"
   y="624.65997"
   transform="rotate(90,822.00575,694.69565)"
   width="140.07001"
   height="140.07001"
   id="rect1590" />
	
		<rect
   x="751.96997"
   y="816.60999"
   transform="rotate(90,822.0058,886.6407)"
   width="140.07001"
   height="140.07001"
   id="rect1592" />
	
		<rect
   x="751.96997"
   y="1008.55"
   transform="rotate(90,822.00575,1078.5856)"
   width="140.07001"
   height="140.07001"
   id="rect1594" />
	
		<rect
   x="940.03003"
   y="955.64001"
   transform="rotate(90,1010.0601,1025.6711)"
   width="140.07001"
   height="140.07001"
   id="rect1596" />
	
		<rect
   x="940.03003"
   y="571.75"
   transform="rotate(90,1010.06,641.7811)"
   width="140.07001"
   height="140.07001"
   id="rect1598" />
	
		<rect
   x="1128.08"
   y="519.34998"
   transform="rotate(90,1198.1142,589.38525)"
   width="140.07001"
   height="140.07001"
   id="rect1600" />
	
		<rect
   x="1128.08"
   y="711.29999"
   transform="rotate(90,1198.1143,781.3303)"
   width="140.07001"
   height="140.07001"
   id="rect1602" />
	
		<rect
   x="1128.08"
   y="903.23999"
   transform="rotate(90,1198.1142,973.27535)"
   width="140.07001"
   height="140.07001"
   id="rect1604" />
</g>
<g
   id="g1618"
   transform="translate(-751.96651,-519.35096)">
	<g
   id="g1616">
		<path
   d="m 752.56,1278.34 h 57.77 c 18.84,0 33.04,3.28 42.6,9.84 9.56,6.56 14.34,16.75 14.34,30.56 0,6.14 -1.26,11.48 -3.77,16.01 -2.51,4.54 -6.17,8.13 -10.99,10.78 -4.81,2.65 -10.64,4.26 -17.48,4.81 v -0.42 c 12.42,0.84 21.94,4.4 28.57,10.67 6.63,6.28 9.94,14.72 9.94,25.33 0,13.68 -4.78,23.93 -14.34,30.77 -9.56,6.84 -23.48,10.26 -41.76,10.26 h -64.89 v -148.61 z m 75.77,56.93 c 4.6,-3.07 6.91,-7.46 6.91,-13.19 0,-6.14 -2.23,-10.64 -6.7,-13.5 -4.47,-2.86 -10.82,-4.29 -19.05,-4.29 h -25.12 v 35.58 h 25.12 c 7.96,0.01 14.24,-1.53 18.84,-4.6 z m 6.28,60.92 c 4.6,-3.21 6.91,-7.88 6.91,-14.02 0,-6.14 -2.3,-10.88 -6.91,-14.23 -4.6,-3.35 -10.82,-5.02 -18.63,-5.02 h -31.61 v 38.1 h 31.61 c 7.82,-0.02 14.03,-1.62 18.63,-4.83 z"
   id="path1608" />
		<path
   d="m 903.17,1421.3 c -7.19,-5.44 -10.78,-12.91 -10.78,-22.4 0,-9.77 3,-17.37 9,-22.82 6,-5.44 15.28,-9.42 27.84,-11.93 l 36.21,-7.12 c 0,-7.25 -1.64,-12.73 -4.92,-16.43 -3.28,-3.7 -8.06,-5.55 -14.34,-5.55 -5.86,0 -10.47,1.36 -13.82,4.08 -3.35,2.72 -5.58,6.73 -6.7,12.04 l -31.4,-1.47 c 2.09,-12.28 7.6,-21.59 16.54,-27.94 8.93,-6.35 20.72,-9.52 35.38,-9.52 16.75,0 29.37,3.98 37.89,11.93 8.51,7.95 12.77,19.61 12.77,34.96 v 38.31 c 0,3.07 0.49,5.16 1.47,6.28 0.97,1.12 2.58,1.67 4.81,1.67 h 3.14 v 21.56 c -1.12,0.28 -2.76,0.56 -4.92,0.84 -2.17,0.28 -4.29,0.42 -6.38,0.42 -7.68,0 -13.78,-1.95 -18.32,-5.86 -4.54,-3.91 -6.8,-10.6 -6.8,-20.09 l 2.72,2.09 c -2.09,7.68 -6.7,13.78 -13.81,18.32 -7.12,4.53 -16.12,6.8 -27,6.8 -11.87,0 -21.4,-2.72 -28.58,-8.17 z m 49.81,-16.43 c 3.98,-2.02 7.04,-4.99 9.21,-8.9 2.16,-3.91 3.24,-8.51 3.24,-13.82 v -5.44 l -25.54,5.44 c -5.16,0.98 -9,2.62 -11.51,4.92 -2.51,2.3 -3.77,5.27 -3.77,8.9 0,3.91 1.22,6.88 3.66,8.9 2.44,2.03 6.1,3.04 10.99,3.04 5.17,0 9.75,-1.01 13.72,-3.04 z"
   id="path1610" />
		<path
   d="m 1031.06,1421.3 c -7.19,-5.44 -10.78,-12.91 -10.78,-22.4 0,-9.77 3,-17.37 9,-22.82 6,-5.44 15.28,-9.42 27.84,-11.93 l 36.21,-7.12 c 0,-7.25 -1.64,-12.73 -4.92,-16.43 -3.28,-3.7 -8.06,-5.55 -14.34,-5.55 -5.86,0 -10.47,1.36 -13.82,4.08 -3.35,2.72 -5.58,6.73 -6.7,12.04 l -31.4,-1.47 c 2.09,-12.28 7.6,-21.59 16.54,-27.94 8.93,-6.35 20.72,-9.52 35.38,-9.52 16.75,0 29.37,3.98 37.89,11.93 8.51,7.95 12.77,19.61 12.77,34.96 v 38.31 c 0,3.07 0.49,5.16 1.47,6.28 0.97,1.12 2.58,1.67 4.81,1.67 h 3.14 v 21.56 c -1.12,0.28 -2.76,0.56 -4.92,0.84 -2.17,0.28 -4.29,0.42 -6.38,0.42 -7.68,0 -13.78,-1.95 -18.32,-5.86 -4.54,-3.91 -6.8,-10.6 -6.8,-20.09 l 2.72,2.09 c -2.09,7.68 -6.7,13.78 -13.82,18.32 -7.12,4.53 -16.12,6.8 -27,6.8 -11.86,0 -21.38,-2.72 -28.57,-8.17 z m 49.82,-16.43 c 3.98,-2.02 7.04,-4.99 9.21,-8.9 2.16,-3.91 3.24,-8.51 3.24,-13.82 v -5.44 l -25.54,5.44 c -5.16,0.98 -9,2.62 -11.51,4.92 -2.51,2.3 -3.77,5.27 -3.77,8.9 0,3.91 1.22,6.88 3.66,8.9 2.44,2.03 6.1,3.04 10.99,3.04 5.17,0 9.74,-1.01 13.72,-3.04 z"
   id="path1612" />
		<path
   d="m 1181.14,1423.82 c -9.28,-4.32 -16.5,-10.39 -21.67,-18.21 -5.16,-7.81 -8.09,-17.02 -8.79,-27.63 l 32.03,-1.46 c 0.7,5.86 2.37,10.85 5.02,14.97 2.65,4.12 6.17,7.22 10.57,9.32 4.4,2.09 9.73,3.14 16.01,3.14 8.09,0 14.27,-1.47 18.53,-4.4 4.25,-2.93 6.38,-7.19 6.38,-12.77 0,-3.63 -0.84,-6.73 -2.51,-9.31 -1.67,-2.58 -4.92,-4.92 -9.73,-7.01 -4.81,-2.09 -11.76,-4.19 -20.83,-6.28 -13.12,-2.93 -23.41,-6.21 -30.88,-9.84 -7.47,-3.63 -12.98,-8.16 -16.54,-13.61 -3.56,-5.45 -5.34,-12.42 -5.34,-20.93 0,-8.79 2.23,-16.57 6.7,-23.34 4.46,-6.77 10.88,-12.04 19.26,-15.8 8.38,-3.76 18.28,-5.65 29.72,-5.65 12,0 22.29,2.13 30.88,6.38 8.58,4.26 15.31,10.15 20.2,17.69 4.88,7.54 7.88,16.26 9,26.17 l -31.82,1.67 c -0.56,-5.16 -2.02,-9.66 -4.4,-13.5 -2.38,-3.84 -5.62,-6.8 -9.73,-8.9 -4.12,-2.09 -8.97,-3.14 -14.55,-3.14 -7.12,0 -12.74,1.61 -16.85,4.81 -4.12,3.21 -6.17,7.4 -6.17,12.56 0,3.77 0.91,6.84 2.72,9.21 1.81,2.38 4.88,4.47 9.21,6.28 4.32,1.81 10.68,3.56 19.05,5.23 13.53,2.79 24.31,6.28 32.34,10.47 8.02,4.19 13.78,9.18 17.27,14.97 3.49,5.79 5.23,12.6 5.23,20.41 0,9.21 -2.34,17.2 -7.01,23.97 -4.68,6.77 -11.34,11.97 -19.99,15.59 -8.65,3.63 -18.84,5.44 -30.56,5.44 -12.55,-0.01 -23.47,-2.18 -32.75,-6.5 z"
   id="path1614" />
	</g>
</g>
</svg>
