<?xml version="1.0" encoding="utf-8"?>
<!-- Generator: Adobe Illustrator 26.3.1, SVG Export Plug-In . SVG Version: 6.00 Build 0)  -->
<svg version="1.1" id="Layer_1" xmlns="http://www.w3.org/2000/svg" xmlns:xlink="http://www.w3.org/1999/xlink" x="0px" y="0px"
	 viewBox="0 0 2000 2000" style="enable-background:new 0 0 2000 2000;" xml:space="preserve">
<style type="text/css">
	.st0{display:none;}
	.st1{display:inline;}
	.st2{display:inline;fill:none;}
	.st3{fill:none;}
</style>
<g class="st0">
	<path class="st1" d="M980.5,1447.7v17h-28.9v21.1h35.8v17H929v-93h58.4v17h-35.8v20.8H980.5z"/>
	<path class="st1" d="M1067.2,1447.7v17h-28.9v21.1h35.8v17h-58.4v-93h58.4v17h-35.8v20.8H1067.2z"/>
	<path class="st1" d="M1125,1502.8h-22.6v-93h33.7c5.3,0,10.1,0.8,14.4,2.4c4.3,1.6,7.9,3.8,10.9,6.7c3,2.9,5.3,6.2,6.9,10
		c1.6,3.8,2.4,8,2.4,12.4c0,4.5-0.8,8.7-2.4,12.6c-1.6,4-3.9,7.4-6.9,10.4c-3,2.9-6.7,5.3-10.9,7c-4.3,1.7-9,2.6-14.3,2.6H1125
		V1502.8z M1133.9,1457c4,0,7.4-1.3,10.1-4c2.7-2.7,4-6.6,4-11.6c0-5-1.3-8.7-4-11c-2.7-2.3-6.1-3.5-10.1-3.5h-8.8v30.2H1133.9z"/>
	<path class="st2" d="M851.4,1485.8h6.7c3,0,5.9-0.7,8.6-2.1c2.7-1.4,5.1-3.4,7.1-5.9c2-2.6,3.6-5.7,4.8-9.3
		c1.2-3.7,1.8-7.8,1.8-12.3c0-1.1,0-2.2-0.1-3.3l-28.9,5.9V1485.8z"/>
	<path class="st1" d="M880.3,1452.9c0.1,1.1,0.1,2.1,0.1,3.3c0,4.5-0.6,8.6-1.8,12.3c-1.2,3.7-2.8,6.8-4.8,9.3
		c-2,2.6-4.4,4.5-7.1,5.9c-2.7,1.4-5.6,2.1-8.6,2.1h-6.7v-27l-22.6,4.6v39.4h32.3c6.2,0,11.9-1.2,17.1-3.5c5.2-2.3,9.6-5.6,13.3-9.7
		c3.7-4.2,6.6-9.1,8.6-14.8c2.1-5.7,3.1-11.9,3.1-18.7c0-2.7-0.2-5.3-0.5-7.8L880.3,1452.9z"/>
	<path class="st1" d="M856.4,1426.8h6.7c3,0,5.9,0.7,8.6,2c2.7,1.3,5.1,3.2,7.1,5.7c2,2.5,3.6,5.6,4.8,9.2c0.9,2.7,1.4,5.8,1.7,9.1
		l22.4-4.6c-0.5-3.8-1.4-7.4-2.6-10.8c-2.1-5.7-4.9-10.6-8.6-14.6c-3.7-4.1-8.1-7.3-13.3-9.6c-5.2-2.3-10.9-3.5-17.1-3.5h-32.3v53.6
		l22.6-4.6V1426.8z"/>
	<g class="st1">
		<path d="M827.6,1615.8v-93h22.2v93H827.6z"/>
		<path d="M880.3,1615.8h-22v-93h34.6l24.4,73.2v-73.2h22v93h-35l-24-72.1V1615.8z"/>
		<path d="M1080.1,1560.6v17h-28.9v21.1h35.8v17h-58.4v-93h58.4v17h-35.8v20.8H1080.1z"/>
		<path d="M1116.9,1522.8l14.6,32.3l14.5-32.3h25.4l-25.1,47l26,46.1H1147l-15.4-31.3l-15.4,31.3h-25.2l26-46.1l-25.2-47H1116.9z"/>
		<path class="st3" d="M970.6,1598.8h6.7c3,0,5.9-0.7,8.6-2.1c2.7-1.4,5.1-3.4,7.1-5.9c2-2.6,3.6-5.7,4.8-9.3
			c1.2-3.7,1.8-7.8,1.8-12.3c0-1.1,0-2.2-0.1-3.3l-28.9,5.9V1598.8z"/>
		<path d="M999.5,1565.8c0.1,1.1,0.1,2.1,0.1,3.3c0,4.5-0.6,8.6-1.8,12.3c-1.2,3.7-2.8,6.8-4.8,9.3c-2,2.6-4.4,4.5-7.1,5.9
			c-2.7,1.4-5.6,2.1-8.6,2.1h-6.7v-27l-22.6,4.6v39.4h32.3c6.2,0,11.9-1.2,17.1-3.5c5.2-2.3,9.6-5.6,13.3-9.7
			c3.7-4.2,6.6-9.1,8.6-14.8c2.1-5.7,3.1-11.9,3.1-18.7c0-2.7-0.2-5.3-0.5-7.8L999.5,1565.8z"/>
		<path d="M975.5,1539.8h6.7c3,0,5.9,0.7,8.6,2c2.7,1.3,5.1,3.2,7.1,5.7c2,2.5,3.6,5.6,4.8,9.2c0.9,2.7,1.4,5.8,1.7,9.1l22.4-4.6
			c-0.5-3.8-1.4-7.4-2.6-10.8c-2.1-5.7-4.9-10.6-8.6-14.6c-3.7-4.1-8.1-7.3-13.3-9.6c-5.2-2.3-10.9-3.5-17.1-3.5H953v53.6l22.6-4.6
			V1539.8z"/>
	</g>
</g>
<g>
	<g>
		<g>
			<polygon points="727.5,743.2 727.5,821.9 984.7,821.9 1029.8,743.2 			"/>
			<polygon points="1272.5,772.2 1011.7,772.2 966.6,851 1272.5,851 			"/>
		</g>
		<g>
			<polygon points="727.5,872.3 727.5,951 984.7,951 1029.8,872.3 			"/>
			<polygon points="1272.5,901.3 1011.7,901.3 966.6,980 1272.5,980 			"/>
		</g>
		<g>
			<polygon points="727.5,1007.7 727.5,1086.4 984.7,1086.4 1029.8,1007.7 			"/>
			<polygon points="1272.5,1036.7 1011.7,1036.7 966.6,1115.4 1272.5,1115.4 			"/>
		</g>
	</g>
	<g>
		<path d="M836.1,1213.5v13.3h-22.6v16.5h28v13.3h-45.7v-72.7h45.7v13.3h-28v16.3H836.1z"/>
		<path d="M893.2,1213.5v13.3h-22.6v16.5h28v13.3H853v-72.7h45.7v13.3h-28v16.3H893.2z"/>
		<path d="M927.8,1256.6h-17.7v-72.7c12.8,0.9,36.4-3.5,46.1,7.1c12.7,11.8,7.9,35.3-8.6,41c-5.3,2.5-13.9,2-19.9,2V1256.6z
			 M934.7,1220.8c14.4,0.7,15-24.8,0-23.6c0,0-6.9,0-6.9,0v23.6H934.7z"/>
		<path d="M982.3,1256.6v-72.7h17.4v72.7H982.3z"/>
		<path d="M1028.1,1256.6h-17.2v-72.7h27l19,57.2v-57.2h17.2v72.7h-27.3l-18.8-56.3V1256.6z"/>
		<path d="M1193.6,1213.5v13.3H1171v16.5h28v13.3h-45.7v-72.7h45.7v13.3h-28v16.3H1193.6z"/>
		<path d="M1227.1,1183.9l11.4,25.3l11.3-25.3h19.8l-19.6,36.7l20.3,36h-19.8l-12-24.5l-12,24.5h-19.7l20.3-36l-19.7-36.7H1227.1z"
			/>
		<g>
			<path class="st3" d="M745.8,1243.3h5.2c14.1-0.9,19.4-16,17-28.8l-22.2,5.4V1243.3z"/>
			<path d="M768,1214.6c2.4,12.7-2.9,27.8-17,28.8h-5.2V1220l-17.7,4.3v32.3c9.1-0.6,30.5,1.8,38.6-2.7
				c13.1-5.7,19.7-19.7,19.6-33.8c0-3.3-0.3-6.6-1-9.8L768,1214.6z"/>
			<path d="M750.3,1197.2c12.6-2.5,20.2,6.6,22.2,17.3l17.3-4.2c-2.3-10.3-8.6-19.4-18.5-23.7c-8.2-4.5-29.4-2.1-38.6-2.7v40.4
				l17.7-4.3V1197.2z"/>
		</g>
		<g>
			<path class="st3" d="M1099.7,1243.3h5.2c14.1-0.9,19.4-16,17-28.8l-22.2,5.4V1243.3z"/>
			<path d="M1121.9,1214.5c2.4,12.7-2.9,27.8-17,28.8h-5.2V1220l-17.7,4.3v32.3c9.1-0.6,30.5,1.8,38.6-2.7
				c13.1-5.7,19.7-19.7,19.6-33.8c0-3.3-0.3-6.6-1-9.8L1121.9,1214.5z"/>
			<path d="M1104.2,1197.2c12.6-2.5,20.2,6.6,22.2,17.3l17.3-4.2c-2.3-10.3-8.6-19.4-18.5-23.7c-8.2-4.5-29.4-2.1-38.6-2.7v40.4
				l17.7-4.3V1197.2z"/>
		</g>
	</g>
</g>
</svg>
