<?xml version="1.0" encoding="UTF-8" standalone="no"?>
<!-- Generator: Adobe Illustrator 26.3.1, SVG Export Plug-In . SVG Version: 6.00 Build 0)  -->

<svg
   version="1.1"
   id="Layer_1"
   x="0px"
   y="0px"
   viewBox="0 0 545 513.51471"
   xml:space="preserve"
   sodipodi:docname="deep.index.svg"
   width="545"
   height="513.51471"
   inkscape:version="1.3.2 (091e20e, 2023-11-25)"
   xmlns:inkscape="http://www.inkscape.org/namespaces/inkscape"
   xmlns:sodipodi="http://sodipodi.sourceforge.net/DTD/sodipodi-0.dtd"
   xmlns="http://www.w3.org/2000/svg"
   xmlns:svg="http://www.w3.org/2000/svg"><defs
   id="defs34" /><sodipodi:namedview
   id="namedview34"
   pagecolor="#ffffff"
   bordercolor="#000000"
   borderopacity="0.25"
   inkscape:showpageshadow="2"
   inkscape:pageopacity="0.0"
   inkscape:pagecheckerboard="0"
   inkscape:deskcolor="#d1d1d1"
   inkscape:zoom="0.118"
   inkscape:cx="271.18644"
   inkscape:cy="254.23729"
   inkscape:window-width="1728"
   inkscape:window-height="1051"
   inkscape:window-x="0"
   inkscape:window-y="38"
   inkscape:window-maximized="1"
   inkscape:current-layer="Layer_1" />
<style
   type="text/css"
   id="style1">
	.st0{display:none;}
	.st1{display:inline;}
	.st2{display:inline;fill:none;}
	.st3{fill:none;}
</style>
<g
   class="st0"
   id="g14"
   transform="translate(-727.5,-743.2)">
	<path
   class="st1"
   d="m 980.5,1447.7 v 17 h -28.9 v 21.1 h 35.8 v 17 H 929 v -93 h 58.4 v 17 h -35.8 v 20.8 h 28.9 z"
   id="path1" />
	<path
   class="st1"
   d="m 1067.2,1447.7 v 17 h -28.9 v 21.1 h 35.8 v 17 h -58.4 v -93 h 58.4 v 17 h -35.8 v 20.8 h 28.9 z"
   id="path2" />
	<path
   class="st1"
   d="m 1125,1502.8 h -22.6 v -93 h 33.7 c 5.3,0 10.1,0.8 14.4,2.4 4.3,1.6 7.9,3.8 10.9,6.7 3,2.9 5.3,6.2 6.9,10 1.6,3.8 2.4,8 2.4,12.4 0,4.5 -0.8,8.7 -2.4,12.6 -1.6,4 -3.9,7.4 -6.9,10.4 -3,2.9 -6.7,5.3 -10.9,7 -4.3,1.7 -9,2.6 -14.3,2.6 H 1125 Z m 8.9,-45.8 c 4,0 7.4,-1.3 10.1,-4 2.7,-2.7 4,-6.6 4,-11.6 0,-5 -1.3,-8.7 -4,-11 -2.7,-2.3 -6.1,-3.5 -10.1,-3.5 h -8.8 v 30.2 h 8.8 z"
   id="path3" />
	<path
   class="st2"
   d="m 851.4,1485.8 h 6.7 c 3,0 5.9,-0.7 8.6,-2.1 2.7,-1.4 5.1,-3.4 7.1,-5.9 2,-2.6 3.6,-5.7 4.8,-9.3 1.2,-3.7 1.8,-7.8 1.8,-12.3 0,-1.1 0,-2.2 -0.1,-3.3 l -28.9,5.9 z"
   id="path4" />
	<path
   class="st1"
   d="m 880.3,1452.9 c 0.1,1.1 0.1,2.1 0.1,3.3 0,4.5 -0.6,8.6 -1.8,12.3 -1.2,3.7 -2.8,6.8 -4.8,9.3 -2,2.6 -4.4,4.5 -7.1,5.9 -2.7,1.4 -5.6,2.1 -8.6,2.1 h -6.7 v -27 l -22.6,4.6 v 39.4 h 32.3 c 6.2,0 11.9,-1.2 17.1,-3.5 5.2,-2.3 9.6,-5.6 13.3,-9.7 3.7,-4.2 6.6,-9.1 8.6,-14.8 2.1,-5.7 3.1,-11.9 3.1,-18.7 0,-2.7 -0.2,-5.3 -0.5,-7.8 z"
   id="path5" />
	<path
   class="st1"
   d="m 856.4,1426.8 h 6.7 c 3,0 5.9,0.7 8.6,2 2.7,1.3 5.1,3.2 7.1,5.7 2,2.5 3.6,5.6 4.8,9.2 0.9,2.7 1.4,5.8 1.7,9.1 l 22.4,-4.6 c -0.5,-3.8 -1.4,-7.4 -2.6,-10.8 -2.1,-5.7 -4.9,-10.6 -8.6,-14.6 -3.7,-4.1 -8.1,-7.3 -13.3,-9.6 -5.2,-2.3 -10.9,-3.5 -17.1,-3.5 h -32.3 v 53.6 l 22.6,-4.6 z"
   id="path6" />
	<g
   class="st1"
   id="g13">
		<path
   d="m 827.6,1615.8 v -93 h 22.2 v 93 z"
   id="path7" />
		<path
   d="m 880.3,1615.8 h -22 v -93 h 34.6 l 24.4,73.2 v -73.2 h 22 v 93 h -35 l -24,-72.1 z"
   id="path8" />
		<path
   d="m 1080.1,1560.6 v 17 h -28.9 v 21.1 h 35.8 v 17 h -58.4 v -93 h 58.4 v 17 h -35.8 v 20.8 h 28.9 z"
   id="path9" />
		<path
   d="m 1116.9,1522.8 14.6,32.3 14.5,-32.3 h 25.4 l -25.1,47 26,46.1 H 1147 l -15.4,-31.3 -15.4,31.3 H 1091 l 26,-46.1 -25.2,-47 z"
   id="path10" />
		<path
   class="st3"
   d="m 970.6,1598.8 h 6.7 c 3,0 5.9,-0.7 8.6,-2.1 2.7,-1.4 5.1,-3.4 7.1,-5.9 2,-2.6 3.6,-5.7 4.8,-9.3 1.2,-3.7 1.8,-7.8 1.8,-12.3 0,-1.1 0,-2.2 -0.1,-3.3 l -28.9,5.9 z"
   id="path11" />
		<path
   d="m 999.5,1565.8 c 0.1,1.1 0.1,2.1 0.1,3.3 0,4.5 -0.6,8.6 -1.8,12.3 -1.2,3.7 -2.8,6.8 -4.8,9.3 -2,2.6 -4.4,4.5 -7.1,5.9 -2.7,1.4 -5.6,2.1 -8.6,2.1 h -6.7 v -27 l -22.6,4.6 v 39.4 h 32.3 c 6.2,0 11.9,-1.2 17.1,-3.5 5.2,-2.3 9.6,-5.6 13.3,-9.7 3.7,-4.2 6.6,-9.1 8.6,-14.8 2.1,-5.7 3.1,-11.9 3.1,-18.7 0,-2.7 -0.2,-5.3 -0.5,-7.8 z"
   id="path12" />
		<path
   d="m 975.5,1539.8 h 6.7 c 3,0 5.9,0.7 8.6,2 2.7,1.3 5.1,3.2 7.1,5.7 2,2.5 3.6,5.6 4.8,9.2 0.9,2.7 1.4,5.8 1.7,9.1 l 22.4,-4.6 c -0.5,-3.8 -1.4,-7.4 -2.6,-10.8 -2.1,-5.7 -4.9,-10.6 -8.6,-14.6 -3.7,-4.1 -8.1,-7.3 -13.3,-9.6 -5.2,-2.3 -10.9,-3.5 -17.1,-3.5 H 953 v 53.6 l 22.6,-4.6 v -31.9 z"
   id="path13" />
	</g>
</g>
<g
   id="g34"
   transform="translate(-727.5,-743.2)">
	<g
   id="g20">
		<g
   id="g15">
			<polygon
   points="984.7,821.9 1029.8,743.2 727.5,743.2 727.5,821.9 "
   id="polygon14" />
			<polygon
   points="966.6,851 1272.5,851 1272.5,772.2 1011.7,772.2 "
   id="polygon15" />
		</g>
		<g
   id="g17">
			<polygon
   points="984.7,951 1029.8,872.3 727.5,872.3 727.5,951 "
   id="polygon16" />
			<polygon
   points="966.6,980 1272.5,980 1272.5,901.3 1011.7,901.3 "
   id="polygon17" />
		</g>
		<g
   id="g19">
			<polygon
   points="984.7,1086.4 1029.8,1007.7 727.5,1007.7 727.5,1086.4 "
   id="polygon18" />
			<polygon
   points="966.6,1115.4 1272.5,1115.4 1272.5,1036.7 1011.7,1036.7 "
   id="polygon19" />
		</g>
	</g>
	<g
   id="g33">
		<path
   d="m 836.1,1213.5 v 13.3 h -22.6 v 16.5 h 28 v 13.3 h -45.7 v -72.7 h 45.7 v 13.3 h -28 v 16.3 z"
   id="path20" />
		<path
   d="m 893.2,1213.5 v 13.3 h -22.6 v 16.5 h 28 v 13.3 H 853 v -72.7 h 45.7 v 13.3 h -28 v 16.3 z"
   id="path21" />
		<path
   d="m 927.8,1256.6 h -17.7 v -72.7 c 12.8,0.9 36.4,-3.5 46.1,7.1 12.7,11.8 7.9,35.3 -8.6,41 -5.3,2.5 -13.9,2 -19.9,2 v 22.6 z m 6.9,-35.8 c 14.4,0.7 15,-24.8 0,-23.6 0,0 -6.9,0 -6.9,0 v 23.6 z"
   id="path22" />
		<path
   d="m 982.3,1256.6 v -72.7 h 17.4 v 72.7 z"
   id="path23" />
		<path
   d="m 1028.1,1256.6 h -17.2 v -72.7 h 27 l 19,57.2 v -57.2 h 17.2 v 72.7 h -27.3 l -18.8,-56.3 v 56.3 z"
   id="path24" />
		<path
   d="m 1193.6,1213.5 v 13.3 H 1171 v 16.5 h 28 v 13.3 h -45.7 v -72.7 h 45.7 v 13.3 h -28 v 16.3 z"
   id="path25" />
		<path
   d="m 1227.1,1183.9 11.4,25.3 11.3,-25.3 h 19.8 l -19.6,36.7 20.3,36 h -19.8 l -12,-24.5 -12,24.5 h -19.7 l 20.3,-36 -19.7,-36.7 z"
   id="path26" />
		<g
   id="g29">
			<path
   class="st3"
   d="m 745.8,1243.3 h 5.2 c 14.1,-0.9 19.4,-16 17,-28.8 l -22.2,5.4 z"
   id="path27" />
			<path
   d="m 768,1214.6 c 2.4,12.7 -2.9,27.8 -17,28.8 h -5.2 V 1220 l -17.7,4.3 v 32.3 c 9.1,-0.6 30.5,1.8 38.6,-2.7 13.1,-5.7 19.7,-19.7 19.6,-33.8 0,-3.3 -0.3,-6.6 -1,-9.8 z"
   id="path28" />
			<path
   d="m 750.3,1197.2 c 12.6,-2.5 20.2,6.6 22.2,17.3 l 17.3,-4.2 c -2.3,-10.3 -8.6,-19.4 -18.5,-23.7 -8.2,-4.5 -29.4,-2.1 -38.6,-2.7 v 40.4 l 17.7,-4.3 v -22.8 z"
   id="path29" />
		</g>
		<g
   id="g32">
			<path
   class="st3"
   d="m 1099.7,1243.3 h 5.2 c 14.1,-0.9 19.4,-16 17,-28.8 l -22.2,5.4 z"
   id="path30" />
			<path
   d="m 1121.9,1214.5 c 2.4,12.7 -2.9,27.8 -17,28.8 h -5.2 V 1220 l -17.7,4.3 v 32.3 c 9.1,-0.6 30.5,1.8 38.6,-2.7 13.1,-5.7 19.7,-19.7 19.6,-33.8 0,-3.3 -0.3,-6.6 -1,-9.8 z"
   id="path31" />
			<path
   d="m 1104.2,1197.2 c 12.6,-2.5 20.2,6.6 22.2,17.3 l 17.3,-4.2 c -2.3,-10.3 -8.6,-19.4 -18.5,-23.7 -8.2,-4.5 -29.4,-2.1 -38.6,-2.7 v 40.4 l 17.7,-4.3 v -22.8 z"
   id="path32" />
		</g>
	</g>
</g>
</svg>
