<?xml version="1.0" encoding="UTF-8" standalone="no"?>
<!-- Generator: Adobe Illustrator 26.3.1, SVG Export Plug-In . SVG Version: 6.00 Build 0)  -->

<svg
   version="1.1"
   id="Layer_1"
   x="0px"
   y="0px"
   viewBox="0 0 449 633.40002"
   xml:space="preserve"
   sodipodi:docname="etcher.svg"
   width="449"
   height="633.40002"
   inkscape:version="1.3.2 (091e20e, 2023-11-25)"
   xmlns:inkscape="http://www.inkscape.org/namespaces/inkscape"
   xmlns:sodipodi="http://sodipodi.sourceforge.net/DTD/sodipodi-0.dtd"
   xmlns="http://www.w3.org/2000/svg"
   xmlns:svg="http://www.w3.org/2000/svg"><defs
   id="defs12" /><sodipodi:namedview
   id="namedview12"
   pagecolor="#ffffff"
   bordercolor="#000000"
   borderopacity="0.25"
   inkscape:showpageshadow="2"
   inkscape:pageopacity="0.0"
   inkscape:pagecheckerboard="0"
   inkscape:deskcolor="#d1d1d1"
   inkscape:zoom="0.4838989"
   inkscape:cx="163.25724"
   inkscape:cy="270.71771"
   inkscape:window-width="1728"
   inkscape:window-height="1051"
   inkscape:window-x="0"
   inkscape:window-y="38"
   inkscape:window-maximized="1"
   inkscape:current-layer="g12" />
<style
   type="text/css"
   id="style1">
	.st0{fill:none;}
</style>
<g
   id="g6"
   transform="translate(-781.3,-657.59998)"
   style="fill:#ffffff;fill-opacity:1">
	<path
   d="m 829.3,1238 v 15.9 h -26.9 v 19.6 h 33.4 v 15.9 h -54.5 v -86.7 h 54.5 v 15.9 h -33.4 v 19.4 z"
   id="path1"
   style="fill:#ffffff;fill-opacity:1" />
	<path
   d="m 992.8,1257.2 c 0,3.8 -0.7,7.8 -2.2,11.8 -1.5,4 -3.7,7.6 -6.7,10.9 -3,3.3 -6.8,5.9 -11.3,8 -4.6,2.1 -10,3.1 -16.2,3.1 -6.2,0 -11.7,-1.1 -16.6,-3.4 -4.9,-2.2 -9,-5.3 -12.3,-9.3 -3.4,-4 -5.9,-8.7 -7.7,-14.2 -1.8,-5.5 -2.6,-11.5 -2.6,-18.1 0,-6.6 0.9,-12.6 2.6,-18.1 1.8,-5.4 4.3,-10.2 7.7,-14.1 3.4,-4 7.5,-7 12.3,-9.2 4.9,-2.2 10.4,-3.3 16.6,-3.3 5.2,0 9.8,0.7 13.8,2.2 4,1.5 7.5,3.4 10.4,5.7 2.9,2.4 5.3,5.1 7.1,8.1 1.8,3.1 3.2,6.2 4.1,9.4 0.7,2.8 1.1,5.6 1.1,8.2 h -21.1 c 0,-0.6 0,-1.2 -0.1,-1.8 0,-0.5 -0.1,-1.1 -0.2,-1.6 -0.6,-4 -2.2,-7.3 -4.8,-9.9 -2.5,-2.6 -6,-3.9 -10.4,-3.9 -2.5,0 -4.9,0.5 -7.1,1.6 -2.2,1.1 -4.1,2.8 -5.7,5.1 -1.6,2.3 -2.9,5.3 -3.8,8.8 -0.9,3.6 -1.4,7.8 -1.4,12.6 0,4.9 0.5,9.2 1.4,12.8 0.9,3.6 2.2,6.5 3.8,8.9 1.6,2.4 3.5,4.1 5.7,5.2 2.2,1.1 4.5,1.6 7.1,1.6 2.4,0 4.6,-0.5 6.5,-1.4 1.9,-0.9 3.5,-2.2 4.8,-3.8 1.3,-1.6 2.3,-3.4 3,-5.5 0.7,-2.1 1.1,-4.3 1.1,-6.6 h 21.1 z"
   id="path2"
   style="fill:#ffffff;fill-opacity:1" />
	<path
   d="m 1075.1,1202.7 v 86.7 H 1054 v -35.2 h -28.9 v 35.2 H 1004 v -86.7 h 21.1 v 35.6 h 28.9 v -35.6 z"
   id="path3"
   style="fill:#ffffff;fill-opacity:1" />
	<path
   d="m 1136.7,1238 v 15.9 h -26.9 v 19.6 h 33.4 v 15.9 h -54.5 v -86.7 h 54.5 v 15.9 h -33.4 v 19.4 z"
   id="path4"
   style="fill:#ffffff;fill-opacity:1" />
	<polygon
   points="888,1289.4 888,1238 867,1244.7 867,1289.4 "
   id="polygon4"
   style="fill:#ffffff;fill-opacity:1" />
	<polygon
   points="914.9,1202.7 852.5,1202.7 852.5,1218.6 873.2,1218.6 873.2,1244.7 894.1,1238 894.1,1218.6 914.9,1218.6 "
   id="polygon5"
   style="fill:#ffffff;fill-opacity:1" />
	<path
   d="m 1219.7,1280 v -15.4 c 0,-3.8 -0.7,-6.9 -2,-9.2 -1.3,-2.3 -3.1,-4 -5.3,-5 -1.7,-0.7 -3.5,-1.2 -5.2,-1.5 l -50.4,8.8 v 31.8 h 20.5 v -32.8 h 11.4 c 3.8,0 6.4,0.9 7.9,2.7 1.5,1.8 2.2,4.4 2.2,7.6 v 13.1 c 0,2 0.2,3.9 0.5,5.6 0.4,1.7 0.8,3 1.4,3.8 h 20.9 c -0.6,-0.8 -1.1,-2 -1.4,-3.8 -0.3,-1.8 -0.5,-3.7 -0.5,-5.7 z"
   id="path5"
   style="fill:#ffffff;fill-opacity:1" />
	<path
   d="m 1214.3,1248 c 2.3,-0.2 4.7,-1.2 7.2,-2.8 2.5,-1.7 4.6,-4.2 6.3,-7.3 1.7,-3.1 2.5,-6.9 2.5,-11.4 0,-7.8 -2.3,-13.9 -6.9,-18.1 -4.6,-4.2 -11.6,-6.3 -21.1,-6.3 h -36.8 v 54.9 l 50.4,-8.8 c -0.5,-0.1 -1.1,-0.2 -1.6,-0.2 z m -8.7,-11 c -2.1,2.1 -4.8,3.1 -8,3.1 H 1186 v -22.2 h 11.4 c 3.5,0 6.3,1 8.3,2.9 2,2 3.1,4.5 3.1,7.6 0,3.7 -1.1,6.5 -3.2,8.6 z"
   id="path6"
   style="fill:#ffffff;fill-opacity:1" />
</g>
<g
   id="g12"
   transform="translate(-781.3,-657.59998)">
	
	<polygon
   points="840.7,1037.2 908.6,1037.2 909.3,1037.2 909.3,911.2 840.7,931 "
   id="polygon7"
   style="fill:#ffffff;fill-opacity:1" />
	<polygon
   points="1135,845.9 1066.4,865.8 1066.4,1037.2 1135,1037.2 "
   id="polygon8"
   style="fill:#ffffff;fill-opacity:1" />
	<polygon
   points="1066.4,1105.9 1066.4,1037.2 909.3,1037.2 908.6,1037.2 908.6,1105.9 "
   id="polygon9"
   style="fill:#ffffff;fill-opacity:1" />
	<rect
   x="1080.7"
   y="1053"
   width="67.900002"
   height="67.900002"
   id="rect9"
   style="fill:#ffffff;fill-opacity:1" />
	<polygon
   points="865,740.7 865,931 933.6,911.2 933.6,740.7 932.9,740.7 "
   id="polygon10"
   style="fill:#ffffff;fill-opacity:1" />
	<polygon
   points="1159.3,845.9 1159.3,740.7 1090.7,740.7 1090.7,865.8 "
   id="polygon11"
   style="fill:#ffffff;fill-opacity:1" />
	<polygon
   points="932.9,672 932.9,740.7 933.6,740.7 1090.7,740.7 1090.7,672 "
   id="polygon12"
   style="fill:#ffffff;fill-opacity:1" />
	<rect
   x="851.09998"
   y="657.59998"
   width="67.900002"
   height="67.900002"
   id="rect12"
   style="fill:#ffffff;fill-opacity:1" />
</g>
</svg>
