<?xml version="1.0" encoding="utf-8"?>
<!-- Generator: Adobe Illustrator 26.3.1, SVG Export Plug-In . SVG Version: 6.00 Build 0)  -->
<svg version="1.1" id="Layer_1" xmlns="http://www.w3.org/2000/svg" xmlns:xlink="http://www.w3.org/1999/xlink" x="0px" y="0px"
	 viewBox="0 0 2000 2000" style="enable-background:new 0 0 2000 2000;" xml:space="preserve">
<style type="text/css">
	.st0{fill:none;}
</style>
<g>
	<path d="M829.3,1238v15.9h-26.9v19.6h33.4v15.9h-54.5v-86.7h54.5v15.9h-33.4v19.4H829.3z"/>
	<path d="M992.8,1257.2c0,3.8-0.7,7.8-2.2,11.8c-1.5,4-3.7,7.6-6.7,10.9c-3,3.3-6.8,5.9-11.3,8c-4.6,2.1-10,3.1-16.2,3.1
		c-6.2,0-11.7-1.1-16.6-3.4c-4.9-2.2-9-5.3-12.3-9.3c-3.4-4-5.9-8.7-7.7-14.2c-1.8-5.5-2.6-11.5-2.6-18.1s0.9-12.6,2.6-18.1
		c1.8-5.4,4.3-10.2,7.7-14.1c3.4-4,7.5-7,12.3-9.2c4.9-2.2,10.4-3.3,16.6-3.3c5.2,0,9.8,0.7,13.8,2.2c4,1.5,7.5,3.4,10.4,5.7
		c2.9,2.4,5.3,5.1,7.1,8.1c1.8,3.1,3.2,6.2,4.1,9.4c0.7,2.8,1.1,5.6,1.1,8.2h-21.1c0-0.6,0-1.2-0.1-1.8c0-0.5-0.1-1.1-0.2-1.6
		c-0.6-4-2.2-7.3-4.8-9.9c-2.5-2.6-6-3.9-10.4-3.9c-2.5,0-4.9,0.5-7.1,1.6c-2.2,1.1-4.1,2.8-5.7,5.1c-1.6,2.3-2.9,5.3-3.8,8.8
		c-0.9,3.6-1.4,7.8-1.4,12.6c0,4.9,0.5,9.2,1.4,12.8c0.9,3.6,2.2,6.5,3.8,8.9c1.6,2.4,3.5,4.1,5.7,5.2c2.2,1.1,4.5,1.6,7.1,1.6
		c2.4,0,4.6-0.5,6.5-1.4c1.9-0.9,3.5-2.2,4.8-3.8c1.3-1.6,2.3-3.4,3-5.5c0.7-2.1,1.1-4.3,1.1-6.6H992.8z"/>
	<path d="M1075.1,1202.7v86.7H1054v-35.2h-28.9v35.2H1004v-86.7h21.1v35.6h28.9v-35.6H1075.1z"/>
	<path d="M1136.7,1238v15.9h-26.9v19.6h33.4v15.9h-54.5v-86.7h54.5v15.9h-33.4v19.4H1136.7z"/>
	<polygon points="867,1244.7 867,1289.4 888,1289.4 888,1238 	"/>
	<polygon points="894.1,1218.6 914.9,1218.6 914.9,1202.7 852.5,1202.7 852.5,1218.6 873.2,1218.6 873.2,1244.7 894.1,1238 	"/>
	<path d="M1219.7,1280v-15.4c0-3.8-0.7-6.9-2-9.2c-1.3-2.3-3.1-4-5.3-5c-1.7-0.7-3.5-1.2-5.2-1.5l-50.4,8.8v31.8h20.5v-32.8h11.4
		c3.8,0,6.4,0.9,7.9,2.7c1.5,1.8,2.2,4.4,2.2,7.6v13.1c0,2,0.2,3.9,0.5,5.6c0.4,1.7,0.8,3,1.4,3.8h20.9c-0.6-0.8-1.1-2-1.4-3.8
		C1219.9,1283.9,1219.7,1282,1219.7,1280z"/>
	<path d="M1214.3,1248c2.3-0.2,4.7-1.2,7.2-2.8c2.5-1.7,4.6-4.2,6.3-7.3c1.7-3.1,2.5-6.9,2.5-11.4c0-7.8-2.3-13.9-6.9-18.1
		c-4.6-4.2-11.6-6.3-21.1-6.3h-36.8v54.9l50.4-8.8C1215.4,1248.1,1214.8,1248,1214.3,1248z M1205.6,1237c-2.1,2.1-4.8,3.1-8,3.1
		h-11.6v-22.2h11.4c3.5,0,6.3,1,8.3,2.9c2,2,3.1,4.5,3.1,7.6C1208.8,1232.1,1207.7,1234.9,1205.6,1237z"/>
</g>
<g>
	<polygon class="st0" points="909.3,911.2 909.3,1037.2 1066.4,1037.2 1066.4,865.8 	"/>
	<polygon points="909.3,911.2 840.7,931 840.7,1037.2 908.6,1037.2 909.3,1037.2 	"/>
	<polygon points="1066.4,1037.2 1135,1037.2 1135,845.9 1066.4,865.8 	"/>
	<polygon points="908.6,1037.2 908.6,1105.9 1066.4,1105.9 1066.4,1037.2 909.3,1037.2 	"/>
	<rect x="1080.7" y="1053" width="67.9" height="67.9"/>
	<polygon points="933.6,740.7 932.9,740.7 865,740.7 865,931 933.6,911.2 	"/>
	<polygon points="1090.7,740.7 1090.7,865.8 1159.3,845.9 1159.3,740.7 	"/>
	<polygon points="1090.7,740.7 1090.7,672 932.9,672 932.9,740.7 933.6,740.7 	"/>
	<rect x="851.1" y="657.6" width="67.9" height="67.9"/>
</g>
</svg>
