<?xml version="1.0" encoding="utf-8"?>
<!-- Generator: Adobe Illustrator 26.3.1, SVG Export Plug-In . SVG Version: 6.00 Build 0)  -->
<svg version="1.1" id="Layer_1" xmlns="http://www.w3.org/2000/svg" xmlns:xlink="http://www.w3.org/1999/xlink" x="0px" y="0px"
	 viewBox="0 0 2000 2000" style="enable-background:new 0 0 2000 2000;" xml:space="preserve">
<style type="text/css">
	.st0{display:none;}
	.st1{display:inline;fill:#1D1D1B;}
	.st2{fill:#1D1D1B;}
</style>
<g class="st0">
	<rect x="786.2" y="1194.9" class="st1" width="85.5" height="94.2"/>
	<rect x="1128.3" y="1203.6" class="st1" width="85.5" height="85.5"/>
	<rect x="871.7" y="710.9" class="st1" width="85.5" height="85.5"/>
	<rect x="957.2" y="710.9" class="st1" width="85.5" height="85.5"/>
	<rect x="1042.8" y="710.9" class="st1" width="85.5" height="85.5"/>
	<rect x="1128.3" y="796.4" class="st1" width="85.5" height="85.5"/>
	<rect x="914.5" y="881.9" class="st1" width="85.5" height="85.5"/>
	<rect x="1042.8" y="881.9" class="st1" width="85.5" height="85.5"/>
	<rect x="1128.3" y="969.3" class="st1" width="85.5" height="146.9"/>
	<rect x="786.2" y="1037.5" class="st1" width="85.5" height="157.3"/>
	<rect x="786.2" y="796.4" class="st1" width="85.5" height="157.3"/>
</g>
<g class="st0">
	<rect x="938.2" y="943.2" class="st1" width="71.1" height="71.1"/>
	<rect x="845.4" y="809.8" class="st1" width="309.2" height="71.1"/>
	
		<rect x="655.2" y="1000" transform="matrix(-1.836970e-16 1 -1 -1.836970e-16 1845.3756 225.6925)" class="st1" width="309.2" height="71.1"/>
	
		<rect x="1035.5" y="1000" transform="matrix(-1.836970e-16 1 -1 -1.836970e-16 2225.6924 -154.6244)" class="st1" width="309.2" height="71.1"/>
	<rect x="1048" y="943.2" class="st1" width="71.1" height="71.1"/>
</g>
<g class="st0">
	<rect x="1095" y="874.9" class="st1" width="73.5" height="73.5"/>
	<rect x="947.9" y="874.9" class="st1" width="73.5" height="73.5"/>
	<rect x="717.1" y="1209.8" class="st1" width="73.5" height="73.5"/>
	<rect x="864.2" y="716.6" class="st1" width="345.2" height="73.5"/>
	<rect x="1135.8" y="1209.8" class="st1" width="73.5" height="73.5"/>
	<rect x="790.6" y="790.2" class="st1" width="73.5" height="419.7"/>
	<rect x="1209.4" y="790.2" class="st1" width="73.5" height="419.7"/>
</g>
<g class="st0">
	<rect x="1037.8" y="832.9" class="st1" width="80" height="80"/>
	<rect x="872.6" y="832.9" class="st1" width="80" height="80"/>
	<rect x="797" y="688.1" class="st1" width="405.9" height="80"/>
	
		<rect x="1283.2" y="929.8" transform="matrix(-1.836970e-16 1 -1 -1.836970e-16 2293.031 -353.3705)" class="st1" width="80" height="80"/>
	
		<rect x="1361.2" y="849.8" transform="matrix(-1.836970e-16 1 -1 -1.836970e-16 2291.0356 -511.4668)" class="st1" width="80" height="80"/>
	
		<rect x="797" y="1231.9" transform="matrix(-1.836970e-16 1 -1 -1.836970e-16 2108.9512 434.8516)" class="st1" width="80" height="80"/>
	
		<rect x="1117.8" y="1231.9" transform="matrix(-1.836970e-16 1 -1 -1.836970e-16 2429.7693 114.0334)" class="st1" width="80" height="80"/>
	
		<rect x="964.3" y="1231.9" transform="matrix(-1.836970e-16 1 -1 -1.836970e-16 2276.2595 267.5433)" class="st1" width="80" height="80"/>
	<rect x="638.8" y="928.8" class="st1" width="80" height="80"/>
	<rect x="558.7" y="850.8" class="st1" width="80" height="80"/>
	
		<rect x="1361.2" y="688.1" transform="matrix(-1.836970e-16 1 -1 -1.836970e-16 2129.3499 -673.1526)" class="st1" width="80" height="80"/>
	
		<rect x="558.7" y="688.1" transform="matrix(-1.836970e-16 1 -1 -1.836970e-16 1326.8474 129.3499)" class="st1" width="80" height="80"/>
	<rect x="717" y="768.1" class="st1" width="80" height="463.8"/>
	<rect x="1203" y="768.1" class="st1" width="80" height="463.8"/>
</g>
<g>
	<g>
		<rect x="880.9" y="982.3" class="st2" width="104.2" height="104.2"/>
		<rect x="784.8" y="754" class="st2" width="430.3" height="104.2"/>
		<rect x="680.6" y="858.2" class="st2" width="104.2" height="228.3"/>
		<rect x="1215.2" y="858.2" class="st2" width="104.2" height="228.3"/>
		<rect x="1081.2" y="982.3" class="st2" width="104.2" height="104.2"/>
	</g>
	<g>
		<path d="M748.9,1246c-5.6,0-10.9-1-15.8-3.1c-4.9-2.1-9.2-5.1-12.8-9.1s-6.5-9-8.6-14.9c-2.1-5.9-3.1-12.8-3.1-20.6
			s1.1-14.7,3.3-20.7c2.2-6,5.3-11,9.1-15.1c3.9-4.1,8.4-7.1,13.6-9.2c5.2-2.1,10.8-3.1,16.8-3.1c6.7,0,12.4,1.1,17,3.3
			c4.7,2.2,8.4,4.9,11.4,8c2.9,3.2,5,6.6,6.3,10.3c1.3,3.7,1.9,7,1.9,10.1v0.8h-21.7v-0.8c0-1.8-0.3-3.5-1-5.2
			c-0.7-1.7-1.7-3.2-3-4.5c-1.3-1.3-2.9-2.4-4.7-3.2c-1.8-0.8-3.9-1.2-6.3-1.2c-2.4,0-4.8,0.5-7.2,1.5s-4.5,2.7-6.5,5
			c-1.9,2.3-3.5,5.5-4.7,9.4c-1.2,3.9-1.8,8.8-1.8,14.6c0,5.9,0.6,10.7,1.7,14.6c1.1,3.9,2.6,6.9,4.5,9.2c1.9,2.3,4,3.9,6.3,4.8
			c2.3,0.9,4.7,1.4,7.2,1.4c2.5,0,4.8-0.3,6.7-1c2-0.7,3.7-1.5,5.1-2.6c1.4-1,2.6-2.2,3.4-3.5c0.8-1.3,1.4-2.5,1.6-3.7v-4.8h-16.8
			V1197h36.7v47.4h-11.1l-2.1-10.2c-0.3,0.9-0.9,2.1-2,3.4c-1.1,1.3-2.7,2.6-4.7,3.9c-2.1,1.3-4.7,2.3-7.8,3.2
			S753.2,1246,748.9,1246z"/>
		<path d="M936.5,1246c-5.9,0-11.4-1-16.7-3.1c-5.2-2.1-9.8-5.2-13.8-9.2c-3.9-4.1-7.1-9.1-9.4-15c-2.3-6-3.5-12.8-3.5-20.6
			s1.1-14.7,3.4-20.6c2.3-6,5.4-10.9,9.3-15c3.9-4,8.5-7.1,13.8-9.1c5.2-2.1,10.8-3.1,16.8-3.1c5.9,0,11.4,1,16.7,3.1
			c5.3,2.1,9.9,5.1,13.8,9.1c3.9,4,7,9,9.3,15c2.3,6,3.5,12.8,3.5,20.6s-1.2,14.7-3.5,20.6c-2.3,6-5.4,11-9.4,15
			c-4,4.1-8.6,7.1-13.8,9.2C947.8,1244.9,942.3,1246,936.5,1246z M936.5,1228.3c2.6,0,5.1-0.5,7.6-1.5c2.5-1,4.7-2.7,6.5-5.1
			s3.4-5.5,4.5-9.4c1.1-3.9,1.7-8.6,1.7-14.3c0-5.7-0.6-10.5-1.8-14.3c-1.2-3.9-2.7-7-4.6-9.3c-1.9-2.3-4.1-4-6.5-5
			c-2.5-1-5-1.5-7.5-1.5c-2.6,0-5.1,0.5-7.6,1.5c-2.5,1-4.7,2.7-6.5,5c-1.9,2.3-3.4,5.4-4.6,9.3c-1.2,3.9-1.8,8.6-1.8,14.3
			c0,5.7,0.6,10.5,1.8,14.3c1.2,3.9,2.7,7,4.6,9.4s4.1,4.1,6.5,5.1C931.4,1227.8,933.9,1228.3,936.5,1228.3z"/>
		<path d="M1025.5,1246c-5,0-9.7-0.6-14-1.8s-8-3.1-11.1-5.5c-3.1-2.5-5.5-5.5-7.3-9.1c-1.8-3.6-2.6-7.8-2.6-12.6v-3.5h22.4v3
			c0,3.8,1.1,6.7,3.2,8.8c2.1,2.1,5.3,3.1,9.6,3.1s7.6-0.6,9.9-1.9c2.3-1.3,3.5-3.5,3.5-6.5c0-1.5-0.6-3-1.7-4.3
			c-1.1-1.4-2.7-2.7-4.7-3.8c-2-1.2-4.4-2.3-7-3.4c-2.7-1.1-5.5-2.1-8.5-3c-3.4-1.1-6.7-2.4-9.8-4c-3.1-1.5-5.8-3.5-8.2-5.7
			c-2.4-2.3-4.3-4.9-5.7-8c-1.4-3.1-2.1-6.7-2.1-10.8c0-4.2,0.9-7.9,2.6-11.3c1.8-3.3,4.2-6.1,7.2-8.4c3.1-2.3,6.7-4,10.9-5.2
			c4.2-1.2,8.7-1.8,13.6-1.8c4.9,0,9.5,0.6,13.8,1.8c4.2,1.2,7.9,2.9,11,5.3c3.1,2.3,5.5,5.2,7.3,8.7c1.8,3.4,2.6,7.4,2.6,11.9v3.4
			h-22.4v-2.4c0-3.4-0.9-6.1-2.8-8.1c-1.9-2.1-5-3.1-9.2-3.1s-7.5,0.8-9.7,2.3c-2.2,1.5-3.3,3.8-3.3,6.8c0,1.7,0.5,3.1,1.5,4.4
			c1,1.3,2.4,2.4,4.2,3.5c1.8,1,4,2.1,6.5,3c2.5,1,5.2,1.9,8.2,3c4.2,1.4,8,3,11.4,4.6c3.4,1.6,6.3,3.6,8.7,5.8
			c2.4,2.2,4.3,4.8,5.7,7.8c1.3,3,2,6.5,2,10.6c0,4.3-0.9,8.1-2.6,11.4c-1.7,3.3-4.1,6.1-7.2,8.4c-3.1,2.3-6.8,4-11.2,5.2
			C1035.5,1245.4,1030.7,1246,1025.5,1246z"/>
		<path d="M1137.7,1168.7h-22.3v75.7H1093v-75.7h-22.1v-17h66.8V1168.7z"/>
		<path d="M1256.1,1246c-5,0-9.7-0.6-14-1.8s-8-3.1-11.1-5.5c-3.1-2.5-5.5-5.5-7.3-9.1c-1.8-3.6-2.6-7.8-2.6-12.6v-3.5h22.4v3
			c0,3.8,1.1,6.7,3.2,8.8c2.1,2.1,5.3,3.1,9.6,3.1s7.6-0.6,9.9-1.9c2.3-1.3,3.5-3.5,3.5-6.5c0-1.5-0.6-3-1.7-4.3
			c-1.1-1.4-2.7-2.7-4.7-3.8c-2-1.2-4.4-2.3-7-3.4c-2.7-1.1-5.5-2.1-8.5-3c-3.4-1.1-6.7-2.4-9.8-4c-3.1-1.5-5.8-3.5-8.2-5.7
			c-2.4-2.3-4.3-4.9-5.7-8c-1.4-3.1-2.1-6.7-2.1-10.8c0-4.2,0.9-7.9,2.6-11.3c1.8-3.3,4.2-6.1,7.2-8.4c3.1-2.3,6.7-4,10.9-5.2
			c4.2-1.2,8.7-1.8,13.6-1.8c4.9,0,9.5,0.6,13.8,1.8c4.2,1.2,7.9,2.9,11,5.3c3.1,2.3,5.5,5.2,7.3,8.7c1.8,3.4,2.6,7.4,2.6,11.9v3.4
			h-22.4v-2.4c0-3.4-0.9-6.1-2.8-8.1c-1.9-2.1-5-3.1-9.2-3.1s-7.5,0.8-9.7,2.3c-2.2,1.5-3.3,3.8-3.3,6.8c0,1.7,0.5,3.1,1.5,4.4
			c1,1.3,2.4,2.4,4.2,3.5c1.8,1,4,2.1,6.5,3c2.5,1,5.2,1.9,8.2,3c4.2,1.4,8,3,11.4,4.6c3.4,1.6,6.3,3.6,8.7,5.8
			c2.4,2.2,4.3,4.8,5.7,7.8c1.3,3,2,6.5,2,10.6c0,4.3-0.9,8.1-2.6,11.4c-1.7,3.3-4.1,6.1-7.2,8.4c-3.1,2.3-6.8,4-11.2,5.2
			C1266.1,1245.4,1261.3,1246,1256.1,1246z"/>
		<polygon points="804,1244.4 826.5,1244.4 826.5,1206.8 857.4,1206.8 857.4,1244.4 879.9,1244.4 879.9,1189.1 804,1208.8 		"/>
		<polygon points="867.6,1150.2 867.6,1188.3 836.7,1188.3 836.7,1150.2 814.2,1150.2 814.2,1207.3 890.1,1187.6 890.1,1150.2 		"/>
		<polygon points="1150.2,1200.2 1150.2,1244.4 1172.6,1244.4 1172.6,1207.8 1203.8,1207.8 1203.8,1190.8 1172.8,1190.8 		"/>
		<polygon points="1178.3,1188.8 1178.3,1166.7 1215,1166.7 1215,1149.7 1155.9,1149.7 1155.9,1198.2 1178.4,1188.8 		"/>
	</g>
</g>
</svg>
