<?xml version="1.0" encoding="UTF-8" standalone="no"?>
<!-- Generator: Adobe Illustrator 26.3.1, SVG Export Plug-In . SVG Version: 6.00 Build 0)  -->

<svg
   version="1.1"
   id="Layer_1"
   x="0px"
   y="0px"
   viewBox="0 0 638.79999 492"
   xml:space="preserve"
   sodipodi:docname="ghostfs.svg"
   width="638.79999"
   height="492"
   inkscape:version="1.3.2 (091e20e, 2023-11-25)"
   xmlns:inkscape="http://www.inkscape.org/namespaces/inkscape"
   xmlns:sodipodi="http://sodipodi.sourceforge.net/DTD/sodipodi-0.dtd"
   xmlns="http://www.w3.org/2000/svg"
   xmlns:svg="http://www.w3.org/2000/svg"><defs
   id="defs50" /><sodipodi:namedview
   id="namedview50"
   pagecolor="#ffffff"
   bordercolor="#000000"
   borderopacity="0.25"
   inkscape:showpageshadow="2"
   inkscape:pageopacity="0.0"
   inkscape:pagecheckerboard="0"
   inkscape:deskcolor="#d1d1d1"
   inkscape:zoom="0.2570123"
   inkscape:cx="408.54076"
   inkscape:cy="105.05334"
   inkscape:window-width="1728"
   inkscape:window-height="1051"
   inkscape:window-x="0"
   inkscape:window-y="38"
   inkscape:window-maximized="1"
   inkscape:current-layer="Layer_1" />
<style
   type="text/css"
   id="style1">
	.st0{display:none;}
	.st1{display:inline;fill:#1D1D1B;}
	.st2{fill:#1D1D1B;}
</style>
<g
   class="st0"
   id="g11"
   transform="translate(-680.59998,-754)">
	<rect
   x="786.20001"
   y="1194.9"
   class="st1"
   width="85.5"
   height="94.199997"
   id="rect1" />
	<rect
   x="1128.3"
   y="1203.6"
   class="st1"
   width="85.5"
   height="85.5"
   id="rect2" />
	<rect
   x="871.70001"
   y="710.90002"
   class="st1"
   width="85.5"
   height="85.5"
   id="rect3" />
	<rect
   x="957.20001"
   y="710.90002"
   class="st1"
   width="85.5"
   height="85.5"
   id="rect4" />
	<rect
   x="1042.8"
   y="710.90002"
   class="st1"
   width="85.5"
   height="85.5"
   id="rect5" />
	<rect
   x="1128.3"
   y="796.40002"
   class="st1"
   width="85.5"
   height="85.5"
   id="rect6" />
	<rect
   x="914.5"
   y="881.90002"
   class="st1"
   width="85.5"
   height="85.5"
   id="rect7" />
	<rect
   x="1042.8"
   y="881.90002"
   class="st1"
   width="85.5"
   height="85.5"
   id="rect8" />
	<rect
   x="1128.3"
   y="969.29999"
   class="st1"
   width="85.5"
   height="146.89999"
   id="rect9" />
	<rect
   x="786.20001"
   y="1037.5"
   class="st1"
   width="85.5"
   height="157.3"
   id="rect10" />
	<rect
   x="786.20001"
   y="796.40002"
   class="st1"
   width="85.5"
   height="157.3"
   id="rect11" />
</g>
<g
   class="st0"
   id="g16"
   transform="translate(-680.59998,-754)">
	<rect
   x="938.20001"
   y="943.20001"
   class="st1"
   width="71.099998"
   height="71.099998"
   id="rect12" />
	<rect
   x="845.40002"
   y="809.79999"
   class="st1"
   width="309.20001"
   height="71.099998"
   id="rect13" />
	
		<rect
   x="655.20001"
   y="1000"
   transform="rotate(90,809.84155,1035.534)"
   class="st1"
   width="309.20001"
   height="71.099998"
   id="rect14" />
	
		<rect
   x="1035.5"
   y="1000"
   transform="rotate(90,1190.1584,1035.534)"
   class="st1"
   width="309.20001"
   height="71.099998"
   id="rect15" />
	<rect
   x="1048"
   y="943.20001"
   class="st1"
   width="71.099998"
   height="71.099998"
   id="rect16" />
</g>
<g
   class="st0"
   id="g23"
   transform="translate(-680.59998,-754)">
	<rect
   x="1095"
   y="874.90002"
   class="st1"
   width="73.5"
   height="73.5"
   id="rect17" />
	<rect
   x="947.90002"
   y="874.90002"
   class="st1"
   width="73.5"
   height="73.5"
   id="rect18" />
	<rect
   x="717.09998"
   y="1209.8"
   class="st1"
   width="73.5"
   height="73.5"
   id="rect19" />
	<rect
   x="864.20001"
   y="716.59998"
   class="st1"
   width="345.20001"
   height="73.5"
   id="rect20" />
	<rect
   x="1135.8"
   y="1209.8"
   class="st1"
   width="73.5"
   height="73.5"
   id="rect21" />
	<rect
   x="790.59998"
   y="790.20001"
   class="st1"
   width="73.5"
   height="419.70001"
   id="rect22" />
	<rect
   x="1209.4"
   y="790.20001"
   class="st1"
   width="73.5"
   height="419.70001"
   id="rect23" />
</g>
<g
   class="st0"
   id="g37"
   transform="translate(-680.59998,-754)">
	<rect
   x="1037.8"
   y="832.90002"
   class="st1"
   width="80"
   height="80"
   id="rect24" />
	<rect
   x="872.59998"
   y="832.90002"
   class="st1"
   width="80"
   height="80"
   id="rect25" />
	<rect
   x="797"
   y="688.09998"
   class="st1"
   width="405.89999"
   height="80"
   id="rect26" />
	
		<rect
   x="1283.2"
   y="929.79999"
   transform="rotate(90,1323.2008,969.83025)"
   class="st1"
   width="80"
   height="80"
   id="rect27" />
	
		<rect
   x="1361.2"
   y="849.79999"
   transform="rotate(90,1401.2512,889.7844)"
   class="st1"
   width="80"
   height="80"
   id="rect28" />
	
		<rect
   x="797"
   y="1231.9"
   transform="rotate(90,837.0498,1271.9014)"
   class="st1"
   width="80"
   height="80"
   id="rect29" />
	
		<rect
   x="1117.8"
   y="1231.9"
   transform="rotate(90,1157.868,1271.9013)"
   class="st1"
   width="80"
   height="80"
   id="rect30" />
	
		<rect
   x="964.29999"
   y="1231.9"
   transform="rotate(90,1004.3581,1271.9014)"
   class="st1"
   width="80"
   height="80"
   id="rect31" />
	<rect
   x="638.79999"
   y="928.79999"
   class="st1"
   width="80"
   height="80"
   id="rect32" />
	<rect
   x="558.70001"
   y="850.79999"
   class="st1"
   width="80"
   height="80"
   id="rect33" />
	
		<rect
   x="1361.2"
   y="688.09998"
   transform="rotate(90,1401.2513,728.09865)"
   class="st1"
   width="80"
   height="80"
   id="rect34" />
	
		<rect
   x="558.70001"
   y="688.09998"
   transform="rotate(90,598.74875,728.09865)"
   class="st1"
   width="80"
   height="80"
   id="rect35" />
	<rect
   x="717"
   y="768.09998"
   class="st1"
   width="80"
   height="463.79999"
   id="rect36" />
	<rect
   x="1203"
   y="768.09998"
   class="st1"
   width="80"
   height="463.79999"
   id="rect37" />
</g>
<g
   id="g50"
   transform="translate(-680.59998,-754)"
   style="fill:#ffffff;fill-opacity:1">
	<g
   id="g42"
   style="fill:#ffffff;fill-opacity:1">
		<rect
   x="880.90002"
   y="982.29999"
   class="st2"
   width="104.2"
   height="104.2"
   id="rect38"
   style="fill:#ffffff;fill-opacity:1" />
		<rect
   x="784.79999"
   y="754"
   class="st2"
   width="430.29999"
   height="104.2"
   id="rect39"
   style="fill:#ffffff;fill-opacity:1" />
		<rect
   x="680.59998"
   y="858.20001"
   class="st2"
   width="104.2"
   height="228.3"
   id="rect40"
   style="fill:#ffffff;fill-opacity:1" />
		<rect
   x="1215.2"
   y="858.20001"
   class="st2"
   width="104.2"
   height="228.3"
   id="rect41"
   style="fill:#ffffff;fill-opacity:1" />
		<rect
   x="1081.2"
   y="982.29999"
   class="st2"
   width="104.2"
   height="104.2"
   id="rect42"
   style="fill:#ffffff;fill-opacity:1" />
	</g>
	<g
   id="g49"
   style="fill:#ffffff;fill-opacity:1">
		<path
   d="m 748.9,1246 c -5.6,0 -10.9,-1 -15.8,-3.1 -4.9,-2.1 -9.2,-5.1 -12.8,-9.1 -3.6,-4 -6.5,-9 -8.6,-14.9 -2.1,-5.9 -3.1,-12.8 -3.1,-20.6 0,-7.8 1.1,-14.7 3.3,-20.7 2.2,-6 5.3,-11 9.1,-15.1 3.9,-4.1 8.4,-7.1 13.6,-9.2 5.2,-2.1 10.8,-3.1 16.8,-3.1 6.7,0 12.4,1.1 17,3.3 4.7,2.2 8.4,4.9 11.4,8 2.9,3.2 5,6.6 6.3,10.3 1.3,3.7 1.9,7 1.9,10.1 v 0.8 h -21.7 v -0.8 c 0,-1.8 -0.3,-3.5 -1,-5.2 -0.7,-1.7 -1.7,-3.2 -3,-4.5 -1.3,-1.3 -2.9,-2.4 -4.7,-3.2 -1.8,-0.8 -3.9,-1.2 -6.3,-1.2 -2.4,0 -4.8,0.5 -7.2,1.5 -2.4,1 -4.5,2.7 -6.5,5 -1.9,2.3 -3.5,5.5 -4.7,9.4 -1.2,3.9 -1.8,8.8 -1.8,14.6 0,5.9 0.6,10.7 1.7,14.6 1.1,3.9 2.6,6.9 4.5,9.2 1.9,2.3 4,3.9 6.3,4.8 2.3,0.9 4.7,1.4 7.2,1.4 2.5,0 4.8,-0.3 6.7,-1 2,-0.7 3.7,-1.5 5.1,-2.6 1.4,-1 2.6,-2.2 3.4,-3.5 0.8,-1.3 1.4,-2.5 1.6,-3.7 v -4.8 H 750.8 V 1197 h 36.7 v 47.4 h -11.1 l -2.1,-10.2 c -0.3,0.9 -0.9,2.1 -2,3.4 -1.1,1.3 -2.7,2.6 -4.7,3.9 -2.1,1.3 -4.7,2.3 -7.8,3.2 -3.1,0.9 -6.6,1.3 -10.9,1.3 z"
   id="path42"
   style="fill:#ffffff;fill-opacity:1" />
		<path
   d="m 936.5,1246 c -5.9,0 -11.4,-1 -16.7,-3.1 -5.2,-2.1 -9.8,-5.2 -13.8,-9.2 -3.9,-4.1 -7.1,-9.1 -9.4,-15 -2.3,-6 -3.5,-12.8 -3.5,-20.6 0,-7.8 1.1,-14.7 3.4,-20.6 2.3,-6 5.4,-10.9 9.3,-15 3.9,-4 8.5,-7.1 13.8,-9.1 5.2,-2.1 10.8,-3.1 16.8,-3.1 5.9,0 11.4,1 16.7,3.1 5.3,2.1 9.9,5.1 13.8,9.1 3.9,4 7,9 9.3,15 2.3,6 3.5,12.8 3.5,20.6 0,7.8 -1.2,14.7 -3.5,20.6 -2.3,6 -5.4,11 -9.4,15 -4,4.1 -8.6,7.1 -13.8,9.2 -5.2,2 -10.7,3.1 -16.5,3.1 z m 0,-17.7 c 2.6,0 5.1,-0.5 7.6,-1.5 2.5,-1 4.7,-2.7 6.5,-5.1 1.8,-2.4 3.4,-5.5 4.5,-9.4 1.1,-3.9 1.7,-8.6 1.7,-14.3 0,-5.7 -0.6,-10.5 -1.8,-14.3 -1.2,-3.9 -2.7,-7 -4.6,-9.3 -1.9,-2.3 -4.1,-4 -6.5,-5 -2.5,-1 -5,-1.5 -7.5,-1.5 -2.6,0 -5.1,0.5 -7.6,1.5 -2.5,1 -4.7,2.7 -6.5,5 -1.9,2.3 -3.4,5.4 -4.6,9.3 -1.2,3.9 -1.8,8.6 -1.8,14.3 0,5.7 0.6,10.5 1.8,14.3 1.2,3.9 2.7,7 4.6,9.4 1.9,2.4 4.1,4.1 6.5,5.1 2.6,1 5.1,1.5 7.7,1.5 z"
   id="path43"
   style="fill:#ffffff;fill-opacity:1" />
		<path
   d="m 1025.5,1246 c -5,0 -9.7,-0.6 -14,-1.8 -4.3,-1.2 -8,-3.1 -11.1,-5.5 -3.1,-2.5 -5.5,-5.5 -7.3,-9.1 -1.8,-3.6 -2.6,-7.8 -2.6,-12.6 v -3.5 h 22.4 v 3 c 0,3.8 1.1,6.7 3.2,8.8 2.1,2.1 5.3,3.1 9.6,3.1 4.3,0 7.6,-0.6 9.9,-1.9 2.3,-1.3 3.5,-3.5 3.5,-6.5 0,-1.5 -0.6,-3 -1.7,-4.3 -1.1,-1.4 -2.7,-2.7 -4.7,-3.8 -2,-1.2 -4.4,-2.3 -7,-3.4 -2.7,-1.1 -5.5,-2.1 -8.5,-3 -3.4,-1.1 -6.7,-2.4 -9.8,-4 -3.1,-1.5 -5.8,-3.5 -8.2,-5.7 -2.4,-2.3 -4.3,-4.9 -5.7,-8 -1.4,-3.1 -2.1,-6.7 -2.1,-10.8 0,-4.2 0.9,-7.9 2.6,-11.3 1.8,-3.3 4.2,-6.1 7.2,-8.4 3.1,-2.3 6.7,-4 10.9,-5.2 4.2,-1.2 8.7,-1.8 13.6,-1.8 4.9,0 9.5,0.6 13.8,1.8 4.2,1.2 7.9,2.9 11,5.3 3.1,2.3 5.5,5.2 7.3,8.7 1.8,3.4 2.6,7.4 2.6,11.9 v 3.4 H 1038 v -2.4 c 0,-3.4 -0.9,-6.1 -2.8,-8.1 -1.9,-2.1 -5,-3.1 -9.2,-3.1 -4.2,0 -7.5,0.8 -9.7,2.3 -2.2,1.5 -3.3,3.8 -3.3,6.8 0,1.7 0.5,3.1 1.5,4.4 1,1.3 2.4,2.4 4.2,3.5 1.8,1 4,2.1 6.5,3 2.5,1 5.2,1.9 8.2,3 4.2,1.4 8,3 11.4,4.6 3.4,1.6 6.3,3.6 8.7,5.8 2.4,2.2 4.3,4.8 5.7,7.8 1.3,3 2,6.5 2,10.6 0,4.3 -0.9,8.1 -2.6,11.4 -1.7,3.3 -4.1,6.1 -7.2,8.4 -3.1,2.3 -6.8,4 -11.2,5.2 -4.7,0.8 -9.5,1.4 -14.7,1.4 z"
   id="path44"
   style="fill:#ffffff;fill-opacity:1" />
		<path
   d="m 1137.7,1168.7 h -22.3 v 75.7 H 1093 v -75.7 h -22.1 v -17 h 66.8 z"
   id="path45"
   style="fill:#ffffff;fill-opacity:1" />
		<path
   d="m 1256.1,1246 c -5,0 -9.7,-0.6 -14,-1.8 -4.3,-1.2 -8,-3.1 -11.1,-5.5 -3.1,-2.5 -5.5,-5.5 -7.3,-9.1 -1.8,-3.6 -2.6,-7.8 -2.6,-12.6 v -3.5 h 22.4 v 3 c 0,3.8 1.1,6.7 3.2,8.8 2.1,2.1 5.3,3.1 9.6,3.1 4.3,0 7.6,-0.6 9.9,-1.9 2.3,-1.3 3.5,-3.5 3.5,-6.5 0,-1.5 -0.6,-3 -1.7,-4.3 -1.1,-1.4 -2.7,-2.7 -4.7,-3.8 -2,-1.2 -4.4,-2.3 -7,-3.4 -2.7,-1.1 -5.5,-2.1 -8.5,-3 -3.4,-1.1 -6.7,-2.4 -9.8,-4 -3.1,-1.5 -5.8,-3.5 -8.2,-5.7 -2.4,-2.3 -4.3,-4.9 -5.7,-8 -1.4,-3.1 -2.1,-6.7 -2.1,-10.8 0,-4.2 0.9,-7.9 2.6,-11.3 1.8,-3.3 4.2,-6.1 7.2,-8.4 3.1,-2.3 6.7,-4 10.9,-5.2 4.2,-1.2 8.7,-1.8 13.6,-1.8 4.9,0 9.5,0.6 13.8,1.8 4.2,1.2 7.9,2.9 11,5.3 3.1,2.3 5.5,5.2 7.3,8.7 1.8,3.4 2.6,7.4 2.6,11.9 v 3.4 h -22.4 v -2.4 c 0,-3.4 -0.9,-6.1 -2.8,-8.1 -1.9,-2.1 -5,-3.1 -9.2,-3.1 -4.2,0 -7.5,0.8 -9.7,2.3 -2.2,1.5 -3.3,3.8 -3.3,6.8 0,1.7 0.5,3.1 1.5,4.4 1,1.3 2.4,2.4 4.2,3.5 1.8,1 4,2.1 6.5,3 2.5,1 5.2,1.9 8.2,3 4.2,1.4 8,3 11.4,4.6 3.4,1.6 6.3,3.6 8.7,5.8 2.4,2.2 4.3,4.8 5.7,7.8 1.3,3 2,6.5 2,10.6 0,4.3 -0.9,8.1 -2.6,11.4 -1.7,3.3 -4.1,6.1 -7.2,8.4 -3.1,2.3 -6.8,4 -11.2,5.2 -4.7,0.8 -9.5,1.4 -14.7,1.4 z"
   id="path46"
   style="fill:#ffffff;fill-opacity:1" />
		<polygon
   points="826.5,1206.8 857.4,1206.8 857.4,1244.4 879.9,1244.4 879.9,1189.1 804,1208.8 804,1244.4 826.5,1244.4 "
   id="polygon46"
   style="fill:#ffffff;fill-opacity:1" />
		<polygon
   points="836.7,1188.3 836.7,1150.2 814.2,1150.2 814.2,1207.3 890.1,1187.6 890.1,1150.2 867.6,1150.2 867.6,1188.3 "
   id="polygon47"
   style="fill:#ffffff;fill-opacity:1" />
		<polygon
   points="1172.6,1244.4 1172.6,1207.8 1203.8,1207.8 1203.8,1190.8 1172.8,1190.8 1150.2,1200.2 1150.2,1244.4 "
   id="polygon48"
   style="fill:#ffffff;fill-opacity:1" />
		<polygon
   points="1215,1166.7 1215,1149.7 1155.9,1149.7 1155.9,1198.2 1178.4,1188.8 1178.3,1188.8 1178.3,1166.7 "
   id="polygon49"
   style="fill:#ffffff;fill-opacity:1" />
	</g>
</g>
</svg>
