<?xml version="1.0" encoding="utf-8"?>
<!-- Generator: Adobe Illustrator 26.3.1, SVG Export Plug-In . SVG Version: 6.00 Build 0)  -->
<svg version="1.1" id="Layer_1" xmlns="http://www.w3.org/2000/svg" xmlns:xlink="http://www.w3.org/1999/xlink" x="0px" y="0px"
	 viewBox="0 0 2000 2000" style="enable-background:new 0 0 2000 2000;" xml:space="preserve">
<style type="text/css">
	.st0{display:none;}
	.st1{display:inline;}
	.st2{fill:none;}
</style>
<g class="st0">
	<rect x="835" y="794.1" class="st1" width="96.5" height="96.5"/>
	<polygon class="st1" points="1034.7,697.6 1034.7,697.5 938.2,722.7 938.2,794.1 1027.7,794.1 1027.7,890.6 938.2,890.6 
		938.2,987.1 1027.7,987.1 1034.7,987.1 1124.1,987.1 1124.1,890.6 1124.1,794.1 1034.7,794.1 	"/>
	<rect x="863.1" y="497.6" class="st1" width="96.5" height="96.5"/>
	<rect x="1068.5" y="497.6" class="st1" width="96.5" height="96.5"/>
	<polygon class="st1" points="1062.8,594.1 966.3,594.1 966.3,690.6 966.3,715.7 1062.8,690.5 	"/>
</g>
<g class="st0">
	<g class="st1">
		<polygon points="910.3,833.9 910.3,879.8 1025.9,879.8 1025.9,812.3 		"/>
		<polygon points="1040.8,764.2 925.1,764.2 925.1,833.9 1040.8,812.3 		"/>
	</g>
	<g class="st1">
		<polygon points="1042.5,718.3 1042.5,764.2 1158.1,764.2 1158.1,696.6 		"/>
		<polygon points="1173,648.5 1057.4,648.5 1057.4,718.3 1173,696.6 		"/>
	</g>
	<g class="st1">
		<polygon points="807,718.3 807,764.2 922.7,764.2 922.7,696.6 		"/>
		<polygon points="937.6,648.5 821.9,648.5 821.9,718.3 937.6,696.6 		"/>
	</g>
	<g class="st1">
		<polygon points="924.6,949.6 924.6,995.5 808.9,995.5 808.9,927.9 		"/>
		<polygon points="794,879.8 909.7,879.8 909.7,949.6 794,927.9 		"/>
	</g>
	<g class="st1">
		<polygon points="1160,949.6 1160,995.5 1044.4,995.5 1044.4,927.9 		"/>
		<polygon points="1029.5,879.8 1145.1,879.8 1145.1,949.6 1029.5,927.9 		"/>
	</g>
</g>
<g>
	<path d="M777.4,1062.1v76.2h-18.5v-30.9h-25.4v30.9h-18.5v-76.2h18.5v31.3h25.4v-31.3H777.4z"/>
	<path d="M860.3,1138.3v-76.2h32.4c8.3,0,14.5,1.8,18.6,5.5c4,3.7,6.1,9,6.1,15.9c0,3.9-0.7,7.3-2.2,10c-1.5,2.8-3.3,4.9-5.5,6.4
		c-2.2,1.4-4.3,2.3-6.3,2.5c2,0.2,4,0.7,6,1.6c1.9,0.9,3.5,2.4,4.7,4.4c1.2,2,1.8,4.7,1.8,8.1v13.6c0,1.8,0.1,3.4,0.4,5
		c0.3,1.5,0.7,2.6,1.2,3.3h-18.4c-0.5-0.8-0.9-1.9-1.2-3.4c-0.3-1.5-0.5-3.1-0.5-4.9v-11.5c0-2.9-0.7-5.1-2-6.7
		c-1.3-1.6-3.6-2.4-6.9-2.4h-10v28.9H860.3z M888.5,1095.5c2.8,0,5.2-0.9,7-2.7c1.9-1.8,2.8-4.3,2.8-7.5c0-2.8-0.9-5-2.7-6.7
		c-1.8-1.7-4.2-2.6-7.3-2.6h-10v19.6H888.5z"/>
	<path d="M927.6,1138.3v-76.2h26.5c5.1,0,9.8,0.9,14,2.8c4.2,1.9,7.9,4.5,10.9,7.9c3,3.3,5.4,7.3,7.1,12c1.7,4.7,2.5,9.7,2.5,15.3
		c0,5.5-0.8,10.6-2.5,15.3c-1.7,4.7-4.1,8.7-7.1,12.2c-3,3.4-6.7,6.1-10.9,8c-4.2,1.9-8.9,2.8-14,2.8H927.6z M951.6,1124.3
		c2.5,0,4.8-0.6,7.1-1.7c2.2-1.1,4.2-2.8,5.8-4.9c1.7-2.1,3-4.7,3.9-7.7c1-3,1.4-6.4,1.4-10.1c0-3.8-0.5-7.2-1.4-10.1
		c-1-3-2.3-5.5-3.9-7.6c-1.7-2.1-3.6-3.6-5.8-4.7c-2.2-1.1-4.6-1.6-7.1-1.6h-5.5v48.3H951.6z"/>
	<path d="M1006.7,1138.3l-10.9-76.2h19l6.3,63l10.2-63h22.8l10.1,62.9l6.3-62.9h19l-10.9,76.2h-28.2l-7.8-57.1l-7.8,57.1H1006.7z"/>
	<path d="M1095.5,1138.3l18.3-76.3h29.3l18.3,76.3h-18.9l-3.6-16.9h-20.9l-3.6,16.9H1095.5z M1121,1107.4h14.8l-7.3-33.9
		L1121,1107.4z"/>
	<path d="M1169.9,1138.3v-76.2h32.4c8.3,0,14.5,1.8,18.6,5.5c4,3.7,6.1,9,6.1,15.9c0,3.9-0.7,7.3-2.2,10c-1.5,2.8-3.3,4.9-5.5,6.4
		c-2.2,1.4-4.3,2.3-6.3,2.5c2,0.2,4,0.7,6,1.6c1.9,0.9,3.5,2.4,4.7,4.4c1.2,2,1.8,4.7,1.8,8.1v13.6c0,1.8,0.1,3.4,0.4,5
		c0.3,1.5,0.7,2.6,1.2,3.3h-18.4c-0.5-0.8-0.9-1.9-1.2-3.4c-0.3-1.5-0.5-3.1-0.5-4.9v-11.5c0-2.9-0.7-5.1-2-6.7
		c-1.3-1.6-3.6-2.4-6.9-2.4h-10v28.9H1169.9z M1198.1,1095.5c2.8,0,5.2-0.9,7-2.7c1.9-1.8,2.8-4.3,2.8-7.5c0-2.8-0.9-5-2.7-6.7
		c-1.8-1.7-4.2-2.6-7.3-2.6h-10v19.6H1198.1z"/>
	<path d="M1279.4,1093.1v14h-23.7v17.3h29.4v14h-47.9v-76.2h47.9v14h-29.4v17.1H1279.4z"/>
	<path d="M783.9,1241.4c-4.1,0-8-0.5-11.5-1.5c-3.5-1-6.6-2.5-9.1-4.6c-2.6-2-4.6-4.5-6-7.5c-1.4-3-2.2-6.4-2.2-10.3v-2.9h18.4v2.5
		c0,3.1,0.9,5.5,2.6,7.2c1.8,1.7,4.4,2.6,7.9,2.6s6.2-0.5,8.1-1.6c1.9-1.1,2.8-2.8,2.8-5.3c0-1.2-0.5-2.4-1.4-3.6
		c-0.9-1.1-2.2-2.2-3.9-3.2c-1.7-1-3.6-1.9-5.8-2.8c-2.2-0.9-4.6-1.7-7-2.5c-2.8-0.9-5.5-2-8.1-3.3c-2.6-1.3-4.8-2.8-6.8-4.7
		c-2-1.9-3.5-4.1-4.7-6.6c-1.2-2.6-1.8-5.5-1.8-8.9c0-3.4,0.7-6.5,2.2-9.3c1.4-2.7,3.4-5,5.9-6.9c2.5-1.9,5.5-3.3,8.9-4.3
		c3.4-1,7.2-1.5,11.2-1.5c4.1,0,7.8,0.5,11.3,1.4c3.5,1,6.5,2.4,9.1,4.3c2.6,1.9,4.6,4.3,6,7.1c1.4,2.8,2.2,6.1,2.2,9.8v2.8H794v-2
		c0-2.8-0.8-5-2.3-6.7c-1.6-1.7-4.1-2.5-7.6-2.5s-6.2,0.6-8,1.9c-1.8,1.2-2.7,3.1-2.7,5.6c0,1.4,0.4,2.6,1.2,3.6c0.8,1,2,2,3.5,2.8
		c1.5,0.9,3.3,1.7,5.3,2.5c2.1,0.8,4.3,1.6,6.7,2.4c3.4,1.2,6.6,2.4,9.4,3.8c2.8,1.3,5.2,2.9,7.2,4.8c2,1.8,3.6,4,4.7,6.4
		c1.1,2.4,1.7,5.4,1.7,8.7c0,3.5-0.7,6.6-2.1,9.4c-1.4,2.7-3.4,5-5.9,6.9c-2.6,1.9-5.6,3.3-9.2,4.2
		C792.1,1240.9,788.2,1241.4,783.9,1241.4z"/>
	<path d="M865.1,1194.8v14h-23.7v17.3h29.4v14h-47.9v-76.2h47.9v14h-29.4v17.1H865.1z"/>
	<path d="M947.3,1211.7c0,3.4-0.7,6.8-2,10.3c-1.3,3.5-3.3,6.7-5.9,9.6c-2.6,2.9-5.9,5.2-10,7c-4,1.8-8.8,2.7-14.2,2.7
		c-5.4,0-10.3-1-14.6-2.9c-4.3-2-7.9-4.7-10.9-8.2c-3-3.5-5.2-7.6-6.8-12.5c-1.6-4.8-2.3-10.1-2.3-15.9c0-5.8,0.8-11.1,2.3-15.9
		c1.6-4.8,3.8-8.9,6.8-12.4c3-3.5,6.6-6.2,10.9-8.1c4.3-1.9,9.1-2.9,14.6-2.9c4.6,0,8.6,0.6,12.2,1.9c3.6,1.3,6.6,2.9,9.2,5
		c2.6,2.1,4.6,4.4,6.3,7.1c1.6,2.7,2.8,5.4,3.6,8.3c0.6,2.5,0.9,4.9,0.9,7.2h-18.5c0-0.6,0-1.1-0.1-1.6c0-0.5-0.1-1-0.2-1.4
		c-0.6-3.5-1.9-6.4-4.2-8.7c-2.2-2.3-5.3-3.4-9.2-3.4c-2.2,0-4.3,0.5-6.2,1.4c-1.9,1-3.6,2.5-5,4.5c-1.4,2-2.5,4.6-3.4,7.8
		c-0.8,3.1-1.2,6.8-1.2,11.1c0,4.3,0.4,8.1,1.2,11.2c0.8,3.1,1.9,5.7,3.4,7.8c1.4,2.1,3.1,3.6,5,4.6c1.9,1,4,1.4,6.2,1.4
		c2.1,0,4.1-0.4,5.7-1.2c1.7-0.8,3.1-1.9,4.2-3.3c1.1-1.4,2-3,2.6-4.9c0.6-1.8,0.9-3.8,0.9-5.8H947.3z"/>
	<path d="M1028,1240v-76.2h32.4c8.3,0,14.5,1.8,18.6,5.5c4,3.7,6.1,9,6.1,15.9c0,3.9-0.7,7.3-2.2,10c-1.5,2.8-3.3,4.9-5.5,6.4
		c-2.2,1.4-4.3,2.3-6.3,2.5c2,0.2,4,0.7,6,1.6c1.9,0.9,3.5,2.4,4.7,4.4c1.2,2,1.8,4.7,1.8,8.1v13.6c0,1.8,0.1,3.4,0.4,5
		c0.3,1.5,0.7,2.6,1.2,3.3h-18.4c-0.5-0.8-0.9-1.9-1.2-3.4c-0.3-1.5-0.5-3.1-0.5-4.9v-11.5c0-2.9-0.7-5.1-2-6.7
		c-1.3-1.6-3.6-2.4-6.9-2.4h-10v28.9H1028z M1056.3,1197.2c2.8,0,5.2-0.9,7-2.7c1.9-1.8,2.8-4.3,2.8-7.5c0-2.8-0.9-5-2.7-6.7
		c-1.8-1.7-4.2-2.6-7.3-2.6h-10v19.6H1056.3z"/>
	<path d="M1095.3,1240v-76.2h18.2v76.2H1095.3z"/>
	<path d="M1177.5,1177.8h-18.3v62.3h-18.4v-62.3h-18.2v-14h54.9V1177.8z"/>
	<path d="M1246.3,1163.8l-22.3,50.1v26.2h-18.4v-26.2l-22.2-50.1h19.4l12,31.7l12-31.7H1246.3z"/>
	<path d="M843.3,1265.5h31.1v76.2h-17.6v-64.2l-13,64.2H820l-13.3-64.3v64.3h-17.5v-76.2h31.1l11.4,63.9L843.3,1265.5z"/>
	<path d="M920.5,1343.1c-4.8,0-9.4-0.9-13.7-2.6c-4.3-1.7-8.1-4.3-11.3-7.6c-3.2-3.3-5.8-7.5-7.7-12.4c-1.9-4.9-2.8-10.6-2.8-17
		c0-6.4,0.9-12.1,2.8-17c1.9-4.9,4.4-9,7.7-12.3c3.2-3.3,7-5.8,11.3-7.5c4.3-1.7,8.9-2.5,13.8-2.5c4.8,0,9.4,0.8,13.8,2.5
		c4.3,1.7,8.1,4.2,11.3,7.5c3.2,3.3,5.8,7.4,7.7,12.3c1.9,4.9,2.8,10.6,2.8,17c0,6.4-0.9,12.1-2.8,17c-1.9,4.9-4.5,9-7.8,12.4
		c-3.3,3.3-7.1,5.9-11.4,7.6C929.7,1342.2,925.2,1343.1,920.5,1343.1z M920.5,1328.5c2.1,0,4.2-0.4,6.3-1.2c2-0.8,3.8-2.2,5.4-4.2
		c1.6-2,2.8-4.5,3.7-7.7c0.9-3.2,1.4-7.1,1.4-11.8c0-4.7-0.5-8.6-1.4-11.8c-1-3.2-2.2-5.7-3.8-7.7c-1.6-1.9-3.3-3.3-5.4-4.1
		c-2-0.8-4.1-1.2-6.2-1.2c-2.1,0-4.2,0.4-6.3,1.2c-2,0.8-3.8,2.2-5.4,4.1c-1.6,1.9-2.8,4.5-3.8,7.7c-1,3.2-1.4,7.1-1.4,11.8
		c0,4.7,0.5,8.6,1.4,11.8c1,3.2,2.2,5.7,3.8,7.7c1.6,2,3.3,3.4,5.4,4.2C916.2,1328.1,918.3,1328.5,920.5,1328.5z"/>
	<path d="M966,1341.7v-76.2h26.5c5.1,0,9.8,0.9,14,2.8c4.2,1.9,7.9,4.5,10.9,7.9c3,3.3,5.4,7.3,7.1,12c1.7,4.7,2.5,9.7,2.5,15.3
		c0,5.5-0.8,10.6-2.5,15.3c-1.7,4.7-4.1,8.7-7.1,12.2c-3,3.4-6.7,6.1-10.9,8c-4.2,1.9-8.9,2.8-14,2.8H966z M990,1327.8
		c2.5,0,4.8-0.6,7.1-1.7c2.2-1.1,4.2-2.8,5.8-4.9c1.7-2.1,3-4.7,3.9-7.7c1-3,1.4-6.4,1.4-10.1c0-3.8-0.5-7.2-1.4-10.1
		c-1-3-2.3-5.5-3.9-7.6c-1.7-2.1-3.6-3.6-5.8-4.7c-2.2-1.1-4.6-1.6-7.1-1.6h-5.5v48.3H990z"/>
	<path d="M1095.7,1314.4c0,9.6-2.6,16.8-7.9,21.5c-5.2,4.8-12.4,7.1-21.5,7.1c-9.1,0-16.3-2.4-21.5-7.1c-5.2-4.8-7.9-11.9-7.9-21.5
		v-48.9h18.5v49.3c0,4.6,0.8,8.1,2.4,10.3c1.6,2.3,4.4,3.4,8.4,3.4c3.9,0,6.7-1.1,8.4-3.4c1.7-2.3,2.5-5.7,2.5-10.3v-49.3h18.4
		V1314.4z"/>
	<path d="M1205.7,1296.5v14h-23.7v17.3h29.4v14h-47.9v-76.2h47.9v14h-29.4v17.1H1205.7z"/>
	<polygon class="st2" points="826.2,1107.4 824.1,1097.5 813,1100.4 811.4,1107.4 	"/>
	<polygon points="826.2,1107.4 811.4,1107.4 813,1100.4 793.8,1105.3 785.9,1138.3 804.7,1138.3 808.3,1121.4 829.2,1121.4 
		832.8,1138.3 851.8,1138.3 840.9,1093.2 824.1,1097.5 	"/>
	<polygon points="809.7,1062 799.3,1105.3 818.5,1100.4 824.4,1073.4 829.6,1097.5 846.5,1093.2 839,1062 	"/>
	<path class="st2" d="M978.2,1223.5c1.6,2.3,4.4,3.4,8.4,3.4c3.9,0,6.7-1.1,8.4-3.4c1.7-2.3,2.5-5.7,2.5-10.3v-15.9l-21.8,4.5v11.4
		C975.8,1217.7,976.6,1221.2,978.2,1223.5z"/>
	<polygon points="957.3,1163.8 957.3,1163.8 957.9,1163.8 	"/>
	<path d="M997.6,1213.1c0,4.6-0.8,8.1-2.5,10.3c-1.7,2.3-4.5,3.4-8.4,3.4c-4,0-6.8-1.1-8.4-3.4c-1.6-2.3-2.4-5.7-2.4-10.3v-11.4
		l-18.5,3.8v7.2c0,9.6,2.6,16.8,7.9,21.5c5.2,4.8,12.4,7.1,21.5,7.1c9.1,0,16.3-2.4,21.5-7.1c5.2-4.8,7.9-11.9,7.9-21.5v-19.3
		l-18.4,3.8V1213.1z"/>
	<polygon points="1002,1163.8 1002,1197.2 1020.4,1193.4 1020.4,1163.8 	"/>
	<polygon points="980.2,1163.8 962.3,1163.8 961.7,1163.8 961.7,1205.5 980.2,1201.7 	"/>
	<polygon points="1126.2,1326.9 1126.2,1302.2 1107.7,1310.3 1107.7,1341.7 1153.9,1341.7 1153.9,1326.9 	"/>
	<polygon points="1131.8,1265.5 1113.3,1265.5 1113.3,1310.3 1131.8,1302.2 	"/>
</g>
<g>
	<path d="M1221.8,799.1c-17.7-2.4-34.2,7.2-41.3,22.7H999.2l-3.8,16.5h-218v33h212.5l3.8-16.5h186.8c5.5,11.9,16.7,20.8,30.5,22.7
		c21.6,3,41.6-12.2,44.6-33.8C1258.6,822,1243.5,802,1221.8,799.1z"/>
	<path d="M972.8,936H813.3c-6.3-13.6-20-23-35.9-23c-21.8,0-39.5,17.7-39.5,39.5c0,21.8,17.7,39.5,39.5,39.5
		c15.9,0,29.7-9.4,35.9-23h154l3.8-16.5h243.1v-33H976.6L972.8,936z"/>
	<path d="M777.4,796.6c15.9,0,29.7-9.4,35.9-23h199.1l3.8-16.5h197.9v-33h-192.4l-3.8,16.5H813.3c-6.3-13.6-20-23-35.9-23
		c-21.8,0-39.5,17.7-39.5,39.5S755.6,796.6,777.4,796.6z"/>
</g>
</svg>
