<?xml version="1.0" encoding="UTF-8" standalone="no"?>
<!-- Generator: Adobe Illustrator 26.3.1, SVG Export Plug-In . SVG Version: 6.00 Build 0)  -->

<svg
   version="1.1"
   id="Layer_1"
   x="0px"
   y="0px"
   viewBox="0 0 570.09998 625.5"
   xml:space="preserve"
   sodipodi:docname="hsm.svg"
   width="570.09998"
   height="625.5"
   inkscape:version="1.3.2 (091e20e, 2023-11-25)"
   xmlns:inkscape="http://www.inkscape.org/namespaces/inkscape"
   xmlns:sodipodi="http://sodipodi.sourceforge.net/DTD/sodipodi-0.dtd"
   xmlns="http://www.w3.org/2000/svg"
   xmlns:svg="http://www.w3.org/2000/svg"><defs
   id="defs41" /><sodipodi:namedview
   id="namedview41"
   pagecolor="#ffffff"
   bordercolor="#000000"
   borderopacity="0.25"
   inkscape:showpageshadow="2"
   inkscape:pageopacity="0.0"
   inkscape:pagecheckerboard="0"
   inkscape:deskcolor="#d1d1d1"
   inkscape:zoom="0.118"
   inkscape:cx="288.13559"
   inkscape:cy="279.66102"
   inkscape:window-width="1728"
   inkscape:window-height="1051"
   inkscape:window-x="0"
   inkscape:window-y="38"
   inkscape:window-maximized="1"
   inkscape:current-layer="Layer_1" />
<style
   type="text/css"
   id="style1">
	.st0{display:none;}
	.st1{display:inline;}
	.st2{fill:none;}
</style>
<g
   class="st0"
   id="g3"
   transform="translate(-715,-717.6)">
	<rect
   x="835"
   y="794.09998"
   class="st1"
   width="96.5"
   height="96.5"
   id="rect1" />
	<polygon
   class="st1"
   points="938.2,722.7 938.2,794.1 1027.7,794.1 1027.7,890.6 938.2,890.6 938.2,987.1 1027.7,987.1 1034.7,987.1 1124.1,987.1 1124.1,890.6 1124.1,794.1 1034.7,794.1 1034.7,697.6 1034.7,697.5 "
   id="polygon1" />
	<rect
   x="863.09998"
   y="497.60001"
   class="st1"
   width="96.5"
   height="96.5"
   id="rect2" />
	<rect
   x="1068.5"
   y="497.60001"
   class="st1"
   width="96.5"
   height="96.5"
   id="rect3" />
	<polygon
   class="st1"
   points="966.3,690.6 966.3,715.7 1062.8,690.5 1062.8,594.1 966.3,594.1 "
   id="polygon3" />
</g>
<g
   class="st0"
   id="g14"
   transform="translate(-715,-717.6)">
	<g
   class="st1"
   id="g5">
		<polygon
   points="1025.9,879.8 1025.9,812.3 910.3,833.9 910.3,879.8 "
   id="polygon4" />
		<polygon
   points="925.1,833.9 1040.8,812.3 1040.8,764.2 925.1,764.2 "
   id="polygon5" />
	</g>
	<g
   class="st1"
   id="g7">
		<polygon
   points="1158.1,764.2 1158.1,696.6 1042.5,718.3 1042.5,764.2 "
   id="polygon6" />
		<polygon
   points="1057.4,718.3 1173,696.6 1173,648.5 1057.4,648.5 "
   id="polygon7" />
	</g>
	<g
   class="st1"
   id="g9">
		<polygon
   points="922.7,764.2 922.7,696.6 807,718.3 807,764.2 "
   id="polygon8" />
		<polygon
   points="821.9,718.3 937.6,696.6 937.6,648.5 821.9,648.5 "
   id="polygon9" />
	</g>
	<g
   class="st1"
   id="g11">
		<polygon
   points="808.9,995.5 808.9,927.9 924.6,949.6 924.6,995.5 "
   id="polygon10" />
		<polygon
   points="909.7,949.6 794,927.9 794,879.8 909.7,879.8 "
   id="polygon11" />
	</g>
	<g
   class="st1"
   id="g13">
		<polygon
   points="1044.4,995.5 1044.4,927.9 1160,949.6 1160,995.5 "
   id="polygon12" />
		<polygon
   points="1145.1,949.6 1029.5,927.9 1029.5,879.8 1145.1,879.8 "
   id="polygon13" />
	</g>
</g>
<g
   id="g39"
   transform="translate(-715,-717.6)">
	<path
   d="m 777.4,1062.1 v 76.2 h -18.5 v -30.9 h -25.4 v 30.9 H 715 v -76.2 h 18.5 v 31.3 h 25.4 v -31.3 z"
   id="path14" />
	<path
   d="m 860.3,1138.3 v -76.2 h 32.4 c 8.3,0 14.5,1.8 18.6,5.5 4,3.7 6.1,9 6.1,15.9 0,3.9 -0.7,7.3 -2.2,10 -1.5,2.8 -3.3,4.9 -5.5,6.4 -2.2,1.4 -4.3,2.3 -6.3,2.5 2,0.2 4,0.7 6,1.6 1.9,0.9 3.5,2.4 4.7,4.4 1.2,2 1.8,4.7 1.8,8.1 v 13.6 c 0,1.8 0.1,3.4 0.4,5 0.3,1.5 0.7,2.6 1.2,3.3 h -18.4 c -0.5,-0.8 -0.9,-1.9 -1.2,-3.4 -0.3,-1.5 -0.5,-3.1 -0.5,-4.9 v -11.5 c 0,-2.9 -0.7,-5.1 -2,-6.7 -1.3,-1.6 -3.6,-2.4 -6.9,-2.4 h -10 v 28.9 h -18.2 z m 28.2,-42.8 c 2.8,0 5.2,-0.9 7,-2.7 1.9,-1.8 2.8,-4.3 2.8,-7.5 0,-2.8 -0.9,-5 -2.7,-6.7 -1.8,-1.7 -4.2,-2.6 -7.3,-2.6 h -10 v 19.6 h 10.2 z"
   id="path15" />
	<path
   d="m 927.6,1138.3 v -76.2 h 26.5 c 5.1,0 9.8,0.9 14,2.8 4.2,1.9 7.9,4.5 10.9,7.9 3,3.3 5.4,7.3 7.1,12 1.7,4.7 2.5,9.7 2.5,15.3 0,5.5 -0.8,10.6 -2.5,15.3 -1.7,4.7 -4.1,8.7 -7.1,12.2 -3,3.4 -6.7,6.1 -10.9,8 -4.2,1.9 -8.9,2.8 -14,2.8 h -26.5 z m 24,-14 c 2.5,0 4.8,-0.6 7.1,-1.7 2.2,-1.1 4.2,-2.8 5.8,-4.9 1.7,-2.1 3,-4.7 3.9,-7.7 1,-3 1.4,-6.4 1.4,-10.1 0,-3.8 -0.5,-7.2 -1.4,-10.1 -1,-3 -2.3,-5.5 -3.9,-7.6 -1.7,-2.1 -3.6,-3.6 -5.8,-4.7 -2.2,-1.1 -4.6,-1.6 -7.1,-1.6 h -5.5 v 48.3 h 5.5 z"
   id="path16" />
	<path
   d="m 1006.7,1138.3 -10.9,-76.2 h 19 l 6.3,63 10.2,-63 h 22.8 l 10.1,62.9 6.3,-62.9 h 19 l -10.9,76.2 h -28.2 l -7.8,-57.1 -7.8,57.1 z"
   id="path17" />
	<path
   d="m 1095.5,1138.3 18.3,-76.3 h 29.3 l 18.3,76.3 h -18.9 l -3.6,-16.9 H 1118 l -3.6,16.9 z m 25.5,-30.9 h 14.8 l -7.3,-33.9 z"
   id="path18" />
	<path
   d="m 1169.9,1138.3 v -76.2 h 32.4 c 8.3,0 14.5,1.8 18.6,5.5 4,3.7 6.1,9 6.1,15.9 0,3.9 -0.7,7.3 -2.2,10 -1.5,2.8 -3.3,4.9 -5.5,6.4 -2.2,1.4 -4.3,2.3 -6.3,2.5 2,0.2 4,0.7 6,1.6 1.9,0.9 3.5,2.4 4.7,4.4 1.2,2 1.8,4.7 1.8,8.1 v 13.6 c 0,1.8 0.1,3.4 0.4,5 0.3,1.5 0.7,2.6 1.2,3.3 h -18.4 c -0.5,-0.8 -0.9,-1.9 -1.2,-3.4 -0.3,-1.5 -0.5,-3.1 -0.5,-4.9 v -11.5 c 0,-2.9 -0.7,-5.1 -2,-6.7 -1.3,-1.6 -3.6,-2.4 -6.9,-2.4 h -10 v 28.9 h -18.2 z m 28.2,-42.8 c 2.8,0 5.2,-0.9 7,-2.7 1.9,-1.8 2.8,-4.3 2.8,-7.5 0,-2.8 -0.9,-5 -2.7,-6.7 -1.8,-1.7 -4.2,-2.6 -7.3,-2.6 h -10 v 19.6 h 10.2 z"
   id="path19" />
	<path
   d="m 1279.4,1093.1 v 14 h -23.7 v 17.3 h 29.4 v 14 h -47.9 v -76.2 h 47.9 v 14 h -29.4 v 17.1 h 23.7 z"
   id="path20" />
	<path
   d="m 783.9,1241.4 c -4.1,0 -8,-0.5 -11.5,-1.5 -3.5,-1 -6.6,-2.5 -9.1,-4.6 -2.6,-2 -4.6,-4.5 -6,-7.5 -1.4,-3 -2.2,-6.4 -2.2,-10.3 v -2.9 h 18.4 v 2.5 c 0,3.1 0.9,5.5 2.6,7.2 1.8,1.7 4.4,2.6 7.9,2.6 3.5,0 6.2,-0.5 8.1,-1.6 1.9,-1.1 2.8,-2.8 2.8,-5.3 0,-1.2 -0.5,-2.4 -1.4,-3.6 -0.9,-1.1 -2.2,-2.2 -3.9,-3.2 -1.7,-1 -3.6,-1.9 -5.8,-2.8 -2.2,-0.9 -4.6,-1.7 -7,-2.5 -2.8,-0.9 -5.5,-2 -8.1,-3.3 -2.6,-1.3 -4.8,-2.8 -6.8,-4.7 -2,-1.9 -3.5,-4.1 -4.7,-6.6 -1.2,-2.6 -1.8,-5.5 -1.8,-8.9 0,-3.4 0.7,-6.5 2.2,-9.3 1.4,-2.7 3.4,-5 5.9,-6.9 2.5,-1.9 5.5,-3.3 8.9,-4.3 3.4,-1 7.2,-1.5 11.2,-1.5 4.1,0 7.8,0.5 11.3,1.4 3.5,1 6.5,2.4 9.1,4.3 2.6,1.9 4.6,4.3 6,7.1 1.4,2.8 2.2,6.1 2.2,9.8 v 2.8 H 794 v -2 c 0,-2.8 -0.8,-5 -2.3,-6.7 -1.6,-1.7 -4.1,-2.5 -7.6,-2.5 -3.5,0 -6.2,0.6 -8,1.9 -1.8,1.2 -2.7,3.1 -2.7,5.6 0,1.4 0.4,2.6 1.2,3.6 0.8,1 2,2 3.5,2.8 1.5,0.9 3.3,1.7 5.3,2.5 2.1,0.8 4.3,1.6 6.7,2.4 3.4,1.2 6.6,2.4 9.4,3.8 2.8,1.3 5.2,2.9 7.2,4.8 2,1.8 3.6,4 4.7,6.4 1.1,2.4 1.7,5.4 1.7,8.7 0,3.5 -0.7,6.6 -2.1,9.4 -1.4,2.7 -3.4,5 -5.9,6.9 -2.6,1.9 -5.6,3.3 -9.2,4.2 -3.8,1.3 -7.7,1.8 -12,1.8 z"
   id="path21" />
	<path
   d="m 865.1,1194.8 v 14 h -23.7 v 17.3 h 29.4 v 14 h -47.9 v -76.2 h 47.9 v 14 h -29.4 v 17.1 h 23.7 z"
   id="path22" />
	<path
   d="m 947.3,1211.7 c 0,3.4 -0.7,6.8 -2,10.3 -1.3,3.5 -3.3,6.7 -5.9,9.6 -2.6,2.9 -5.9,5.2 -10,7 -4,1.8 -8.8,2.7 -14.2,2.7 -5.4,0 -10.3,-1 -14.6,-2.9 -4.3,-2 -7.9,-4.7 -10.9,-8.2 -3,-3.5 -5.2,-7.6 -6.8,-12.5 -1.6,-4.8 -2.3,-10.1 -2.3,-15.9 0,-5.8 0.8,-11.1 2.3,-15.9 1.6,-4.8 3.8,-8.9 6.8,-12.4 3,-3.5 6.6,-6.2 10.9,-8.1 4.3,-1.9 9.1,-2.9 14.6,-2.9 4.6,0 8.6,0.6 12.2,1.9 3.6,1.3 6.6,2.9 9.2,5 2.6,2.1 4.6,4.4 6.3,7.1 1.6,2.7 2.8,5.4 3.6,8.3 0.6,2.5 0.9,4.9 0.9,7.2 h -18.5 c 0,-0.6 0,-1.1 -0.1,-1.6 0,-0.5 -0.1,-1 -0.2,-1.4 -0.6,-3.5 -1.9,-6.4 -4.2,-8.7 -2.2,-2.3 -5.3,-3.4 -9.2,-3.4 -2.2,0 -4.3,0.5 -6.2,1.4 -1.9,1 -3.6,2.5 -5,4.5 -1.4,2 -2.5,4.6 -3.4,7.8 -0.8,3.1 -1.2,6.8 -1.2,11.1 0,4.3 0.4,8.1 1.2,11.2 0.8,3.1 1.9,5.7 3.4,7.8 1.4,2.1 3.1,3.6 5,4.6 1.9,1 4,1.4 6.2,1.4 2.1,0 4.1,-0.4 5.7,-1.2 1.7,-0.8 3.1,-1.9 4.2,-3.3 1.1,-1.4 2,-3 2.6,-4.9 0.6,-1.8 0.9,-3.8 0.9,-5.8 h 18.7 z"
   id="path23" />
	<path
   d="m 1028,1240 v -76.2 h 32.4 c 8.3,0 14.5,1.8 18.6,5.5 4,3.7 6.1,9 6.1,15.9 0,3.9 -0.7,7.3 -2.2,10 -1.5,2.8 -3.3,4.9 -5.5,6.4 -2.2,1.4 -4.3,2.3 -6.3,2.5 2,0.2 4,0.7 6,1.6 1.9,0.9 3.5,2.4 4.7,4.4 1.2,2 1.8,4.7 1.8,8.1 v 13.6 c 0,1.8 0.1,3.4 0.4,5 0.3,1.5 0.7,2.6 1.2,3.3 h -18.4 c -0.5,-0.8 -0.9,-1.9 -1.2,-3.4 -0.3,-1.5 -0.5,-3.1 -0.5,-4.9 v -11.5 c 0,-2.9 -0.7,-5.1 -2,-6.7 -1.3,-1.6 -3.6,-2.4 -6.9,-2.4 h -10 v 28.9 H 1028 Z m 28.3,-42.8 c 2.8,0 5.2,-0.9 7,-2.7 1.9,-1.8 2.8,-4.3 2.8,-7.5 0,-2.8 -0.9,-5 -2.7,-6.7 -1.8,-1.7 -4.2,-2.6 -7.3,-2.6 h -10 v 19.6 h 10.2 z"
   id="path24" />
	<path
   d="m 1095.3,1240 v -76.2 h 18.2 v 76.2 z"
   id="path25" />
	<path
   d="m 1177.5,1177.8 h -18.3 v 62.3 h -18.4 v -62.3 h -18.2 v -14 h 54.9 z"
   id="path26" />
	<path
   d="m 1246.3,1163.8 -22.3,50.1 v 26.2 h -18.4 v -26.2 l -22.2,-50.1 h 19.4 l 12,31.7 12,-31.7 z"
   id="path27" />
	<path
   d="m 843.3,1265.5 h 31.1 v 76.2 h -17.6 v -64.2 l -13,64.2 H 820 l -13.3,-64.3 v 64.3 h -17.5 v -76.2 h 31.1 l 11.4,63.9 z"
   id="path28" />
	<path
   d="m 920.5,1343.1 c -4.8,0 -9.4,-0.9 -13.7,-2.6 -4.3,-1.7 -8.1,-4.3 -11.3,-7.6 -3.2,-3.3 -5.8,-7.5 -7.7,-12.4 -1.9,-4.9 -2.8,-10.6 -2.8,-17 0,-6.4 0.9,-12.1 2.8,-17 1.9,-4.9 4.4,-9 7.7,-12.3 3.2,-3.3 7,-5.8 11.3,-7.5 4.3,-1.7 8.9,-2.5 13.8,-2.5 4.8,0 9.4,0.8 13.8,2.5 4.3,1.7 8.1,4.2 11.3,7.5 3.2,3.3 5.8,7.4 7.7,12.3 1.9,4.9 2.8,10.6 2.8,17 0,6.4 -0.9,12.1 -2.8,17 -1.9,4.9 -4.5,9 -7.8,12.4 -3.3,3.3 -7.1,5.9 -11.4,7.6 -4.5,1.7 -9,2.6 -13.7,2.6 z m 0,-14.6 c 2.1,0 4.2,-0.4 6.3,-1.2 2,-0.8 3.8,-2.2 5.4,-4.2 1.6,-2 2.8,-4.5 3.7,-7.7 0.9,-3.2 1.4,-7.1 1.4,-11.8 0,-4.7 -0.5,-8.6 -1.4,-11.8 -1,-3.2 -2.2,-5.7 -3.8,-7.7 -1.6,-1.9 -3.3,-3.3 -5.4,-4.1 -2,-0.8 -4.1,-1.2 -6.2,-1.2 -2.1,0 -4.2,0.4 -6.3,1.2 -2,0.8 -3.8,2.2 -5.4,4.1 -1.6,1.9 -2.8,4.5 -3.8,7.7 -1,3.2 -1.4,7.1 -1.4,11.8 0,4.7 0.5,8.6 1.4,11.8 1,3.2 2.2,5.7 3.8,7.7 1.6,2 3.3,3.4 5.4,4.2 2,0.8 4.1,1.2 6.3,1.2 z"
   id="path29" />
	<path
   d="m 966,1341.7 v -76.2 h 26.5 c 5.1,0 9.8,0.9 14,2.8 4.2,1.9 7.9,4.5 10.9,7.9 3,3.3 5.4,7.3 7.1,12 1.7,4.7 2.5,9.7 2.5,15.3 0,5.5 -0.8,10.6 -2.5,15.3 -1.7,4.7 -4.1,8.7 -7.1,12.2 -3,3.4 -6.7,6.1 -10.9,8 -4.2,1.9 -8.9,2.8 -14,2.8 H 966 Z m 24,-13.9 c 2.5,0 4.8,-0.6 7.1,-1.7 2.2,-1.1 4.2,-2.8 5.8,-4.9 1.7,-2.1 3,-4.7 3.9,-7.7 1,-3 1.4,-6.4 1.4,-10.1 0,-3.8 -0.5,-7.2 -1.4,-10.1 -1,-3 -2.3,-5.5 -3.9,-7.6 -1.7,-2.1 -3.6,-3.6 -5.8,-4.7 -2.2,-1.1 -4.6,-1.6 -7.1,-1.6 h -5.5 v 48.3 h 5.5 z"
   id="path30" />
	<path
   d="m 1095.7,1314.4 c 0,9.6 -2.6,16.8 -7.9,21.5 -5.2,4.8 -12.4,7.1 -21.5,7.1 -9.1,0 -16.3,-2.4 -21.5,-7.1 -5.2,-4.8 -7.9,-11.9 -7.9,-21.5 v -48.9 h 18.5 v 49.3 c 0,4.6 0.8,8.1 2.4,10.3 1.6,2.3 4.4,3.4 8.4,3.4 3.9,0 6.7,-1.1 8.4,-3.4 1.7,-2.3 2.5,-5.7 2.5,-10.3 v -49.3 h 18.4 v 48.9 z"
   id="path31" />
	<path
   d="m 1205.7,1296.5 v 14 H 1182 v 17.3 h 29.4 v 14 h -47.9 v -76.2 h 47.9 v 14 H 1182 v 17.1 h 23.7 z"
   id="path32" />
	<polygon
   class="st2"
   points="813,1100.4 811.4,1107.4 826.2,1107.4 824.1,1097.5 "
   id="polygon32" />
	<polygon
   points="813,1100.4 793.8,1105.3 785.9,1138.3 804.7,1138.3 808.3,1121.4 829.2,1121.4 832.8,1138.3 851.8,1138.3 840.9,1093.2 824.1,1097.5 826.2,1107.4 811.4,1107.4 "
   id="polygon33" />
	<polygon
   points="818.5,1100.4 824.4,1073.4 829.6,1097.5 846.5,1093.2 839,1062 809.7,1062 799.3,1105.3 "
   id="polygon34" />
	<path
   class="st2"
   d="m 978.2,1223.5 c 1.6,2.3 4.4,3.4 8.4,3.4 3.9,0 6.7,-1.1 8.4,-3.4 1.7,-2.3 2.5,-5.7 2.5,-10.3 v -15.9 l -21.8,4.5 v 11.4 c 0.1,4.5 0.9,8 2.5,10.3 z"
   id="path34" />
	<polygon
   points="957.9,1163.8 957.3,1163.8 "
   id="polygon35" />
	<path
   d="m 997.6,1213.1 c 0,4.6 -0.8,8.1 -2.5,10.3 -1.7,2.3 -4.5,3.4 -8.4,3.4 -4,0 -6.8,-1.1 -8.4,-3.4 -1.6,-2.3 -2.4,-5.7 -2.4,-10.3 v -11.4 l -18.5,3.8 v 7.2 c 0,9.6 2.6,16.8 7.9,21.5 5.2,4.8 12.4,7.1 21.5,7.1 9.1,0 16.3,-2.4 21.5,-7.1 5.2,-4.8 7.9,-11.9 7.9,-21.5 v -19.3 l -18.4,3.8 v 15.9 z"
   id="path35" />
	<polygon
   points="1020.4,1193.4 1020.4,1163.8 1002,1163.8 1002,1197.2 "
   id="polygon36" />
	<polygon
   points="961.7,1163.8 961.7,1205.5 980.2,1201.7 980.2,1163.8 962.3,1163.8 "
   id="polygon37" />
	<polygon
   points="1107.7,1310.3 1107.7,1341.7 1153.9,1341.7 1153.9,1326.9 1126.2,1326.9 1126.2,1302.2 "
   id="polygon38" />
	<polygon
   points="1113.3,1310.3 1131.8,1302.2 1131.8,1265.5 1113.3,1265.5 "
   id="polygon39" />
</g>
<g
   id="g41"
   transform="translate(-715,-717.6)">
	<path
   d="m 1221.8,799.1 c -17.7,-2.4 -34.2,7.2 -41.3,22.7 H 999.2 l -3.8,16.5 h -218 v 33 h 212.5 l 3.8,-16.5 h 186.8 c 5.5,11.9 16.7,20.8 30.5,22.7 21.6,3 41.6,-12.2 44.6,-33.8 3,-21.7 -12.1,-41.7 -33.8,-44.6 z"
   id="path39" />
	<path
   d="M 972.8,936 H 813.3 c -6.3,-13.6 -20,-23 -35.9,-23 -21.8,0 -39.5,17.7 -39.5,39.5 0,21.8 17.7,39.5 39.5,39.5 15.9,0 29.7,-9.4 35.9,-23 h 154 l 3.8,-16.5 h 243.1 v -33 H 976.6 Z"
   id="path40" />
	<path
   d="m 777.4,796.6 c 15.9,0 29.7,-9.4 35.9,-23 h 199.1 l 3.8,-16.5 h 197.9 v -33 h -192.4 l -3.8,16.5 H 813.3 c -6.3,-13.6 -20,-23 -35.9,-23 -21.8,0 -39.5,17.7 -39.5,39.5 0,21.8 17.7,39.5 39.5,39.5 z"
   id="path41" />
</g>
</svg>
