<?xml version="1.0" encoding="UTF-8" standalone="no"?>
<!-- Generator: Adobe Illustrator 26.3.1, SVG Export Plug-In . SVG Version: 6.00 Build 0)  -->

<svg
   version="1.1"
   id="Layer_1"
   x="0px"
   y="0px"
   viewBox="0 0 529.40002 340.5"
   xml:space="preserve"
   sodipodi:docname="iot.svg"
   width="529.40002"
   height="340.5"
   inkscape:version="1.3.2 (091e20e, 2023-11-25)"
   xmlns:inkscape="http://www.inkscape.org/namespaces/inkscape"
   xmlns:sodipodi="http://sodipodi.sourceforge.net/DTD/sodipodi-0.dtd"
   xmlns="http://www.w3.org/2000/svg"
   xmlns:svg="http://www.w3.org/2000/svg"><defs
   id="defs11" /><sodipodi:namedview
   id="namedview11"
   pagecolor="#ffffff"
   bordercolor="#000000"
   borderopacity="0.25"
   inkscape:showpageshadow="2"
   inkscape:pageopacity="0.0"
   inkscape:pagecheckerboard="0"
   inkscape:deskcolor="#d1d1d1"
   inkscape:zoom="0.118"
   inkscape:cx="279.66102"
   inkscape:cy="50.847458"
   inkscape:window-width="1728"
   inkscape:window-height="1051"
   inkscape:window-x="0"
   inkscape:window-y="38"
   inkscape:window-maximized="1"
   inkscape:current-layer="Layer_1" />
<style
   type="text/css"
   id="style1">
	.st0{display:none;}
	.st1{display:inline;fill:#1D1D1B;}
</style>
<g
   class="st0"
   id="g1"
   transform="translate(-716.8,-947)">
	<path
   class="st1"
   d="m 1412.9,993.9 h -64 c 0,-90.8 -35.3,-176.1 -99.5,-240.2 -64.2,-64.2 -149.5,-99.5 -240.2,-99.5 -90.8,0 -176.1,35.3 -240.2,99.5 -64.2,64.2 -99.5,149.5 -99.5,240.2 h -64 c 0,-54.5 10.7,-107.4 31.7,-157.2 20.3,-48.1 49.4,-91.3 86.5,-128.3 37.1,-37.1 80.2,-66.2 128.3,-86.5 49.8,-21.1 102.7,-31.7 157.2,-31.7 54.5,0 107.4,10.7 157.2,31.7 48.1,20.3 91.3,49.4 128.3,86.5 37,37.1 66.2,80.2 86.5,128.3 21,49.8 31.7,102.7 31.7,157.2 z"
   id="path1" />
</g>
<g
   id="g5"
   transform="translate(-716.8,-947)">
	<path
   d="m 844.1,1284.9 v -147.4 h 35.2 v 147.4 z"
   id="path2" />
	<path
   d="m 941.8,1211.1 c 0,-9.1 0.9,-16.7 2.8,-22.8 1.9,-6.1 4.3,-11.1 7.3,-14.8 3,-3.7 6.5,-6.4 10.4,-8 3.9,-1.6 8,-2.4 12.1,-2.4 4,0 8,0.8 11.9,2.4 3.9,1.6 7.4,4.3 10.4,8 3,3.7 5.4,8.7 7.3,14.8 1.5,4.8 2.4,10.6 2.7,17.2 l 36.1,-4.7 c -0.7,-8.3 -2.4,-15.8 -5,-22.5 -3.7,-9.5 -8.6,-17.4 -14.8,-23.8 -6.2,-6.4 -13.5,-11.2 -21.9,-14.5 -8.4,-3.3 -17.3,-4.9 -26.6,-4.9 -9.5,0 -18.4,1.6 -26.7,4.9 -8.3,3.3 -15.6,8.1 -21.9,14.5 -6.3,6.4 -11.2,14.3 -14.8,23.8 -3.6,9.5 -5.4,20.4 -5.4,32.8 0,2.6 0.1,5.1 0.3,7.6 l 36,-4.7 c -0.2,-1 -0.2,-1.9 -0.2,-2.9 z"
   id="path3" />
	<path
   d="m 918.5,1267.8 c 6.3,6.5 13.6,11.4 21.9,14.7 8.3,3.3 17.2,5 26.5,5 9.2,0 18,-1.7 26.3,-5 8.3,-3.3 15.7,-8.2 22,-14.7 6.3,-6.5 11.3,-14.4 15,-23.9 3.7,-9.5 5.5,-20.4 5.5,-32.8 0,-3.5 -0.2,-6.9 -0.5,-10.3 l -36.1,4.7 c 0.1,1.8 0.1,3.6 0.1,5.6 0,9.1 -0.9,16.7 -2.7,22.8 -1.8,6.1 -4.2,11.1 -7.2,14.9 -3,3.8 -6.5,6.5 -10.4,8.1 -3.9,1.6 -8,2.4 -12.1,2.4 -4.1,0 -8.2,-0.8 -12.1,-2.4 -3.9,-1.6 -7.4,-4.3 -10.4,-8.1 -3,-3.8 -5.4,-8.8 -7.3,-14.9 -1.7,-5.5 -2.6,-12.1 -2.8,-19.9 l -36,4.7 c 0.6,9.3 2.3,17.7 5.2,25.2 3.9,9.5 8.8,17.4 15.1,23.9 z"
   id="path4" />
	<path
   d="m 1155.9,1164.5 h -35.4 v 120.4 h -35.6 v -120.4 h -35.2 v -27 h 106.2 z"
   id="path5" />
</g>
<g
   id="g11"
   transform="translate(-716.8,-947)">
	<g
   id="g6">
		<polygon
   points="819.8,979.2 716.8,1014.6 716.8,1053 819.8,1053 "
   id="polygon5" />
		<polygon
   points="834.4,976.1 834.4,947 731.5,947 731.5,1011.5 "
   id="polygon6" />
	</g>
	<g
   id="g8">
		<polygon
   points="1025.6,979.2 922.7,1014.6 922.7,1053 1025.6,1053 "
   id="polygon7" />
		<polygon
   points="1040.3,976.1 1040.3,947 937.4,947 937.4,1011.5 "
   id="polygon8" />
	</g>
	<g
   id="g10">
		<polygon
   points="1231.5,979.2 1128.6,1014.6 1128.6,1053 1231.5,1053 "
   id="polygon9" />
		<polygon
   points="1246.2,976.1 1246.2,947 1143.2,947 1143.2,1011.5 "
   id="polygon10" />
	</g>
</g>
</svg>
