<?xml version="1.0" encoding="utf-8"?>
<!-- Generator: Adobe Illustrator 26.3.1, SVG Export Plug-In . SVG Version: 6.00 Build 0)  -->
<svg version="1.1" id="Layer_1" xmlns="http://www.w3.org/2000/svg" xmlns:xlink="http://www.w3.org/1999/xlink" x="0px" y="0px"
	 viewBox="0 0 2000 2000" style="enable-background:new 0 0 2000 2000;" xml:space="preserve">
<style type="text/css">
	.st0{display:none;}
	.st1{display:inline;fill:#1D1D1B;}
</style>
<g class="st0">
	<path class="st1" d="M1412.9,993.9h-64c0-90.8-35.3-176.1-99.5-240.2c-64.2-64.2-149.5-99.5-240.2-99.5
		c-90.8,0-176.1,35.3-240.2,99.5c-64.2,64.2-99.5,149.5-99.5,240.2h-64c0-54.5,10.7-107.4,31.7-157.2
		c20.3-48.1,49.4-91.3,86.5-128.3c37.1-37.1,80.2-66.2,128.3-86.5c49.8-21.1,102.7-31.7,157.2-31.7c54.5,0,107.4,10.7,157.2,31.7
		c48.1,20.3,91.3,49.4,128.3,86.5s66.2,80.2,86.5,128.3C1402.2,886.5,1412.9,939.4,1412.9,993.9z"/>
</g>
<g>
	<path d="M844.1,1284.9v-147.4h35.2v147.4H844.1z"/>
	<path d="M941.8,1211.1c0-9.1,0.9-16.7,2.8-22.8c1.9-6.1,4.3-11.1,7.3-14.8c3-3.7,6.5-6.4,10.4-8c3.9-1.6,8-2.4,12.1-2.4
		c4,0,8,0.8,11.9,2.4c3.9,1.6,7.4,4.3,10.4,8c3,3.7,5.4,8.7,7.3,14.8c1.5,4.8,2.4,10.6,2.7,17.2l36.1-4.7c-0.7-8.3-2.4-15.8-5-22.5
		c-3.7-9.5-8.6-17.4-14.8-23.8c-6.2-6.4-13.5-11.2-21.9-14.5c-8.4-3.3-17.3-4.9-26.6-4.9c-9.5,0-18.4,1.6-26.7,4.9
		c-8.3,3.3-15.6,8.1-21.9,14.5c-6.3,6.4-11.2,14.3-14.8,23.8c-3.6,9.5-5.4,20.4-5.4,32.8c0,2.6,0.1,5.1,0.3,7.6l36-4.7
		C941.8,1213,941.8,1212.1,941.8,1211.1z"/>
	<path d="M918.5,1267.8c6.3,6.5,13.6,11.4,21.9,14.7c8.3,3.3,17.2,5,26.5,5c9.2,0,18-1.7,26.3-5c8.3-3.3,15.7-8.2,22-14.7
		c6.3-6.5,11.3-14.4,15-23.9c3.7-9.5,5.5-20.4,5.5-32.8c0-3.5-0.2-6.9-0.5-10.3l-36.1,4.7c0.1,1.8,0.1,3.6,0.1,5.6
		c0,9.1-0.9,16.7-2.7,22.8c-1.8,6.1-4.2,11.1-7.2,14.9c-3,3.8-6.5,6.5-10.4,8.1c-3.9,1.6-8,2.4-12.1,2.4c-4.1,0-8.2-0.8-12.1-2.4
		c-3.9-1.6-7.4-4.3-10.4-8.1c-3-3.8-5.4-8.8-7.3-14.9c-1.7-5.5-2.6-12.1-2.8-19.9l-36,4.7c0.6,9.3,2.3,17.7,5.2,25.2
		C907.3,1253.4,912.2,1261.3,918.5,1267.8z"/>
	<path d="M1155.9,1164.5h-35.4v120.4h-35.6v-120.4h-35.2v-27h106.2V1164.5z"/>
</g>
<g>
	<g>
		<polygon points="716.8,1053 819.8,1053 819.8,979.2 716.8,1014.6 		"/>
		<polygon points="731.5,947 731.5,1011.5 834.4,976.1 834.4,947 		"/>
	</g>
	<g>
		<polygon points="922.7,1053 1025.6,1053 1025.6,979.2 922.7,1014.6 		"/>
		<polygon points="937.4,947 937.4,1011.5 1040.3,976.1 1040.3,947 		"/>
	</g>
	<g>
		<polygon points="1128.6,1053 1231.5,1053 1231.5,979.2 1128.6,1014.6 		"/>
		<polygon points="1143.2,947 1143.2,1011.5 1246.2,976.1 1246.2,947 		"/>
	</g>
</g>
</svg>
