<?xml version="1.0" encoding="UTF-8" standalone="no"?>
<!-- Generator: Adobe Illustrator 26.3.1, SVG Export Plug-In . SVG Version: 6.00 Build 0)  -->

<svg
   version="1.1"
   id="Layer_1"
   x="0px"
   y="0px"
   viewBox="0 0 553.60822 744.50403"
   xml:space="preserve"
   sodipodi:docname="oracle.network.svg"
   width="553.60822"
   height="744.50403"
   inkscape:version="1.3.2 (091e20e, 2023-11-25)"
   xmlns:inkscape="http://www.inkscape.org/namespaces/inkscape"
   xmlns:sodipodi="http://sodipodi.sourceforge.net/DTD/sodipodi-0.dtd"
   xmlns="http://www.w3.org/2000/svg"
   xmlns:svg="http://www.w3.org/2000/svg"><defs
   id="defs26" /><sodipodi:namedview
   id="namedview26"
   pagecolor="#ffffff"
   bordercolor="#000000"
   borderopacity="0.25"
   inkscape:showpageshadow="2"
   inkscape:pageopacity="0.0"
   inkscape:pagecheckerboard="0"
   inkscape:deskcolor="#d1d1d1"
   inkscape:zoom="0.84454568"
   inkscape:cx="157.48112"
   inkscape:cy="416.79214"
   inkscape:window-width="1728"
   inkscape:window-height="1051"
   inkscape:window-x="0"
   inkscape:window-y="38"
   inkscape:window-maximized="1"
   inkscape:current-layer="Layer_1" />
<style
   type="text/css"
   id="style1">
	.st0{fill:#1D1D1B;}
	.st1{fill:none;}
</style>
<g
   id="g7"
   transform="translate(-723.19589,-629.19589)"
   style="fill:#ffffff;fill-opacity:1">
	<g
   id="g2"
   style="fill:#ffffff;fill-opacity:1">
		<path
   class="st0"
   d="m 885.1,715.5 c 10.8,-6.9 22.2,-12.8 34.2,-17.8 27.6,-11.5 56.6,-17.3 86.1,-17.1 28.6,0.1 56.5,5.8 83.1,16.7 26.5,10.9 50.3,26.6 70.7,46.6 21.1,20.7 37.6,45.2 49.1,72.8 11.5,27.6 17.3,56.6 17.1,86.1 -0.1,28.6 -5.8,56.5 -16.7,83.1 -10.9,26.5 -26.6,50.3 -46.6,70.7 -9.6,9.8 -20,18.6 -31.1,26.3 l 28.6,42.7 c 14,-9.7 27.1,-20.7 39.2,-33 24.7,-25.1 44,-54.5 57.5,-87.2 13.5,-32.7 20.4,-67.1 20.5,-102.4 0.2,-36.5 -6.9,-72.2 -21.1,-106.1 -14.2,-34 -34.5,-64.1 -60.6,-89.7 -25.1,-24.7 -54.5,-44 -87.2,-57.5 -32.7,-13.5 -67.1,-20.4 -102.4,-20.5 -36.5,-0.2 -72.2,6.9 -106.1,21.1 -15.1,6.3 -29.5,13.8 -43,22.5 z"
   id="path1"
   style="fill:#ffffff;fill-opacity:1" />
		<path
   class="st0"
   d="m 1080.7,1085.9 c -27.6,11.5 -56.6,17.3 -86.1,17.1 -28.6,-0.1 -56.5,-5.8 -83.1,-16.7 -26.5,-10.9 -50.3,-26.6 -70.7,-46.6 -21.1,-20.7 -37.6,-45.2 -49.1,-72.8 -11.5,-27.6 -17.3,-56.6 -17.1,-86.1 0.1,-28.6 5.8,-56.5 16.7,-83.1 10.9,-26.5 26.6,-50.3 46.6,-70.7 11.7,-11.9 24.6,-22.4 38.6,-31.3 L 847.9,653 c -16.9,10.9 -32.5,23.6 -46.7,38 -24.7,25.1 -44,54.5 -57.5,87.2 -13.5,32.7 -20.4,67.1 -20.5,102.4 -0.2,36.5 6.9,72.2 21.1,106.1 14.2,34 34.5,64.1 60.6,89.7 25.1,24.7 54.5,44 87.2,57.5 32.7,13.5 67.1,20.4 102.4,20.5 36.5,0.2 72.2,-6.9 106.1,-21.1 17.9,-7.5 34.8,-16.7 50.5,-27.5 l -28.6,-42.7 c -13,9 -27,16.6 -41.8,22.8 z"
   id="path2"
   style="fill:#ffffff;fill-opacity:1" />
	</g>
	<g
   id="g4"
   style="fill:#ffffff;fill-opacity:1">
		<path
   class="st0"
   d="m 1071,1076.5 c 22.7,-9.8 42.9,-23.6 60.1,-41.2 17.9,-18.2 31.7,-39.5 41.2,-63.3 9.5,-23.9 14,-48.9 13.4,-74.3 -0.6,-24.6 -5.8,-48.5 -15.6,-71.2 -9.8,-22.7 -23.7,-42.9 -41.2,-60.1 -18.2,-17.9 -39.5,-31.7 -63.3,-41.2 -10.2,-4 -20.6,-7.2 -31.2,-9.4 l -9.3,50.5 c 7.3,1.6 14.5,3.8 21.6,6.6 34.5,13.7 61.6,39.9 76.3,73.9 14.7,34 15.3,71.7 1.6,106.2 -13.7,34.5 -39.9,61.6 -73.9,76.3 -24.2,10.5 -50.4,13.8 -75.9,9.9 l -9.3,50.5 c 11.3,1.8 22.8,2.6 34.4,2.4 24.5,-0.6 48.4,-5.9 71.1,-15.6 z"
   id="path3"
   style="fill:#ffffff;fill-opacity:1" />
		<path
   class="st0"
   d="m 952.1,1010.7 c -34.5,-13.7 -61.6,-39.9 -76.3,-73.9 -14.7,-34 -15.3,-71.7 -1.6,-106.2 13.7,-34.5 39.9,-61.6 73.9,-76.3 27,-11.7 56.4,-14.4 84.7,-8.2 l 9.3,-50.5 c -14.2,-3 -28.6,-4.3 -43.2,-4 -24.6,0.6 -48.5,5.8 -71.2,15.6 -22.7,9.8 -42.9,23.7 -60.1,41.2 -17.9,18.2 -31.7,39.5 -41.2,63.3 -9.5,23.9 -14,48.9 -13.4,74.3 0.6,24.6 5.8,48.5 15.6,71.2 9.8,22.7 23.6,42.9 41.2,60.1 18.2,17.9 39.5,31.7 63.3,41.2 13,5.2 26.4,8.8 40,11 l 9.3,-50.5 c -10.2,-1.6 -20.4,-4.4 -30.3,-8.3 z"
   id="path4"
   style="fill:#ffffff;fill-opacity:1" />
	</g>
	<g
   id="g6"
   style="fill:#ffffff;fill-opacity:1">
		<path
   class="st0"
   d="m 1050,987.3 c 24,-16 40.3,-40.4 45.9,-68.7 5.6,-28.3 -0.1,-57 -16.1,-81 -3.1,-4.6 -6.5,-9 -10.2,-13 l -36.4,36.3 c 1.4,1.6 2.7,3.4 3.9,5.2 17.3,25.9 10.3,61.1 -15.6,78.5 -21.5,14.4 -49.4,12 -68.2,-4 l -36.4,36.3 c 14.5,13.4 32.3,22.6 52.1,26.5 28.2,5.7 57,-0.1 81,-16.1 z"
   id="path5"
   style="fill:#ffffff;fill-opacity:1" />
		<path
   class="st0"
   d="m 960.8,916.7 c -17.3,-25.9 -10.3,-61.1 15.6,-78.5 24.1,-16.1 56.2,-11.2 74.5,10.4 l 36.4,-36.3 c -15.4,-16.9 -35.7,-28.4 -58.5,-32.9 -28.3,-5.6 -57,0.1 -81,16.1 -24,16 -40.3,40.4 -45.9,68.7 -5.6,28.3 0.1,57 16.1,81 4.8,7.2 10.3,13.7 16.5,19.4 l 36.4,-36.3 c -3.7,-3.3 -7.1,-7.1 -10.1,-11.6 z"
   id="path6"
   style="fill:#ffffff;fill-opacity:1" />
	</g>
</g>
<g
   id="g26"
   transform="translate(-723.19589,-629.19589)"
   style="fill:#ffffff;fill-opacity:1">
	<path
   d="M 881.6,1278.8 V 1204 h 31.8 c 8.2,0 14.3,1.8 18.2,5.4 4,3.6 5.9,8.8 5.9,15.6 0,3.9 -0.7,7.1 -2.2,9.8 -1.5,2.7 -3.3,4.8 -5.4,6.3 -2.2,1.4 -4.2,2.2 -6.2,2.4 2,0.2 3.9,0.7 5.9,1.5 1.9,0.9 3.4,2.3 4.6,4.3 1.2,2 1.7,4.7 1.7,8 v 13.3 c 0,1.8 0.1,3.4 0.4,4.9 0.3,1.5 0.7,2.6 1.2,3.2 h -18.1 c -0.5,-0.7 -0.9,-1.8 -1.2,-3.3 -0.3,-1.5 -0.5,-3.1 -0.5,-4.8 v -11.3 c 0,-2.8 -0.6,-5 -1.9,-6.6 -1.3,-1.6 -3.6,-2.3 -6.8,-2.3 h -9.8 v 28.3 h -17.6 z m 27.7,-42 c 2.8,0 5.1,-0.9 6.9,-2.7 1.8,-1.8 2.7,-4.2 2.7,-7.4 0,-2.7 -0.9,-4.9 -2.6,-6.6 -1.8,-1.7 -4.2,-2.5 -7.2,-2.5 h -9.8 v 19.2 z"
   id="path7"
   style="fill:#ffffff;fill-opacity:1" />
	<path
   d="m 944.3,1278.8 18,-74.9 H 991 l 18,74.9 h -18.6 l -3.6,-16.6 h -20.5 l -3.6,16.6 z m 25,-30.3 h 14.5 l -7.2,-33.3 z"
   id="path8"
   style="fill:#ffffff;fill-opacity:1" />
	<path
   d="m 1080.6,1251 c 0,3.3 -0.6,6.7 -1.9,10.2 -1.3,3.5 -3.2,6.6 -5.8,9.4 -2.6,2.8 -5.8,5.1 -9.8,6.9 -4,1.8 -8.6,2.7 -14,2.7 -5.3,0 -10.1,-1 -14.3,-2.9 -4.2,-1.9 -7.8,-4.6 -10.7,-8 -2.9,-3.4 -5.1,-7.5 -6.7,-12.2 -1.5,-4.7 -2.3,-10 -2.3,-15.6 0,-5.6 0.8,-10.9 2.3,-15.6 1.5,-4.7 3.7,-8.8 6.7,-12.2 2.9,-3.4 6.5,-6.1 10.7,-8 4.2,-1.9 9,-2.8 14.3,-2.8 4.5,0 8.4,0.6 11.9,1.9 3.5,1.3 6.5,2.9 9,4.9 2.5,2 4.6,4.4 6.1,7 1.6,2.6 2.8,5.3 3.5,8.1 0.6,2.4 0.9,4.8 0.9,7.1 h -18.2 c 0,-0.5 0,-1 0,-1.5 0,-0.5 -0.1,-0.9 -0.2,-1.4 -0.5,-3.5 -1.9,-6.3 -4.1,-8.5 -2.2,-2.2 -5.2,-3.4 -9,-3.4 -2.2,0 -4.2,0.5 -6.1,1.4 -1.9,0.9 -3.5,2.4 -4.9,4.4 -1.4,2 -2.5,4.5 -3.3,7.6 -0.8,3.1 -1.2,6.7 -1.2,10.9 0,4.3 0.4,7.9 1.2,11 0.8,3.1 1.9,5.6 3.3,7.7 1.4,2 3,3.5 4.9,4.5 1.9,0.9 3.9,1.4 6.1,1.4 2.1,0 4,-0.4 5.6,-1.2 1.7,-0.8 3,-1.9 4.2,-3.2 1.1,-1.4 2,-3 2.6,-4.8 0.6,-1.8 0.9,-3.7 0.9,-5.7 h 18.3 z"
   id="path9"
   style="fill:#ffffff;fill-opacity:1" />
	<path
   d="M 1090.4,1278.8 V 1204 h 18.2 v 60.3 h 27.2 v 14.5 z"
   id="path10"
   style="fill:#ffffff;fill-opacity:1" />
	<path
   d="m 1186.6,1234.4 v 13.7 h -23.3 v 17 h 28.8 v 13.7 h -47 V 1204 h 47 v 13.7 h -28.8 v 16.8 h 23.3 z"
   id="path11"
   style="fill:#ffffff;fill-opacity:1" />
	<path
   d="m 868.3,1325.4 v 13.7 H 845 v 17 h 28.8 v 13.7 h -47 V 1295 h 47 v 13.7 H 845 v 16.8 h 23.3 z"
   id="path12"
   style="fill:#ffffff;fill-opacity:1" />
	<path
   d="m 937,1308.7 h -18 v 61.1 h -18.1 v -61.1 H 883 V 1295 h 54 z"
   id="path13"
   style="fill:#ffffff;fill-opacity:1" />
	<path
   d="M 954.2,1369.8 943.5,1295 h 18.7 l 6.2,61.8 10.1,-61.8 h 22.3 l 10,61.7 6.2,-61.7 h 18.7 l -10.7,74.8 h -27.7 l -7.6,-56.1 -7.6,56.1 z"
   id="path14"
   style="fill:#ffffff;fill-opacity:1" />
	<path
   d="M 1122.3,1369.8 V 1295 h 31.8 c 8.2,0 14.3,1.8 18.2,5.4 4,3.6 5.9,8.8 5.9,15.6 0,3.9 -0.7,7.1 -2.2,9.8 -1.5,2.7 -3.3,4.8 -5.4,6.3 -2.2,1.4 -4.2,2.2 -6.2,2.4 2,0.2 3.9,0.7 5.9,1.5 1.9,0.9 3.4,2.3 4.6,4.3 1.2,2 1.7,4.7 1.7,8 v 13.3 c 0,1.8 0.1,3.4 0.4,4.9 0.3,1.5 0.7,2.6 1.2,3.2 h -18.1 c -0.5,-0.7 -0.9,-1.8 -1.2,-3.3 -0.3,-1.5 -0.5,-3.1 -0.5,-4.8 v -11.3 c 0,-2.8 -0.6,-5 -1.9,-6.6 -1.3,-1.6 -3.6,-2.3 -6.8,-2.3 h -9.8 v 28.3 h -17.6 z m 27.7,-42 c 2.8,0 5.1,-0.9 6.9,-2.7 1.8,-1.8 2.7,-4.2 2.7,-7.4 0,-2.7 -0.9,-4.9 -2.6,-6.6 -1.8,-1.7 -4.2,-2.5 -7.2,-2.5 h -9.8 v 19.2 z"
   id="path15"
   style="fill:#ffffff;fill-opacity:1" />
	<path
   d="m 1250,1369.8 h -19.7 l -16.5,-29 -7.3,10 v 19.1 h -18.1 V 1295 h 18.1 v 31.9 l 22.9,-31.9 h 19.1 l -24.2,32.5 z"
   id="path16"
   style="fill:#ffffff;fill-opacity:1" />
	<g
   id="g19"
   style="fill:#ffffff;fill-opacity:1">
		
		<path
   d="m 853.4,1241.4 c 0,4.6 -0.5,8.5 -1.4,11.6 -0.9,3.1 -2.1,5.6 -3.7,7.6 -1.5,1.9 -3.3,3.3 -5.3,4.1 -2,0.8 -4,1.2 -6.1,1.2 -2.1,0 -4.1,-0.4 -6.1,-1.2 -2,-0.8 -3.8,-2.2 -5.3,-4.1 -1.5,-1.9 -2.8,-4.5 -3.7,-7.6 -0.9,-3.1 -1.4,-7 -1.4,-11.6 0,-0.2 0,-0.4 0,-0.6 l -18.3,3.7 c 0.3,5 1.2,9.5 2.7,13.5 1.9,4.8 4.4,8.9 7.6,12.1 3.2,3.3 6.9,5.8 11.1,7.5 4.2,1.7 8.7,2.5 13.5,2.5 4.7,0 9.1,-0.8 13.4,-2.5 4.2,-1.7 8,-4.2 11.2,-7.5 3.2,-3.3 5.8,-7.3 7.6,-12.1 1.9,-4.8 2.8,-10.4 2.8,-16.7 0,-3.9 -0.4,-7.6 -1.1,-10.9 l -17.9,3.7 c 0.2,2.2 0.4,4.6 0.4,7.3 z"
   id="path18"
   style="fill:#ffffff;fill-opacity:1" />
		<path
   d="m 866.4,1212.6 c -3.1,-3.2 -6.9,-5.7 -11.1,-7.4 -4.3,-1.7 -8.8,-2.5 -13.5,-2.5 -4.8,0 -9.3,0.8 -13.6,2.5 -4.2,1.7 -7.9,4.1 -11.1,7.4 -3.2,3.2 -5.7,7.3 -7.5,12.1 -1.8,4.8 -2.7,10.4 -2.7,16.7 0,1.1 0,2.1 0.1,3.1 l 18.3,-3.7 c 0,-4.3 0.5,-8 1.4,-11 0.9,-3.1 2.2,-5.6 3.7,-7.5 1.5,-1.9 3.3,-3.2 5.3,-4.1 2,-0.8 4,-1.2 6.1,-1.2 2,0 4,0.4 6,1.2 2,0.8 3.8,2.2 5.3,4.1 1.5,1.9 2.8,4.4 3.7,7.5 0.4,1.3 0.7,2.7 0.9,4.3 l 17.9,-3.7 c -0.4,-2 -1,-3.9 -1.7,-5.7 -1.8,-4.8 -4.3,-8.8 -7.5,-12.1 z"
   id="path19"
   style="fill:#ffffff;fill-opacity:1" />
	</g>
	<g
   id="g22"
   style="fill:#ffffff;fill-opacity:1">
		
		<path
   d="m 1092.6,1332 c 0,4.6 -0.5,8.5 -1.4,11.6 -0.9,3.1 -2.1,5.6 -3.7,7.6 -1.5,1.9 -3.3,3.3 -5.3,4.1 -2,0.8 -4,1.2 -6.1,1.2 -2.1,0 -4.1,-0.4 -6.1,-1.2 -2,-0.8 -3.8,-2.2 -5.3,-4.1 -1.5,-1.9 -2.8,-4.5 -3.7,-7.6 -0.9,-3.1 -1.4,-7 -1.4,-11.6 0,-0.2 0,-0.4 0,-0.6 l -18.3,3.7 c 0.3,5 1.2,9.5 2.7,13.5 1.9,4.8 4.4,8.9 7.6,12.1 3.2,3.3 6.9,5.8 11.1,7.5 4.2,1.7 8.7,2.5 13.5,2.5 4.7,0 9.1,-0.8 13.4,-2.5 4.2,-1.7 8,-4.2 11.2,-7.5 3.2,-3.3 5.8,-7.3 7.6,-12.1 1.9,-4.8 2.8,-10.4 2.8,-16.7 0,-3.9 -0.4,-7.6 -1.1,-10.9 l -17.9,3.7 c 0.3,2.2 0.4,4.6 0.4,7.3 z"
   id="path21"
   style="fill:#ffffff;fill-opacity:1" />
		<path
   d="m 1105.7,1303.2 c -3.1,-3.2 -6.9,-5.7 -11.1,-7.4 -4.3,-1.7 -8.8,-2.5 -13.5,-2.5 -4.8,0 -9.3,0.8 -13.6,2.5 -4.2,1.7 -7.9,4.1 -11.1,7.4 -3.2,3.2 -5.7,7.3 -7.5,12.1 -1.8,4.8 -2.7,10.4 -2.7,16.7 0,1.1 0,2.1 0.1,3.1 l 18.3,-3.7 c 0,-4.3 0.5,-8 1.4,-11 0.9,-3.1 2.2,-5.6 3.7,-7.5 1.5,-1.9 3.3,-3.2 5.3,-4.1 2,-0.8 4,-1.2 6.1,-1.2 2,0 4,0.4 6,1.2 2,0.8 3.8,2.2 5.3,4.1 1.5,1.9 2.8,4.4 3.7,7.5 0.4,1.3 0.7,2.7 0.9,4.3 l 17.9,-3.7 c -0.4,-2 -1,-3.9 -1.7,-5.7 -1.9,-4.8 -4.4,-8.8 -7.5,-12.1 z"
   id="path22"
   style="fill:#ffffff;fill-opacity:1" />
	</g>
	
	<polygon
   points="797.5,1335.7 797.5,1353.9 791.8,1336.8 777,1339.9 787,1369.8 815.1,1369.8 815.1,1332.1 "
   id="polygon23"
   style="fill:#ffffff;fill-opacity:1" />
	<polygon
   points="750,1369.8 767.7,1369.8 767.7,1341.8 750,1345.4 "
   id="polygon24"
   style="fill:#ffffff;fill-opacity:1" />
	<polygon
   points="800.3,1295 800.3,1335.7 817.9,1332.1 817.9,1295 "
   id="polygon25"
   style="fill:#ffffff;fill-opacity:1" />
	<polygon
   points="794.6,1336.8 780.7,1295 752.8,1295 752.8,1345.4 770.5,1341.8 770.5,1311.8 779.8,1339.9 "
   id="polygon26"
   style="fill:#ffffff;fill-opacity:1" />
</g>
</svg>
