<?xml version="1.0" encoding="utf-8"?>
<!-- Generator: Adobe Illustrator 26.3.1, SVG Export Plug-In . SVG Version: 6.00 Build 0)  -->
<svg version="1.1" id="Layer_1" xmlns="http://www.w3.org/2000/svg" xmlns:xlink="http://www.w3.org/1999/xlink" x="0px" y="0px"
	 viewBox="0 0 2000 2000" style="enable-background:new 0 0 2000 2000;" xml:space="preserve">
<style type="text/css">
	.st0{fill:#1D1D1B;}
	.st1{fill:none;}
</style>
<g>
	<g>
		<path class="st0" d="M885.1,715.5c10.8-6.9,22.2-12.8,34.2-17.8c27.6-11.5,56.6-17.3,86.1-17.1c28.6,0.1,56.5,5.8,83.1,16.7
			c26.5,10.9,50.3,26.6,70.7,46.6c21.1,20.7,37.6,45.2,49.1,72.8s17.3,56.6,17.1,86.1c-0.1,28.6-5.8,56.5-16.7,83.1
			c-10.9,26.5-26.6,50.3-46.6,70.7c-9.6,9.8-20,18.6-31.1,26.3l28.6,42.7c14-9.7,27.1-20.7,39.2-33c24.7-25.1,44-54.5,57.5-87.2
			c13.5-32.7,20.4-67.1,20.5-102.4c0.2-36.5-6.9-72.2-21.1-106.1c-14.2-34-34.5-64.1-60.6-89.7c-25.1-24.7-54.5-44-87.2-57.5
			c-32.7-13.5-67.1-20.4-102.4-20.5c-36.5-0.2-72.2,6.9-106.1,21.1c-15.1,6.3-29.5,13.8-43,22.5L885.1,715.5z"/>
		<path class="st0" d="M1080.7,1085.9c-27.6,11.5-56.6,17.3-86.1,17.1c-28.6-0.1-56.5-5.8-83.1-16.7c-26.5-10.9-50.3-26.6-70.7-46.6
			c-21.1-20.7-37.6-45.2-49.1-72.8c-11.5-27.6-17.3-56.6-17.1-86.1c0.1-28.6,5.8-56.5,16.7-83.1c10.9-26.5,26.6-50.3,46.6-70.7
			c11.7-11.9,24.6-22.4,38.6-31.3L847.9,653c-16.9,10.9-32.5,23.6-46.7,38c-24.7,25.1-44,54.5-57.5,87.2
			c-13.5,32.7-20.4,67.1-20.5,102.4c-0.2,36.5,6.9,72.2,21.1,106.1c14.2,34,34.5,64.1,60.6,89.7c25.1,24.7,54.5,44,87.2,57.5
			c32.7,13.5,67.1,20.4,102.4,20.5c36.5,0.2,72.2-6.9,106.1-21.1c17.9-7.5,34.8-16.7,50.5-27.5l-28.6-42.7
			C1109.5,1072.1,1095.5,1079.7,1080.7,1085.9z"/>
	</g>
	<g>
		<path class="st0" d="M1071,1076.5c22.7-9.8,42.9-23.6,60.1-41.2c17.9-18.2,31.7-39.5,41.2-63.3c9.5-23.9,14-48.9,13.4-74.3
			c-0.6-24.6-5.8-48.5-15.6-71.2c-9.8-22.7-23.7-42.9-41.2-60.1c-18.2-17.9-39.5-31.7-63.3-41.2c-10.2-4-20.6-7.2-31.2-9.4
			l-9.3,50.5c7.3,1.6,14.5,3.8,21.6,6.6c34.5,13.7,61.6,39.9,76.3,73.9s15.3,71.7,1.6,106.2c-13.7,34.5-39.9,61.6-73.9,76.3
			c-24.2,10.5-50.4,13.8-75.9,9.9l-9.3,50.5c11.3,1.8,22.8,2.6,34.4,2.4C1024.4,1091.5,1048.3,1086.2,1071,1076.5z"/>
		<path class="st0" d="M952.1,1010.7c-34.5-13.7-61.6-39.9-76.3-73.9s-15.3-71.7-1.6-106.2c13.7-34.5,39.9-61.6,73.9-76.3
			c27-11.7,56.4-14.4,84.7-8.2l9.3-50.5c-14.2-3-28.6-4.3-43.2-4c-24.6,0.6-48.5,5.8-71.2,15.6c-22.7,9.8-42.9,23.7-60.1,41.2
			c-17.9,18.2-31.7,39.5-41.2,63.3c-9.5,23.9-14,48.9-13.4,74.3c0.6,24.6,5.8,48.5,15.6,71.2c9.8,22.7,23.6,42.9,41.2,60.1
			c18.2,17.9,39.5,31.7,63.3,41.2c13,5.2,26.4,8.8,40,11l9.3-50.5C972.2,1017.4,962,1014.6,952.1,1010.7z"/>
	</g>
	<g>
		<path class="st0" d="M1050,987.3c24-16,40.3-40.4,45.9-68.7c5.6-28.3-0.1-57-16.1-81c-3.1-4.6-6.5-9-10.2-13l-36.4,36.3
			c1.4,1.6,2.7,3.4,3.9,5.2c17.3,25.9,10.3,61.1-15.6,78.5c-21.5,14.4-49.4,12-68.2-4l-36.4,36.3c14.5,13.4,32.3,22.6,52.1,26.5
			C997.2,1009.1,1026,1003.3,1050,987.3z"/>
		<path class="st0" d="M960.8,916.7c-17.3-25.9-10.3-61.1,15.6-78.5c24.1-16.1,56.2-11.2,74.5,10.4l36.4-36.3
			c-15.4-16.9-35.7-28.4-58.5-32.9c-28.3-5.6-57,0.1-81,16.1c-24,16-40.3,40.4-45.9,68.7c-5.6,28.3,0.1,57,16.1,81
			c4.8,7.2,10.3,13.7,16.5,19.4l36.4-36.3C967.2,925,963.8,921.2,960.8,916.7z"/>
	</g>
</g>
<g>
	<path d="M881.6,1278.8V1204h31.8c8.2,0,14.3,1.8,18.2,5.4c4,3.6,5.9,8.8,5.9,15.6c0,3.9-0.7,7.1-2.2,9.8c-1.5,2.7-3.3,4.8-5.4,6.3
		c-2.2,1.4-4.2,2.2-6.2,2.4c2,0.2,3.9,0.7,5.9,1.5c1.9,0.9,3.4,2.3,4.6,4.3c1.2,2,1.7,4.7,1.7,8v13.3c0,1.8,0.1,3.4,0.4,4.9
		c0.3,1.5,0.7,2.6,1.2,3.2h-18.1c-0.5-0.7-0.9-1.8-1.2-3.3c-0.3-1.5-0.5-3.1-0.5-4.8v-11.3c0-2.8-0.6-5-1.9-6.6
		c-1.3-1.6-3.6-2.3-6.8-2.3h-9.8v28.3H881.6z M909.3,1236.8c2.8,0,5.1-0.9,6.9-2.7c1.8-1.8,2.7-4.2,2.7-7.4c0-2.7-0.9-4.9-2.6-6.6
		c-1.8-1.7-4.2-2.5-7.2-2.5h-9.8v19.2H909.3z"/>
	<path d="M944.3,1278.8l18-74.9H991l18,74.9h-18.6l-3.6-16.6h-20.5l-3.6,16.6H944.3z M969.3,1248.5h14.5l-7.2-33.3L969.3,1248.5z"/>
	<path d="M1080.6,1251c0,3.3-0.6,6.7-1.9,10.2c-1.3,3.5-3.2,6.6-5.8,9.4c-2.6,2.8-5.8,5.1-9.8,6.9c-4,1.8-8.6,2.7-14,2.7
		c-5.3,0-10.1-1-14.3-2.9c-4.2-1.9-7.8-4.6-10.7-8c-2.9-3.4-5.1-7.5-6.7-12.2c-1.5-4.7-2.3-10-2.3-15.6s0.8-10.9,2.3-15.6
		c1.5-4.7,3.7-8.8,6.7-12.2c2.9-3.4,6.5-6.1,10.7-8c4.2-1.9,9-2.8,14.3-2.8c4.5,0,8.4,0.6,11.9,1.9c3.5,1.3,6.5,2.9,9,4.9
		c2.5,2,4.6,4.4,6.1,7c1.6,2.6,2.8,5.3,3.5,8.1c0.6,2.4,0.9,4.8,0.9,7.1h-18.2c0-0.5,0-1,0-1.5c0-0.5-0.1-0.9-0.2-1.4
		c-0.5-3.5-1.9-6.3-4.1-8.5c-2.2-2.2-5.2-3.4-9-3.4c-2.2,0-4.2,0.5-6.1,1.4c-1.9,0.9-3.5,2.4-4.9,4.4c-1.4,2-2.5,4.5-3.3,7.6
		c-0.8,3.1-1.2,6.7-1.2,10.9c0,4.3,0.4,7.9,1.2,11c0.8,3.1,1.9,5.6,3.3,7.7c1.4,2,3,3.5,4.9,4.5c1.9,0.9,3.9,1.4,6.1,1.4
		c2.1,0,4-0.4,5.6-1.2c1.7-0.8,3-1.9,4.2-3.2c1.1-1.4,2-3,2.6-4.8c0.6-1.8,0.9-3.7,0.9-5.7H1080.6z"/>
	<path d="M1090.4,1278.8V1204h18.2v60.3h27.2v14.5H1090.4z"/>
	<path d="M1186.6,1234.4v13.7h-23.3v17h28.8v13.7h-47V1204h47v13.7h-28.8v16.8H1186.6z"/>
	<path d="M868.3,1325.4v13.7h-23.3v17h28.8v13.7h-47V1295h47v13.7h-28.8v16.8H868.3z"/>
	<path d="M937,1308.7h-18v61.1h-18.1v-61.1h-17.9V1295H937V1308.7z"/>
	<path d="M954.2,1369.8l-10.7-74.8h18.7l6.2,61.8l10.1-61.8h22.3l10,61.7l6.2-61.7h18.7l-10.7,74.8h-27.7l-7.6-56.1l-7.6,56.1H954.2
		z"/>
	<path d="M1122.3,1369.8V1295h31.8c8.2,0,14.3,1.8,18.2,5.4c4,3.6,5.9,8.8,5.9,15.6c0,3.9-0.7,7.1-2.2,9.8c-1.5,2.7-3.3,4.8-5.4,6.3
		c-2.2,1.4-4.2,2.2-6.2,2.4c2,0.2,3.9,0.7,5.9,1.5c1.9,0.9,3.4,2.3,4.6,4.3c1.2,2,1.7,4.7,1.7,8v13.3c0,1.8,0.1,3.4,0.4,4.9
		c0.3,1.5,0.7,2.6,1.2,3.2h-18.1c-0.5-0.7-0.9-1.8-1.2-3.3c-0.3-1.5-0.5-3.1-0.5-4.8v-11.3c0-2.8-0.6-5-1.9-6.6
		c-1.3-1.6-3.6-2.3-6.8-2.3h-9.8v28.3H1122.3z M1150,1327.8c2.8,0,5.1-0.9,6.9-2.7c1.8-1.8,2.7-4.2,2.7-7.4c0-2.7-0.9-4.9-2.6-6.6
		c-1.8-1.7-4.2-2.5-7.2-2.5h-9.8v19.2H1150z"/>
	<path d="M1250,1369.8h-19.7l-16.5-29l-7.3,10v19.1h-18.1V1295h18.1v31.9l22.9-31.9h19.1l-24.2,32.5L1250,1369.8z"/>
	<g>
		<path class="st1" d="M821.8,1252.9c0.9,3.1,2.2,5.6,3.7,7.6c1.5,1.9,3.3,3.3,5.3,4.1c2,0.8,4,1.2,6.1,1.2c2.1,0,4.1-0.4,6.1-1.2
			c2-0.8,3.8-2.2,5.3-4.1c1.5-1.9,2.7-4.5,3.7-7.6c0.9-3.1,1.4-7,1.4-11.6c0-2.7-0.2-5.1-0.5-7.3l-32.5,6.6c0,0.2,0,0.4,0,0.6
			C820.4,1246,820.8,1249.8,821.8,1252.9z"/>
		<path d="M853.4,1241.4c0,4.6-0.5,8.5-1.4,11.6c-0.9,3.1-2.1,5.6-3.7,7.6c-1.5,1.9-3.3,3.3-5.3,4.1c-2,0.8-4,1.2-6.1,1.2
			c-2.1,0-4.1-0.4-6.1-1.2c-2-0.8-3.8-2.2-5.3-4.1c-1.5-1.9-2.8-4.5-3.7-7.6c-0.9-3.1-1.4-7-1.4-11.6c0-0.2,0-0.4,0-0.6l-18.3,3.7
			c0.3,5,1.2,9.5,2.7,13.5c1.9,4.8,4.4,8.9,7.6,12.1c3.2,3.3,6.9,5.8,11.1,7.5c4.2,1.7,8.7,2.5,13.5,2.5c4.7,0,9.1-0.8,13.4-2.5
			c4.2-1.7,8-4.2,11.2-7.5c3.2-3.3,5.8-7.3,7.6-12.1c1.9-4.8,2.8-10.4,2.8-16.7c0-3.9-0.4-7.6-1.1-10.9l-17.9,3.7
			C853.2,1236.3,853.4,1238.7,853.4,1241.4z"/>
		<path d="M866.4,1212.6c-3.1-3.2-6.9-5.7-11.1-7.4c-4.3-1.7-8.8-2.5-13.5-2.5c-4.8,0-9.3,0.8-13.6,2.5c-4.2,1.7-7.9,4.1-11.1,7.4
			c-3.2,3.2-5.7,7.3-7.5,12.1c-1.8,4.8-2.7,10.4-2.7,16.7c0,1.1,0,2.1,0.1,3.1l18.3-3.7c0-4.3,0.5-8,1.4-11c0.9-3.1,2.2-5.6,3.7-7.5
			c1.5-1.9,3.3-3.2,5.3-4.1c2-0.8,4-1.2,6.1-1.2c2,0,4,0.4,6,1.2c2,0.8,3.8,2.2,5.3,4.1c1.5,1.9,2.8,4.4,3.7,7.5
			c0.4,1.3,0.7,2.7,0.9,4.3l17.9-3.7c-0.4-2-1-3.9-1.7-5.7C872.1,1219.9,869.6,1215.9,866.4,1212.6z"/>
	</g>
	<g>
		<path class="st1" d="M1061,1343.5c0.9,3.1,2.2,5.6,3.7,7.6c1.5,1.9,3.3,3.3,5.3,4.1c2,0.8,4,1.2,6.1,1.2c2.1,0,4.1-0.4,6.1-1.2
			c2-0.8,3.8-2.2,5.3-4.1c1.5-1.9,2.7-4.5,3.7-7.6c0.9-3.1,1.4-7,1.4-11.6c0-2.7-0.2-5.1-0.5-7.3l-32.5,6.6c0,0.2,0,0.4,0,0.6
			C1059.6,1336.6,1060.1,1340.4,1061,1343.5z"/>
		<path d="M1092.6,1332c0,4.6-0.5,8.5-1.4,11.6c-0.9,3.1-2.1,5.6-3.7,7.6c-1.5,1.9-3.3,3.3-5.3,4.1c-2,0.8-4,1.2-6.1,1.2
			c-2.1,0-4.1-0.4-6.1-1.2c-2-0.8-3.8-2.2-5.3-4.1c-1.5-1.9-2.8-4.5-3.7-7.6c-0.9-3.1-1.4-7-1.4-11.6c0-0.2,0-0.4,0-0.6l-18.3,3.7
			c0.3,5,1.2,9.5,2.7,13.5c1.9,4.8,4.4,8.9,7.6,12.1c3.2,3.3,6.9,5.8,11.1,7.5c4.2,1.7,8.7,2.5,13.5,2.5c4.7,0,9.1-0.8,13.4-2.5
			c4.2-1.7,8-4.2,11.2-7.5c3.2-3.3,5.8-7.3,7.6-12.1c1.9-4.8,2.8-10.4,2.8-16.7c0-3.9-0.4-7.6-1.1-10.9l-17.9,3.7
			C1092.5,1326.9,1092.6,1329.3,1092.6,1332z"/>
		<path d="M1105.7,1303.2c-3.1-3.2-6.9-5.7-11.1-7.4c-4.3-1.7-8.8-2.5-13.5-2.5c-4.8,0-9.3,0.8-13.6,2.5c-4.2,1.7-7.9,4.1-11.1,7.4
			c-3.2,3.2-5.7,7.3-7.5,12.1c-1.8,4.8-2.7,10.4-2.7,16.7c0,1.1,0,2.1,0.1,3.1l18.3-3.7c0-4.3,0.5-8,1.4-11c0.9-3.1,2.2-5.6,3.7-7.5
			c1.5-1.9,3.3-3.2,5.3-4.1c2-0.8,4-1.2,6.1-1.2c2,0,4,0.4,6,1.2c2,0.8,3.8,2.2,5.3,4.1c1.5,1.9,2.8,4.4,3.7,7.5
			c0.4,1.3,0.7,2.7,0.9,4.3l17.9-3.7c-0.4-2-1-3.9-1.7-5.7C1111.3,1310.5,1108.8,1306.5,1105.7,1303.2z"/>
	</g>
	<polygon class="st1" points="797.5,1335.7 791.8,1336.8 797.5,1353.9 	"/>
	<polygon points="797.5,1353.9 791.8,1336.8 777,1339.9 787,1369.8 815.1,1369.8 815.1,1332.1 797.5,1335.7 	"/>
	<polygon points="750,1369.8 767.7,1369.8 767.7,1341.8 750,1345.4 	"/>
	<polygon points="800.3,1295 800.3,1335.7 817.9,1332.1 817.9,1295 	"/>
	<polygon points="780.7,1295 752.8,1295 752.8,1345.4 770.5,1341.8 770.5,1311.8 779.8,1339.9 794.6,1336.8 	"/>
</g>
</svg>
