<?xml version="1.0" encoding="UTF-8" standalone="no"?>
<!-- Generator: Adobe Illustrator 26.3.1, SVG Export Plug-In . SVG Version: 6.00 Build 0)  -->

<svg
   version="1.1"
   id="Layer_1"
   x="0px"
   y="0px"
   viewBox="0 0 542.40002 729.40002"
   xml:space="preserve"
   sodipodi:docname="secret.manager.svg"
   width="542.40002"
   height="729.40002"
   inkscape:version="1.3.2 (091e20e, 2023-11-25)"
   xmlns:inkscape="http://www.inkscape.org/namespaces/inkscape"
   xmlns:sodipodi="http://sodipodi.sourceforge.net/DTD/sodipodi-0.dtd"
   xmlns="http://www.w3.org/2000/svg"
   xmlns:svg="http://www.w3.org/2000/svg"><defs
   id="defs23" /><sodipodi:namedview
   id="namedview23"
   pagecolor="#ffffff"
   bordercolor="#000000"
   borderopacity="0.25"
   inkscape:showpageshadow="2"
   inkscape:pageopacity="0.0"
   inkscape:pagecheckerboard="0"
   inkscape:deskcolor="#d1d1d1"
   inkscape:zoom="0.53528454"
   inkscape:cx="365.22631"
   inkscape:cy="734.18896"
   inkscape:window-width="1728"
   inkscape:window-height="1051"
   inkscape:window-x="0"
   inkscape:window-y="38"
   inkscape:window-maximized="1"
   inkscape:current-layer="g23" />
<style
   type="text/css"
   id="style1">
	.st0{fill:#1D1D1B;}
	.st1{fill:none;}
</style>
<g
   id="g23"
   transform="translate(-728.7,-635.3)">
	<g
   id="g5"
   style="fill:#ffffff;fill-opacity:1">
		<polygon
   class="st0"
   points="830.8,808.2 917.8,762.3 811.8,637.5 738.6,699.6 "
   id="polygon1"
   style="fill:#ffffff;fill-opacity:1" />
		<polygon
   class="st0"
   points="1072,731.1 1120.3,822.5 1226.6,697.4 1153.4,635.3 "
   id="polygon2"
   style="fill:#ffffff;fill-opacity:1" />
		<polygon
   class="st0"
   points="899.5,1034.9 851.2,943.4 745,1068.6 818.2,1130.7 "
   id="polygon3"
   style="fill:#ffffff;fill-opacity:1" />
		<polygon
   class="st0"
   points="1229.6,1065.3 1137.4,956.7 1050.4,1002.6 1156.4,1127.4 "
   id="polygon4"
   style="fill:#ffffff;fill-opacity:1" />
		<polygon
   class="st0"
   points="1065.7,713.9 982.6,811.7 924.1,742.9 837.2,788.8 919.7,885.9 851.2,966.4 899.5,1057.9 982.6,960 1041.1,1028.9 1128.1,983 1045.6,885.9 1114,805.3 "
   id="polygon5"
   style="fill:#ffffff;fill-opacity:1" />
	</g>
	<path
   d="m 826.8,1269.7 c -4.4,0 -8.5,-0.5 -12.2,-1.6 -3.7,-1.1 -7,-2.7 -9.7,-4.8 -2.7,-2.2 -4.8,-4.8 -6.4,-8 -1.5,-3.2 -2.3,-6.8 -2.3,-11 v -3.1 h 19.6 v 2.6 c 0,3.3 0.9,5.9 2.8,7.7 1.9,1.8 4.7,2.8 8.4,2.8 3.7,0 6.6,-0.6 8.6,-1.7 2,-1.1 3,-3 3,-5.7 0,-1.3 -0.5,-2.6 -1.5,-3.8 -1,-1.2 -2.4,-2.3 -4.1,-3.4 -1.8,-1 -3.8,-2 -6.2,-3 -2.3,-1 -4.8,-1.8 -7.5,-2.6 -3,-1 -5.9,-2.1 -8.6,-3.5 -2.7,-1.4 -5.1,-3 -7.2,-5 -2.1,-2 -3.8,-4.3 -5,-7 -1.2,-2.7 -1.9,-5.9 -1.9,-9.5 0,-3.7 0.8,-6.9 2.3,-9.8 1.5,-2.9 3.6,-5.3 6.3,-7.3 2.7,-2 5.8,-3.5 9.5,-4.6 3.7,-1.1 7.6,-1.6 11.9,-1.6 4.3,0 8.3,0.5 12,1.5 3.7,1 6.9,2.6 9.6,4.6 2.7,2.1 4.8,4.6 6.4,7.6 1.5,3 2.3,6.5 2.3,10.4 v 3 h -19.6 v -2.1 c 0,-2.9 -0.8,-5.3 -2.5,-7.1 -1.6,-1.8 -4.3,-2.7 -8.1,-2.7 -3.7,0 -6.6,0.7 -8.5,2 -1.9,1.3 -2.9,3.3 -2.9,5.9 0,1.5 0.4,2.8 1.3,3.8 0.9,1.1 2.1,2.1 3.7,3 1.6,0.9 3.5,1.8 5.7,2.6 2.2,0.8 4.6,1.7 7.1,2.6 3.7,1.2 7,2.6 10,4 3,1.4 5.5,3.1 7.6,5.1 2.1,1.9 3.8,4.2 5,6.8 1.2,2.6 1.8,5.7 1.8,9.3 0,3.7 -0.8,7.1 -2.3,10 -1.5,2.9 -3.6,5.3 -6.3,7.3 -2.7,2 -6,3.5 -9.8,4.5 -3.6,1.3 -7.7,1.8 -12.3,1.8 z"
   id="path5"
   style="fill:#ffffff;fill-opacity:1" />
	<path
   d="m 913.2,1220.2 v 14.9 H 888 v 18.4 h 31.2 v 14.8 h -50.9 v -81.1 h 50.9 v 14.9 H 888 v 18.1 z"
   id="path6"
   style="fill:#ffffff;fill-opacity:1" />
	<path
   d="m 1011.2,1268.3 v -81.1 h 34.4 c 8.9,0 15.5,2 19.7,5.9 4.3,3.9 6.4,9.6 6.4,16.9 0,4.2 -0.8,7.7 -2.4,10.7 -1.6,2.9 -3.5,5.2 -5.9,6.8 -2.3,1.5 -4.6,2.4 -6.7,2.6 2.1,0.2 4.3,0.8 6.4,1.7 2.1,1 3.7,2.5 4.9,4.7 1.2,2.2 1.9,5 1.9,8.6 v 14.4 c 0,1.9 0.1,3.7 0.4,5.3 0.3,1.6 0.7,2.8 1.3,3.5 H 1052 c -0.5,-0.8 -0.9,-2 -1.3,-3.6 -0.3,-1.6 -0.5,-3.3 -0.5,-5.2 v -12.2 c 0,-3.1 -0.7,-5.5 -2.1,-7.2 -1.4,-1.7 -3.8,-2.5 -7.4,-2.5 H 1030 v 30.7 z m 30,-45.5 c 3,0 5.5,-1 7.5,-2.9 2,-1.9 3,-4.6 3,-8 0,-2.9 -1,-5.3 -2.9,-7.2 -1.9,-1.8 -4.5,-2.8 -7.8,-2.8 h -10.7 v 20.8 h 10.9 z"
   id="path7"
   style="fill:#ffffff;fill-opacity:1" />
	<path
   d="m 1127.7,1220.2 v 14.9 h -25.2 v 18.4 h 31.2 v 14.8 h -50.9 v -81.1 h 50.9 v 14.9 h -31.2 v 18.1 z"
   id="path8"
   style="fill:#ffffff;fill-opacity:1" />
	<path
   d="m 1202,1202.1 h -19.5 v 66.2 H 1163 v -66.2 h -19.4 v -14.9 h 58.4 z"
   id="path9"
   style="fill:#ffffff;fill-opacity:1" />
	<path
   d="m 786.3,1282.2 h 33.1 v 81.1 H 800.7 V 1295 l -13.9,68.3 h -25.3 l -14.2,-68.4 v 68.4 h -18.6 v -81.1 h 33.1 l 12.1,68 z"
   id="path10"
   style="fill:#ffffff;fill-opacity:1" />
	<path
   d="m 829,1363.3 19.5,-81.2 h 31.1 l 19.5,81.2 H 879 l -3.9,-17.9 h -22.2 l -3.8,17.9 z m 27.2,-32.9 h 15.7 l -7.8,-36.1 z"
   id="path11"
   style="fill:#ffffff;fill-opacity:1" />
	<path
   d="m 1099.8,1364.7 c -4.9,0 -9.5,-0.9 -13.8,-2.7 -4.3,-1.8 -8,-4.5 -11.2,-8 -3.2,-3.5 -5.7,-7.9 -7.5,-13 -1.8,-5.2 -2.8,-11.2 -2.8,-18 0,-6.8 1,-12.9 2.9,-18.1 1.9,-5.2 4.6,-9.6 8,-13.2 3.4,-3.6 7.4,-6.3 11.9,-8.1 4.6,-1.8 9.5,-2.8 14.7,-2.8 5.9,0 10.8,1 14.9,2.9 4.1,1.9 7.4,4.3 10,7 2.6,2.8 4.4,5.8 5.6,9 1.1,3.2 1.7,6.2 1.7,8.8 v 0.7 h -19 v -0.7 c 0,-1.5 -0.3,-3 -0.9,-4.5 -0.6,-1.5 -1.4,-2.8 -2.6,-4 -1.1,-1.2 -2.5,-2.1 -4.1,-2.8 -1.6,-0.7 -3.4,-1 -5.5,-1 -2.1,0 -4.2,0.4 -6.3,1.3 -2.1,0.9 -4,2.3 -5.7,4.4 -1.7,2.1 -3,4.8 -4.1,8.2 -1,3.4 -1.5,7.7 -1.5,12.8 0,5.1 0.5,9.4 1.5,12.8 1,3.4 2.3,6.1 4,8.1 1.7,2 3.5,3.4 5.6,4.2 2.1,0.8 4.1,1.2 6.3,1.2 2.2,0 4.2,-0.3 5.9,-0.9 1.7,-0.6 3.2,-1.3 4.5,-2.3 1.2,-0.9 2.2,-1.9 3,-3.1 0.7,-1.1 1.2,-2.2 1.4,-3.2 v -4.2 H 1102 v -13.9 h 32.1 v 41.5 h -9.7 l -1.9,-8.9 c -0.2,0.8 -0.8,1.8 -1.8,3 -1,1.2 -2.3,2.3 -4.1,3.4 -1.8,1.1 -4.1,2 -6.8,2.8 -3,1 -6.2,1.3 -10,1.3 z"
   id="path12"
   style="fill:#ffffff;fill-opacity:1" />
	<path
   d="m 1191.8,1315.2 v 14.9 h -25.2 v 18.4 h 31.2 v 14.8 h -50.9 v -81.1 h 50.9 v 14.9 h -31.2 v 18.1 z"
   id="path13"
   style="fill:#ffffff;fill-opacity:1" />
	<path
   d="m 1210.6,1363.3 v -81.1 h 34.4 c 8.9,0 15.5,2 19.7,5.9 4.3,3.9 6.4,9.6 6.4,16.9 0,4.2 -0.8,7.7 -2.4,10.7 -1.6,2.9 -3.5,5.2 -5.9,6.8 -2.3,1.5 -4.6,2.4 -6.7,2.6 2.1,0.2 4.3,0.8 6.4,1.7 2.1,1 3.7,2.5 5,4.7 1.2,2.2 1.9,5 1.9,8.6 v 14.4 c 0,1.9 0.1,3.7 0.4,5.3 0.3,1.6 0.7,2.8 1.3,3.5 h -19.6 c -0.5,-0.8 -0.9,-2 -1.3,-3.6 -0.3,-1.6 -0.5,-3.3 -0.5,-5.2 v -12.2 c 0,-3.1 -0.7,-5.5 -2.1,-7.2 -1.4,-1.7 -3.8,-2.5 -7.4,-2.5 h -10.7 v 30.7 z m 30,-45.5 c 3,0 5.5,-1 7.5,-2.9 2,-1.9 3,-4.6 3,-8 0,-2.9 -1,-5.3 -2.9,-7.2 -1.9,-1.8 -4.5,-2.8 -7.8,-2.8 h -10.7 v 20.8 h 10.9 z"
   id="path14"
   style="fill:#ffffff;fill-opacity:1" />
	<path
   d="m 932.2,1244.7 c 1.7,5.1 4.1,9.6 7.2,13.3 3.2,3.7 7,6.6 11.6,8.7 4.5,2.1 9.7,3.1 15.5,3.1 5.8,0 10.8,-1 15.1,-2.9 4.3,-1.9 7.8,-4.4 10.6,-7.5 2.8,-3 4.9,-6.4 6.3,-10.2 1.4,-3.7 2.1,-7.4 2.1,-11 h -19.7 c 0,2.2 -0.3,4.3 -1,6.2 -0.7,1.9 -1.6,3.7 -2.8,5.2 -1.2,1.5 -2.7,2.7 -4.5,3.5 -1.8,0.8 -3.8,1.3 -6.1,1.3 -2.3,0 -4.5,-0.5 -6.6,-1.5 -2.1,-1 -3.8,-2.6 -5.3,-4.8 -1.5,-2.2 -2.7,-5 -3.6,-8.3 -0.6,-2.2 -1,-4.7 -1.2,-7.5 l -19.6,3.4 c 0.5,3 1.1,6.1 2,9 z"
   id="path15"
   style="fill:#ffffff;fill-opacity:1" />
	<path
   d="m 956.1,1215.9 c 0.9,-3.3 2.1,-6.1 3.6,-8.2 1.5,-2.2 3.3,-3.8 5.3,-4.8 2.1,-1 4.3,-1.5 6.6,-1.5 4.1,0 7.4,1.2 9.7,3.6 2.4,2.4 3.9,5.5 4.5,9.2 0.1,0.5 0.1,1 0.2,1.5 0,0.5 0.1,1.1 0.1,1.7 h 19.7 c 0,-2.5 -0.3,-5.1 -1,-7.7 -0.8,-3 -2.1,-5.9 -3.8,-8.8 -1.7,-2.9 -3.9,-5.4 -6.7,-7.6 -2.7,-2.2 -6,-4 -9.7,-5.3 -3.8,-1.4 -8.1,-2 -12.9,-2 -5.8,0 -11,1 -15.5,3.1 -4.5,2.1 -8.4,4.9 -11.6,8.6 -3.2,3.7 -5.6,8.1 -7.2,13.2 -1.6,5.1 -2.5,10.7 -2.5,16.9 0,2.7 0.2,5.3 0.5,7.8 l 19.6,-3.4 c -0.1,-1.4 -0.2,-2.9 -0.2,-4.4 -0.1,-4.6 0.4,-8.6 1.3,-11.9 z"
   id="path16"
   style="fill:#ffffff;fill-opacity:1" />
	
	
	<polygon
   points="936.6,1328.6 948.1,1363.3 978.6,1363.3 978.6,1322.8 959.5,1325.4 959.5,1346 952.9,1326.3 "
   id="polygon18"
   style="fill:#ffffff;fill-opacity:1" />
	<polygon
   points="927.2,1329.9 908.1,1332.5 908.1,1363.3 927.2,1363.3 "
   id="polygon19"
   style="fill:#ffffff;fill-opacity:1" />
	<polygon
   points="1030.5,1330.4 1014.8,1330.4 1017.6,1317.5 998,1320.2 987.6,1363.3 1007.6,1363.3 1011.5,1345.4 1033.7,1345.4 1037.6,1363.3 1057.7,1363.3 1045.8,1313.6 1027.4,1316.1 "
   id="polygon20"
   style="fill:#ffffff;fill-opacity:1" />
	<polygon
   points="983.5,1322.9 983.5,1282.3 964.3,1282.3 964.3,1325.5 "
   id="polygon21"
   style="fill:#ffffff;fill-opacity:1" />
	<polygon
   points="913,1332.5 932.1,1329.9 932.1,1300.6 941.4,1328.6 957.8,1326.4 943.1,1282.3 913,1282.3 "
   id="polygon22"
   style="fill:#ffffff;fill-opacity:1" />
	<polygon
   points="1050.6,1313.7 1043.1,1282.2 1012,1282.2 1002.8,1320.2 1022.5,1317.5 1027.6,1294.4 1032.3,1316.2 "
   id="polygon23"
   style="fill:#ffffff;fill-opacity:1" />
</g>
</svg>
