<?xml version="1.0" encoding="utf-8"?>
<!-- Generator: Adobe Illustrator 26.3.1, SVG Export Plug-In . SVG Version: 6.00 Build 0)  -->
<svg version="1.1" id="Layer_1" xmlns="http://www.w3.org/2000/svg" xmlns:xlink="http://www.w3.org/1999/xlink" x="0px" y="0px"
	 viewBox="0 0 2000 2000" style="enable-background:new 0 0 2000 2000;" xml:space="preserve">
<style type="text/css">
	.st0{fill:#1D1D1B;}
	.st1{fill:none;}
</style>
<g>
	<g>
		<polygon class="st0" points="811.8,637.5 738.6,699.6 830.8,808.2 917.8,762.3 		"/>
		<polygon class="st0" points="1226.6,697.4 1153.4,635.3 1072,731.1 1120.3,822.5 		"/>
		<polygon class="st0" points="745,1068.6 818.2,1130.7 899.5,1034.9 851.2,943.4 		"/>
		<polygon class="st0" points="1050.4,1002.6 1156.4,1127.4 1229.6,1065.3 1137.4,956.7 		"/>
		<polygon class="st0" points="1045.6,885.9 1114,805.3 1065.7,713.9 982.6,811.7 924.1,742.9 837.2,788.8 919.7,885.9 851.2,966.4 
			899.5,1057.9 982.6,960 1041.1,1028.9 1128.1,983 		"/>
	</g>
	<path d="M826.8,1269.7c-4.4,0-8.5-0.5-12.2-1.6c-3.7-1.1-7-2.7-9.7-4.8c-2.7-2.2-4.8-4.8-6.4-8c-1.5-3.2-2.3-6.8-2.3-11v-3.1h19.6
		v2.6c0,3.3,0.9,5.9,2.8,7.7c1.9,1.8,4.7,2.8,8.4,2.8c3.7,0,6.6-0.6,8.6-1.7c2-1.1,3-3,3-5.7c0-1.3-0.5-2.6-1.5-3.8
		c-1-1.2-2.4-2.3-4.1-3.4c-1.8-1-3.8-2-6.2-3c-2.3-1-4.8-1.8-7.5-2.6c-3-1-5.9-2.1-8.6-3.5c-2.7-1.4-5.1-3-7.2-5c-2.1-2-3.8-4.3-5-7
		c-1.2-2.7-1.9-5.9-1.9-9.5c0-3.7,0.8-6.9,2.3-9.8c1.5-2.9,3.6-5.3,6.3-7.3c2.7-2,5.8-3.5,9.5-4.6c3.7-1.1,7.6-1.6,11.9-1.6
		c4.3,0,8.3,0.5,12,1.5c3.7,1,6.9,2.6,9.6,4.6c2.7,2.1,4.8,4.6,6.4,7.6c1.5,3,2.3,6.5,2.3,10.4v3h-19.6v-2.1c0-2.9-0.8-5.3-2.5-7.1
		c-1.6-1.8-4.3-2.7-8.1-2.7c-3.7,0-6.6,0.7-8.5,2c-1.9,1.3-2.9,3.3-2.9,5.9c0,1.5,0.4,2.8,1.3,3.8c0.9,1.1,2.1,2.1,3.7,3
		c1.6,0.9,3.5,1.8,5.7,2.6c2.2,0.8,4.6,1.7,7.1,2.6c3.7,1.2,7,2.6,10,4c3,1.4,5.5,3.1,7.6,5.1c2.1,1.9,3.8,4.2,5,6.8
		c1.2,2.6,1.8,5.7,1.8,9.3c0,3.7-0.8,7.1-2.3,10c-1.5,2.9-3.6,5.3-6.3,7.3c-2.7,2-6,3.5-9.8,4.5
		C835.5,1269.2,831.4,1269.7,826.8,1269.7z"/>
	<path d="M913.2,1220.2v14.9H888v18.4h31.2v14.8h-50.9v-81.1h50.9v14.9H888v18.1H913.2z"/>
	<path d="M1011.2,1268.3v-81.1h34.4c8.9,0,15.5,2,19.7,5.9c4.3,3.9,6.4,9.6,6.4,16.9c0,4.2-0.8,7.7-2.4,10.7
		c-1.6,2.9-3.5,5.2-5.9,6.8c-2.3,1.5-4.6,2.4-6.7,2.6c2.1,0.2,4.3,0.8,6.4,1.7c2.1,1,3.7,2.5,4.9,4.7c1.2,2.2,1.9,5,1.9,8.6v14.4
		c0,1.9,0.1,3.7,0.4,5.3c0.3,1.6,0.7,2.8,1.3,3.5h-19.6c-0.5-0.8-0.9-2-1.3-3.6c-0.3-1.6-0.5-3.3-0.5-5.2v-12.2
		c0-3.1-0.7-5.5-2.1-7.2c-1.4-1.7-3.8-2.5-7.4-2.5h-10.7v30.7H1011.2z M1041.2,1222.8c3,0,5.5-1,7.5-2.9c2-1.9,3-4.6,3-8
		c0-2.9-1-5.3-2.9-7.2c-1.9-1.8-4.5-2.8-7.8-2.8h-10.7v20.8H1041.2z"/>
	<path d="M1127.7,1220.2v14.9h-25.2v18.4h31.2v14.8h-50.9v-81.1h50.9v14.9h-31.2v18.1H1127.7z"/>
	<path d="M1202,1202.1h-19.5v66.2H1163v-66.2h-19.4v-14.9h58.4V1202.1z"/>
	<path d="M786.3,1282.2h33.1v81.1h-18.7V1295l-13.9,68.3h-25.3l-14.2-68.4v68.4h-18.6v-81.1h33.1l12.1,68L786.3,1282.2z"/>
	<path d="M829,1363.3l19.5-81.2h31.1l19.5,81.2h-20.1l-3.9-17.9h-22.2l-3.8,17.9H829z M856.2,1330.4h15.7l-7.8-36.1L856.2,1330.4z"
		/>
	<path d="M1099.8,1364.7c-4.9,0-9.5-0.9-13.8-2.7c-4.3-1.8-8-4.5-11.2-8c-3.2-3.5-5.7-7.9-7.5-13c-1.8-5.2-2.8-11.2-2.8-18
		c0-6.8,1-12.9,2.9-18.1c1.9-5.2,4.6-9.6,8-13.2c3.4-3.6,7.4-6.3,11.9-8.1c4.6-1.8,9.5-2.8,14.7-2.8c5.9,0,10.8,1,14.9,2.9
		c4.1,1.9,7.4,4.3,10,7c2.6,2.8,4.4,5.8,5.6,9c1.1,3.2,1.7,6.2,1.7,8.8v0.7h-19v-0.7c0-1.5-0.3-3-0.9-4.5c-0.6-1.5-1.4-2.8-2.6-4
		c-1.1-1.2-2.5-2.1-4.1-2.8c-1.6-0.7-3.4-1-5.5-1c-2.1,0-4.2,0.4-6.3,1.3s-4,2.3-5.7,4.4c-1.7,2.1-3,4.8-4.1,8.2
		c-1,3.4-1.5,7.7-1.5,12.8c0,5.1,0.5,9.4,1.5,12.8c1,3.4,2.3,6.1,4,8.1c1.7,2,3.5,3.4,5.6,4.2c2.1,0.8,4.1,1.2,6.3,1.2
		c2.2,0,4.2-0.3,5.9-0.9c1.7-0.6,3.2-1.3,4.5-2.3c1.2-0.9,2.2-1.9,3-3.1c0.7-1.1,1.2-2.2,1.4-3.2v-4.2h-14.7v-13.9h32.1v41.5h-9.7
		l-1.9-8.9c-0.2,0.8-0.8,1.8-1.8,3c-1,1.2-2.3,2.3-4.1,3.4c-1.8,1.1-4.1,2-6.8,2.8C1106.8,1364.4,1103.6,1364.7,1099.8,1364.7z"/>
	<path d="M1191.8,1315.2v14.9h-25.2v18.4h31.2v14.8h-50.9v-81.1h50.9v14.9h-31.2v18.1H1191.8z"/>
	<path d="M1210.6,1363.3v-81.1h34.4c8.9,0,15.5,2,19.7,5.9c4.3,3.9,6.4,9.6,6.4,16.9c0,4.2-0.8,7.7-2.4,10.7
		c-1.6,2.9-3.5,5.2-5.9,6.8c-2.3,1.5-4.6,2.4-6.7,2.6c2.1,0.2,4.3,0.8,6.4,1.7c2.1,1,3.7,2.5,5,4.7c1.2,2.2,1.9,5,1.9,8.6v14.4
		c0,1.9,0.1,3.7,0.4,5.3c0.3,1.6,0.7,2.8,1.3,3.5h-19.6c-0.5-0.8-0.9-2-1.3-3.6c-0.3-1.6-0.5-3.3-0.5-5.2v-12.2
		c0-3.1-0.7-5.5-2.1-7.2c-1.4-1.7-3.8-2.5-7.4-2.5h-10.7v30.7H1210.6z M1240.6,1317.8c3,0,5.5-1,7.5-2.9c2-1.9,3-4.6,3-8
		c0-2.9-1-5.3-2.9-7.2c-1.9-1.8-4.5-2.8-7.8-2.8h-10.7v20.8H1240.6z"/>
	<path d="M932.2,1244.7c1.7,5.1,4.1,9.6,7.2,13.3c3.2,3.7,7,6.6,11.6,8.7c4.5,2.1,9.7,3.1,15.5,3.1c5.8,0,10.8-1,15.1-2.9
		c4.3-1.9,7.8-4.4,10.6-7.5c2.8-3,4.9-6.4,6.3-10.2c1.4-3.7,2.1-7.4,2.1-11h-19.7c0,2.2-0.3,4.3-1,6.2c-0.7,1.9-1.6,3.7-2.8,5.2
		c-1.2,1.5-2.7,2.7-4.5,3.5c-1.8,0.8-3.8,1.3-6.1,1.3c-2.3,0-4.5-0.5-6.6-1.5c-2.1-1-3.8-2.6-5.3-4.8c-1.5-2.2-2.7-5-3.6-8.3
		c-0.6-2.2-1-4.7-1.2-7.5l-19.6,3.4C930.7,1238.7,931.3,1241.8,932.2,1244.7z"/>
	<path d="M956.1,1215.9c0.9-3.3,2.1-6.1,3.6-8.2c1.5-2.2,3.3-3.8,5.3-4.8c2.1-1,4.3-1.5,6.6-1.5c4.1,0,7.4,1.2,9.7,3.6
		c2.4,2.4,3.9,5.5,4.5,9.2c0.1,0.5,0.1,1,0.2,1.5c0,0.5,0.1,1.1,0.1,1.7h19.7c0-2.5-0.3-5.1-1-7.7c-0.8-3-2.1-5.9-3.8-8.8
		c-1.7-2.9-3.9-5.4-6.7-7.6c-2.7-2.2-6-4-9.7-5.3c-3.8-1.4-8.1-2-12.9-2c-5.8,0-11,1-15.5,3.1c-4.5,2.1-8.4,4.9-11.6,8.6
		c-3.2,3.7-5.6,8.1-7.2,13.2c-1.6,5.1-2.5,10.7-2.5,16.9c0,2.7,0.2,5.3,0.5,7.8l19.6-3.4c-0.1-1.4-0.2-2.9-0.2-4.4
		C954.7,1223.2,955.2,1219.2,956.1,1215.9z"/>
	<polygon class="st1" points="1014.8,1330.4 1030.5,1330.4 1027.4,1316.1 1017.6,1317.5 	"/>
	<polygon class="st1" points="959.5,1325.4 952.9,1326.3 959.5,1346 	"/>
	<polygon points="959.5,1346 952.9,1326.3 936.6,1328.6 948.1,1363.3 978.6,1363.3 978.6,1322.8 959.5,1325.4 	"/>
	<polygon points="908.1,1363.3 927.2,1363.3 927.2,1329.9 908.1,1332.5 	"/>
	<polygon points="1045.8,1313.6 1027.4,1316.1 1030.5,1330.4 1014.8,1330.4 1017.6,1317.5 998,1320.2 987.6,1363.3 1007.6,1363.3 
		1011.5,1345.4 1033.7,1345.4 1037.6,1363.3 1057.7,1363.3 	"/>
	<polygon points="964.3,1282.3 964.3,1325.5 983.5,1322.9 983.5,1282.3 	"/>
	<polygon points="943.1,1282.3 913,1282.3 913,1332.5 932.1,1329.9 932.1,1300.6 941.4,1328.6 957.8,1326.4 	"/>
	<polygon points="1027.6,1294.4 1032.3,1316.2 1050.6,1313.7 1043.1,1282.2 1012,1282.2 1002.8,1320.2 1022.5,1317.5 	"/>
</g>
</svg>
