<?xml version="1.0" encoding="utf-8"?>
<!-- Generator: Adobe Illustrator 26.3.1, SVG Export Plug-In . SVG Version: 6.00 Build 0)  -->
<svg version="1.1" id="Layer_1" xmlns="http://www.w3.org/2000/svg" xmlns:xlink="http://www.w3.org/1999/xlink" x="0px" y="0px"
	 viewBox="0 0 2000 2000" style="enable-background:new 0 0 2000 2000;" xml:space="preserve">
<style type="text/css">
	.st0{fill:#1D1D1B;}
</style>
<g>
	<g>
		<g>
			<rect x="930" y="780" class="st0" width="142.8" height="71.4"/>
			<rect x="930" y="991.2" class="st0" width="142.8" height="71.4"/>
			
				<rect x="1037.1" y="884.1" transform="matrix(-1.836970e-16 1 -1 -1.836970e-16 2028.3539 -188.707)" class="st0" width="142.8" height="71.4"/>
			
				<rect x="822.9" y="884.1" transform="matrix(-1.836970e-16 1 -1 -1.836970e-16 1814.1157 25.531)" class="st0" width="142.8" height="71.4"/>
		</g>
		<rect x="787.2" y="1062.6" class="st0" width="71.4" height="71.4"/>
		<rect x="858.6" y="1062.6" class="st0" width="71.4" height="71.4"/>
		<rect x="787.2" y="994.1" class="st0" width="71.4" height="71.4"/>
		
			<rect x="1141.4" y="1064.1" transform="matrix(6.123234e-17 -1 1 6.123234e-17 77.3538 2276.887)" class="st0" width="71.4" height="71.4"/>
		
			<rect x="1141.4" y="992.6" transform="matrix(6.123234e-17 -1 1 6.123234e-17 148.7665 2205.4741)" class="st0" width="71.4" height="71.4"/>
		
			<rect x="1072.8" y="1064.1" transform="matrix(6.123234e-17 -1 1 6.123234e-17 8.7639 2208.2971)" class="st0" width="71.4" height="71.4"/>
		
			<rect x="1141.4" y="711" transform="matrix(-1 -1.224647e-16 1.224647e-16 -1 2354.2407 1493.4943)" class="st0" width="71.4" height="71.4"/>
		
			<rect x="1070" y="711" transform="matrix(-1 -1.224647e-16 1.224647e-16 -1 2211.4153 1493.4943)" class="st0" width="71.4" height="71.4"/>
		
			<rect x="1141.4" y="779.6" transform="matrix(-1 -1.224647e-16 1.224647e-16 -1 2354.2407 1630.674)" class="st0" width="71.4" height="71.4"/>
		
			<rect x="787.2" y="709.6" transform="matrix(-1.836970e-16 1 -1 -1.836970e-16 1568.2153 -77.544)" class="st0" width="71.4" height="71.4"/>
		
			<rect x="787.2" y="781" transform="matrix(-1.836970e-16 1 -1 -1.836970e-16 1639.6281 -6.1313)" class="st0" width="71.4" height="71.4"/>
		
			<rect x="855.8" y="709.6" transform="matrix(-1.836970e-16 1 -1 -1.836970e-16 1636.8053 -146.1338)" class="st0" width="71.4" height="71.4"/>
	</g>
	<rect x="969.3" y="881.5" class="st0" width="71.4" height="71.4"/>
</g>
<g>
	<path d="M956.7,1290.4c-4.2,0-8-0.5-11.6-1.5c-3.5-1-6.6-2.5-9.2-4.6c-2.6-2-4.6-4.6-6-7.6c-1.5-3-2.2-6.5-2.2-10.4v-2.9h18.6v2.5
		c0,3.1,0.9,5.6,2.7,7.3c1.8,1.7,4.4,2.6,8,2.6c3.5,0,6.3-0.5,8.2-1.6c1.9-1.1,2.9-2.9,2.9-5.4c0-1.3-0.5-2.5-1.4-3.6
		c-0.9-1.1-2.2-2.2-3.9-3.2c-1.7-1-3.6-1.9-5.8-2.8c-2.2-0.9-4.6-1.7-7.1-2.5c-2.9-0.9-5.6-2-8.1-3.3c-2.6-1.3-4.8-2.9-6.8-4.7
		c-2-1.9-3.6-4.1-4.7-6.7c-1.2-2.6-1.8-5.6-1.8-9c0-3.5,0.7-6.6,2.2-9.3c1.5-2.7,3.5-5.1,6-6.9c2.5-1.9,5.5-3.3,9-4.3
		c3.5-1,7.2-1.5,11.3-1.5c4.1,0,7.9,0.5,11.4,1.5c3.5,1,6.5,2.4,9.1,4.4c2.6,1.9,4.6,4.3,6,7.2c1.5,2.8,2.2,6.2,2.2,9.9v2.8h-18.6
		v-2c0-2.8-0.8-5-2.3-6.7c-1.6-1.7-4.1-2.6-7.7-2.6c-3.5,0-6.2,0.6-8.1,1.9c-1.8,1.3-2.8,3.1-2.8,5.6c0,1.4,0.4,2.6,1.3,3.6
		c0.8,1,2,2,3.5,2.9c1.5,0.9,3.3,1.7,5.4,2.5c2.1,0.8,4.3,1.6,6.8,2.4c3.5,1.2,6.6,2.5,9.4,3.8c2.8,1.4,5.2,3,7.2,4.8
		c2,1.8,3.6,4,4.7,6.5c1.1,2.5,1.7,5.4,1.7,8.8c0,3.5-0.7,6.7-2.1,9.4c-1.4,2.7-3.4,5.1-6,6.9c-2.6,1.9-5.7,3.3-9.3,4.3
		C965,1289.9,961,1290.4,956.7,1290.4z"/>
	<path d="M1027.8,1289l18.5-76.9h29.5l18.5,76.9h-19.1l-3.6-17h-21.1l-3.6,17H1027.8z M1053.6,1257.8h14.9l-7.4-34.2L1053.6,1257.8z
		"/>
	<polygon points="998.5,1289 1016.9,1289 1016.9,1246.8 998.5,1253.3 	"/>
	<polygon points="1003.6,1212.2 1003.6,1253.3 1021.9,1246.8 1021.9,1212.2 	"/>
</g>
</svg>
