<?xml version="1.0" encoding="UTF-8" standalone="no"?>
<!-- Generator: Adobe Illustrator 26.3.1, SVG Export Plug-In . SVG Version: 6.00 Build 0)  -->

<svg
   version="1.1"
   id="Layer_1"
   x="0px"
   y="0px"
   viewBox="0 0 425.65378 580.74396"
   xml:space="preserve"
   sodipodi:docname="sia.svg"
   width="425.65378"
   height="580.74396"
   inkscape:version="1.3.2 (091e20e, 2023-11-25)"
   xmlns:inkscape="http://www.inkscape.org/namespaces/inkscape"
   xmlns:sodipodi="http://sodipodi.sourceforge.net/DTD/sodipodi-0.dtd"
   xmlns="http://www.w3.org/2000/svg"
   xmlns:svg="http://www.w3.org/2000/svg"><defs
   id="defs19" /><sodipodi:namedview
   id="namedview19"
   pagecolor="#ffffff"
   bordercolor="#000000"
   borderopacity="0.25"
   inkscape:showpageshadow="2"
   inkscape:pageopacity="0.0"
   inkscape:pagecheckerboard="0"
   inkscape:deskcolor="#d1d1d1"
   inkscape:zoom="0.21804244"
   inkscape:cx="456.33319"
   inkscape:cy="536.5928"
   inkscape:window-width="1728"
   inkscape:window-height="1051"
   inkscape:window-x="0"
   inkscape:window-y="38"
   inkscape:window-maximized="1"
   inkscape:current-layer="Layer_1" />
<style
   type="text/css"
   id="style1">
	.st0{fill:#1D1D1B;}
</style>
<g
   id="g17"
   transform="translate(-787.20001,-709.65601)"
   style="fill:#ffffff;fill-opacity:1">
	<g
   id="g16"
   style="fill:#ffffff;fill-opacity:1">
		<g
   id="g4"
   style="fill:#ffffff;fill-opacity:1">
			<rect
   x="930"
   y="780"
   class="st0"
   width="142.8"
   height="71.400002"
   id="rect1"
   style="fill:#ffffff;fill-opacity:1" />
			<rect
   x="930"
   y="991.20001"
   class="st0"
   width="142.8"
   height="71.400002"
   id="rect2"
   style="fill:#ffffff;fill-opacity:1" />
			
				<rect
   x="1037.1"
   y="884.09998"
   transform="rotate(90,1108.5305,919.82345)"
   class="st0"
   width="142.8"
   height="71.400002"
   id="rect3"
   style="fill:#ffffff;fill-opacity:1" />
			
				<rect
   x="822.90002"
   y="884.09998"
   transform="rotate(90,894.29235,919.82335)"
   class="st0"
   width="142.8"
   height="71.400002"
   id="rect4"
   style="fill:#ffffff;fill-opacity:1" />
		</g>
		<rect
   x="787.20001"
   y="1062.6"
   class="st0"
   width="71.400002"
   height="71.400002"
   id="rect5"
   style="fill:#ffffff;fill-opacity:1" />
		<rect
   x="858.59998"
   y="1062.6"
   class="st0"
   width="71.400002"
   height="71.400002"
   id="rect6"
   style="fill:#ffffff;fill-opacity:1" />
		<rect
   x="787.20001"
   y="994.09998"
   class="st0"
   width="71.400002"
   height="71.400002"
   id="rect7"
   style="fill:#ffffff;fill-opacity:1" />
		
			<rect
   x="1141.4"
   y="1064.1"
   transform="rotate(-90,1177.1204,1099.7666)"
   class="st0"
   width="71.400002"
   height="71.400002"
   id="rect8"
   style="fill:#ffffff;fill-opacity:1" />
		
			<rect
   x="1141.4"
   y="992.59998"
   transform="rotate(-90,1177.1203,1028.3538)"
   class="st0"
   width="71.400002"
   height="71.400002"
   id="rect9"
   style="fill:#ffffff;fill-opacity:1" />
		
			<rect
   x="1072.8"
   y="1064.1"
   transform="rotate(-90,1108.5305,1099.7666)"
   class="st0"
   width="71.400002"
   height="71.400002"
   id="rect10"
   style="fill:#ffffff;fill-opacity:1" />
		
			<rect
   x="1141.4"
   y="711"
   transform="rotate(180,1177.1204,746.74715)"
   class="st0"
   width="71.400002"
   height="71.400002"
   id="rect11"
   style="fill:#ffffff;fill-opacity:1" />
		
			<rect
   x="1070"
   y="711"
   transform="rotate(180,1105.7077,746.74715)"
   class="st0"
   width="71.400002"
   height="71.400002"
   id="rect12"
   style="fill:#ffffff;fill-opacity:1" />
		
			<rect
   x="1141.4"
   y="779.59998"
   transform="rotate(180,1177.1204,815.337)"
   class="st0"
   width="71.400002"
   height="71.400002"
   id="rect13"
   style="fill:#ffffff;fill-opacity:1" />
		
			<rect
   x="787.20001"
   y="709.59998"
   transform="rotate(90,822.87965,745.33565)"
   class="st0"
   width="71.400002"
   height="71.400002"
   id="rect14"
   style="fill:#ffffff;fill-opacity:1" />
		
			<rect
   x="787.20001"
   y="781"
   transform="rotate(90,822.8797,816.7484)"
   class="st0"
   width="71.400002"
   height="71.400002"
   id="rect15"
   style="fill:#ffffff;fill-opacity:1" />
		
			<rect
   x="855.79999"
   y="709.59998"
   transform="rotate(90,891.46955,745.33575)"
   class="st0"
   width="71.400002"
   height="71.400002"
   id="rect16"
   style="fill:#ffffff;fill-opacity:1" />
	</g>
	<rect
   x="969.29999"
   y="881.5"
   class="st0"
   width="71.400002"
   height="71.400002"
   id="rect17"
   style="fill:#ffffff;fill-opacity:1" />
</g>
<g
   id="g19"
   transform="translate(-787.20001,-709.65601)"
   style="fill:#ffffff;fill-opacity:1">
	<path
   d="m 956.7,1290.4 c -4.2,0 -8,-0.5 -11.6,-1.5 -3.5,-1 -6.6,-2.5 -9.2,-4.6 -2.6,-2 -4.6,-4.6 -6,-7.6 -1.5,-3 -2.2,-6.5 -2.2,-10.4 v -2.9 h 18.6 v 2.5 c 0,3.1 0.9,5.6 2.7,7.3 1.8,1.7 4.4,2.6 8,2.6 3.5,0 6.3,-0.5 8.2,-1.6 1.9,-1.1 2.9,-2.9 2.9,-5.4 0,-1.3 -0.5,-2.5 -1.4,-3.6 -0.9,-1.1 -2.2,-2.2 -3.9,-3.2 -1.7,-1 -3.6,-1.9 -5.8,-2.8 -2.2,-0.9 -4.6,-1.7 -7.1,-2.5 -2.9,-0.9 -5.6,-2 -8.1,-3.3 -2.6,-1.3 -4.8,-2.9 -6.8,-4.7 -2,-1.9 -3.6,-4.1 -4.7,-6.7 -1.2,-2.6 -1.8,-5.6 -1.8,-9 0,-3.5 0.7,-6.6 2.2,-9.3 1.5,-2.7 3.5,-5.1 6,-6.9 2.5,-1.9 5.5,-3.3 9,-4.3 3.5,-1 7.2,-1.5 11.3,-1.5 4.1,0 7.9,0.5 11.4,1.5 3.5,1 6.5,2.4 9.1,4.4 2.6,1.9 4.6,4.3 6,7.2 1.5,2.8 2.2,6.2 2.2,9.9 v 2.8 h -18.6 v -2 c 0,-2.8 -0.8,-5 -2.3,-6.7 -1.6,-1.7 -4.1,-2.6 -7.7,-2.6 -3.5,0 -6.2,0.6 -8.1,1.9 -1.8,1.3 -2.8,3.1 -2.8,5.6 0,1.4 0.4,2.6 1.3,3.6 0.8,1 2,2 3.5,2.9 1.5,0.9 3.3,1.7 5.4,2.5 2.1,0.8 4.3,1.6 6.8,2.4 3.5,1.2 6.6,2.5 9.4,3.8 2.8,1.4 5.2,3 7.2,4.8 2,1.8 3.6,4 4.7,6.5 1.1,2.5 1.7,5.4 1.7,8.8 0,3.5 -0.7,6.7 -2.1,9.4 -1.4,2.7 -3.4,5.1 -6,6.9 -2.6,1.9 -5.7,3.3 -9.3,4.3 -3.8,1 -7.8,1.5 -12.1,1.5 z"
   id="path17"
   style="fill:#ffffff;fill-opacity:1" />
	<path
   d="m 1027.8,1289 18.5,-76.9 h 29.5 l 18.5,76.9 h -19.1 l -3.6,-17 h -21.1 l -3.6,17 z m 25.8,-31.2 h 14.9 l -7.4,-34.2 z"
   id="path18"
   style="fill:#ffffff;fill-opacity:1" />
	<polygon
   points="1016.9,1246.8 998.5,1253.3 998.5,1289 1016.9,1289 "
   id="polygon18"
   style="fill:#ffffff;fill-opacity:1" />
	<polygon
   points="1021.9,1246.8 1021.9,1212.2 1003.6,1212.2 1003.6,1253.3 "
   id="polygon19"
   style="fill:#ffffff;fill-opacity:1" />
</g>
</svg>
