<?xml version="1.0" encoding="UTF-8" standalone="no"?>
<!-- Generator: Adobe Illustrator 26.3.1, SVG Export Plug-In . SVG Version: 6.00 Build 0)  -->

<svg
   version="1.1"
   id="Layer_1"
   x="0px"
   y="0px"
   viewBox="0 0 432.80002 582.1059"
   xml:space="preserve"
   sodipodi:docname="tachyon.svg"
   width="432.80002"
   height="582.1059"
   inkscape:version="1.3.2 (091e20e, 2023-11-25)"
   xmlns:inkscape="http://www.inkscape.org/namespaces/inkscape"
   xmlns:sodipodi="http://sodipodi.sourceforge.net/DTD/sodipodi-0.dtd"
   xmlns="http://www.w3.org/2000/svg"
   xmlns:svg="http://www.w3.org/2000/svg"><defs
   id="defs54" /><sodipodi:namedview
   id="namedview54"
   pagecolor="#ffffff"
   bordercolor="#000000"
   borderopacity="0.25"
   inkscape:showpageshadow="2"
   inkscape:pageopacity="0.0"
   inkscape:pagecheckerboard="0"
   inkscape:deskcolor="#d1d1d1"
   inkscape:zoom="0.62768124"
   inkscape:cx="173.65502"
   inkscape:cy="101.96258"
   inkscape:window-width="1728"
   inkscape:window-height="1051"
   inkscape:window-x="0"
   inkscape:window-y="39"
   inkscape:window-maximized="0"
   inkscape:current-layer="Layer_1" />
<style
   type="text/css"
   id="style1">
	.st0{display:none;}
	.st1{display:inline;}
	.st2{fill:#1D1D1B;}
	.st3{display:inline;fill:#1D1D1B;}
	.st4{fill:none;}
</style>
<g
   class="st0"
   id="g26"
   transform="translate(-735.29999,-763.19412)">
	<g
   class="st1"
   id="g5">
		<rect
   x="904.79999"
   y="786.20001"
   class="st2"
   width="57.5"
   height="57.5"
   id="rect1" />
		<rect
   x="829.09998"
   y="786.20001"
   class="st2"
   width="57.5"
   height="57.5"
   id="rect2" />
		<rect
   x="755.09998"
   y="786.20001"
   class="st2"
   width="57.5"
   height="57.5"
   id="rect3" />
		<rect
   x="683.09998"
   y="786.20001"
   class="st2"
   width="57.5"
   height="57.5"
   id="rect4" />
		<rect
   x="987.90002"
   y="786.20001"
   class="st2"
   width="306"
   height="57.5"
   id="rect5" />
	</g>
	<g
   class="st1"
   id="g10">
		<rect
   x="904.79999"
   y="874.29999"
   class="st2"
   width="57.5"
   height="57.5"
   id="rect6" />
		<rect
   x="768.90002"
   y="874.29999"
   class="st2"
   width="117.7"
   height="57.5"
   id="rect7" />
		<rect
   x="755.09998"
   y="874.29999"
   class="st2"
   width="57.5"
   height="57.5"
   id="rect8" />
		<rect
   x="683.09998"
   y="874.29999"
   class="st2"
   width="57.5"
   height="57.5"
   id="rect9" />
		<rect
   x="987.90002"
   y="874.29999"
   class="st2"
   width="306"
   height="57.5"
   id="rect10" />
	</g>
	<g
   class="st1"
   id="g15">
		<rect
   x="1236.5"
   y="955.59998"
   class="st2"
   width="57.5"
   height="57.5"
   id="rect11" />
		<rect
   x="829.09998"
   y="955.59998"
   class="st2"
   width="57.5"
   height="57.5"
   id="rect12" />
		<rect
   x="755.09998"
   y="955.59998"
   class="st2"
   width="57.5"
   height="57.5"
   id="rect13" />
		<rect
   x="683.09998"
   y="955.59998"
   class="st2"
   width="57.5"
   height="57.5"
   id="rect14" />
		<rect
   x="906.79999"
   y="955.59998"
   class="st2"
   width="306"
   height="57.5"
   id="rect15" />
	</g>
	<g
   class="st1"
   id="g19">
		<rect
   x="683.09998"
   y="1037"
   class="st2"
   width="57.5"
   height="57.5"
   id="rect16" />
		<rect
   x="1233.9"
   y="1037"
   class="st2"
   width="57.5"
   height="57.5"
   id="rect17" />
		<rect
   x="1161.9"
   y="1037"
   class="st2"
   width="57.5"
   height="57.5"
   id="rect18" />
		<rect
   x="758.70001"
   y="1037"
   class="st2"
   width="382.29999"
   height="57.5"
   id="rect19" />
	</g>
	<g
   class="st1"
   id="g25">
		<rect
   x="978.5"
   y="1118.3"
   class="st2"
   width="158.60001"
   height="57.5"
   id="rect20" />
		<rect
   x="976.90002"
   y="1118.3"
   class="st2"
   width="57.5"
   height="57.5"
   id="rect21" />
		<rect
   x="904.90002"
   y="1118.3"
   class="st2"
   width="57.5"
   height="57.5"
   id="rect22" />
		<rect
   x="1233.9"
   y="1118.3"
   class="st2"
   width="57.5"
   height="57.5"
   id="rect23" />
		<rect
   x="1161.9"
   y="1118.3"
   class="st2"
   width="57.5"
   height="57.5"
   id="rect24" />
		<rect
   x="684.09998"
   y="1118.3"
   class="st2"
   width="202.5"
   height="57.5"
   id="rect25" />
	</g>
</g>
<g
   class="st0"
   id="g31"
   transform="translate(-735.29999,-763.19412)">
	<rect
   x="734.40002"
   y="889.70001"
   class="st3"
   width="302.89999"
   height="73.5"
   id="rect26" />
	<rect
   x="660.79999"
   y="963.20001"
   class="st3"
   width="73.5"
   height="73.5"
   id="rect27" />
	<rect
   x="734.40002"
   y="1036.8"
   class="st3"
   width="302.89999"
   height="73.5"
   id="rect28" />
	<rect
   x="1036.2"
   y="974.40002"
   class="st3"
   width="302.89999"
   height="73.5"
   id="rect29" />
	<rect
   x="660.79999"
   y="1110.3"
   class="st3"
   width="73.5"
   height="73.5"
   id="rect30" />
	<rect
   x="660.79999"
   y="816.20001"
   class="st3"
   width="73.5"
   height="73.5"
   id="rect31" />
</g>
<g
   id="g35"
   transform="translate(-735.29999,-763.19412)"
   style="fill:#ffffff;fill-opacity:1">
	<rect
   x="735.29999"
   y="943.40002"
   class="st2"
   width="72.099998"
   height="72.099998"
   id="rect32"
   style="fill:#ffffff;fill-opacity:1" />
	<rect
   x="1095.6"
   y="943.40002"
   class="st2"
   width="72.099998"
   height="72.099998"
   id="rect33"
   style="fill:#ffffff;fill-opacity:1" />
	
		<rect
   x="915.40002"
   y="763.20001"
   transform="rotate(90,951.47065,799.26475)"
   class="st2"
   width="72.099998"
   height="72.099998"
   id="rect34"
   style="fill:#ffffff;fill-opacity:1" />
	
		<rect
   x="915.40002"
   y="1123.5"
   transform="rotate(90,951.47055,1159.5588)"
   class="st2"
   width="72.099998"
   height="72.099998"
   id="rect35"
   style="fill:#ffffff;fill-opacity:1" />
</g>
<g
   id="g47"
   transform="translate(-735.29999,-763.19412)"
   style="fill:#ffffff;fill-opacity:1">
	<rect
   x="843.40002"
   y="943.40002"
   class="st2"
   width="72.099998"
   height="72.099998"
   id="rect36"
   style="fill:#ffffff;fill-opacity:1" />
	<rect
   x="915.40002"
   y="871.29999"
   class="st2"
   width="72.099998"
   height="72.099998"
   id="rect37"
   style="fill:#ffffff;fill-opacity:1" />
	<rect
   x="915.40002"
   y="1015.4"
   class="st2"
   width="72.099998"
   height="72.099998"
   id="rect38"
   style="fill:#ffffff;fill-opacity:1" />
	<rect
   x="987.5"
   y="943.40002"
   class="st2"
   width="72.099998"
   height="72.099998"
   id="rect39"
   style="fill:#ffffff;fill-opacity:1" />
	<rect
   x="807.40002"
   y="835.29999"
   class="st2"
   width="72.099998"
   height="72.099998"
   id="rect40"
   style="fill:#ffffff;fill-opacity:1" />
	<rect
   x="1023.5"
   y="835.29999"
   class="st2"
   width="72.099998"
   height="72.099998"
   id="rect41"
   style="fill:#ffffff;fill-opacity:1" />
	<rect
   x="807.40002"
   y="1051.5"
   class="st2"
   width="72.099998"
   height="72.099998"
   id="rect42"
   style="fill:#ffffff;fill-opacity:1" />
	<rect
   x="1023.5"
   y="1051.5"
   class="st2"
   width="72.099998"
   height="72.099998"
   id="rect43"
   style="fill:#ffffff;fill-opacity:1" />
	<rect
   x="1095.6"
   y="1123.5"
   class="st2"
   width="72.099998"
   height="72.099998"
   id="rect44"
   style="fill:#ffffff;fill-opacity:1" />
	<rect
   x="1095.6"
   y="763.20001"
   class="st2"
   width="72.099998"
   height="72.099998"
   id="rect45"
   style="fill:#ffffff;fill-opacity:1" />
	<rect
   x="735.29999"
   y="1123.5"
   class="st2"
   width="72.099998"
   height="72.099998"
   id="rect46"
   style="fill:#ffffff;fill-opacity:1" />
	<rect
   x="735.29999"
   y="763.20001"
   class="st2"
   width="72.099998"
   height="72.099998"
   id="rect47"
   style="fill:#ffffff;fill-opacity:1" />
</g>
<g
   id="g54"
   transform="translate(-735.29999,-763.19412)"
   style="fill:#ffffff;fill-opacity:1">
	<path
   d="m 790.6,1344.1 15.8,-66 h 25.3 l 15.8,66 h -16.4 l -3.1,-14.6 h -18 l -3.1,14.6 z m 22.1,-26.7 h 12.8 l -6.3,-29.3 z"
   id="path47"
   style="fill:#ffffff;fill-opacity:1" />
	<path
   d="m 910.7,1319.6 c 0,2.9 -0.6,5.9 -1.7,8.9 -1.1,3 -2.8,5.8 -5.1,8.3 -2.3,2.5 -5.1,4.5 -8.6,6.1 -3.5,1.6 -7.6,2.4 -12.3,2.4 -4.7,0 -8.9,-0.8 -12.6,-2.5 -3.7,-1.7 -6.8,-4.1 -9.4,-7.1 -2.6,-3 -4.5,-6.6 -5.9,-10.8 -1.3,-4.2 -2,-8.8 -2,-13.8 0,-5 0.7,-9.6 2,-13.7 1.3,-4.1 3.3,-7.7 5.9,-10.7 2.6,-3 5.7,-5.3 9.4,-7 3.7,-1.7 7.9,-2.5 12.6,-2.5 3.9,0 7.4,0.6 10.5,1.7 3.1,1.1 5.7,2.5 7.9,4.3 2.2,1.8 4,3.8 5.4,6.2 1.4,2.3 2.4,4.7 3.1,7.2 0.5,2.1 0.8,4.2 0.8,6.3 h -16 c 0,-0.5 0,-0.9 0,-1.3 0,-0.4 -0.1,-0.8 -0.1,-1.3 -0.5,-3 -1.7,-5.5 -3.6,-7.5 -1.9,-2 -4.6,-3 -7.9,-3 -1.9,0 -3.7,0.4 -5.4,1.3 -1.7,0.8 -3.1,2.1 -4.3,3.9 -1.2,1.8 -2.2,4 -2.9,6.7 -0.7,2.7 -1.1,5.9 -1.1,9.6 0,3.8 0.4,7 1.1,9.7 0.7,2.7 1.7,5 2.9,6.8 1.2,1.8 2.7,3.1 4.3,3.9 1.7,0.8 3.5,1.3 5.4,1.3 1.8,0 3.5,-0.3 5,-1 1.5,-0.7 2.7,-1.6 3.7,-2.9 1,-1.2 1.7,-2.6 2.3,-4.2 0.5,-1.6 0.8,-3.3 0.8,-5.1 h 15.8 z"
   id="path48"
   style="fill:#ffffff;fill-opacity:1" />
	<path
   d="m 973.3,1278.2 v 65.9 h -16 v -26.7 h -22 v 26.7 h -16 v -65.9 h 16 v 27.1 h 22 v -27.1 z"
   id="path49"
   style="fill:#ffffff;fill-opacity:1" />
	<path
   d="m 1035.1,1278.2 -19.3,43.3 v 22.6 h -15.9 v -22.6 l -19.2,-43.3 h 16.8 l 10.4,27.4 10.4,-27.4 z"
   id="path50"
   style="fill:#ffffff;fill-opacity:1" />
	<path
   d="m 1126.3,1344.1 h -15.6 v -65.9 h 24.5 l 17.3,51.9 v -51.9 h 15.6 v 65.9 h -24.8 l -17,-51.1 z"
   id="path51"
   style="fill:#ffffff;fill-opacity:1" />
	<polygon
   points="769.8,1311.7 753.9,1317.2 753.9,1344.1 769.8,1344.1 "
   id="polygon51"
   style="fill:#ffffff;fill-opacity:1" />
	<polygon
   points="743.2,1277.2 743.2,1289.2 758.9,1289.2 758.9,1316.1 774.8,1310.7 774.8,1289.2 790.6,1289.2 790.6,1277.2 "
   id="polygon52"
   style="fill:#ffffff;fill-opacity:1" />
	
	<path
   d="m 1081.9,1311.1 c 0,4.1 -0.4,7.5 -1.2,10.2 -0.8,2.7 -1.9,5 -3.2,6.7 -1.3,1.7 -2.9,2.9 -4.6,3.6 -1.8,0.7 -3.6,1.1 -5.4,1.1 -1.8,0 -3.7,-0.4 -5.4,-1.1 -1.8,-0.7 -3.3,-1.9 -4.6,-3.6 -1.3,-1.7 -2.4,-3.9 -3.3,-6.7 -0.3,-0.8 -0.5,-1.7 -0.6,-2.7 l -14.2,7.4 c 1.6,4.1 3.8,7.6 6.6,10.5 2.8,2.9 6.1,5.1 9.8,6.6 3.7,1.5 7.7,2.2 11.8,2.2 4.1,0 8,-0.7 11.8,-2.2 3.7,-1.5 7,-3.7 9.8,-6.6 2.8,-2.9 5.1,-6.5 6.7,-10.7 1.6,-4.2 2.5,-9.1 2.5,-14.7 0,-5.5 -0.8,-10.3 -2.4,-14.5 l -14.4,7.5 c 0.1,2.1 0.3,4.4 0.3,7 z"
   id="path53"
   style="fill:#ffffff;fill-opacity:1" />
	<path
   d="m 1094.1,1283.8 c -2.8,-2.9 -6,-5 -9.8,-6.5 -3.8,-1.5 -7.7,-2.2 -11.9,-2.2 -4.2,0 -8.2,0.7 -11.9,2.2 -3.7,1.5 -7,3.6 -9.8,6.5 -2.8,2.9 -5,6.4 -6.6,10.6 -1.6,4.2 -2.4,9.1 -2.4,14.7 0,5.6 0.8,10.4 2.5,14.7 0,0.1 0.1,0.1 0.1,0.2 l 14.2,-7.4 c -0.4,-2.2 -0.6,-4.7 -0.6,-7.5 0,-4.1 0.4,-7.5 1.3,-10.2 0.8,-2.7 1.9,-4.9 3.3,-6.6 1.3,-1.7 2.9,-2.9 4.6,-3.6 1.8,-0.7 3.6,-1.1 5.4,-1.1 1.8,0 3.6,0.4 5.3,1.1 1.8,0.7 3.3,1.9 4.6,3.6 1.3,1.7 2.4,3.9 3.3,6.6 0.3,1 0.5,2 0.7,3.2 l 14.4,-7.5 c 0,-0.1 0,-0.1 -0.1,-0.2 -1.6,-4.1 -3.8,-7.7 -6.6,-10.6 z"
   id="path54"
   style="fill:#ffffff;fill-opacity:1" />
</g>
</svg>
