<?xml version="1.0" encoding="utf-8"?>
<!-- Generator: Adobe Illustrator 26.3.1, SVG Export Plug-In . SVG Version: 6.00 Build 0)  -->
<svg version="1.1" id="Layer_1" xmlns="http://www.w3.org/2000/svg" xmlns:xlink="http://www.w3.org/1999/xlink" x="0px" y="0px"
	 viewBox="0 0 2000 2000" style="enable-background:new 0 0 2000 2000;" xml:space="preserve">
<style type="text/css">
	.st0{display:none;}
	.st1{display:inline;}
	.st2{fill:#1D1D1B;}
	.st3{display:inline;fill:#1D1D1B;}
	.st4{fill:none;}
</style>
<g class="st0">
	<g class="st1">
		<rect x="904.8" y="786.2" class="st2" width="57.5" height="57.5"/>
		<rect x="829.1" y="786.2" class="st2" width="57.5" height="57.5"/>
		<rect x="755.1" y="786.2" class="st2" width="57.5" height="57.5"/>
		<rect x="683.1" y="786.2" class="st2" width="57.5" height="57.5"/>
		<rect x="987.9" y="786.2" class="st2" width="306" height="57.5"/>
	</g>
	<g class="st1">
		<rect x="904.8" y="874.3" class="st2" width="57.5" height="57.5"/>
		<rect x="768.9" y="874.3" class="st2" width="117.7" height="57.5"/>
		<rect x="755.1" y="874.3" class="st2" width="57.5" height="57.5"/>
		<rect x="683.1" y="874.3" class="st2" width="57.5" height="57.5"/>
		<rect x="987.9" y="874.3" class="st2" width="306" height="57.5"/>
	</g>
	<g class="st1">
		<rect x="1236.5" y="955.6" class="st2" width="57.5" height="57.5"/>
		<rect x="829.1" y="955.6" class="st2" width="57.5" height="57.5"/>
		<rect x="755.1" y="955.6" class="st2" width="57.5" height="57.5"/>
		<rect x="683.1" y="955.6" class="st2" width="57.5" height="57.5"/>
		<rect x="906.8" y="955.6" class="st2" width="306" height="57.5"/>
	</g>
	<g class="st1">
		<rect x="683.1" y="1037" class="st2" width="57.5" height="57.5"/>
		<rect x="1233.9" y="1037" class="st2" width="57.5" height="57.5"/>
		<rect x="1161.9" y="1037" class="st2" width="57.5" height="57.5"/>
		<rect x="758.7" y="1037" class="st2" width="382.3" height="57.5"/>
	</g>
	<g class="st1">
		<rect x="978.5" y="1118.3" class="st2" width="158.6" height="57.5"/>
		<rect x="976.9" y="1118.3" class="st2" width="57.5" height="57.5"/>
		<rect x="904.9" y="1118.3" class="st2" width="57.5" height="57.5"/>
		<rect x="1233.9" y="1118.3" class="st2" width="57.5" height="57.5"/>
		<rect x="1161.9" y="1118.3" class="st2" width="57.5" height="57.5"/>
		<rect x="684.1" y="1118.3" class="st2" width="202.5" height="57.5"/>
	</g>
</g>
<g class="st0">
	<rect x="734.4" y="889.7" class="st3" width="302.9" height="73.5"/>
	<rect x="660.8" y="963.2" class="st3" width="73.5" height="73.5"/>
	<rect x="734.4" y="1036.8" class="st3" width="302.9" height="73.5"/>
	<rect x="1036.2" y="974.4" class="st3" width="302.9" height="73.5"/>
	<rect x="660.8" y="1110.3" class="st3" width="73.5" height="73.5"/>
	<rect x="660.8" y="816.2" class="st3" width="73.5" height="73.5"/>
</g>
<g>
	<rect x="735.3" y="943.4" class="st2" width="72.1" height="72.1"/>
	<rect x="1095.6" y="943.4" class="st2" width="72.1" height="72.1"/>
	
		<rect x="915.4" y="763.2" transform="matrix(-1.836970e-16 1 -1 -1.836970e-16 1750.7354 -152.2059)" class="st2" width="72.1" height="72.1"/>
	
		<rect x="915.4" y="1123.5" transform="matrix(-1.836970e-16 1 -1 -1.836970e-16 2111.0293 208.0882)" class="st2" width="72.1" height="72.1"/>
</g>
<g>
	<rect x="843.4" y="943.4" class="st2" width="72.1" height="72.1"/>
	<rect x="915.4" y="871.3" class="st2" width="72.1" height="72.1"/>
	<rect x="915.4" y="1015.4" class="st2" width="72.1" height="72.1"/>
	<rect x="987.5" y="943.4" class="st2" width="72.1" height="72.1"/>
	<rect x="807.4" y="835.3" class="st2" width="72.1" height="72.1"/>
	<rect x="1023.5" y="835.3" class="st2" width="72.1" height="72.1"/>
	<rect x="807.4" y="1051.5" class="st2" width="72.1" height="72.1"/>
	<rect x="1023.5" y="1051.5" class="st2" width="72.1" height="72.1"/>
	<rect x="1095.6" y="1123.5" class="st2" width="72.1" height="72.1"/>
	<rect x="1095.6" y="763.2" class="st2" width="72.1" height="72.1"/>
	<rect x="735.3" y="1123.5" class="st2" width="72.1" height="72.1"/>
	<rect x="735.3" y="763.2" class="st2" width="72.1" height="72.1"/>
</g>
<g>
	<path d="M790.6,1344.1l15.8-66h25.3l15.8,66h-16.4l-3.1-14.6H810l-3.1,14.6H790.6z M812.7,1317.4h12.8l-6.3-29.3L812.7,1317.4z"/>
	<path d="M910.7,1319.6c0,2.9-0.6,5.9-1.7,8.9c-1.1,3-2.8,5.8-5.1,8.3c-2.3,2.5-5.1,4.5-8.6,6.1c-3.5,1.6-7.6,2.4-12.3,2.4
		c-4.7,0-8.9-0.8-12.6-2.5c-3.7-1.7-6.8-4.1-9.4-7.1c-2.6-3-4.5-6.6-5.9-10.8c-1.3-4.2-2-8.8-2-13.8s0.7-9.6,2-13.7
		c1.3-4.1,3.3-7.7,5.9-10.7c2.6-3,5.7-5.3,9.4-7c3.7-1.7,7.9-2.5,12.6-2.5c3.9,0,7.4,0.6,10.5,1.7c3.1,1.1,5.7,2.5,7.9,4.3
		c2.2,1.8,4,3.8,5.4,6.2c1.4,2.3,2.4,4.7,3.1,7.2c0.5,2.1,0.8,4.2,0.8,6.3h-16c0-0.5,0-0.9,0-1.3c0-0.4-0.1-0.8-0.1-1.3
		c-0.5-3-1.7-5.5-3.6-7.5c-1.9-2-4.6-3-7.9-3c-1.9,0-3.7,0.4-5.4,1.3c-1.7,0.8-3.1,2.1-4.3,3.9c-1.2,1.8-2.2,4-2.9,6.7
		c-0.7,2.7-1.1,5.9-1.1,9.6c0,3.8,0.4,7,1.1,9.7c0.7,2.7,1.7,5,2.9,6.8c1.2,1.8,2.7,3.1,4.3,3.9c1.7,0.8,3.5,1.3,5.4,1.3
		c1.8,0,3.5-0.3,5-1c1.5-0.7,2.7-1.6,3.7-2.9c1-1.2,1.7-2.6,2.3-4.2c0.5-1.6,0.8-3.3,0.8-5.1H910.7z"/>
	<path d="M973.3,1278.2v65.9h-16v-26.7h-22v26.7h-16v-65.9h16v27.1h22v-27.1H973.3z"/>
	<path d="M1035.1,1278.2l-19.3,43.3v22.6h-15.9v-22.6l-19.2-43.3h16.8l10.4,27.4l10.4-27.4H1035.1z"/>
	<path d="M1126.3,1344.1h-15.6v-65.9h24.5l17.3,51.9v-51.9h15.6v65.9h-24.8l-17-51.1V1344.1z"/>
	<polygon points="753.9,1344.1 769.8,1344.1 769.8,1311.7 753.9,1317.2 	"/>
	<polygon points="790.6,1289.2 790.6,1277.2 743.2,1277.2 743.2,1289.2 758.9,1289.2 758.9,1316.1 774.8,1310.7 774.8,1289.2 	"/>
	<path class="st4" d="M1057.4,1328c1.3,1.7,2.9,2.9,4.6,3.6c1.8,0.7,3.6,1.1,5.4,1.1c1.8,0,3.7-0.4,5.4-1.1c1.8-0.7,3.3-1.9,4.6-3.6
		c1.3-1.7,2.4-3.9,3.2-6.7c0.8-2.7,1.2-6.1,1.2-10.2c0-2.6-0.2-4.9-0.5-7l-27.9,14.5c0.2,1,0.4,1.9,0.6,2.7
		C1054.9,1324.1,1056,1326.3,1057.4,1328z"/>
	<path d="M1081.9,1311.1c0,4.1-0.4,7.5-1.2,10.2c-0.8,2.7-1.9,5-3.2,6.7c-1.3,1.7-2.9,2.9-4.6,3.6c-1.8,0.7-3.6,1.1-5.4,1.1
		c-1.8,0-3.7-0.4-5.4-1.1c-1.8-0.7-3.3-1.9-4.6-3.6c-1.3-1.7-2.4-3.9-3.3-6.7c-0.3-0.8-0.5-1.7-0.6-2.7l-14.2,7.4
		c1.6,4.1,3.8,7.6,6.6,10.5c2.8,2.9,6.1,5.1,9.8,6.6c3.7,1.5,7.7,2.2,11.8,2.2c4.1,0,8-0.7,11.8-2.2c3.7-1.5,7-3.7,9.8-6.6
		c2.8-2.9,5.1-6.5,6.7-10.7c1.6-4.2,2.5-9.1,2.5-14.7c0-5.5-0.8-10.3-2.4-14.5l-14.4,7.5C1081.7,1306.2,1081.9,1308.5,1081.9,1311.1
		z"/>
	<path d="M1094.1,1283.8c-2.8-2.9-6-5-9.8-6.5c-3.8-1.5-7.7-2.2-11.9-2.2c-4.2,0-8.2,0.7-11.9,2.2c-3.7,1.5-7,3.6-9.8,6.5
		c-2.8,2.9-5,6.4-6.6,10.6c-1.6,4.2-2.4,9.1-2.4,14.7s0.8,10.4,2.5,14.7c0,0.1,0.1,0.1,0.1,0.2l14.2-7.4c-0.4-2.2-0.6-4.7-0.6-7.5
		c0-4.1,0.4-7.5,1.3-10.2c0.8-2.7,1.9-4.9,3.3-6.6c1.3-1.7,2.9-2.9,4.6-3.6c1.8-0.7,3.6-1.1,5.4-1.1c1.8,0,3.6,0.4,5.3,1.1
		c1.8,0.7,3.3,1.9,4.6,3.6c1.3,1.7,2.4,3.9,3.3,6.6c0.3,1,0.5,2,0.7,3.2l14.4-7.5c0-0.1,0-0.1-0.1-0.2
		C1099.1,1290.3,1096.9,1286.7,1094.1,1283.8z"/>
</g>
</svg>
