<?xml version="1.0" encoding="UTF-8" standalone="no"?>
<!-- Generator: Adobe Illustrator 26.3.1, SVG Export Plug-In . SVG Version: 6.00 Build 0)  -->

<svg
   version="1.1"
   id="Layer_1"
   x="0px"
   y="0px"
   viewBox="0 0 767.29999 468.70001"
   xml:space="preserve"
   sodipodi:docname="unchained.svg"
   width="767.29999"
   height="468.70001"
   inkscape:version="1.3.2 (091e20e, 2023-11-25)"
   xmlns:inkscape="http://www.inkscape.org/namespaces/inkscape"
   xmlns:sodipodi="http://sodipodi.sourceforge.net/DTD/sodipodi-0.dtd"
   xmlns="http://www.w3.org/2000/svg"
   xmlns:svg="http://www.w3.org/2000/svg"><defs
   id="defs82" /><sodipodi:namedview
   id="namedview82"
   pagecolor="#ffffff"
   bordercolor="#000000"
   borderopacity="0.25"
   inkscape:showpageshadow="2"
   inkscape:pageopacity="0.0"
   inkscape:pagecheckerboard="0"
   inkscape:deskcolor="#d1d1d1"
   inkscape:zoom="1.3323128"
   inkscape:cx="398.55506"
   inkscape:cy="246.18844"
   inkscape:window-width="1728"
   inkscape:window-height="1051"
   inkscape:window-x="0"
   inkscape:window-y="38"
   inkscape:window-maximized="1"
   inkscape:current-layer="Layer_1" />
<style
   type="text/css"
   id="style1">
	.st0{fill:none;}
	.st1{display:none;}
	.st2{display:inline;fill:#1D1D1B;}
	.st3{fill:#1D1D1B;}
	.st4{display:inline;fill:none;}
	.st5{display:inline;fill:#FFFFFF;}
</style>
<g
   id="g11"
   transform="translate(-616.4,-849.79999)"
   style="fill:#ffffff;fill-opacity:1">
	<path
   d="m 736.2,1316.8 h -21.9 v -92.7 h 34.5 l 24.3,73 v -73 H 795 v 92.7 H 760.2 L 736.3,1245 v 71.8 z"
   id="path1"
   style="fill:#ffffff;fill-opacity:1" />
	<path
   d="m 891.5,1282.4 c 0,4.1 -0.8,8.3 -2.4,12.6 -1.6,4.3 -4,8.2 -7.2,11.6 -3.2,3.5 -7.2,6.3 -12.1,8.6 -4.9,2.2 -10.7,3.3 -17.3,3.3 -6.6,0 -12.5,-1.2 -17.7,-3.6 -5.2,-2.4 -9.6,-5.7 -13.2,-9.9 -3.6,-4.2 -6.4,-9.3 -8.2,-15.2 -1.9,-5.9 -2.8,-12.3 -2.8,-19.4 0,-7 0.9,-13.5 2.8,-19.3 1.9,-5.8 4.6,-10.9 8.2,-15.1 3.6,-4.2 8,-7.5 13.2,-9.9 5.2,-2.3 11.1,-3.5 17.7,-3.5 5.5,0 10.5,0.8 14.8,2.3 4.3,1.6 8,3.6 11.1,6.1 3.1,2.5 5.6,5.4 7.6,8.7 2,3.3 3.4,6.6 4.3,10.1 0.8,3 1.1,6 1.1,8.8 h -22.5 c 0,-0.7 0,-1.3 -0.1,-1.9 0,-0.6 -0.1,-1.2 -0.2,-1.8 -0.7,-4.3 -2.4,-7.8 -5.1,-10.6 -2.7,-2.8 -6.4,-4.2 -11.1,-4.2 -2.7,0 -5.2,0.6 -7.5,1.8 -2.3,1.2 -4.4,3 -6.1,5.5 -1.7,2.5 -3.1,5.6 -4.1,9.4 -1,3.8 -1.5,8.3 -1.5,13.5 0,5.3 0.5,9.8 1.5,13.6 1,3.8 2.4,7 4.1,9.5 1.7,2.5 3.8,4.4 6.1,5.5 2.3,1.2 4.9,1.8 7.5,1.8 2.6,0 4.9,-0.5 7,-1.4 2.1,-1 3.8,-2.3 5.2,-4 1.4,-1.7 2.5,-3.7 3.2,-5.9 0.8,-2.2 1.1,-4.6 1.1,-7.1 z"
   id="path2"
   style="fill:#ffffff;fill-opacity:1" />
	<path
   d="m 983.2,1224.1 v 92.7 h -22.5 v -37.6 h -30.9 v 37.6 h -22.5 v -92.7 h 22.5 v 38.1 h 30.9 v -38.1 z"
   id="path3"
   style="fill:#ffffff;fill-opacity:1" />
	<path
   d="m 997,1316.8 22.3,-92.8 h 35.6 l 22.3,92.8 h -23 l -4.4,-20.5 h -25.4 l -4.4,20.5 z m 31.1,-37.6 h 18 l -8.9,-41.3 z"
   id="path4"
   style="fill:#ffffff;fill-opacity:1" />
	<path
   d="m 1152.8,1316.8 h -21.9 v -92.7 h 34.5 l 24.3,73 v -73 h 21.9 v 92.7 h -34.8 l -23.9,-71.8 z"
   id="path5"
   style="fill:#ffffff;fill-opacity:1" />
	<path
   d="m 1280.9,1261.9 v 17 h -28.8 v 21 h 35.7 v 17 h -58.2 v -92.7 h 58.2 v 17 h -35.7 v 20.8 h 28.8 z"
   id="path6"
   style="fill:#ffffff;fill-opacity:1" />
	<path
   d="m 673.9,1224.1 v 60 c 0,5.6 -1,9.8 -3.1,12.6 -2.1,2.8 -5.5,4.2 -10.3,4.2 -4.9,0 -8.3,-1.4 -10.3,-4.2 -2,-2.8 -3,-7 -3,-12.6 v -22.4 l -22.5,5.3 v 16.6 c 0,11.7 3.2,20.4 9.6,26.2 6.4,5.8 15.1,8.7 26.2,8.7 11.1,0 19.8,-2.9 26.2,-8.7 6.4,-5.8 9.6,-14.5 9.6,-26.2 v -59.5 z"
   id="path7"
   style="fill:#ffffff;fill-opacity:1" />
	<polygon
   points="616.4,1270.5 638.9,1265.1 638.9,1227.5 616.4,1227.5 "
   id="polygon7"
   style="fill:#ffffff;fill-opacity:1" />
	<polygon
   points="1112.9,1316.8 1112.9,1267.8 1090.8,1275.4 1090.8,1316.8 "
   id="polygon8"
   style="fill:#ffffff;fill-opacity:1" />
	<polygon
   points="1095.3,1274.6 1117.4,1267.1 1117.4,1223.4 1095.3,1223.4 "
   id="polygon9"
   style="fill:#ffffff;fill-opacity:1" />
	
	<path
   d="m 1356.8,1262.2 c 0.5,2.5 0.7,5.2 0.7,8.1 0,4.5 -0.6,8.6 -1.8,12.3 -1.2,3.6 -2.8,6.8 -4.8,9.3 -2,2.6 -4.4,4.5 -7.1,5.9 -2.7,1.4 -5.6,2.1 -8.6,2.1 h -6.7 v -24.1 l -22.5,10.8 v 30.3 h 32.2 c 6.2,0 11.9,-1.2 17,-3.5 5.2,-2.3 9.6,-5.5 13.3,-9.7 3.7,-4.2 6.6,-9.1 8.6,-14.8 2.1,-5.7 3.1,-11.9 3.1,-18.6 0,-6.5 -1,-12.5 -2.9,-18 z"
   id="path10"
   style="fill:#ffffff;fill-opacity:1" />
	<path
   d="m 1334.8,1238.1 h 6.7 c 3,0 5.9,0.7 8.6,1.9 2.7,1.3 5.1,3.2 7.1,5.7 2,2.5 3.6,5.6 4.8,9.2 0.4,1.3 0.8,2.7 1.1,4.2 l 20.6,-9.9 c -0.1,-0.2 -0.1,-0.4 -0.2,-0.6 -2.1,-5.7 -4.9,-10.5 -8.6,-14.6 -3.7,-4.1 -8.1,-7.3 -13.3,-9.6 -5.2,-2.3 -10.8,-3.5 -17,-3.5 h -32.2 v 62.4 l 22.5,-10.8 z"
   id="path11"
   style="fill:#ffffff;fill-opacity:1" />
</g>
<g
   class="st1"
   id="g24"
   transform="translate(-616.4,-849.79999)">
	
		<rect
   x="760.40002"
   y="916.09998"
   transform="matrix(0.7071,-0.7071,0.7071,0.7071,-463.5442,845.8398)"
   class="st2"
   width="57.599998"
   height="132.8"
   id="rect11" />
	
		<rect
   x="899.5"
   y="1048.9"
   transform="matrix(0.7071,-0.7071,0.7071,0.7071,-521.1372,984.8817)"
   class="st2"
   width="57.599998"
   height="145.2"
   id="rect12" />
	
		<rect
   x="899.5"
   y="777"
   transform="matrix(0.7071,-0.7071,0.7071,0.7071,-324.5022,903.4328)"
   class="st2"
   width="57.599998"
   height="132.8"
   id="rect13" />
	
		<rect
   x="1038.5"
   y="909.90002"
   transform="matrix(0.7071,-0.7071,0.7071,0.7071,-382.0953,1042.4747)"
   class="st2"
   width="57.599998"
   height="145.2"
   id="rect14" />
	
		<rect
   x="995.59998"
   y="812.40002"
   transform="matrix(0.7071,-0.7071,0.7071,0.7071,-282.8688,999.5608)"
   class="st2"
   width="139"
   height="57.599998"
   id="rect15" />
	
		<rect
   x="856.59998"
   y="951.5"
   transform="matrix(0.7071,-0.7071,0.7071,0.7071,-421.9143,941.9662)"
   class="st2"
   width="139"
   height="57.599998"
   id="rect16" />
	<polygon
   class="st2"
   points="721.9,874.4 820.2,776.1 860.8,816.7 901.5,775.9 861,735.3 959.3,637.1 1000,677.8 762.7,915.1 "
   id="polygon16" />
	
		<rect
   x="1139.1"
   y="955.79999"
   transform="matrix(0.7071,-0.7071,0.7071,0.7071,-342.2763,1142.9833)"
   class="st2"
   width="139"
   height="57.599998"
   id="rect17" />
	
		<rect
   x="1000"
   y="1094.9"
   transform="matrix(0.7071,-0.7071,0.7071,0.7071,-481.3218,1085.3887)"
   class="st2"
   width="139"
   height="57.599998"
   id="rect18" />
	
		<rect
   x="1038.5"
   y="638"
   transform="matrix(0.7071,-0.7071,0.7071,0.7071,-185.4603,961.0259)"
   class="st2"
   width="57.599998"
   height="132.8"
   id="rect19" />
	
		<rect
   x="1177.6"
   y="770.79999"
   transform="matrix(0.7071,-0.7071,0.7071,0.7071,-243.0533,1100.0679)"
   class="st2"
   width="57.599998"
   height="145.2"
   id="rect20" />
	
		<rect
   x="791.40002"
   y="706.5"
   transform="matrix(0.7071,0.7071,-0.7071,0.7071,760.2035,-364.5985)"
   class="st2"
   width="57.599998"
   height="57.599998"
   id="rect21" />
	
		<rect
   x="1151"
   y="1066.1"
   transform="matrix(0.7071,0.7071,-0.7071,0.7071,1119.7814,-513.5405)"
   class="st2"
   width="57.599998"
   height="57.599998"
   id="rect22" />
	
		<rect
   x="787"
   y="1061.7"
   transform="matrix(0.7071,0.7071,-0.7071,0.7071,1010.0859,-257.459)"
   class="st2"
   width="57.599998"
   height="57.599998"
   id="rect23" />
	
		<rect
   x="1146.6"
   y="702.20001"
   transform="matrix(0.7071,0.7071,-0.7071,0.7071,861.1409,-617.044)"
   class="st2"
   width="57.599998"
   height="57.599998"
   id="rect24" />
</g>
<g
   id="g62"
   transform="translate(-616.4,-849.79999)">
	<polygon
   class="st0"
   points="1009.5,984.5 1009.5,1011.5 1063.4,1011.5 1063.4,1065.4 1117.2,1065.4 1117.2,1011.5 1063.6,1011.5 1063.6,984.5 "
   id="polygon24" />
	
	
	
	
	
	
	
	
	
	
	
	
	
	
	
	
	
	
	
	
	
	
	
	
	
	
	
	
	
	
	
	
	
	
	
	
	<g
   id="g83"
   style="fill:#ffffff;fill-opacity:1"><polygon
     class="st3"
     points="633.2,1011.5 686.8,1011.5 687.1,1011.5 687.1,984.5 633.2,984.5 "
     id="polygon29"
     style="fill:#ffffff;fill-opacity:1" /><polygon
     class="st3"
     points="901.7,1011.5 902,1011.5 902,984.5 848.1,984.5 848.1,1011.5 848.5,1011.5 "
     id="polygon30"
     style="fill:#ffffff;fill-opacity:1" /><polygon
     class="st3"
     points="1117.5,1011.5 1117.5,984.5 1063.6,984.5 1063.6,1011.5 1117.2,1011.5 "
     id="polygon31"
     style="fill:#ffffff;fill-opacity:1" /><polygon
     class="st3"
     points="740.7,1065.4 740.7,1011.5 687.1,1011.5 686.8,1011.5 686.8,1065.4 "
     id="polygon32"
     style="fill:#ffffff;fill-opacity:1" /><polygon
     class="st3"
     points="794.6,1011.5 794.6,1065.4 847.8,1065.4 848.5,1065.4 848.5,1011.5 848.1,1011.5 "
     id="polygon33"
     style="fill:#ffffff;fill-opacity:1" /><polygon
     class="st3"
     points="955.6,1065.4 955.6,1011.5 902,1011.5 901.7,1011.5 901.7,1065.4 "
     id="polygon34"
     style="fill:#ffffff;fill-opacity:1" /><polygon
     class="st3"
     points="1009.5,1065.4 1063.3,1065.4 1063.4,1065.4 1063.4,1011.5 1009.5,1011.5 "
     id="polygon35"
     style="fill:#ffffff;fill-opacity:1" /><polygon
     class="st3"
     points="1171.1,1065.4 1171.1,1011.5 1117.5,1011.5 1117.2,1011.5 1117.2,1065.4 "
     id="polygon36"
     style="fill:#ffffff;fill-opacity:1" /><rect
     x="1225"
     y="1011.5"
     class="st3"
     width="53.900002"
     height="53.900002"
     id="rect36"
     style="fill:#ffffff;fill-opacity:1" /><rect
     x="740.70001"
     y="984.5"
     class="st3"
     width="53.900002"
     height="26.9"
     id="rect37"
     style="fill:#ffffff;fill-opacity:1" /><rect
     x="955.59998"
     y="984.5"
     class="st3"
     width="53.900002"
     height="26.9"
     id="rect38"
     style="fill:#ffffff;fill-opacity:1" /><rect
     x="1171.1"
     y="984.5"
     class="st3"
     width="53.900002"
     height="26.9"
     id="rect39"
     style="fill:#ffffff;fill-opacity:1" /><polygon
     class="st3"
     points="698.1,903.7 698.1,957.6 751.7,957.6 752,957.6 752,903.7 "
     id="polygon39"
     style="fill:#ffffff;fill-opacity:1" /><polygon
     class="st3"
     points="859.8,903.7 805.9,903.7 805.9,957.6 859.1,957.6 859.8,957.6 "
     id="polygon40"
     style="fill:#ffffff;fill-opacity:1" /><polygon
     class="st3"
     points="913,903.7 913,957.6 966.6,957.6 966.9,957.6 966.9,903.7 "
     id="polygon41"
     style="fill:#ffffff;fill-opacity:1" /><polygon
     class="st3"
     points="1074.7,903.7 1020.8,903.7 1020.8,957.6 1074.6,957.6 1074.7,957.6 "
     id="polygon42"
     style="fill:#ffffff;fill-opacity:1" /><polygon
     class="st3"
     points="1128.5,903.7 1128.5,957.6 1182.1,957.6 1182.4,957.6 1182.4,903.7 "
     id="polygon43"
     style="fill:#ffffff;fill-opacity:1" /><rect
     x="1236.3"
     y="903.70001"
     class="st3"
     width="53.900002"
     height="53.900002"
     id="rect43"
     style="fill:#ffffff;fill-opacity:1" /><rect
     x="644.20001"
     y="957.59998"
     class="st3"
     width="53.900002"
     height="27"
     id="rect44"
     style="fill:#ffffff;fill-opacity:1" /><polygon
     class="st3"
     points="913,957.6 859.8,957.6 859.1,957.6 859.1,984.5 913,984.5 "
     id="polygon44"
     style="fill:#ffffff;fill-opacity:1" /><polygon
     class="st3"
     points="1128.5,957.6 1074.7,957.6 1074.6,957.6 1074.6,984.5 1128.5,984.5 "
     id="polygon45"
     style="fill:#ffffff;fill-opacity:1" /><g
     id="g46"
     style="fill:#ffffff;fill-opacity:1">
		<rect
   x="1279.5"
   y="984.5"
   class="st3"
   width="53.900002"
   height="28.9"
   id="rect45"
   style="fill:#ffffff;fill-opacity:1" />
		<rect
   x="1290.5"
   y="959.59998"
   class="st3"
   width="53.900002"
   height="25"
   id="rect46"
   style="fill:#ffffff;fill-opacity:1" />
	</g><g
     id="g48"
     style="fill:#ffffff;fill-opacity:1">
		<rect
   x="1290.9"
   y="874.79999"
   class="st3"
   width="53.900002"
   height="28.9"
   id="rect47"
   style="fill:#ffffff;fill-opacity:1" />
		<rect
   x="1279.9"
   y="849.79999"
   class="st3"
   width="53.900002"
   height="25"
   id="rect48"
   style="fill:#ffffff;fill-opacity:1" />
	</g><g
     id="g50"
     style="fill:#ffffff;fill-opacity:1">
		<rect
   x="1074.6"
   y="874.79999"
   class="st3"
   width="53.900002"
   height="28.9"
   id="rect49"
   style="fill:#ffffff;fill-opacity:1" />
		<rect
   x="1063.6"
   y="849.79999"
   class="st3"
   width="53.900002"
   height="25"
   id="rect50"
   style="fill:#ffffff;fill-opacity:1" />
	</g><g
     id="g52"
     style="fill:#ffffff;fill-opacity:1">
		<rect
   x="858.79999"
   y="874.79999"
   class="st3"
   width="53.900002"
   height="28.9"
   id="rect51"
   style="fill:#ffffff;fill-opacity:1" />
		<rect
   x="847.79999"
   y="849.79999"
   class="st3"
   width="53.900002"
   height="25"
   id="rect52"
   style="fill:#ffffff;fill-opacity:1" />
	</g><g
     id="g54"
     style="fill:#ffffff;fill-opacity:1">
		<rect
   x="638.70001"
   y="874.79999"
   class="st3"
   width="53.900002"
   height="28.9"
   id="rect53"
   style="fill:#ffffff;fill-opacity:1" />
		<rect
   x="627.70001"
   y="849.79999"
   class="st3"
   width="53.900002"
   height="25"
   id="rect54"
   style="fill:#ffffff;fill-opacity:1" />
	</g><g
     id="g56"
     style="fill:#ffffff;fill-opacity:1">
		<rect
   x="751.70001"
   y="1090.4"
   class="st3"
   width="53.900002"
   height="28.9"
   id="rect55"
   style="fill:#ffffff;fill-opacity:1" />
		<rect
   x="740.70001"
   y="1065.4"
   class="st3"
   width="53.900002"
   height="25"
   id="rect56"
   style="fill:#ffffff;fill-opacity:1" />
	</g><g
     id="g58"
     style="fill:#ffffff;fill-opacity:1">
		<rect
   x="966.70001"
   y="1090.4"
   class="st3"
   width="53.900002"
   height="28.9"
   id="rect57"
   style="fill:#ffffff;fill-opacity:1" />
		<rect
   x="955.70001"
   y="1065.4"
   class="st3"
   width="53.900002"
   height="25"
   id="rect58"
   style="fill:#ffffff;fill-opacity:1" />
	</g><g
     id="g60"
     style="fill:#ffffff;fill-opacity:1">
		<rect
   x="1181.3"
   y="1090.4"
   class="st3"
   width="53.900002"
   height="28.9"
   id="rect59"
   style="fill:#ffffff;fill-opacity:1" />
		<rect
   x="1170.3"
   y="1065.4"
   class="st3"
   width="53.900002"
   height="25"
   id="rect60"
   style="fill:#ffffff;fill-opacity:1" />
	</g><polygon
     class="st3"
     points="751.7,984.5 805.6,984.5 805.6,957.6 752,957.6 751.7,957.6 "
     id="polygon60"
     style="fill:#ffffff;fill-opacity:1" /><polygon
     class="st3"
     points="966.6,984.5 1020.5,984.5 1020.5,957.6 966.9,957.6 966.6,957.6 "
     id="polygon61"
     style="fill:#ffffff;fill-opacity:1" /><polygon
     class="st3"
     points="1182.1,984.5 1236,984.5 1236,957.6 1182.4,957.6 1182.1,957.6 "
     id="polygon62"
     style="fill:#ffffff;fill-opacity:1" /></g>
</g>
<g
   class="st1"
   id="g74"
   transform="translate(-616.4,-849.79999)">
	<polygon
   class="st4"
   points="1035.2,904.7 1086.3,904.7 1071.4,854.8 1020,854.8 1004.3,803.1 1015.4,800.6 995.2,734.3 971.6,813.1 958.9,816 926,926 873.8,926 858.8,975.9 911,975.9 884.7,1064 1083.7,1064 "
   id="polygon63" />
	<rect
   x="809"
   y="926"
   class="st2"
   width="42.099998"
   height="49.900002"
   id="rect63" />
	<polygon
   class="st2"
   points="858.8,975.9 873.8,926 851.1,926 851.1,975.9 "
   id="polygon64" />
	<rect
   x="1094.1"
   y="854.79999"
   class="st2"
   width="42.099998"
   height="49.900002"
   id="rect64" />
	<polygon
   class="st2"
   points="1072.3,854.8 1087.5,904.7 1094.1,904.7 1094.1,854.8 "
   id="polygon65" />
	<polygon
   class="st2"
   points="915.7,825.7 916.5,822.9 903.8,825.7 873.8,926 873.8,926 926,926 958.9,816 "
   id="polygon66" />
	<polygon
   class="st2"
   points="873.8,926 858.8,975.9 "
   id="polygon67" />
	<polygon
   class="st2"
   points="1086.3,904.7 1035.2,904.7 1083.7,1064 884.7,1064 911,975.9 858.8,975.9 817.5,1114 1151.2,1114 1087.5,904.7 "
   id="polygon68" />
	<polygon
   class="st2"
   points="1020,854.8 1071.4,854.8 1072.3,854.8 1054,794.5 1016.1,803.1 1015.4,800.6 1004.3,803.1 "
   id="polygon69" />
	<polygon
   class="st2"
   points="1072.3,854.8 1071.4,854.8 1086.3,904.7 1087.5,904.7 "
   id="polygon70" />
	<polygon
   class="st2"
   points="995.2,734.3 1015.4,800.6 1053.2,792.1 1054,794.5 1065.1,792 1026.6,665.7 957.1,687.2 916.5,822.9 959.8,813.1 958.9,816 971.6,813.1 "
   id="polygon71" />
	<polygon
   class="st2"
   points="916.5,822.9 915.7,825.7 958.9,816 959.8,813.1 "
   id="polygon72" />
	<polygon
   class="st2"
   points="1054,794.5 1053.2,792.1 1015.4,800.6 1016.1,803.1 "
   id="polygon73" />
	<polygon
   class="st2"
   points="1026.6,665.7 994.8,561.3 957.1,687.2 "
   id="polygon74" />
</g>
<g
   class="st1"
   id="g82"
   transform="translate(-616.4,-849.79999)">
	<polygon
   class="st5"
   points="783.4,1019.8 782.7,1019.8 782.7,965.1 814.9,965.1 814.8,965.2 "
   id="polygon75" />
	<polygon
   class="st2"
   points="782.7,1019.8 728.1,1019.8 728.1,965.1 814.9,965.1 814.8,965.2 "
   id="polygon76" />
	<polygon
   class="st5"
   points="1201,964.9 1169.4,910.3 1202,910.3 1202,964.9 "
   id="polygon77" />
	<polygon
   class="st2"
   points="1169.9,910.3 1256.7,910.3 1256.7,964.9 1202,964.9 "
   id="polygon78" />
	<line
   class="st4"
   x1="1107"
   y1="910.29999"
   x2="1052.3"
   y2="815.59998"
   id="line78" />
	<line
   class="st4"
   x1="963.70001"
   y1="815.59998"
   x2="877.40002"
   y2="965.09998"
   id="line79" />
	<polyline
   class="st4"
   points="845.8,1019.8 810.1,1081.7 1205.9,1081.7 1138.5,964.9  "
   id="polyline79" />
	<polygon
   class="st2"
   points="901.2,815.6 963.7,815.6 877.4,965.1 814.9,965.1 "
   id="polygon79" />
	<polygon
   class="st2"
   points="1114.7,815.6 1169.4,910.3 1107,910.3 1052.3,815.6 "
   id="polygon80" />
	<polygon
   class="st2"
   points="783.4,1019.8 845.8,1019.8 810.1,1081.7 1205.9,1081.7 1138.5,964.9 1201,964.9 1299.6,1135.8 716.4,1135.8 "
   id="polygon81" />
	<polygon
   class="st2"
   points="1114.7,815.6 1008,630.7 901.3,815.6 963.7,815.6 1008,738.9 1052.2,815.6 "
   id="polygon82" />
</g>
</svg>
