<?xml version="1.0" encoding="UTF-8" standalone="no"?>
<svg
   id="Layer_1"
   data-name="Layer 1"
   width="991.24542"
   height="177.17764"
   viewBox="0 0 991.24541 177.17764"
   version="1.1"
   sodipodi:docname="automate.io.svg"
   inkscape:version="1.2.1 (9c6d41e4, 2022-07-14)"
   xmlns:inkscape="http://www.inkscape.org/namespaces/inkscape"
   xmlns:sodipodi="http://sodipodi.sourceforge.net/DTD/sodipodi-0.dtd"
   xmlns="http://www.w3.org/2000/svg"
   xmlns:svg="http://www.w3.org/2000/svg"
   xmlns:rdf="http://www.w3.org/1999/02/22-rdf-syntax-ns#"
   xmlns:cc="http://creativecommons.org/ns#"
   xmlns:dc="http://purl.org/dc/elements/1.1/">
  <sodipodi:namedview
     id="namedview165"
     pagecolor="#ffffff"
     bordercolor="#999999"
     borderopacity="1"
     inkscape:showpageshadow="0"
     inkscape:pageopacity="0"
     inkscape:pagecheckerboard="0"
     inkscape:deskcolor="#d1d1d1"
     showgrid="false"
     inkscape:zoom="0.4730881"
     inkscape:cx="11.625742"
     inkscape:cy="91.949047"
     inkscape:window-width="1792"
     inkscape:window-height="1067"
     inkscape:window-x="0"
     inkscape:window-y="25"
     inkscape:window-maximized="1"
     inkscape:current-layer="Layer_1" />
  <defs
     id="defs134">
    <style
       id="style132">.cls-1{fill:#5f84e0;}</style>
  </defs>
  <title
     id="title136">automate-logo</title>
  <path
     class="cls-1"
     d="m 103.54234,134.72326 c -4.123218,6.97892 -7.715378,13.27647 -11.522968,19.4588 -19.03795,30.99178 -68.01559,30.601 -85.8661801,-0.83166 -8.24143,-14.52897 -8.33161,-29.48879 0.501,-43.81735 Q 32.550822,67.509268 59.048642,25.866258 C 71.007482,7.1689792 94.729782,-4.7397608 117.05428,1.8183132 c 12.96585,3.8126 22.04395,12.1692548 28.44671,23.6822148 16.53296,29.68918 33.06592,59.36334 49.37343,89.177772 11.31255,20.69626 3.27152,45.23518 -17.94077,55.61087 -14.21333,6.9739 -28.70723,9.30855 -43.47166,1.64828 -8.10115,-4.20338 -14.35863,-10.45083 -19.00789,-18.27643 -3.56211,-5.99195 -6.98393,-12.10413 -10.91176,-18.93776 z M 65.090692,41.657738 c -0.0551,6.95887 2.26451,13.21634 5.64625,19.15819 q 25.17018,44.293302 50.360398,88.571572 c 11.41275,19.98985 33.92764,25.75634 53.60687,13.87265 15.49589,-9.36366 21.67821,-28.20122 13.30653,-43.42156 C 170.93169,88.776668 153.94282,57.629578 135.72149,27.254018 117.55027,-3.0012948 85.321022,6.6679812 71.288042,23.701938 a 26.552935,26.552935 0 0 0 -6.19735,17.9558 z"
     id="path138"
     style="stroke-width:0.500999" />
  <g
     id="g454"
     transform="translate(241.24478,-360.41523)">
    <path
       class="cls-1"
       d="m 294.16,586.7 c 0,-10 -0.06,-19.92 0.06,-29.87 0,-2.14 -1.14,-5.29 2.62,-5.7 2.92,-0.31 6.19,-0.77 6.93,3.44 0.87,5 3.25,3.39 6.18,1.75 12.78,-7.15 25.43,-8.58 37.3,1.88 2.22,2 3.71,1.17 5.59,-0.18 a 39.29,39.29 0 0 1 12.27,-6 c 18.38,-5.17 31.95,4.28 32.66,23.32 0.52,14 0.05,28 0.38,42 0.13,5.08 -1.77,6.39 -6.59,6.39 -5,0 -6.52,-1.86 -6.45,-6.65 q 0.31,-19.38 0,-38.76 c -0.18,-11.8 -4.47,-16.67 -14,-16.54 -11.19,0.14 -18.63,7 -18.64,17.19 0,12.91 -0.16,25.84 0.07,38.75 0.08,4.67 -1.72,6 -6.16,6 -4.44,0 -7,-0.78 -6.88,-6.14 0.28,-13.18 0.2,-26.37 0,-39.56 -0.15,-11.55 -4.64,-16.47 -14.28,-16.19 -11.14,0.31 -18.18,6.75 -18.2,16.68 0,12.92 -0.19,25.85 0.09,38.76 0.11,5 -1.61,6.52 -6.49,6.48 -4.71,0 -6.79,-1.18 -6.62,-6.34 0.41,-10.25 0.16,-20.48 0.16,-30.71 z"
       transform="translate(0,-125.57)"
       id="path140" />
    <path
       class="cls-1"
       d="m 476.57,595.47 c 0,7.52 0.05,15 0,22.57 0,2.06 0.5,4.62 -2.36,5.3 -2.46,0.59 -5.09,0.44 -6.3,-2.2 -2.34,-5.11 -5.42,-3.46 -9.12,-1.7 a 40.83,40.83 0 0 1 -27.5,2.87 c -10,-2.36 -15.22,-8.45 -15.85,-18.63 -0.7,-11.35 3.68,-18.56 13.56,-22 8.3,-2.93 16.87,-2.6 25.5,-2.07 3,0.18 7.59,3.14 8.91,-1.88 1.27,-4.81 0.05,-9.76 -4.48,-12.92 -4.13,-2.88 -9.05,-3.28 -13.89,-3.41 a 79.12,79.12 0 0 0 -18.38,2 c -1.93,0.4 -4.65,1.84 -5.14,-1.52 -0.43,-2.94 -1.85,-7 2.62,-8.14 14.58,-3.64 29.24,-5.11 43.17,2.28 6.85,3.63 9.1,10.32 9.24,17.69 0.14,7.37 0.02,14.5 0.02,21.76 z M 449,590 v -0.48 c -4,0.34 -8.12,0.19 -12,1.11 -6.35,1.52 -9.39,5.9 -8.62,12.56 0.74,6.48 4.79,9.26 10.92,9.57 a 43.43,43.43 0 0 0 18.85,-3.29 c 7.79,-3.16 5.72,-9.57 5.38,-15.08 -0.34,-5.51 -5.58,-3.64 -8.9,-4.33 A 28.57,28.57 0 0 0 449,590 Z"
       transform="translate(0,-125.57)"
       id="path142" />
    <path
       class="cls-1"
       d="m 61.24,595.87 c 0,7.25 0.06,14.51 0,21.76 0,2 0.76,4.65 -2,5.55 -2.35,0.78 -5.12,0.9 -6.39,-1.74 -2.55,-5.29 -5.71,-3.77 -9.77,-1.86 a 39.91,39.91 0 0 1 -25.94,2.94 C 6.1,620.16 0.66,614.16 0.05,603.29 c -0.64,-11.7 4.42,-19.16 15.49,-22.3 8.68,-2.47 17.58,-2.31 26.39,-0.94 5.88,0.91 7,-1.76 6.37,-6.71 -0.75,-6.21 -4.39,-9.53 -10.2,-10.92 -8.86,-2.12 -17.61,-0.75 -26.37,0.85 -2.13,0.39 -5.13,2.27 -5.6,-1.77 -0.35,-3 -1.57,-6.85 3,-8 13.87,-3.3 27.69,-4.5 41.09,1.5 7.66,3.41 10.79,10.19 11,18.31 0.16,7.52 0,15 0,22.57 z m -32.88,16.91 c 3.56,0.1 8.14,-1.2 12.82,-2.6 8.67,-2.6 7.8,-9.36 7,-15.66 -0.8,-6.3 -6.61,-3.93 -10.39,-4.49 a 57.19,57.19 0 0 0 -11.26,-0.16 c -9.3,0.49 -14,4.81 -13.61,12.34 0.39,7.53 4.71,10.68 15.44,10.57 z"
       transform="translate(0,-125.57)"
       id="path144" />
    <path
       class="cls-1"
       d="m 583.79,612.83 c 2.2,-0.26 6.72,-0.77 11.25,-1.34 2.57,-0.32 5.58,-1.7 5.89,2.79 0.24,3.36 0.33,6.61 -4.09,7.37 -12.55,2.19 -25.11,3.38 -37.4,-1.21 -9.23,-3.44 -15.06,-10.26 -17.46,-19.69 a 59.73,59.73 0 0 1 -1.88,-14.32 c -0.22,-31.84 21.29,-39.33 45,-33.95 14.31,3.24 23.54,21.38 19.08,35.24 -1.31,4.08 -4.42,3.28 -7.2,3.3 -12.37,0.08 -24.75,0.35 -37.1,-0.08 -7,-0.25 -7.57,2.66 -5.71,8.21 a 18.16,18.16 0 0 0 11.34,11.69 c 5.17,2 10.54,1.93 18.28,1.99 z m -11.55,-32.64 c 4.56,0 9.14,-0.29 13.67,0.07 6.42,0.51 6.41,-2.9 5.08,-7.43 -2.17,-7.44 -8.28,-11.58 -17.26,-11.72 -9.6,-0.15 -16.44,4 -19.27,11.58 -1.82,4.86 -2.08,8.28 4.92,7.58 4.25,-0.42 8.62,-0.08 12.86,-0.08 z"
       transform="translate(0,-125.57)"
       id="path146" />
    <path
       class="cls-1"
       d="m 276.84,587.44 c -0.12,29.77 -25.47,45.39 -52.5,32.35 a 13.84,13.84 0 0 1 -1.43,-0.75 c -16,-9.94 -15.81,-25.68 -14.2,-41.47 1.45,-14.16 10.06,-22.9 23.83,-25.8 27.23,-5.77 44.46,8.08 44.3,35.67 z M 264,586.62 c -0.26,-9.11 -1.28,-18 -10.5,-22.86 -11.18,-6 -25.84,-1.4 -30.31,9.21 -6.47,15.41 -1.14,34.54 10.82,38.69 a 20.12,20.12 0 0 0 3.91,0.88 c 17.32,2.28 26.13,-6.48 26.08,-25.92 z"
       transform="translate(0,-125.57)"
       id="path148" />
    <path
       class="cls-1"
       d="m 144.29,587.78 c 0,9.68 0.1,19.37 0,29.05 -0.05,2.63 1.29,6.27 -3.48,6.74 -3.52,0.35 -5.73,-0.88 -6.34,-4.47 -0.91,-5.36 -3.78,-3 -6.34,-1.6 -8.5,4.54 -17.36,7.17 -27.12,5.42 C 90.32,621 83.78,615 82.65,604.38 c -1.73,-16.34 -0.5,-32.79 -0.73,-49.18 -0.07,-5.3 3.76,-4 6.77,-4.25 3.71,-0.28 6.19,0.47 6.13,5.09 -0.16,12.37 0,24.74 0,37.11 0,7.72 0.14,15.4 9.25,18.57 7.45,2.6 20.28,-0.87 25.49,-6.53 2.13,-2.32 1.81,-4.93 1.82,-7.55 0.06,-13.45 0.2,-26.9 0,-40.34 -0.09,-4.93 1.64,-6.48 6.53,-6.49 4.89,-0.01 6.71,1.22 6.54,6.32 -0.39,10.2 -0.16,20.43 -0.16,30.65 z"
       transform="translate(0,-125.57)"
       id="path150" />
    <path
       class="cls-1"
       d="m 715.29,551 c 23.09,0 34.61,11.84 34.71,35.73 0.1,24.32 -11.74,36.85 -34.72,36.74 -22.52,-0.1 -34.39,-12.63 -34.44,-36.36 C 680.79,563.38 692.53,551 715.29,551 Z m 21.8,36.47 c 0.13,-17.33 -7.05,-26.09 -21.45,-26.18 -14.62,-0.1 -22.44,9.32 -21.87,26.66 a 47.52,47.52 0 0 0 1.71,11.12 c 2.37,8.43 8.23,12.92 17,13.6 16.33,1.27 24.52,-7.07 24.61,-25.2 z"
       transform="translate(0,-125.57)"
       id="path152" />
    <path
       class="cls-1"
       d="m 497.2,575.39 q 0,-15.74 0,-31.46 c 0,-2.19 0,-4.51 3.07,-4.65 2.42,-0.1 5.45,-0.41 5.55,3 0.29,9.71 6.89,8.93 13.5,8.77 2.53,-0.07 5.7,-1.31 7.51,1.29 1.38,2 1,4.73 0.29,7 -0.71,2.27 -3.07,1.66 -4.84,1.79 -12.21,0.93 -12.22,0.92 -12.22,13 0,9.14 0.1,18.28 0,27.42 -0.08,7.48 2.76,11.92 10.94,11.26 4,-0.32 6.65,0.36 6.64,5.45 -0.01,5.09 -2.91,5.27 -6.76,5.34 -17.84,0.32 -23.44,-4.85 -23.68,-22.45 -0.1,-8.56 0,-17.15 0,-25.76 z"
       transform="translate(0,-125.57)"
       id="path154" />
    <path
       class="cls-1"
       d="m 186.47,623.58 c -15.69,-0.2 -21.42,-5.8 -21.52,-21.09 -0.13,-19.37 0,-38.74 0,-58.11 0,-2.44 -0.29,-5 3.38,-5.13 2.66,-0.11 5.27,0.2 5.42,3.32 0.41,9.07 6.48,8.89 12.95,8.43 a 50.57,50.57 0 0 1 5.64,0.07 c 3.08,0.11 3.17,2.32 3.13,4.57 -0.04,2.25 0.45,5.14 -3.18,5.35 a 33,33 0 0 1 -6.44,0.09 c -6.33,-0.87 -8.43,1.57 -8.14,8 0.51,11.28 0.12,22.59 0.17,33.89 0,6 2.49,9.72 9,9.91 4,0.12 9.05,-1.59 8.66,5.8 -0.4,7.76 -6.14,3.74 -9.07,4.9 z"
       transform="translate(0,-125.57)"
       id="path156" />
    <path
       class="cls-1"
       d="m 649.68,587 c 0,-10.21 0.22,-20.43 -0.1,-30.63 -0.16,-5.15 2.51,-5.52 6.48,-5.5 3.97,0.02 6.61,0.34 6.56,5.49 q -0.33,31 0,62.08 c 0,5.43 -3.3,5 -6.92,5.15 -3.62,0.15 -6.15,-0.5 -6,-5.15 0.14,-10.44 -0.01,-20.93 -0.02,-31.44 z"
       transform="translate(0,-125.57)"
       id="path158" />
    <path
       class="cls-1"
       d="m 624.89,610.86 c 6.13,-1.15 6,2.55 6.25,6.64 0.26,5.12 -2,6.09 -6.68,6.25 -6,0.2 -6.25,-2.92 -6.33,-7.45 -0.13,-5.46 2.77,-6.3 6.76,-5.44 z"
       transform="translate(0,-125.57)"
       id="path160" />
    <path
       class="cls-1"
       d="m 656.18,536.6 c -4.65,0.82 -6.76,-0.7 -6.64,-5.87 0.09,-4.49 1.51,-6.15 6,-6 4,0.17 7.22,0.06 7.14,5.75 -0.08,4.93 -1.6,7.01 -6.5,6.12 z"
       transform="translate(0,-125.57)"
       id="path162" />
  </g>
  <metadata
     id="metadata456">
    <rdf:RDF>
      <cc:Work
         rdf:about="">
        <dc:title>automate-logo</dc:title>
      </cc:Work>
    </rdf:RDF>
  </metadata>
</svg>
