<?xml version="1.0" encoding="UTF-8" standalone="no"?>
<svg
   viewBox="22.34 10.9 109.334 35.93"
   width="109.334"
   height="35.93"
   version="1.1"
   id="svg511"
   sodipodi:docname="aws.lambda.svg"
   inkscape:version="1.2.1 (9c6d41e4, 2022-07-14)"
   xmlns:inkscape="http://www.inkscape.org/namespaces/inkscape"
   xmlns:sodipodi="http://sodipodi.sourceforge.net/DTD/sodipodi-0.dtd"
   xmlns="http://www.w3.org/2000/svg"
   xmlns:svg="http://www.w3.org/2000/svg">
  <defs
     id="defs515" />
  <sodipodi:namedview
     id="namedview513"
     pagecolor="#ffffff"
     bordercolor="#999999"
     borderopacity="1"
     inkscape:showpageshadow="0"
     inkscape:pageopacity="0"
     inkscape:pagecheckerboard="0"
     inkscape:deskcolor="#d1d1d1"
     showgrid="false"
     inkscape:zoom="3.9333333"
     inkscape:cx="54.788136"
     inkscape:cy="18.177966"
     inkscape:window-width="1792"
     inkscape:window-height="1067"
     inkscape:window-x="0"
     inkscape:window-y="25"
     inkscape:window-maximized="1"
     inkscape:current-layer="svg511" />
  <path
     d="m 62.566,24.71 3.1,8.308 H 63.77 l -0.64,-1.853 h -3.1 l -0.64,1.853 h -1.84 l 3.12,-8.308 z m 0.128,5.08 -1.054,-3.026 H 61.608 L 60.522,29.8 Z m 9.522,3.228 -1.406,-5.656 h -0.032 l -1.374,5.656 H 67.55 L 65.345,24.71 h 1.82 l 1.3,5.656 h 0.032 l 1.438,-5.656 h 1.735 l 1.406,5.72 h 0.032 l 1.374,-5.72 h 1.8 l -2.237,8.308 z m 6.294,-2.054 c 0.096,0.192 0.224,0.35 0.415,0.48 0.16,0.128 0.35,0.224 0.575,0.256 0.225,0.032 0.447,0.096 0.703,0.096 0.16,0 0.35,0 0.5,-0.032 0.15,-0.032 0.35,-0.064 0.5,-0.16 0.16,-0.064 0.288,-0.192 0.415,-0.32 0.096,-0.128 0.16,-0.32 0.16,-0.5 0,-0.224 -0.064,-0.415 -0.224,-0.543 a 1.59,1.59 0 0 0 -0.575,-0.35 c -0.224,-0.096 -0.5,-0.16 -0.8,-0.256 l -0.895,-0.224 a 4.18,4.18 0 0 1 -0.895,-0.288 c -0.288,-0.128 -0.543,-0.256 -0.8,-0.447 -0.224,-0.192 -0.415,-0.415 -0.575,-0.67 A 2.23,2.23 0 0 1 76.79,27.047 c 0,-0.415 0.096,-0.8 0.288,-1.118 0.192,-0.318 0.415,-0.575 0.703,-0.8 0.288,-0.225 0.64,-0.35 1,-0.48 0.36,-0.13 0.735,-0.16 1.118,-0.16 0.447,0 0.863,0.064 1.246,0.16 0.383,0.096 0.767,0.256 1.054,0.48 0.32,0.224 0.543,0.48 0.735,0.83 0.192,0.35 0.288,0.735 0.288,1.214 h -1.757 c 0,-0.256 -0.064,-0.447 -0.16,-0.607 -0.096,-0.16 -0.192,-0.288 -0.35,-0.383 a 1.41,1.41 0 0 0 -0.511,-0.192 c -0.192,-0.032 -0.383,-0.064 -0.607,-0.064 -0.16,0 -0.288,0 -0.447,0.032 a 1.6,1.6 0 0 0 -0.415,0.16 c -0.127,0.064 -0.224,0.16 -0.288,0.288 -0.064,0.128 -0.128,0.256 -0.128,0.447 0,0.16 0.032,0.288 0.096,0.383 0.064,0.095 0.192,0.192 0.35,0.288 0.192,0.096 0.447,0.16 0.767,0.256 l 1.246,0.32 0.64,0.16 c 0.288,0.096 0.543,0.224 0.83,0.383 0.256,0.192 0.5,0.415 0.703,0.703 0.203,0.288 0.288,0.67 0.288,1.15 0,0.383 -0.064,0.735 -0.224,1.054 -0.16,0.319 -0.35,0.607 -0.67,0.83 -0.32,0.223 -0.64,0.415 -1.086,0.543 -0.415,0.128 -0.927,0.192 -1.502,0.192 -0.447,0 -0.895,-0.064 -1.342,-0.16 -0.415,-0.128 -0.8,-0.288 -1.15,-0.543 -0.32,-0.256 -0.607,-0.543 -0.8,-0.927 -0.193,-0.384 -0.288,-0.8 -0.288,-1.342 h 1.757 l 0.32,0.83 z M 89.726,24.7 v 6.764 h 4.026 v 1.534 h -5.88 V 24.69 Z m 5.112,3.164 c 0.16,-0.256 0.383,-0.447 0.64,-0.607 0.257,-0.16 0.575,-0.256 0.895,-0.32 a 5.2,5.2 0 0 1 0.991,-0.096 c 0.288,0 0.607,0.032 0.927,0.064 a 2.47,2.47 0 0 1 0.863,0.256 c 0.256,0.128 0.48,0.288 0.64,0.5 0.16,0.212 0.256,0.5 0.256,0.863 v 3.13 l 0.032,0.767 c 0.032,0.256 0.096,0.447 0.16,0.543 h -1.693 c -0.032,-0.096 -0.064,-0.192 -0.064,-0.288 0,-0.096 -0.032,-0.192 -0.032,-0.288 a 2.52,2.52 0 0 1 -0.927,0.575 4.24,4.24 0 0 1 -1.086,0.16 3.22,3.22 0 0 1 -0.799,-0.096 c -0.256,-0.064 -0.48,-0.192 -0.64,-0.32 a 1.85,1.85 0 0 1 -0.447,-0.543 c -0.096,-0.224 -0.16,-0.48 -0.16,-0.8 0,-0.35 0.064,-0.607 0.192,-0.83 0.128,-0.223 0.288,-0.383 0.48,-0.543 0.192,-0.128 0.415,-0.224 0.64,-0.288 0.225,-0.064 0.48,-0.128 0.735,-0.16 l 0.735,-0.096 0.64,-0.096 c 0.192,-0.032 0.32,-0.128 0.447,-0.192 a 0.53,0.53 0 0 0 0.16,-0.383 c 0,-0.192 -0.032,-0.32 -0.096,-0.415 -0.064,-0.095 -0.128,-0.192 -0.224,-0.256 -0.096,-0.064 -0.224,-0.096 -0.35,-0.128 -0.126,-0.032 -0.256,-0.032 -0.415,-0.032 -0.32,0 -0.575,0.064 -0.767,0.224 -0.192,0.128 -0.288,0.383 -0.32,0.703 h -1.66 c 0,-0.447 0.096,-0.767 0.256,-1.022 z m 3.26,2.333 c -0.096,0.032 -0.224,0.064 -0.35,0.096 -0.126,0.032 -0.256,0.032 -0.383,0.064 a 1.59,1.59 0 0 0 -0.383,0.064 l -0.35,0.096 a 1,1 0 0 0 -0.32,0.16 c -0.096,0.064 -0.16,0.16 -0.224,0.256 -0.064,0.096 -0.096,0.224 -0.096,0.383 a 0.76,0.76 0 0 0 0.096,0.383 c 0.064,0.096 0.128,0.192 0.224,0.224 0.096,0.032 0.192,0.096 0.32,0.128 0.128,0.032 0.256,0.032 0.383,0.032 0.32,0 0.575,-0.064 0.767,-0.16 0.192,-0.096 0.32,-0.224 0.383,-0.383 0.096,-0.16 0.128,-0.32 0.16,-0.447 0.032,-0.127 0.032,-0.288 0.032,-0.383 v -0.607 c -0.064,0 -0.16,0.064 -0.256,0.096 z m 4.792,-3.228 v 0.8 h 0.032 a 2.5,2.5 0 0 1 0.799,-0.735 2.33,2.33 0 0 1 1.054,-0.256 c 0.384,0 0.735,0.064 1.054,0.224 0.319,0.16 0.543,0.415 0.703,0.767 0.192,-0.256 0.415,-0.5 0.735,-0.703 a 2.03,2.03 0 0 1 1.086,-0.288 c 0.32,0 0.607,0.032 0.895,0.128 0.256,0.064 0.5,0.192 0.703,0.383 a 1.47,1.47 0 0 1 0.447,0.67 3.03,3.03 0 0 1 0.16,0.99 v 4.026 h -1.662 v -3.411 c 0,-0.192 0,-0.383 -0.032,-0.575 0,-0.192 -0.064,-0.32 -0.128,-0.48 -0.064,-0.128 -0.16,-0.224 -0.32,-0.32 -0.128,-0.064 -0.32,-0.128 -0.543,-0.128 -0.223,0 -0.415,0.032 -0.575,0.128 -0.128,0.096 -0.256,0.192 -0.35,0.35 -0.094,0.158 -0.128,0.32 -0.16,0.48 -0.032,0.16 -0.032,0.35 -0.032,0.543 v 3.355 h -1.662 v -3.93 a 1.28,1.28 0 0 0 -0.096,-0.479 0.78,0.78 0 0 0 -0.288,-0.351 c -0.128,-0.096 -0.32,-0.128 -0.607,-0.128 -0.064,0 -0.192,0.032 -0.32,0.064 a 1.08,1.08 0 0 0 -0.383,0.192 c -0.128,0.096 -0.224,0.224 -0.32,0.415 -0.096,0.191 -0.128,0.415 -0.128,0.703 v 3.483 h -1.662 v -6.002 h 1.598 z m 10.6,-2.26 v 3.036 h 0.032 a 1.57,1.57 0 0 1 0.831,-0.671 c 0.35,-0.128 0.703,-0.224 1.086,-0.224 0.288,0 0.607,0.064 0.895,0.192 0.288,0.128 0.575,0.32 0.8,0.575 0.225,0.255 0.415,0.575 0.575,1 0.16,0.383 0.224,0.863 0.224,1.438 0,0.543 -0.064,1.022 -0.224,1.438 a 3.38,3.38 0 0 1 -0.575,1 2.32,2.32 0 0 1 -0.8,0.575 2.26,2.26 0 0 1 -0.895,0.192 c -0.447,0 -0.83,-0.064 -1.182,-0.224 -0.35,-0.128 -0.607,-0.383 -0.8,-0.703 h -0.032 V 33.1 h -1.555 v -8.336 h 1.63 z m 2.652,4.57 c -0.064,-0.224 -0.128,-0.447 -0.256,-0.607 -0.128,-0.192 -0.256,-0.32 -0.447,-0.415 -0.16,-0.096 -0.383,-0.16 -0.64,-0.16 a 1.35,1.35 0 0 0 -0.639,0.16 c -0.192,0.096 -0.32,0.256 -0.447,0.415 -0.128,0.192 -0.192,0.383 -0.256,0.607 -0.064,0.224 -0.096,0.48 -0.096,0.735 a 2.9,2.9 0 0 0 0.096,0.735 c 0.064,0.224 0.128,0.447 0.256,0.607 0.128,0.192 0.256,0.32 0.447,0.415 a 1.35,1.35 0 0 0 1.278,0 1.82,1.82 0 0 0 0.447,-0.415 c 0.128,-0.192 0.192,-0.383 0.256,-0.607 0.064,-0.224 0.096,-0.48 0.096,-0.735 a 2.73,2.73 0 0 0 -0.096,-0.735 z m 7.06,2.97 c -0.192,0.32 -0.447,0.575 -0.767,0.703 -0.32,0.128 -0.67,0.224 -1.054,0.224 a 2.79,2.79 0 0 1 -1.182,-0.256 c -0.352,-0.16 -0.607,-0.415 -0.83,-0.703 -0.223,-0.288 -0.383,-0.64 -0.5,-1.022 -0.117,-0.382 -0.16,-0.8 -0.16,-1.214 0,-0.414 0.064,-0.8 0.16,-1.182 0.128,-0.383 0.288,-0.703 0.5,-1 0.212,-0.297 0.5,-0.5 0.83,-0.703 0.32,-0.16 0.735,-0.256 1.15,-0.256 a 2.27,2.27 0 0 1 1.022,0.224 c 0.32,0.16 0.575,0.383 0.767,0.67 h 0.032 v -3.036 h 1.662 v 8.308 h -1.566 z m -0.064,-2.972 c -0.032,-0.224 -0.128,-0.415 -0.224,-0.607 -0.128,-0.16 -0.256,-0.32 -0.447,-0.415 a 1.49,1.49 0 0 0 -0.67,-0.16 c -0.288,0 -0.5,0.064 -0.67,0.16 -0.192,0.096 -0.32,0.256 -0.447,0.415 -0.128,0.192 -0.192,0.383 -0.256,0.607 -0.064,0.224 -0.064,0.48 -0.064,0.703 a 2.66,2.66 0 0 0 0.096,0.703 c 0.064,0.224 0.128,0.447 0.256,0.607 a 1.49,1.49 0 0 0 0.447,0.447 c 0.2,0.127 0.415,0.16 0.67,0.16 0.255,0 0.5,-0.064 0.67,-0.16 0.192,-0.096 0.32,-0.256 0.447,-0.447 0.096,-0.192 0.192,-0.383 0.224,-0.607 a 5.25,5.25 0 0 0 0.064,-0.735 l -0.096,-0.67 z m 3.132,-1.413 c 0.16,-0.256 0.383,-0.447 0.64,-0.607 0.257,-0.16 0.575,-0.256 0.895,-0.32 a 5.2,5.2 0 0 1 0.991,-0.096 c 0.288,0 0.607,0.032 0.927,0.064 a 2.47,2.47 0 0 1 0.863,0.256 c 0.256,0.128 0.48,0.288 0.64,0.5 0.16,0.212 0.256,0.5 0.256,0.863 v 3.13 l 0.032,0.767 c 0.032,0.256 0.096,0.447 0.16,0.543 h -1.662 c -0.032,-0.096 -0.064,-0.192 -0.064,-0.288 0,-0.096 -0.032,-0.192 -0.032,-0.288 a 2.52,2.52 0 0 1 -0.927,0.575 4.24,4.24 0 0 1 -1.086,0.16 3.22,3.22 0 0 1 -0.799,-0.096 c -0.256,-0.064 -0.48,-0.192 -0.64,-0.32 a 1.85,1.85 0 0 1 -0.447,-0.543 c -0.096,-0.224 -0.16,-0.48 -0.16,-0.8 0,-0.35 0.064,-0.607 0.192,-0.83 0.128,-0.223 0.288,-0.383 0.48,-0.543 0.192,-0.128 0.415,-0.224 0.64,-0.288 0.225,-0.064 0.48,-0.128 0.735,-0.16 l 0.735,-0.096 0.64,-0.096 c 0.192,-0.032 0.32,-0.128 0.447,-0.192 a 0.53,0.53 0 0 0 0.16,-0.383 c 0,-0.192 -0.032,-0.32 -0.096,-0.415 -0.064,-0.095 -0.128,-0.192 -0.224,-0.256 -0.096,-0.064 -0.224,-0.096 -0.35,-0.128 -0.126,-0.032 -0.246,-0.013 -0.416,-0.013 -0.32,0 -0.575,0.064 -0.767,0.224 -0.192,0.128 -0.288,0.383 -0.32,0.703 h -1.662 c -0.064,-0.447 0.032,-0.767 0.224,-1.022 z m 3.26,2.333 c -0.096,0.032 -0.224,0.064 -0.35,0.096 -0.126,0.032 -0.256,0.032 -0.383,0.064 a 1.59,1.59 0 0 0 -0.383,0.064 l -0.35,0.096 a 1,1 0 0 0 -0.32,0.16 c -0.096,0.064 -0.16,0.16 -0.224,0.256 -0.064,0.096 -0.096,0.224 -0.096,0.383 a 0.76,0.76 0 0 0 0.096,0.383 c 0.064,0.096 0.128,0.192 0.224,0.224 0.096,0.032 0.192,0.096 0.32,0.128 0.128,0.032 0.256,0.032 0.383,0.032 0.32,0 0.575,-0.064 0.767,-0.16 0.192,-0.096 0.32,-0.224 0.383,-0.383 0.096,-0.16 0.128,-0.32 0.16,-0.447 0.032,-0.127 0.032,-0.288 0.032,-0.383 v -0.607 c -0.064,0 -0.16,0.064 -0.256,0.096 z"
     fill="#f58536"
     id="path487" />
  <path
     d="m 24.236,17.364 -1.896,0.948 v 21.067 l 1.896,0.93 3.334,-11.445 z"
     fill="#9d5125"
     id="path489" />
  <path
     d="m 24.236,17.392 v 22.927 l 3.666,-0.858 v -21.2 z"
     fill="#f58534"
     id="path491" />
  <path
     d="m 29.297,42.858 -2.8,-1.395 V 16.247 l 2.8,-1.395 3.47,14.02 z"
     fill="#9d5125"
     id="path493" />
  <path
     d="M 29.297,42.804 V 14.852 l 5.687,1.824 v 24.322 z"
     fill="#f58534"
     id="path495" />
  <path
     d="m 50.203,19.77 v 17.437 l -2.3,-0.125 V 19.77 Z"
     fill="#9d5125"
     id="path497" />
  <path
     d="m 50.275,22.006 -2.307,0.322 -8.888,-2.307 2.557,-1.323 8.388,1.073 z"
     fill="#6b3b19"
     id="path499" />
  <path
     d="m 41.71,39.014 8.638,-3.3 -2.307,-0.322 -8.888,2.307 z"
     fill="#fcbf92"
     id="path501" />
  <g
     fill="#9d5125"
     id="g507"
     transform="translate(-5.33,-12.036)">
    <path
       d="M 49.703,46.632 V 35.15 l -4.578,0.608 v 10.265 z"
       id="path503" />
    <path
       d="m 42.55,22.936 -4.453,2.218 V 56.63 l 4.453,2.218 3.8,-17.973 z"
       id="path505" />
  </g>
  <path
     d="m 50.203,35.74 -8.53,2.557 V 19.412 l 8.53,2.557 z M 37.22,10.9 V 46.83 L 52.1,39.39 V 18.34 Z m 7.153,23.732 4.74,-5.76 -4.74,-5.76 z"
     fill="#f58534"
     id="path509" />
</svg>
