<?xml version="1.0" encoding="UTF-8" standalone="no"?>
<!-- Created with Inkscape (http://www.inkscape.org/) -->

<svg
   width="82.847656mm"
   height="82.847656mm"
   viewBox="0 0 82.847656 82.847656"
   version="1.1"
   id="svg927"
   inkscape:version="1.1.1 (c3084ef, 2021-09-22)"
   sodipodi:docname="favicon.svg"
   xmlns:inkscape="http://www.inkscape.org/namespaces/inkscape"
   xmlns:sodipodi="http://sodipodi.sourceforge.net/DTD/sodipodi-0.dtd"
   xmlns="http://www.w3.org/2000/svg"
   xmlns:svg="http://www.w3.org/2000/svg">
  <sodipodi:namedview
     id="namedview929"
     pagecolor="#ffffff"
     bordercolor="#999999"
     borderopacity="1"
     inkscape:pageshadow="0"
     inkscape:pageopacity="0"
     inkscape:pagecheckerboard="0"
     inkscape:document-units="mm"
     showgrid="false"
     fit-margin-top="0"
     fit-margin-left="0"
     fit-margin-right="0"
     fit-margin-bottom="0"
     inkscape:zoom="0.60756173"
     inkscape:cx="-51.023622"
     inkscape:cy="277.33807"
     inkscape:window-width="1792"
     inkscape:window-height="1067"
     inkscape:window-x="0"
     inkscape:window-y="25"
     inkscape:window-maximized="1"
     inkscape:current-layer="layer1" />
  <defs
     id="defs924" />
  <g
     inkscape:label="Layer 1"
     inkscape:groupmode="layer"
     id="layer1"
     transform="translate(-118.51206,-75.285846)">
    <path
       d="m 141.85173,132.38455 q 0.1602,-0.37379 -0.1068,-0.2136 0,0 0,0.2136 z m -1.38837,3.89812 q -0.1068,0.64079 -0.1068,0.69419 0,0.21359 0.0534,0.21359 0.1602,0 0.2136,-0.32039 0,0.1068 0.0534,-0.26699 0.0534,-0.1602 0.0534,-0.2136 0.0534,-0.53399 -0.0534,-0.58739 -0.1068,0.2136 -0.1068,0.2136 -0.0534,0.0534 -0.1068,0.26699 z m 36.04427,-49.981397 q 0.64079,-0.694186 1.76217,-1.174776 1.06798,-0.480591 3.31073,-1.708766 0.48059,-0.266995 0.69419,-0.266995 0.69419,-0.0534 2.18935,-0.854382 1.06798,-0.53399 1.17478,-0.587389 0.58739,-0.320393 1.22818,-0.266994 0.10679,0 0.26699,0.0534 0.1602,0.0534 0.2136,0.0534 0.58738,0.0534 1.12138,0.694186 0.42719,0.48059 1.06797,0.266994 0.1068,-0.0534 0.48059,-0.0534 0.1602,-0.0534 0.267,0.160197 0.1068,0.213596 0,0.373793 -0.267,0.373792 -1.86896,2.883542 -0.3738,0.533989 0.21359,0.48059 0.90778,-0.106798 1.44177,0.0534 0.48059,0.160197 0.1602,0.587388 -1.70877,2.189356 -2.45635,3.150537 -0.48059,0.587388 -0.69419,1.121377 v 0 q 0.64079,-0.373792 0.64079,-0.427191 0.74758,-0.427192 1.06798,0.0534 0,0.0534 0.26699,0.373792 -0.32039,1.334973 -1.65536,2.296154 -0.4272,0.373792 -1.17478,0.907782 -0.90778,0.694186 -1.17478,0.854382 -1.97576,1.49517 -3.20393,1.762165 -0.1068,0.0534 -0.90778,0.533989 -0.64079,0.373793 -1.86897,1.067979 -1.22817,0.747585 -1.81556,1.121377 -0.48059,0.266996 -1.17478,0.373796 v 0.0534 q -0.37379,-0.373796 -0.85438,-0.1068 -0.1602,0.1068 -0.32039,0.267 -0.2136,0.0534 -0.3738,0.26699 l -0.10679,0.1068 q -0.74759,0.2136 -1.01458,0.42719 l -0.0534,0.0534 q -2.18936,0.80099 -3.79133,1.86896 -1.54857,1.01458 -4.21851,2.66995 -3.20394,1.92236 -4.21852,2.61655 0.1068,-0.1068 -1.38837,0.74758 -5.55349,3.15054 -6.99526,3.95152 -0.48059,0.267 -1.60197,1.06798 -0.69418,0.48059 -0.53399,1.38837 0.1602,0.53399 0.53399,1.01458 0.1068,0.1068 1.33498,1.49517 l 0.0534,0.0534 q 1.76216,2.24276 1.97576,2.45635 0.37379,0.3204 0.48059,0.80099 0.16019,0.74758 0.53399,1.22817 2.88354,3.47093 5.50009,9.23802 0,0.0534 0.32039,0.58739 l 0.1068,0.16019 q 0.21359,0.1602 0.48059,-0.0534 h -0.0534 q 0.58739,0.37379 0.74758,0.85438 1.28158,3.25734 1.44177,3.89813 0.1602,0.90778 0.58739,1.76217 0.1602,0.42719 1.06798,3.09713 0.1602,0.4272 0.0534,0.90779 -0.1068,0.48059 0,0.74758 0.0534,0.42719 0.53399,1.76217 0.74758,2.40295 0.85438,2.66994 0.3738,0.96118 0.0534,2.88354 -0.53399,0.64079 0.0534,1.54857 0.3204,0.48059 -0.48059,0.58739 h -0.26699 q -1.06798,0.1602 -0.85439,1.12138 0.0534,0.26699 0.2136,0.80098 0.1602,0.48059 0.2136,0.80099 0.0534,0.21359 -0.2136,0.42719 -0.2136,0.16019 -0.48059,0.1068 -0.26699,-0.1602 -0.37379,-0.267 -0.267,-0.48059 -0.64079,-1.17478 -0.26699,-0.53398 -0.90778,-1.01458 -0.42719,-0.32039 -0.90778,0 -1.06798,0.69419 -2.29616,-0.10679 -0.42719,-0.267 -0.64078,-0.64079 -0.53399,-0.85438 -1.81557,-0.90778 0,0 -0.21359,0 -0.3738,-0.1068 -0.80099,-0.48059 -0.16019,-0.1602 -0.26699,-0.37379 -2.40295,-3.95153 -2.83014,-4.69911 -0.58739,-1.01458 -1.17478,-2.45635 -0.267,-0.74759 -1.54857,-3.73793 -0.96118,-2.29615 -1.49517,-3.79133 0.1602,0.3738 -0.90778,-2.08255 -0.2136,-0.48059 -0.74759,-1.33498 -0.48059,-0.80098 -0.69418,-1.28157 -0.1602,-0.37379 -1.33498,-2.66995 -0.21359,-0.37379 -0.48059,-0.48059 -0.32039,-0.1068 -0.42719,0.1602 -0.69418,1.28157 -1.17477,2.88354 -0.42719,1.17478 -1.01458,2.13596 -0.3204,0.48059 -0.48059,0.90778 -0.85439,2.93694 -0.69419,2.45635 -0.64079,1.54857 -0.90778,2.45635 -0.1602,0.53399 -0.48059,0.90778 -0.1068,0.0534 -0.267,0.0534 -0.10679,0.0534 -0.16019,-0.0534 -0.1068,-0.1068 -0.1068,-0.2136 0,-0.10679 0,-0.37379 0,-0.26699 0,-0.37379 0,-0.0534 -0.1068,-0.1602 -0.0534,-0.1068 -0.1068,0.0534 -1.38837,3.79132 -1.76216,6.19428 -0.2136,1.33497 -0.80098,2.40295 -0.267,0.4806 -1.54857,3.36413 -0.1068,0.2136 -0.3204,0.58739 -0.21359,0.37379 -0.26699,0.58739 -0.3204,0.69418 -0.42719,0.96118 -0.1068,0.58739 -0.58739,1.70876 -0.48059,1.12138 -0.58739,1.65537 -0.0534,0.16021 -0.48059,0.64079 -0.1602,0.21359 -0.48059,0.16019 -0.26699,-0.0534 -0.37379,-0.26699 -0.3738,-1.17478 -0.1602,-2.61655 0.1068,-1.06798 -0.2136,-3.36413 0,-0.0534 -0.16019,-0.42719 0,-0.2136 0.16019,-1.06798 0.1068,-0.64079 0.1068,-1.06798 -0.0534,-0.1602 -0.16019,-0.1068 -0.1068,0.1602 -0.1602,0.2136 -0.37379,1.49517 0.0534,2.02916 -0.2136,0.1068 -0.2136,0.1068 -0.53399,0.26699 -0.90778,-0.0534 -0.64079,-0.64079 -0.58739,-1.49517 0.1068,-1.06798 0.267,-2.18936 0.58739,-3.84472 0.53399,-4.6991 0,-0.267 0.16019,-1.22818 0.42719,-2.45635 0.74759,-4.48551 0.16019,-0.90778 0.32039,-1.22817 0.267,-0.74759 0.96118,-3.73793 0.64079,-3.15053 1.12138,-4.43211 0.2136,-0.42719 0.58739,-2.24275 0.48059,-2.40295 0.90778,-3.41753 0.26699,-0.69419 0.32039,-1.22818 0.1602,-0.74758 0.53399,-1.86896 0.48059,-1.44177 0.58739,-1.86896 0.85438,-3.20394 1.06798,-3.68453 0.21359,-0.48059 0.26699,-0.96118 0.2136,-1.92236 0.90779,-3.73793 -0.0534,0.267 0.10679,-0.69418 0.0534,-0.58739 0.1602,-0.74759 0.48059,-0.90778 0.80098,-2.45635 0.53399,-2.66994 1.01458,-3.95152 0.1068,-0.26699 0.267,-1.228176 0.1068,-0.640787 0.32039,-0.961181 0.64079,-0.907781 0.74759,-2.402951 0,-0.160197 -0.0534,-0.373793 0,-0.266994 0,-0.373792 -0.0534,-1.174777 0.37379,-2.189356 0.1602,-0.373793 0.58739,-1.441771 0.37379,-0.961181 0.64079,-1.49517 0.53398,-1.174776 1.60196,-4.111717 0.48059,-1.281575 0.80099,-1.601968 0.90778,-2.135957 1.01458,-2.402952 0.10679,-0.320393 0.32039,-1.014579 0.32039,-1.334974 1.86896,-3.150537 0.37379,-0.48059 1.70877,-1.708766 0.21359,-0.213595 0.48059,-0.106798 0.1602,0.0534 0.74758,0.427192 0.53399,0.320393 1.17478,-0.106798 0.42719,-0.213596 0.53399,-0.587388 0,-0.106798 0,-0.266995 0.0534,-0.160197 0.0534,-0.213595 0.1602,-0.640788 0.42719,-0.53399 0.32039,0.106798 0.37379,0.53399 0.0534,0.213595 0,0.48059 0,0.48059 0.58739,0.587388 0.267,0 0.2136,0.320394 -0.0534,1.334973 0.26699,1.868962 0.1602,0.213596 0.42719,0.160197 l 0.267,-0.106798 q 1.06798,-0.160197 1.17477,0.800984 0.267,1.97576 -0.16019,3.898121 -0.58739,2.99034 -1.12138,4.48551 -0.69419,1.868963 -0.64079,3.684526 0,0.800984 -0.16019,2.082558 -0.1602,1.655367 -0.1602,2.082558 -0.0534,0.373793 -0.26699,1.01458 -0.3204,1.014579 -0.69419,1.922361 -0.74759,1.92236 -0.85438,2.45635 -0.0534,0.1068 0.10679,0.2136 0.1068,0.0534 0.2136,0.0534 0.32039,-0.1068 0.48059,-0.2136 5.0729,-3.364132 5.76708,-3.898121 0.3738,-0.320393 2.93694,-1.97576 3.04374,-1.922361 3.95153,-2.776744 0.37379,-0.213596 1.33497,-0.961181 0.80098,-0.587388 1.33497,-0.854383 0.1068,-0.0534 0.90778,-0.587388 2.08256,-1.548569 4.05832,-2.723345 0.0534,-0.0534 1.54857,-1.01458 l 0.0534,-0.106798 q 0.1068,-0.106797 0.1068,-0.106797 0,-0.0534 -0.0534,-0.320394 z"
       style="font-weight:bold;font-size:109.361px;line-height:1.25;font-family:Okami;-inkscape-font-specification:'Okami Bold';fill:#bb3321;stroke-width:0.264583"
       id="path5431" />
  </g>
</svg>
