<svg width="82" height="22" viewBox="0 0 82 22" fill="none" xmlns="http://www.w3.org/2000/svg">
  <path d="M0 17.1071V3.43136C0 1.54971 1.52586 0.0217729 3.41647 0L17.9571 0.00100283C19.7059 0.047235 21.131 1.38238 21.3032 3.08427V4.55575C20.3997 5.15373 19.8563 5.48202 19.302 5.81686C18.5517 6.27014 17.7814 6.73548 16.071 7.89818C15.5267 8.26989 14.6024 9.17933 14.2697 9.75231C13.6535 10.819 13.0003 11.842 12.3102 12.8215C11.4169 14.0967 9.79756 14.752 8.19298 14.7314C7.13903 14.7177 6.10727 14.726 5.09769 14.7564C4.12351 14.7983 3.17921 15.1031 2.3662 15.6379C1.58388 16.1389 0.795636 16.6296 0 17.1071Z" fill="#00CCFF"/>
  <path d="M21.3032 6.03979V18.0768C21.1279 19.809 19.6547 21.1613 17.8633 21.1613H3.45741C1.83116 21.1613 0.467146 20.0469 0.0982925 18.5455C0.264638 18.4782 0.433006 18.4104 0.602438 18.3423C1.25641 18.0791 1.92638 17.8095 2.55846 17.5348C2.84161 17.41 3.13376 17.3063 3.43247 17.2248C4.08547 17.0448 4.76622 16.9855 5.44079 17.05C6.61009 17.1734 7.80305 17.3267 9.01967 17.5098C10.6464 17.7567 12.3856 16.8737 13.4563 15.763C13.9399 15.262 14.4131 14.2144 14.876 13.1522C15.0106 12.8275 15.228 12.3192 15.4898 11.7682C15.577 11.5801 15.6643 11.3994 15.75 11.2319C16.1316 10.4738 16.5634 9.72601 16.9494 9.35724C17.9018 8.40961 21.3032 6.03979 21.3032 6.03979Z" fill="#00CCFF"/>
  <path d="M70.3167 20.4255C71.5226 20.916 72.8867 21.1613 74.4089 21.1613C75.9706 21.1613 77.3247 20.8768 78.4713 20.3078C79.6179 19.7388 80.4877 18.9735 81.0808 18.0121C81.6936 17.0507 82 15.9813 82 14.8041C82 13.5679 81.6936 12.5575 81.0808 11.7726C80.4679 10.9878 79.7365 10.3893 78.8864 9.9773C78.0562 9.56526 76.9689 9.13359 75.6246 8.68231C74.2804 8.25065 73.2919 7.84842 72.6593 7.47562C72.0267 7.10282 71.7104 6.58286 71.7104 5.91574C71.7104 5.30749 71.8982 4.8464 72.2738 4.53246C72.6494 4.1989 73.1437 4.03212 73.7565 4.03212C74.4682 4.03212 75.0513 4.22833 75.506 4.62075C75.9607 4.99355 76.2078 5.51351 76.2473 6.18063H81.7331C81.6343 4.23814 80.8831 2.72732 79.4795 1.64817C78.0759 0.549388 76.2276 0 73.9344 0C71.6808 0 69.8522 0.549388 68.4486 1.64817C67.045 2.72732 66.3432 4.22833 66.3432 6.1512C66.3432 7.44618 66.6497 8.49591 67.2625 9.30037C67.8753 10.1048 68.6068 10.7131 69.4568 11.1251C70.3069 11.5372 71.404 11.9492 72.7483 12.3613C73.6774 12.6359 74.3891 12.8812 74.8833 13.097C75.3973 13.3129 75.8223 13.5876 76.1584 13.9211C76.5142 14.2547 76.6921 14.6765 76.6921 15.1867C76.6921 15.7949 76.4747 16.2757 76.0398 16.6288C75.6049 16.9624 75.0118 17.1292 74.2606 17.1292C73.5291 17.1292 72.9361 16.933 72.4814 16.5405C72.0267 16.1285 71.7599 15.5399 71.6808 14.7746H66.2839C66.3235 16.1285 66.6991 17.2861 67.4108 18.2476C68.1422 19.209 69.1109 19.935 70.3167 20.4255Z" fill="#00CCFF"/>
  <path d="M29.2984 10.5954C29.2984 8.55477 29.7432 6.73983 30.6328 5.15052C31.5224 3.5416 32.7579 2.29566 34.3394 1.41271C35.9407 0.510146 37.7495 0.0588624 39.7659 0.0588624C42.237 0.0588624 44.3522 0.706357 46.1116 2.00134C47.871 3.29633 49.0473 5.06223 49.6403 7.29903H44.0656C43.6504 6.4357 43.0574 5.7784 42.2864 5.32711C41.5352 4.87583 40.6752 4.65019 39.7066 4.65019C38.1449 4.65019 36.8797 5.18976 35.911 6.26892C34.9423 7.34808 34.458 8.79022 34.458 10.5954C34.458 12.4005 34.9423 13.8426 35.911 14.9218C36.8797 16.001 38.1449 16.5405 39.7066 16.5405C40.6752 16.5405 41.5352 16.3149 42.2864 15.8636C43.0574 15.4123 43.6504 14.755 44.0656 13.8917H49.6403C49.0473 16.1285 47.871 17.8944 46.1116 19.1894C44.3522 20.4647 42.237 21.1024 39.7659 21.1024C37.7495 21.1024 35.9407 20.661 34.3394 19.778C32.7579 18.8754 31.5224 17.6295 30.6328 16.0402C29.7432 14.4509 29.2984 12.6359 29.2984 10.5954Z" fill="#00CCFF"/>
  <path d="M57.8162 17.0703H64.4584V20.9553H52.7455V0.294315H57.8162V17.0703Z" fill="#00CCFF"/>
</svg>